<svg xmlns="http://www.w3.org/2000/svg" viewBox="0 0 37.11 8.34"><defs><style>.cls-1{opacity:0.5;}.cls-2{font-size:5px;font-family:Inter-Medium, Inter;font-weight:500;}.cls-2,.cls-5{fill:#fff;}.cls-3{letter-spacing:0em;}.cls-4{letter-spacing:0em;}.cls-5{stroke:#fff;stroke-miterlimit:10;stroke-width:0.23px;}</style></defs><g id="_Layer_2" data-name="&lt;Layer&gt;"><text class="cls-2" transform="translate(10.59 5.64)">picku<tspan class="cls-3" x="12.92" y="0">r</tspan><tspan class="cls-4" x="14.82" y="0">apps</tspan></text><g id="Layer_2" data-name="Layer 2"><g id="Layer_1-2" data-name="Layer 1-2"><path class="cls-5" d="M6.66,24a.67.67,0,0,1-.36-.51.71.71,0,0,1,.37-.76l1.76-1,2.5-1.44a2.36,2.36,0,0,1,3.27.93c.18.3.33.62.49.93A2.61,2.61,0,0,1,15,23.4a2.16,2.16,0,0,1-.16.7,16.45,16.45,0,0,1-1,1.84c-.32.58-.66,1.15-1,1.72a.7.7,0,0,1-.74.39.73.73,0,0,1-.58-.62.75.75,0,0,1,.11-.46l.67-1.16A1,1,0,0,0,12,24.45a1,1,0,0,0-1.41.6,1,1,0,0,0,.09.75c.22.39.44.79.64,1.19a.69.69,0,0,1,0,.74.67.67,0,0,1-1.14,0c-.27-.48-.53-1-.76-1.48a3,3,0,0,1-.16-.67.45.45,0,0,1,0-.11l-.42.24c-.54.31-1.08.61-1.62.93a.7.7,0,0,1-1-.42.72.72,0,0,1,.25-.76,1.76,1.76,0,0,1-.27-.34.71.71,0,0,1,.26-.92Zm5.42-3.73-.33,0a2.32,2.32,0,0,0-.76.32L7.84,22.4l-1,.61a.38.38,0,0,0-.15.51.35.35,0,0,0,.52.17l.1-.05,2.62-1.51c.1-.06.2-.05.24,0a.18.18,0,0,1-.09.24c-.68.38-1.36.78-2,1.17l-1.46.84a.39.39,0,0,0-.16.55.37.37,0,0,0,.53.13l1.59-.91,1.9-1.1a.18.18,0,0,1,.25,0c.06.08,0,.17-.08.24h0a2,2,0,0,0-.79.86,2.07,2.07,0,0,0-.26,1.29,4,4,0,0,0,.14.57,5.36,5.36,0,0,0,.26.54l.46.86a.37.37,0,0,0,.38.21.38.38,0,0,0,.32-.29.51.51,0,0,0,0-.32c-.21-.39-.43-.78-.63-1.17a1.33,1.33,0,0,1-.12-1,1.28,1.28,0,0,1,1.83-.82A1.33,1.33,0,0,1,12.56,26l-.65,1.12a.37.37,0,0,0,0,.39.35.35,0,0,0,.58.14.83.83,0,0,0,.11-.15L14,25.06c.18-.31.37-.62.52-.95a2.11,2.11,0,0,0,.19-.65,1.71,1.71,0,0,0-.16-.95c-.22-.45-.44-.91-.7-1.33A2,2,0,0,0,12.08,20.25ZM9.51,24,9.4,24l-1.25.71c-.5.3-1,.59-1.52.88a.41.41,0,0,0-.24.39.38.38,0,0,0,.56.32l.19-.11,2-1.13a.1.1,0,0,0,0-.07c.07-.24.13-.49.2-.73A2.22,2.22,0,0,1,9.51,24Z" transform="translate(-5.89 -19.83)"/></g></g></g></svg>