<svg xmlns="http://www.w3.org/2000/svg" viewBox="0 0 512 298.7"><defs><style>.cls-1{fill:#bd1f34;}.cls-2{fill:#010101;}.cls-3{fill:#f1d631;}</style></defs><g id="Layer_2" data-name="Layer 2"><g id="Layer_1-2" data-name="Layer 1"><rect class="cls-1" width="512" height="298.7"/><rect class="cls-2" y="149.3" width="512" height="149.3"/><polygon class="cls-3" points="233.2 144.2 249 132.7 264.8 144.2 258.7 125.6 274.5 114.1 255 114.1 249 95.5 242.9 114.1 223.4 114.1 239.2 125.6 233.2 144.2"/><path class="cls-3" d="M333.2,235.8c-2.3-3.8-5.2-6.5-8.9-9.8s-8.9-7-12.7-10.6l-7.3,8.5c-.3.4-.2,1.2.2,1.3,8.1,1.4,10.7,4.3,14,7.1,4.4,4.4,6.2,9.8,9,11.8,5.3,3.5,9.1-2.8,5.7-8.3m-19.1-13.5a1,1,0,0,1-1-1,1.08,1.08,0,0,1,1-1,.94.94,0,0,1,1,1,1.08,1.08,0,0,1-1,1m7.4,6.4a.94.94,0,0,1-1-1,1,1,0,1,1,1,1m6.5,6.6a1,1,0,0,1-1-1,.94.94,0,0,1,1-1,1,1,0,0,1,1,1,1.17,1.17,0,0,1-1,1"/><path class="cls-3" d="M267.9,204.4a59.16,59.16,0,0,1-19,3.2,58.24,58.24,0,0,1-36.8-13.4l-8.5,10.4a75.91,75.91,0,0,0,11.6,7.8l-2.9,5.5a72.15,72.15,0,0,0,14.1,5.8l1.7-5.8a68.91,68.91,0,0,0,13.8,2.8l-.6,5.9a77.2,77.2,0,0,0,15.2,0l-.6-5.9a76.62,76.62,0,0,0,13.8-2.7l1.7,5.7c2.4-.7,4.8-1.6,7.1-2.5L275.3,209Z"/><path class="cls-3" d="M307.2,149.3a57.92,57.92,0,0,1-20.6,44.4L303,205a74.45,74.45,0,0,0,6-6.6l-4.6-3.8a66.2,66.2,0,0,0,7.8-11.7l5.2,2.8a72.15,72.15,0,0,0,5.8-14.1l-5.7-1.7a68.82,68.82,0,0,0,2.7-13.8l5.9.6a77.2,77.2,0,0,0,0-15.2l-5.9.6a70.36,70.36,0,0,0-2.8-13.8l5.7-1.7a78.89,78.89,0,0,0-5.8-14.1l-5.3,2.9a69.83,69.83,0,0,0-7.9-11.6l4.8-3.9a78.73,78.73,0,0,0-10.8-10.8l-3.9,4.8a71.67,71.67,0,0,0-11.7-7.7l3-5.6a78.89,78.89,0,0,0-14.1-5.8l-1.8,6.1a72.92,72.92,0,0,0-13.3-2.7l-1.4,13.3c29.4,3.3,52.3,27.8,52.3,57.8"/><path class="cls-3" d="M284.5,201.6c-15.4-10.8-31.3-22-44.6-34.6a.3.3,0,0,1,0-.4.45.45,0,0,1,.5,0c13.3,12.6,29.2,23.7,44.6,34.6,7.6,5.4,15.4,10.9,22.8,16.5l2.3-2.7c-25.6-18.3-86.1-60.3-86.9-75.6-12,23.3,3.2,37.3,13,42.8,24.8,14.1,41.3,23.4,67.2,40.7l3.9-4.6c-7.4-5.9-15.2-11.4-22.8-16.7"/></g></g></svg>