<svg xmlns="http://www.w3.org/2000/svg" viewBox="0 0 512 298.7"><defs><style>.cls-1{fill:#010101;}.cls-2{fill:#fff;}.cls-3{fill:#bd1f34;}.cls-4{fill:#f0c726;}.cls-5{fill:#f4d135;}.cls-6{fill:none;}</style></defs><g id="Layer_2" data-name="Layer 2"><g id="Layer_1-2" data-name="Layer 1"><rect class="cls-1" x="0.5" y="199.3" width="511" height="99.4"/><rect class="cls-2" x="0.5" y="99.9" width="511" height="99.4"/><rect class="cls-3" x="0.5" y="0.5" width="511" height="99.4"/><path class="cls-3" d="M512,100.4H0V0H512V100.4ZM1,99.4H511V1.1H1V99.4Z"/><path class="cls-2" d="M253.2,196.7c9.8,0,19.1-.8,24.6-2.3,2.3-.4,2.3-1.6,2.3-3.2,2.3-.8,1.1-3.5,2.7-3.5-1.6.4-2-2.7-3.9-2.3,0-2.7-2.7-3.1-5.1-2.3-4.6,1.5-12.9,1.9-20.7,1.9-7.8-.4-15.9-.4-20.7-1.9-2.3-.8-5.1-.4-5.1,2.3-2-.4-2.3,2.7-3.9,2.3,1.6,0,.4,2.7,2.7,3.5,0,1.5,0,2.7,2.4,3.2,5.6,1.5,14.9,2.3,24.7,2.3Z"/><path class="cls-4" d="M253.2,197.7c-10.5,0-19.5-.9-24.8-2.4-2.7-.5-3-2-3.1-3.5a3.43,3.43,0,0,1-1.6-2.6,1.42,1.42,0,0,0-.2-.6h-.2a.92.92,0,0,1-.7-1.1,1,1,0,0,1,1-.8.1.1,0,0,1,.1.1h.1c.2,0,.6-.5.8-.7a3.85,3.85,0,0,1,2.1-1.6c.5-2.3,3.3-3.3,6.2-2.3,3.7,1.2,9.8,1.5,16.2,1.7l4.2.2c9.9,0,16.6-.6,20.3-1.9,3-1,5.8,0,6.3,2.4a3.64,3.64,0,0,1,2,1.5c.2.2.5.7.7.7h.3a1.08,1.08,0,0,1,1,.8,1,1,0,0,1-.7,1.1h-.3a2.14,2.14,0,0,1-.1.6,4.15,4.15,0,0,1-1.6,2.6c0,1.4-.4,3-3.1,3.5-5.4,1.4-14.5,2.3-24.9,2.3Zm-27.9-9.6a1.85,1.85,0,0,1,.2.7c.2.8.3,1.3,1,1.5a1,1,0,0,1,.7.9c0,1.5,0,1.9,1.6,2.2,5.1,1.5,14.2,2.3,24.4,2.3s19.3-.9,24.3-2.3c1.6-.3,1.6-.7,1.6-2.2a1,1,0,0,1,.7-.9c.7-.2.8-.7,1-1.5.1-.2.1-.5.2-.7-.3-.3-.5-.6-.7-.8-.4-.6-.7-.9-1-.9a1.34,1.34,0,0,1-.9-.2,1.23,1.23,0,0,1-.4-.8c0-.4,0-1.7-2-1.7a5.66,5.66,0,0,0-1.8.3c-3.9,1.3-10.8,2-21,2l-4.3-.2c-6.5-.2-12.7-.5-16.7-1.8a5.66,5.66,0,0,0-1.8-.3c-2,0-2,1.3-2,1.7a.91.91,0,0,1-.4.8.78.78,0,0,1-.8.2c-.5,0-.8.3-1.2.9-.2.2-.4.5-.7.8Z"/><path class="cls-5" d="M231,186.9c-.8,0-.8.4,0,.4a.2.2,0,1,0,0-.4Z"/><path class="cls-4" d="M231,187.9c-1,0-1.1-.6-1.1-.7,0-.4.7-.7,1.1-.7a1.14,1.14,0,0,1,.8.7c-.1.2-.5.7-.8.7Z"/><path class="cls-5" d="M231,185.4c-.4,0-.4.8,0,.8.7,0,.7-.8,0-.8Z"/><path class="cls-4" d="M231,186.7c-.3,0-.8-.6-.8-.9a1.45,1.45,0,0,1,.8-.9.92.92,0,1,1,0,1.8Z"/><path class="cls-5" d="M231,191.2c-.4,0-.4.8,0,.8s.3-.8,0-.8Z"/><path class="cls-4" d="M231,192.5c-.3,0-.8-.6-.8-.9a1.45,1.45,0,0,1,.8-.9c.3,0,.8.6.8.9s-.5.9-.8.9Z"/><path class="cls-5" d="M232.5,191.6c-.8,0-.8.8,0,.8.4,0,.4-.8,0-.8Z"/><path class="cls-4" d="M232.5,192.9a1,1,0,0,1-1.1-.9c0-.5.6-.9,1.1-.9.3,0,.8.6.8.9a1,1,0,0,1-.8.9Z"/><path class="cls-5" d="M234.1,192c-.3,0-.3.8,0,.8.7,0,.7-.8,0-.8Z"/><path class="cls-4" d="M234.1,193.3c-.3,0-.8-.6-.8-.9s.5-.9.8-.9a.92.92,0,1,1,0,1.8Z"/><path class="cls-5" d="M258.2,188.1c-.4,0-.4.8,0,.8s.4-.8,0-.8Z"/><path class="cls-4" d="M258.2,189.4c-.3,0-.8-.6-.8-.9s.5-.9.8-.9.8.6.8.9-.5.9-.8.9Z"/><path class="cls-5" d="M258.6,189.7c-.8,0-.8.4,0,.4.4-.1.4-.4,0-.4Z"/><path class="cls-6" d="M258.6,189.7c-.8,0-.8.4,0,.4C259,190,259,189.7,258.6,189.7Z"/><path class="cls-5" d="M259.8,193.5c-.4,0-.4.8,0,.8s.4-.8,0-.8Z"/><path class="cls-4" d="M259.8,194.9c-.3,0-.8-.7-.8-.9s.5-.9.8-.9.8.7.8.9-.5.9-.8.9Z"/><path class="cls-5" d="M261.4,193.5c-.8,0-.8.8,0,.8.3.1.3-.8,0-.8Z"/><path class="cls-4" d="M261.4,194.9c-.8,0-1.2-.5-1.2-.9s.4-.9,1.2-.9c.3,0,.8.7.8.9a1,1,0,0,1-.8.9Z"/><path class="cls-5" d="M277.3,190.4c-.8,0-.8.4,0,.4.5.1.5-.4,0-.4Z"/><path class="cls-4" d="M277.3,191.4c-1,0-1.1-.6-1.1-.7,0-.4.7-.7,1.1-.7s.8.4.8.7-.5.7-.8.7Z"/><path class="cls-4" d="M235.2,191.9a2.92,2.92,0,0,1-.9-.2,2.57,2.57,0,0,1-1.2-.5,3,3,0,0,1-1.2-.3c-.4,0-1.1-.6-1.1-1.7a17.93,17.93,0,0,0,.9-3l.3-1a.55.55,0,0,1,.6-.4.62.62,0,0,1,.4.6l-.3,1a11.58,11.58,0,0,1-1,3,1.87,1.87,0,0,0,.3.4,3.09,3.09,0,0,0,.8.2,1.85,1.85,0,0,1,.2-.7c.1-.8.2-1.1.5-1.2a1.63,1.63,0,0,1,.3.6l.3.2a1,1,0,0,1-.1.4v.1a6.21,6.21,0,0,1-.3,1c.1,0,.2.1.7.2.3.1.6.2.7.1s.4-.5.5-1.3l.2.1-.5-.6a.83.83,0,0,1,.8-.3,1.7,1.7,0,0,1,.6,1c-.2.9-.4,1.7-1.1,2.1,0,.1-.2.2-.4.2Z"/><path class="cls-4" d="M232.1,191H232c-1.2-.3-1.9-1-1.9-1.7,0-.4.3-1,1.6-1.3.3,0,.6.1.6.4a.44.44,0,0,1-.4.6c-.7.1-.8.3-.8.3s.4.4,1.1.6a.62.62,0,0,1,.4.6c-.1.3-.3.5-.5.5Z"/><path class="cls-4" d="M243.3,194.1c-.2,0-.6-.1-.7-.3-.1.2-.9,0-.9-1.5a1.9,1.9,0,0,1-.9-.3,4.75,4.75,0,0,1-2.8.3,2.84,2.84,0,0,1-1,.9.54.54,0,1,1-.4-1,1.34,1.34,0,0,0,.7-.6,1.88,1.88,0,0,1-.2-.8,1.07,1.07,0,0,1,0-1.1c.9-.2,1.2.2,1.4.9a1.7,1.7,0,0,1-.1.7,3.06,3.06,0,0,0,1.6-.1,1.38,1.38,0,0,1-.2-1.7,1.57,1.57,0,0,1,1.9-.8,1.54,1.54,0,0,1,.9,1.6,1.71,1.71,0,0,1-.7,1.3,2.09,2.09,0,0,1,.6.4c.3,1.1.4,1.1.5,1.1h0c.2,0,.6-.7.6-1.4v-3.5a.5.5,0,0,1,1,0v3.5a2.9,2.9,0,0,1-1.2,2.5c0-.1,0-.1-.1-.1Z"/><path class="cls-4" d="M245.4,192.9a.47.47,0,0,1-.5-.5,21.51,21.51,0,0,1,.2-2.3,16.83,16.83,0,0,0,.2-2,.5.5,0,0,1,1,0,16.46,16.46,0,0,1-.2,2.1,18.32,18.32,0,0,0-.2,2.1c0,.4-.2.6-.5.6Z"/><path class="cls-4" d="M246.6,195.2a.52.52,0,0,1-.4-.2.48.48,0,0,1,.1-.7,2.85,2.85,0,0,0,1.2-1.5c-.2-.2-.4-.3-.6-.5a1.08,1.08,0,0,1-.1-1.2c.1-.2.5-.3.7-.3a1.41,1.41,0,0,1,1,1.1v.4h.3s.2-.1.2-.8a.6.6,0,0,1-.3-.6c0-.3.4-.8.7-.8s.6.4.7.7h.7a4.38,4.38,0,0,0,2.7.2c.9-.2,1.3.5,1.3,1.6a2.61,2.61,0,0,1-.3.8c-.3.7-.5,1.2-1,1.3a1.74,1.74,0,0,1-1.2-.6c-.1-.5-.1-.6-.8-.6h-3.1a3.75,3.75,0,0,1-1.6,1.9c0-.2-.1-.2-.2-.2Zm3.4-3h1.6c1.4,0,1.6.8,1.6,1.3l.4-.8a2.81,2.81,0,0,0,.1-.8,5,5,0,0,1-3.2-.2H250a.45.45,0,0,1,0,.5Z"/><path class="cls-4" d="M255.9,193.3a.37.37,0,0,1-.3-.1,1.58,1.58,0,0,0-.7,0c-.3,0-.8-.2-.8-.5s0-.5.3-.5v.5l.3-.6c.2,0,.4-.1.6-.1a2.07,2.07,0,0,1,.3-1.1,1.19,1.19,0,0,1,1.3-.2,1.3,1.3,0,0,1,.8,1.2c-.1.9-1.3,1.4-1.8,1.4Z"/><path class="cls-4" d="M259,193.2c-.2,0-.3,0-.4-.1a1.16,1.16,0,0,1-.5-.7,2.05,2.05,0,0,1,1.4-1.1,8.77,8.77,0,0,0-.3-3.1.51.51,0,0,1,1-.2,11,11,0,0,1,.3,3.6,6.89,6.89,0,0,1,.8.3c.4,0,.5-.2.6-.9-.2-.3-.5-.8-.4-1a1,1,0,0,1,.8-.4,1.14,1.14,0,0,1,.7.8v.6c-.1,1.5-.5,2-1.6,2a1.47,1.47,0,0,1-1.3,0l-.1-.1a1.69,1.69,0,0,1-1,.3Z"/><path class="cls-4" d="M263.7,194.5a.76.76,0,0,1-.4-.2.48.48,0,0,1,0-.7,5.08,5.08,0,0,0,.9-1.3,1.59,1.59,0,0,1-1-1.4c0-.2,0-.9.5-1.1s1,.2,1.5.8c.6,1.2-.3,2.9-1.1,3.8-.1,0-.3.1-.4.1Z"/><path class="cls-4" d="M266.4,193.7a.55.55,0,0,1-.5-.3.52.52,0,0,1,.3-.7,1,1,0,0,0,.7-.5c-.8.1-1.1-.3-1.2-.7a1.35,1.35,0,0,1,.8-1.4,2.39,2.39,0,0,1,.9-.2c.4.2.6.6.7,1.3a14.29,14.29,0,0,0,4.7-1.5.44.44,0,0,1,.7.2c.1.2.1.6-.2.7a12.81,12.81,0,0,1-5.3,1.6,2,2,0,0,1-1.4,1.6c0-.1-.1-.1-.2-.1Z"/><path class="cls-4" d="M271.1,192.2a1.27,1.27,0,0,1-.6-.1,5.23,5.23,0,0,1-.7-1.5,1.27,1.27,0,0,0-.1.6.5.5,0,0,1-1,0,2.07,2.07,0,0,1,.8-1.8.37.37,0,0,0-.1-.3l-.4-1.6a.51.51,0,0,1,1-.2l.4,1.6v.2a3.08,3.08,0,0,1,.9.1,1.48,1.48,0,0,1,1,1.3,1.26,1.26,0,0,1-.2,1.4,1.49,1.49,0,0,1-1,.3Z"/><path class="cls-4" d="M274,191.1a1.33,1.33,0,0,1-1.4-.9,1.41,1.41,0,0,1,.1-.9,2.23,2.23,0,0,1,3.1-.4,1.16,1.16,0,0,1-.1,1.4,2.14,2.14,0,0,1-1.7.8Z"/><path class="cls-6" d="M275.4,189.7a5.75,5.75,0,0,0,1.2-.8Z"/><path class="cls-4" d="M277.2,189.8a.85.85,0,0,1-.6-.2c-.9-.5-1.3-1.7-1.3-3.5,0-.4-.1-.6-.3-.7a1.19,1.19,0,0,0-1.1.3.49.49,0,1,1-.7-.7,2.05,2.05,0,0,1,2.2-.5,1.82,1.82,0,0,1,1,1.7c0,1.6.4,2.4.8,2.6a.45.45,0,0,0,.5,0v-.1c.1-.2.7-.8.9-.7a1.6,1.6,0,0,1,.5,1,3.22,3.22,0,0,1-1.9.8Z"/><path class="cls-6" d="M239.5,190h0Z"/><path class="cls-6" d="M242.3,190.4h0Z"/><path class="cls-2" d="M253.6,151.9,287.1,183l-2.4-56.6c-.4-8.6-7.8-6.6-13.2-3.5-5.5,3.5-11.7,3.5-18.3,1.2-6.6,2.3-12.8,2.3-18.3-1.2-5.4-3.1-12.9-5.1-13.2,3.5L219.3,183Z"/><path class="cls-4" d="M219.2,183.6c-.1,0-.1,0-.2-.1a.55.55,0,0,1-.3-.5l2.4-56.6c.2-5.5,3.3-6.6,5.8-6.6,3,0,6.5,1.7,8.2,2.7,5,3.2,11,3.6,17.9,1.2,7.7,2.4,13.3,2.1,18.2-1.1,1.8-1,5.2-2.7,8.2-2.7,2.5,0,5.5,1.2,5.8,6.6l2.4,56.6a.55.55,0,0,1-.3.5.47.47,0,0,1-.6-.1l-33.2-30.8-34,30.8a.44.44,0,0,1-.3.1Zm7.7-62.7c-3,0-4.6,1.9-4.7,5.7l-2.3,55.3,33.4-30.3a.48.48,0,0,1,.7,0l32.6,30.3-2.3-55.3c-.3-6.4-5.3-7.2-12.4-3.1-5.2,3.3-11.6,3.8-18.8,1.2-6.4,2.5-13.2,2.1-18.4-1.2a17.31,17.31,0,0,0-7.8-2.6Z"/><path class="cls-2" d="M258.6,126.1a9.79,9.79,0,0,0,5.1,1.1c-3.9-2.7-5.1-10.1-4.7-13.2.8-6.3-.8-9.8-4.6-10.5a23.35,23.35,0,0,0-2.7-.4c-1.2-.3-2.1.8-2.5,1.5-1.2-.8-2.2-.4-3.3-1.1-1.2-.4-3.2,0-3.2,2.7l.8-.3a7.28,7.28,0,0,1,1.8.9c1,.8,2.5,1.4,2.9,4.1.8,5.8,0,11.3-5.5,16.4a9.79,9.79,0,0,0,5.1-1.1,15.51,15.51,0,0,1-1.9,2.3c2.3-.4,4.3-1.2,5.4-3.1.4.8,1.5,1.9,2,2.7.4-.8,1.5-1.9,2-2.7,1.1,1.9,3.1,2.7,5.4,3.1a10,10,0,0,1-2.1-2.4Z"/><path class="cls-4" d="M244.3,129.2l1.1-1.1a5,5,0,0,0,.7-.8,12.68,12.68,0,0,1-3.6.4h-1.2l.9-.8c4.6-4.3,6.2-9.1,5.3-15.9a4.47,4.47,0,0,0-2.2-3.4l-.6-.4c-.8-.4-1.3-.7-1.6-.8l-1.2.6v-.7c0-3.1,2.3-3.8,3.8-3.2a2.52,2.52,0,0,0,1.6.5,4.29,4.29,0,0,1,1.4.4,2.88,2.88,0,0,1,2.2-1.4,14.26,14.26,0,0,1,2.4.3,2.2,2.2,0,0,0,.8.1c4.2.8,5.9,4.6,5.1,11.1-.4,3.2.8,10.2,4.5,12.7l1.3.9h-1.5a12.68,12.68,0,0,1-3.6-.4,5,5,0,0,0,.7.8l1.1,1.1-1.5-.3a8,8,0,0,1-5.3-2.7,5.55,5.55,0,0,0-.6.8,5.08,5.08,0,0,0-.9,1.3l-.4.8-.4-.8c-.2-.4-.6-.8-.9-1.3-.2-.3-.4-.5-.6-.8a8,8,0,0,1-5.3,2.7l-1.5.3Zm10.8-4.8.4.7a5.51,5.51,0,0,0,3.6,2.5c-.3-.3-.5-.7-.9-1.2l.6-.7a8.12,8.12,0,0,0,3.4,1c-3.3-3.3-4.2-9.8-3.8-12.7.7-6-.6-9.3-4.2-10-.3.2-.6-.1-.9-.2a6.82,6.82,0,0,0-1.8-.2,2.44,2.44,0,0,0-2,1.3l-.3.5-.4-.3a4.42,4.42,0,0,0-1.5-.5,4.26,4.26,0,0,1-1.8-.6c-.3-.1-1.9-.6-2.3,1.6h0a3.7,3.7,0,0,1,1.9.7l.9.6a5.23,5.23,0,0,1,2.6,4c.6,4.6.6,10.4-4.7,15.9a9.37,9.37,0,0,0,3.6-1l.6.7c-.4.5-.6.9-.9,1.2a5.51,5.51,0,0,0,3.6-2.5l.4-.7.4.8c.2.4.6.8.9,1.3.2.3.4.5.6.8a5.55,5.55,0,0,0,.6-.8,5.08,5.08,0,0,0,.9-1.3l.5-.9Z"/><path class="cls-4" d="M258.9,127a.55.55,0,0,1-.5-.3,17.15,17.15,0,0,1-2.3-8,.5.5,0,0,1,1,0,16.48,16.48,0,0,0,2.1,7.6.57.57,0,0,1-.2.7Z"/><path class="cls-4" d="M255.1,125.9a.52.52,0,0,1-.4-.2c-.8-1.3-1.3-3.7-1.3-7a.5.5,0,0,1,1,0c0,3,.4,5.3,1.1,6.4a.44.44,0,0,1-.2.7c0,.1-.1.1-.2.1Z"/><path class="cls-4" d="M247.4,127c-.1,0-.2,0-.2-.1a.43.43,0,0,1-.2-.7,15.49,15.49,0,0,0,2.1-7.6.5.5,0,0,1,1,0,15.75,15.75,0,0,1-2.3,8,.37.37,0,0,1-.4.4Z"/><path class="cls-4" d="M251.2,125.9a.37.37,0,0,1-.3-.1.66.66,0,0,1-.2-.7c.7-1.1,1.1-3.4,1.1-6.4a.5.5,0,0,1,1,0c0,3.2-.4,5.6-1.3,7,0,.1-.1.2-.3.2Z"/><path class="cls-4" d="M242.9,105.9a5.66,5.66,0,0,1,2.3.9,5.06,5.06,0,0,1,2.9,3.7c-.4-1.2.4-2.4,1.2-2-1.2-2.7-4.9-3.4-6.4-2.6Z"/><path class="cls-4" d="M248.1,110.8a.22.22,0,0,1-.2-.2h0a4.33,4.33,0,0,1-.1-.5h0a5,5,0,0,0-2.7-3.1l-.4-.5-.1.2a2.93,2.93,0,0,0-1.7-.6,1.41,1.41,0,0,1,1.5-.8,5.92,5.92,0,0,1,5.2,3.1c0,.1-.1.1-.2.2s-.3.1-.4.1h0c-.6.5-.8.9-.7,1.3v.2a.37.37,0,0,1,.1.3q0,.15-.3.3Zm-4.4-4.9a2.6,2.6,0,0,1,1,.4l.6.3a6,6,0,0,1,2.6,2.5c.1-.2.2-.3.3-.5a1.23,1.23,0,0,1,.8-.4c-.9-1.7-3.6-2.6-5.3-2.3Z"/><polygon class="cls-4" points="254.7 158.1 259.4 179.5 257.9 181.1 256.3 179.9 253.6 160.8 254.7 179.9 253.2 181.9 251.6 179.9 252.7 160.8 250.1 179.9 248.5 181.1 246.9 179.5 251.6 158.1 254.7 158.1"/><path class="cls-4" d="M253.2,182.6l-1.9-2.4.5-9.2-1.3,9-1.8,1.5-2.1-1.6,4.6-21.8,3.5-.3,5.1,21.8-1.7,2-2.1-1.3-1.4-9.4.5,9-1.9,2.7Zm0-21.5-1.1,18.8,1.1,1.3,1.2-1.5-1.2-18.6Zm1.1-2.9-2.7.3-4.3,21.1,1.4,1.1,1-1.2,2.5-18.8.9.1.9-.1,2.7,19.1,1.4.9,1-1.5-4.8-21Z"/><path class="cls-4" d="M225.5,124.5l-2.3,55-3.9,3.5,2.4-56.6c1-.7,3-1.9,3.8-1.9Z"/><path class="cls-4" d="M230.2,128.5l-2,46-3.9,4,2.4-53.1c.8.7,3.1,2.6,3.5,3.1Z"/><path class="cls-4" d="M234.5,132,233,170.4l-3.2,3.1,2-43.8c.7.7,2.3,1.9,2.7,2.3Z"/><path class="cls-4" d="M239.1,133.9l-1.5,32.7-3.1,2.5,1.5-36.4a9.93,9.93,0,0,0,3.1,1.2Z"/><path class="cls-4" d="M243.4,133.9l-1.1,27.3-3.2,3.1,1.2-30c.8,0,2.7,0,3.1-.4Z"/><path class="cls-4" d="M280.8,124.5l2.3,55L287,183l-2.4-56.6c-1-.7-3-1.9-3.8-1.9Z"/><path class="cls-4" d="M276.1,128.5l2,46,3.9,3.4-2.4-52.6c-.7.8-3,2.7-3.5,3.2Z"/><path class="cls-4" d="M271.9,132l1.6,38.4,3.1,2.5-2-43.2c-.8.7-2.3,1.9-2.7,2.3Z"/><path class="cls-4" d="M267.2,133.9l1.5,32.1,3.1,2.5-1.5-35.8a9.93,9.93,0,0,1-3.1,1.2Z"/><path class="cls-4" d="M262.9,133.9l1.1,27.3,3.2,3.1-1.2-30c-.8,0-2.7,0-3.1-.4Z"/><polygon class="cls-2" points="242.6 148.7 233.3 181.9 246.1 183.8 251.6 158.9 242.6 148.7"/><path class="cls-4" d="M246.1,184.3h0l-12.9-2c-.1,0-.3-.1-.3-.2a.6.6,0,0,1-.1-.4l9.3-33.2c0-.2.2-.3.4-.3a.75.75,0,0,1,.5.1l9,10.2-5.4,25.4c0,.3-.2.4-.5.4Zm-12.2-2.8,11.9,1.8,5.4-24.5-8.3-9.1-9,31.8Z"/><polygon class="cls-2" points="263.7 148.7 273 181.9 260.2 183.8 254.7 158.9 263.7 148.7"/><path class="cls-4" d="M260.2,184.3a.66.66,0,0,1-.5-.4L254.2,159l9.1-10.6a.44.44,0,0,1,.5-.1c.2,0,.3.2.4.3l9.3,33.2a.6.6,0,0,1-.1.4c-.1.1-.2.2-.3.2l-12.9,1.9Zm3.3-34.6-8.4,9.5,5.5,24.1,11.9-1.8-9-31.8Z"/><path class="cls-4" d="M240.7,163.3h0a.62.62,0,0,1-.5-.3l-1.1-2.7a.54.54,0,1,1,1-.4l.8,2,3-3.3a.49.49,0,1,1,.7.7l-3.5,3.9c-.2,0-.3.1-.4.1Z"/><path class="cls-4" d="M245,165.6h-.1c-.2-.1-.4-.2-.4-.4l-1.2-10.9a.55.55,0,1,1,1.1-.1l1.1,9.6,3.1-4a.5.5,0,0,1,.8.6l-3.9,5.1c-.2,0-.3.1-.5.1Z"/><path class="cls-4" d="M249.6,168.3a.55.55,0,0,1-.5-.3l-2.3-5.8a.54.54,0,0,1,1-.4l2.3,5.8a.52.52,0,0,1-.3.7Z"/><path class="cls-4" d="M246.1,173H246c-.2,0-.3-.2-.4-.3l-1.6-5.1-1.3,2.4c-.1.2-.3.4-.5.3a.55.55,0,0,1-.5-.3l-1.3-3.2-2.9,2.6a.49.49,0,1,1-.7-.7l3.4-3.1a.44.44,0,0,1,.5-.1c.2,0,.3.1.4.3l1.2,2.9,1.4-2.6a.68.68,0,0,1,.5-.3.43.43,0,0,1,.4.4l1.7,5.4,2.5-2.6a.49.49,0,0,1,.7.7l-3.2,3.2c.1.1,0,.1-.2.1Z"/><path class="cls-4" d="M247.3,180.1c-.2,0-.5-.2-.5-.4l-1-4.8-2.4,3.1a.76.76,0,0,1-.5.2c-.2,0-.3-.2-.4-.3l-1.2-3.8-2.1,2.7a.76.76,0,0,1-.5.2c-.2,0-.3-.1-.4-.3l-2.4-5.8a.54.54,0,0,1,1-.4l2.1,5,2.2-2.8a.76.76,0,0,1,.5-.2c.2,0,.3.2.4.3l1.2,3.8,2.5-3.2c.1-.2.3-.2.5-.2s.3.2.4.4l1.2,5.9a.44.44,0,0,1-.4.6Z"/><path class="cls-4" d="M244.2,184.4h-.1a.32.32,0,0,1-.3-.3l-1.2-3.6-1.7,2.9c-.1.2-.3.4-.5.3s-.4-.1-.4-.3l-1.6-4.2-1.8,2.4a.5.5,0,0,1-.8-.6l2.3-3.2c.1-.2.3-.2.5-.2s.3.1.4.3l1.6,4.1,1.8-3a.55.55,0,0,1,.5-.3.43.43,0,0,1,.4.4l1.3,4,1.8-1.5a.48.48,0,0,1,.7.1.43.43,0,0,1-.1.7l-2.4,2c-.2-.1-.3,0-.4,0Z"/><path class="cls-4" d="M265.7,163.3a.76.76,0,0,1-.4-.2l-3.5-3.9a.49.49,0,1,1,.7-.7l3,3.3.8-2a.54.54,0,0,1,1,.4l-1.1,2.7a1,1,0,0,1-.5.4Z"/><path class="cls-4" d="M261.4,165.6a.52.52,0,0,1-.4-.2l-4-5.1a.48.48,0,0,1,.1-.7.49.49,0,0,1,.7.1l3.1,4,1-9.6a.55.55,0,0,1,1.1.1l-1.1,10.9a.43.43,0,0,1-.4.4.1.1,0,0,1-.1.1Z"/><path class="cls-4" d="M256.7,168.3h-.2a.52.52,0,0,1-.3-.7l2.3-5.8a.54.54,0,0,1,1,.4l-2.3,5.8a.55.55,0,0,1-.5.3Z"/><path class="cls-4" d="M260.2,173a.76.76,0,0,1-.4-.2l-3.1-3.2a.49.49,0,1,1,.7-.7l2.4,2.5,1.3-5.3a.43.43,0,0,1,.4-.4.76.76,0,0,1,.5.2l1.8,2.7,1.2-3c.1-.2.2-.3.4-.3a.9.9,0,0,1,.5.1l3.5,3.1a.49.49,0,0,1-.7.7l-3-2.6-1.3,3.2c-.1.2-.2.3-.4.3a.76.76,0,0,1-.5-.2l-1.7-2.5-1.3,5.1c0,.2-.2.3-.4.4.2.1.1.1.1.1Z"/><path class="cls-4" d="M259,180.1h-.1c-.3-.1-.5-.3-.4-.6l1.2-5.9a.43.43,0,0,1,.4-.4.37.37,0,0,1,.5.2l2.5,3.2,1.2-3.8c.1-.2.2-.3.4-.3s.4,0,.5.2l2.2,2.8,2.1-5a.54.54,0,1,1,1,.4l-2.4,5.8c-.1.2-.2.3-.4.3a.76.76,0,0,1-.5-.2l-2.1-2.7-1.2,3.8c-.1.2-.2.3-.4.3a.37.37,0,0,1-.5-.2l-2.4-3-1,4.8a1.14,1.14,0,0,1-.6.3Z"/><path class="cls-4" d="M262.2,184.4a.37.37,0,0,1-.3-.1l-2.4-2a.5.5,0,1,1,.6-.8l1.8,1.5,1.3-4a.78.78,0,0,1,.4-.4.55.55,0,0,1,.5.3l1.8,3,1.6-4.1c.1-.2.2-.3.4-.3s.4,0,.5.2l2.3,3.2a.5.5,0,1,1-.8.6l-1.8-2.4-1.6,4.2c-.1.2-.2.3-.4.3s-.4-.1-.5-.3l-1.7-2.9-1.2,3.6q-.15.3-.3.3a.35.35,0,0,0-.2.1Z"/><path class="cls-2" d="M253.2,129.7A21.54,21.54,0,0,0,268,134c-.4,13.6-4.3,23-14.8,30-10.5-7-14.4-16.4-14.8-30a22.06,22.06,0,0,0,14.8-4.3Z"/><path class="cls-4" d="M253.2,164.3c-.1,0-.1,0-.2-.1-10-6.7-14.5-15.8-15-30.3a5.37,5.37,0,0,1,2-.3h0a20.54,20.54,0,0,0,13-4.3,22.43,22.43,0,0,0,15,4.2c-.1,14.9-4.5,24-14.6,30.7a.31.31,0,0,1-.2.1Zm-14.9-30c.8,13.8,5.2,22.7,14.9,29.2,9.7-6.5,14-15.4,14.5-29.6-.2.4-.7.4-1.2.4a21.65,21.65,0,0,1-13.5-4.4c-3.1,2.9-7.8,4.4-13,4.4h0a9.65,9.65,0,0,1-1.7,0Z"/><path class="cls-4" d="M253.2,162.4c8.2-5.5,12.9-14.8,13.3-27.3-5.1,0-10.2-1.1-13.3-3.9-3.5,2.7-8.1,3.9-13.6,3.9.7,12.5,5.4,21.8,13.6,27.3Z"/><path class="cls-4" d="M253.2,162.9a.37.37,0,0,1-.3-.1c-8.3-5.6-13.1-15.2-13.8-27.7a.6.6,0,0,1,.1-.4c.1-.1.2-.1.4-.1,5.7,0,10.1-1.2,13.3-3.8a.64.64,0,0,1,.6,0c2.7,2.4,7.4,3.7,13,3.7a1,1,0,0,1,.3.1c.1.1.1.2.1.4-.4,12.5-5.1,22.1-13.5,27.7-.1.2-.1.2-.2.2ZM240,135.5c.8,11.9,5.4,20.9,13.1,26.3,7.9-5.4,12.3-14.4,12.8-26.3-3.4,0-9.1-.6-12.8-3.7-3.2,2.5-7.5,3.7-13.1,3.7Z"/><path class="cls-2" d="M239.9,181.9a38,38,0,0,0,9.4.4c1.5,0,2.7,2.7-.4,3.1a40.41,40.41,0,0,1-9.3-.4c-2-.4-6.3-1.1-9-1.9-2.7-1.2-.8-3.5.8-3.2a53.37,53.37,0,0,0,8.5,2Z"/><path class="cls-4" d="M246.2,186a40.8,40.8,0,0,1-6.8-.6c-1.9-.3-6.2-1.1-9-1.9-1.8-.8-1.8-2-1.7-2.4a2.37,2.37,0,0,1,2.3-1.8,62.8,62.8,0,0,0,9,2,40.15,40.15,0,0,0,9.3.4h0a2.16,2.16,0,0,1,2.1,1.9c.1.9-.5,1.9-2.4,2.2a12.74,12.74,0,0,1-2.8.2Zm-15.1-5.6a1.44,1.44,0,0,0-1.4,1c-.1.6.6,1,1,1.2,2.7.7,7,1.5,8.9,1.9a34.13,34.13,0,0,0,9.2.4c1-.1,1.5-.5,1.5-1.1a1.08,1.08,0,0,0-1-1c-2.7.4-7-.1-9.5-.4a54.88,54.88,0,0,1-8.7-2Z"/><path class="cls-2" d="M266.4,181.9c-3.2.4-6.7.8-9.3.4-1.6,0-2.7,2.7.3,3.1a40.41,40.41,0,0,0,9.3-.4c2-.4,6.3-1.1,9-1.9,2.7-1.2.8-3.5-.8-3.2a53.37,53.37,0,0,1-8.5,2Z"/><path class="cls-4" d="M260.1,186a22.62,22.62,0,0,1-2.7-.1c-1.9-.3-2.5-1.3-2.4-2.2a2.16,2.16,0,0,1,2.1-2,40.15,40.15,0,0,0,9.3-.4,53.57,53.57,0,0,0,8.5-1.9,2.4,2.4,0,0,1,2.8,1.7c.1.5.1,1.6-1.6,2.4-2.9.8-7.2,1.6-9.1,1.9a34,34,0,0,1-6.9.6Zm-3.1-3.2a1.08,1.08,0,0,0-1,1c0,.5.5.9,1.5,1.1a39,39,0,0,0,9.2-.4c1.9-.3,6.2-1.1,9-1.9.4-.2,1.1-.6,1-1.2a1.41,1.41,0,0,0-1.3-1,59.72,59.72,0,0,1-8.8,2c-2.8.3-6.7.8-9.6.4Z"/><path class="cls-2" d="M230.2,180.3c-2.4-.4-3.5,2.3-2.7,3.9.3-.8,2-.8,2.3-1.5.4-1.3-.4-1.3.4-2.4Z"/><path class="cls-4" d="M227.5,184.7a.55.55,0,0,1-.5-.3,3.34,3.34,0,0,1,.2-3.2,3,3,0,0,1,2.5-1.4,1.49,1.49,0,0,1,.7.3c.1.2.3.4.2.5-.3.5-.3.6-.2.8a3.69,3.69,0,0,1-.1,1.4,2.4,2.4,0,0,1-1.5,1.1,1.52,1.52,0,0,0-.9.5c-.1.2-.2.4-.4.3Zm1.8-3.8a2,2,0,0,0-1.2.8,2.6,2.6,0,0,0-.4,1.5c.2-.1.5-.2.7-.3a1.52,1.52,0,0,0,.9-.5,2.81,2.81,0,0,0,.1-.8,1.48,1.48,0,0,1-.1-.7Z"/><path class="cls-2" d="M239.5,187.5c0-1.5,1.5-1.3,1.5-2.9,0-.8-.4-2-1.2-2a1.61,1.61,0,0,0-1.5,1.5c-.3,1.6,1.2,1.9,1.2,3.4Z"/><path class="cls-4" d="M239.5,188a.47.47,0,0,1-.5-.5,1.76,1.76,0,0,0-.6-1.3,2.21,2.21,0,0,1-.6-2.2,2.25,2.25,0,0,1,2.1-2c1.2,0,1.7,1.5,1.7,2.5a2.14,2.14,0,0,1-1,1.8,1.15,1.15,0,0,0-.6,1.1.47.47,0,0,1-.5.6Zm.4-4.8a1.08,1.08,0,0,0-1,1,1.59,1.59,0,0,0,.4,1.4c.1.1.2.3.3.4l.4-.4a1.15,1.15,0,0,0,.6-1.1c0-.6-.4-1.3-.7-1.3Z"/><path class="cls-2" d="M250.7,183.1c2.3,0,2.1,3.1,1,4.6,0-1.1-2-1.5-2-2.3-.1-1.2,1.7-1.2,1-2.3Z"/><path class="cls-4" d="M251.6,188.2h-.2a.66.66,0,0,1-.4-.5c0-.3-.4-.7-.9-1s-1.1-.7-1.1-1.4a1.8,1.8,0,0,1,.9-1.5,1.13,1.13,0,0,1,.1-.8c.1-.2.4-.5.6-.5a2.1,2.1,0,0,1,2,1.2,4.71,4.71,0,0,1-.6,4.3.52.52,0,0,1-.4.2Zm-.2-4.5a1.6,1.6,0,0,1-.7.9c-.3.3-.5.4-.5.7,0,.1.4.4.6.5a5.5,5.5,0,0,1,.9.7,3.35,3.35,0,0,0,.1-2.4c-.2-.1-.3-.3-.4-.4Z"/><path class="cls-2" d="M276.1,180.3c2.4-.4,3.5,2.3,2.7,3.9-.3-.8-2-.8-2.3-1.5-.4-1.3.4-1.3-.4-2.4Z"/><path class="cls-4" d="M278.9,184.7c-.2-.1-.4-.1-.5-.3a1.52,1.52,0,0,0-.9-.5,2.15,2.15,0,0,1-1.4-1,2.36,2.36,0,0,1-.1-1.4c0-.3.1-.4-.2-.8a.75.75,0,0,1-.1-.5c.1-.2.2-.3.4-.3a3,3,0,0,1,3.1,1.4,3.34,3.34,0,0,1,.2,3.2.76.76,0,0,1-.5.2Zm-1.9-3.9a1.1,1.1,0,0,1,0,.8,1.23,1.23,0,0,0,.1.8c.1.2.5.3.9.5.2.1.5.2.7.3a2.6,2.6,0,0,0-.4-1.5,2.54,2.54,0,0,0-1.3-.9Z"/><path class="cls-2" d="M266.8,187.5c0-1.5-1.5-1.3-1.5-2.9,0-.8.4-2,1.2-2a1.61,1.61,0,0,1,1.5,1.5c.3,1.6-1.2,1.9-1.2,3.4Z"/><path class="cls-4" d="M266.8,188a.47.47,0,0,1-.5-.5c0-.5-.2-.7-.6-1.1a2.14,2.14,0,0,1-1-1.8c0-1,.5-2.5,1.7-2.5a2.18,2.18,0,0,1,2.1,2.1,2.78,2.78,0,0,1-.6,2.1,2,2,0,0,0-.6,1.3.46.46,0,0,1-.5.4Zm-.4-4.8c-.3,0-.7.8-.7,1.4s.2.7.6,1.1c.1.1.3.2.4.4.1-.1.2-.3.3-.4.3-.4.6-.7.4-1.3a1.06,1.06,0,0,0-1-1.2Z"/><path class="cls-2" d="M255.7,183.1c-2.3,0-2.1,3.1-1,4.6,0-1.1,2-1.5,2-2.3,0-1.2-1.8-1.2-1-2.3Z"/><path class="cls-4" d="M254.7,188.2a.52.52,0,0,1-.4-.2,4.44,4.44,0,0,1-.6-4.3,2.1,2.1,0,0,1,2-1.2.55.55,0,0,1,.5.3.45.45,0,0,1,0,.5c.6.8,1.1,1.2,1.1,2,0,.6-.5,1-1.1,1.4-.4.3-.9.6-.9,1a.51.51,0,0,1-.4.5Zm.3-4.5a.78.78,0,0,0-.4.4,3.36,3.36,0,0,0,.1,2.4,5.5,5.5,0,0,1,.9-.7c.2-.2.6-.4.6-.5,0-.3-.2-.4-.5-.7a1.13,1.13,0,0,1-.7-.9Z"/><path class="cls-2" d="M231,181.1a3.2,3.2,0,0,1,2.3.8Z"/><path class="cls-4" d="M233.3,182.2h-.1l-2.3-.8c-.2-.1-.3-.2-.2-.4s.2-.3.4-.3a3.92,3.92,0,0,1,2.6.9.3.3,0,0,1,0,.4c-.2.2-.3.2-.4.2Z"/><path class="cls-2" d="M234.8,182.3a6.69,6.69,0,0,1,2.7.8Z"/><path class="cls-4" d="M237.6,183.4h0l-2.8-.8c-.2-.1-.3-.2-.3-.4.1-.7,2.2-.1,3.3.5.2.1.2.3.2.5-.2.1-.3.2-.4.2Z"/><path class="cls-2" d="M248.9,183.8c-.8,0-2.3,0-2.7.4Z"/><path class="cls-4" d="M246.1,184.5c-.1,0-.3-.1-.3-.2s0-.3.1-.4c.4-.4,1.5-.4,3-.4.2,0,.4.1.4.3s-.1.4-.3.4l-2.9.3Z"/><path class="cls-2" d="M244.6,183.8a3.17,3.17,0,0,0-2.7,0Z"/><path class="cls-4" d="M244.6,184.2h-2.7c-.2,0-.3-.1-.4-.3s0-.3.2-.4c.7-.4,2.2-.9,3.2.1a.6.6,0,0,1,.1.4.76.76,0,0,1-.4.2Z"/><path class="cls-2" d="M275.4,181.1a3.37,3.37,0,0,0-2.3.8Z"/><path class="cls-4" d="M273,182.2c-.1,0-.2-.1-.3-.2a.25.25,0,0,1,.1-.4,4.52,4.52,0,0,1,2.6-.9c.2,0,.3.1.4.3a.52.52,0,0,1-.2.4l-2.3.8Z"/><path class="cls-2" d="M271.5,182.3a6.69,6.69,0,0,0-2.7.8Z"/><path class="cls-4" d="M268.8,183.4c-.1,0-.3-.1-.3-.2a.37.37,0,0,1,.2-.5c1.2-.6,3.2-1.1,3.3-.5,0,.2-.1.3-.3.4l-2.9.8Z"/><path class="cls-2" d="M257.4,183.8c.8,0,2.3,0,2.7.4Z"/><path class="cls-4" d="M260.2,184.5h0l-2.8-.4c-.2,0-.3-.2-.3-.4s.2-.3.4-.3a6.8,6.8,0,0,1,3,.4c.1.1.2.3.1.4a.37.37,0,0,1-.4.3Z"/><path class="cls-2" d="M261.7,183.8a3.17,3.17,0,0,1,2.7,0Z"/><path class="cls-4" d="M264.5,184.2h-2.7c-.1,0-.3-.1-.3-.2s0-.3.1-.4c1-.9,2.5-.4,3.2-.1a.52.52,0,0,1,.2.4.91.91,0,0,1-.5.3Z"/><path class="cls-4" d="M258.6,107a5.92,5.92,0,0,0-4.1-3.9,10.57,10.57,0,0,0-3.1-.2c-1.2-.3-2.2.9-2.6,1.7,1.2.8,1.5,1.7,2.1,2,1.2.4,1.8,0,3-1.1a2.93,2.93,0,0,1,4.7,1.5Z"/><path class="cls-4" d="M251.8,107a2.92,2.92,0,0,1-.9-.2c-.4-.1-.6-.4-.9-.8a7.93,7.93,0,0,0-1.3-1.2c.2-.8,1-2.2,2.3-2.2l1,.1a6.66,6.66,0,0,1,2.6.2,5.73,5.73,0,0,1,3.9,3.3c-1.5-1.1-3.5-1.6-4.5-.6-.8.9-1.4,1.4-2.2,1.4Zm-.4-3.8a2.81,2.81,0,0,0-2.3,1.6,2.68,2.68,0,0,1,1.3,1c.3.3.4.5.7.6,1,.3,1.5.1,2.7-1.1a3.15,3.15,0,0,1,3.7-.2,5.73,5.73,0,0,0-3-1.7,6.15,6.15,0,0,0-1.9-.2Z"/><path class="cls-2" d="M251.2,104a.6.6,0,1,0,0,1.2.6.6,0,0,0,0-1.2Z"/><path class="cls-2" d="M251.2,105.7a1.11,1.11,0,0,1-1.1-1.1c0-1.3,2.2-1.3,2.2,0a1.11,1.11,0,0,1-1.1,1.1Z"/><path class="cls-2" d="M257.9,133.8v24.5a27.31,27.31,0,0,1-4.8,4.1,23.66,23.66,0,0,1-4.8-4.1V133.7a18.19,18.19,0,0,0,4.8-2.5,15.88,15.88,0,0,0,4.8,2.6Z"/></g></g></svg>