<svg xmlns="http://www.w3.org/2000/svg" viewBox="0 0 512 298.7"><defs><style>.cls-1{fill:#b01f36;}.cls-2{fill:#2b6537;}</style></defs><g id="Layer_2" data-name="Layer 2"><g id="Layer_1-2" data-name="Layer 1"><rect class="cls-1" width="512" height="298.7"/><polygon class="cls-2" points="235.6 125.4 169.7 125.4 244.8 182.7 256 174.1 210.5 139.4 231.3 139.3 235.6 125.4"/><polygon class="cls-2" points="276.4 125.4 256 59.5 227.3 152.2 238.6 160.8 256 104.6 262.5 125.4 276.4 125.4"/><polygon class="cls-2" points="289 166.2 342.3 125.4 249.6 125.4 245.2 139.3 301.5 139.3 284.7 152.2 289 166.2"/><polygon class="cls-2" points="256 191.4 309.3 232.1 280.7 139.3 266.8 139.3 284.1 195.5 267.3 182.7 256 191.4"/><polygon class="cls-2" points="223 166.1 202.7 232.1 277.7 174.7 273.4 160.8 227.9 195.6 234.3 174.8 223 166.1"/></g></g></svg>