<svg xmlns="http://www.w3.org/2000/svg" viewBox="0 0 512 298.7"><defs><style>.cls-1{fill:#fff;}.cls-2{fill:#d03034;}.cls-3{fill:#2d328e;}.cls-4{fill:#010101;}.cls-5{fill:#f1b124;}.cls-6{fill:#33784d;}</style></defs><g id="Layer_2" data-name="Layer 2"><g id="Layer_1-2" data-name="Layer 1"><rect class="cls-1" width="512" height="298.7"/><polygon class="cls-2" points="89.7 0 239.1 99.5 512 99.5 512 0 89.7 0"/><polygon class="cls-3" points="239.1 199.1 89.7 298.7 512 298.7 512 199.1 239.1 199.1"/><polygon class="cls-4" points="59.6 99.5 0 59.8 0 99.5 0 199.1 0 238.8 59.6 199.1 134.3 149.3 59.6 99.5"/><polygon class="cls-5" points="0 59.8 134.3 149.3 0 238.8 0 262.7 170.2 149.3 0 35.9 0 59.8"/><polygon class="cls-6" points="0 0 0 35.9 170.2 149.3 0 262.7 0 298.7 53.8 298.7 233 179.2 512 179.2 512 119.4 233 119.4 53.8 0 0 0"/></g></g></svg>