<svg xmlns="http://www.w3.org/2000/svg" viewBox="0 0 512 298.7"><defs><style>.cls-1{fill:#fff;}.cls-2{fill:#394ea1;}</style></defs><g id="Layer_2" data-name="Layer 2"><g id="Layer_1-2" data-name="Layer 1"><rect class="cls-1" width="512" height="298.7"/><polygon class="cls-2" points="256 132.7 250.9 148.5 258.8 151.1 256 132.7"/><polygon class="cls-2" points="256 132.7 261.1 148.5 253.2 151.1 256 132.7"/><polygon class="cls-2" points="271.8 144.2 255.2 144.2 255.2 152.5 271.8 144.2"/><polygon class="cls-2" points="271.8 144.2 258.4 153.9 253.5 147.2 271.8 144.2"/><polygon class="cls-2" points="240.2 144.2 253.6 153.9 258.5 147.2 240.2 144.2"/><polygon class="cls-2" points="240.2 144.2 256.8 144.2 256.8 152.5 240.2 144.2"/><polygon class="cls-2" points="265.8 162.7 260.6 146.9 252.7 149.5 265.8 162.7"/><polygon class="cls-2" points="265.8 162.7 252.3 153 257.2 146.3 265.8 162.7"/><polygon class="cls-2" points="246.2 162.7 259.7 153 254.8 146.3 246.2 162.7"/><polygon class="cls-2" points="246.2 162.7 251.4 146.9 259.3 149.5 246.2 162.7"/><polygon class="cls-2" points="339 157.6 333.8 173.4 341.7 175.9 339 157.6"/><polygon class="cls-2" points="339 157.6 344.1 173.4 336.2 175.9 339 157.6"/><polygon class="cls-2" points="354.7 169.1 338.2 169.1 338.2 177.4 354.7 169.1"/><polygon class="cls-2" points="354.7 169.1 341.3 178.8 336.4 172.1 354.7 169.1"/><polygon class="cls-2" points="323.2 169.1 336.6 178.8 341.5 172.1 323.2 169.1"/><polygon class="cls-2" points="323.2 169.1 339.8 169.1 339.8 177.4 323.2 169.1"/><polygon class="cls-2" points="348.7 187.6 343.6 171.8 335.7 174.4 348.7 187.6"/><polygon class="cls-2" points="348.7 187.6 335.3 177.9 340.2 171.2 348.7 187.6"/><polygon class="cls-2" points="329.2 187.6 342.6 177.9 337.8 171.2 329.2 187.6"/><polygon class="cls-2" points="329.2 187.6 334.3 171.8 342.2 174.4 329.2 187.6"/><polygon class="cls-2" points="339 107.8 333.8 123.6 341.7 126.2 339 107.8"/><polygon class="cls-2" points="339 107.8 344.1 123.6 336.2 126.2 339 107.8"/><polygon class="cls-2" points="354.7 119.3 338.2 119.3 338.2 127.6 354.7 119.3"/><polygon class="cls-2" points="354.7 119.3 341.3 129 336.4 122.3 354.7 119.3"/><polygon class="cls-2" points="323.2 119.3 336.6 129 341.5 122.3 323.2 119.3"/><polygon class="cls-2" points="323.2 119.3 339.8 119.3 339.8 127.6 323.2 119.3"/><polygon class="cls-2" points="348.7 137.8 343.6 122.1 335.7 124.6 348.7 137.8"/><polygon class="cls-2" points="348.7 137.8 335.3 128.1 340.2 121.4 348.7 137.8"/><polygon class="cls-2" points="329.2 137.8 342.6 128.1 337.8 121.4 329.2 137.8"/><polygon class="cls-2" points="329.2 137.8 334.3 122.1 342.2 124.6 329.2 137.8"/><polygon class="cls-2" points="173 157.6 167.9 173.4 175.8 175.9 173 157.6"/><polygon class="cls-2" points="173 157.6 178.2 173.4 170.3 175.9 173 157.6"/><polygon class="cls-2" points="188.8 169.1 172.2 169.1 172.2 177.4 188.8 169.1"/><polygon class="cls-2" points="188.8 169.1 175.4 178.8 170.5 172.1 188.8 169.1"/><polygon class="cls-2" points="157.3 169.1 170.7 178.8 175.6 172.1 157.3 169.1"/><polygon class="cls-2" points="157.3 169.1 173.8 169.1 173.8 177.4 157.3 169.1"/><polygon class="cls-2" points="182.8 187.6 177.7 171.8 169.8 174.4 182.8 187.6"/><polygon class="cls-2" points="182.8 187.6 169.4 177.9 174.2 171.2 182.8 187.6"/><polygon class="cls-2" points="163.3 187.6 176.7 177.9 171.8 171.2 163.3 187.6"/><polygon class="cls-2" points="163.3 187.6 168.4 171.8 176.3 174.4 163.3 187.6"/><polygon class="cls-2" points="173 107.8 167.9 123.6 175.8 126.2 173 107.8"/><polygon class="cls-2" points="173 107.8 178.2 123.6 170.3 126.2 173 107.8"/><polygon class="cls-2" points="188.8 119.3 172.2 119.3 172.2 127.6 188.8 119.3"/><polygon class="cls-2" points="188.8 119.3 175.4 129 170.5 122.3 188.8 119.3"/><polygon class="cls-2" points="157.3 119.3 170.7 129 175.6 122.3 157.3 119.3"/><polygon class="cls-2" points="157.3 119.3 173.8 119.3 173.8 127.6 157.3 119.3"/><polygon class="cls-2" points="182.8 137.8 177.7 122.1 169.8 124.6 182.8 137.8"/><polygon class="cls-2" points="182.8 137.8 169.4 128.1 174.2 121.4 182.8 137.8"/><polygon class="cls-2" points="163.3 137.8 176.7 128.1 171.8 121.4 163.3 137.8"/><polygon class="cls-2" points="163.3 137.8 168.4 122.1 176.3 124.6 163.3 137.8"/><rect class="cls-2" width="512" height="99.6"/><rect class="cls-2" y="199.1" width="512" height="99.6"/></g></g></svg>