<svg xmlns="http://www.w3.org/2000/svg" viewBox="0 0 512 298.8"><defs><style>.cls-1{fill:#498b40;}.cls-2{fill:#010101;}.cls-3{fill:#f1db28;}</style></defs><g id="Layer_2" data-name="Layer 2"><g id="Layer_1-2" data-name="Layer 1"><polygon class="cls-1" points="47.7 298.8 464.3 298.8 256 177.2 47.7 298.8"/><polygon class="cls-1" points="464.3 0.1 47.7 0.1 256 121.6 464.3 0.1"/><polygon class="cls-2" points="0 270.9 208.3 149.4 0 27.9 0 270.9"/><polygon class="cls-2" points="512 270.9 512 27.9 303.7 149.4 512 270.9"/><polygon class="cls-3" points="512 0 464.3 0 256 121.5 47.7 0 0 0 0 27.9 208.3 149.4 0 270.9 0 298.8 47.7 298.8 256 177.2 464.3 298.8 512 298.8 512 270.9 303.7 149.4 512 27.9 512 0"/></g></g></svg>