<svg xmlns="http://www.w3.org/2000/svg" viewBox="0 0 512 298.7"><defs><style>.cls-1{fill:#fff;}.cls-2{fill:#4165b0;}.cls-3{fill:#c01f3f;}</style></defs><g id="Layer_2" data-name="Layer 2"><g id="Layer_1-2" data-name="Layer 1"><rect class="cls-1" width="512" height="298.7"/><polygon class="cls-2" points="144 37.3 132.5 72.8 150.2 78.6 144 37.3"/><polygon class="cls-2" points="144 37.3 155.5 72.8 137.8 78.6 144 37.3"/><polygon class="cls-2" points="179.5 63.1 142.2 63.1 142.2 81.8 179.5 63.1"/><polygon class="cls-2" points="179.5 63.1 149.3 85 138.3 69.9 179.5 63.1"/><polygon class="cls-2" points="108.5 63.1 138.7 85 149.7 69.9 108.5 63.1"/><polygon class="cls-2" points="108.5 63.1 145.8 63.1 145.8 81.8 108.5 63.1"/><polygon class="cls-2" points="165.9 104.8 154.4 69.3 136.7 75.1 165.9 104.8"/><polygon class="cls-2" points="165.9 104.8 135.7 82.9 146.7 67.8 165.9 104.8"/><polygon class="cls-2" points="122.1 104.8 152.3 82.9 141.3 67.8 122.1 104.8"/><polygon class="cls-2" points="122.1 104.8 133.6 69.3 151.3 75.1 122.1 104.8"/><rect class="cls-2" y="149.3" width="256" height="149.4"/><rect class="cls-3" x="256" width="256" height="149.4"/><polygon class="cls-3" points="368 186.6 356.5 222.1 374.2 227.9 368 186.6"/><polygon class="cls-3" points="368 186.6 379.5 222.1 361.8 227.9 368 186.6"/><polygon class="cls-3" points="403.5 212.4 366.2 212.4 366.2 231.1 403.5 212.4"/><polygon class="cls-3" points="403.5 212.4 373.3 234.4 362.3 219.3 403.5 212.4"/><polygon class="cls-3" points="332.5 212.4 362.7 234.4 373.7 219.3 332.5 212.4"/><polygon class="cls-3" points="332.5 212.4 369.8 212.4 369.8 231.1 332.5 212.4"/><polygon class="cls-3" points="389.9 254.2 378.4 218.7 360.7 224.4 389.9 254.2"/><polygon class="cls-3" points="389.9 254.2 359.7 232.2 370.7 217.1 389.9 254.2"/><polygon class="cls-3" points="346.1 254.2 376.3 232.2 365.3 217.1 346.1 254.2"/><polygon class="cls-3" points="346.1 254.2 357.6 218.7 375.3 224.4 346.1 254.2"/></g></g></svg>