<svg xmlns="http://www.w3.org/2000/svg" viewBox="0 0 512 298.7"><defs><style>.cls-1{fill:#fff;}.cls-2{fill:#7fa6d8;}.cls-3{fill:#f1bd51;}.cls-4{fill:#7b371d;}</style></defs><g id="Layer_2" data-name="Layer 2"><g id="Layer_1-2" data-name="Layer 1"><rect class="cls-1" y="99.5" width="512" height="99.6"/><rect class="cls-2" width="512" height="99.5"/><rect class="cls-2" y="199.1" width="512" height="99.6"/><path class="cls-3" d="M254,149.3l1.5,40.7s0,.8.5.8.5-.8.5-.8l1.5-40.7Z"/><path class="cls-4" d="M256,190.9c-.5,0-.6-.6-.6-.9l-1.5-40.7h.3l1.5,40.7s0,.6.4.6.4-.6.4-.6l1.5-40.7L256.7,190c-.1.3-.2.9-.7.9Z"/><polygon class="cls-4" points="255 149.3 256 177.2 257 149.3 255 149.3"/><path class="cls-3" d="M252.2,162.4c-2.3,5.1-.4,9.3-2.7,13.8s-.9,8.2-1,10.2-1.8,2.6-1.4,3.1,2.2-.5,2.9-3.2-.9-4.3,1.9-9.8.6-8,3.4-12.9Z"/><path class="cls-4" d="M247.5,189.8l-.5-.1c-.3-.3,0-.6.3-.9a3.53,3.53,0,0,0,1.1-2.3,15.56,15.56,0,0,0-.1-2c-.2-2.1-.6-5,1.2-8.3a15.26,15.26,0,0,0,1.3-6.6,17.68,17.68,0,0,1,1.4-7.2l.2.1a15.59,15.59,0,0,0-1.3,7.1,16,16,0,0,1-1.3,6.7,13.21,13.21,0,0,0-1.2,8.1,7.17,7.17,0,0,1,.1,2,3.84,3.84,0,0,1-1.1,2.4c-.3.4-.4.5-.3.6,1-.1,2.1-1.1,2.6-3.2a11,11,0,0,0,.2-2.5c-.1-1.7-.2-3.6,1.7-7.3a16,16,0,0,0,1.7-6.6,13.88,13.88,0,0,1,1.7-6.3,17.21,17.21,0,0,0-1.5,6.3,15.28,15.28,0,0,1-1.7,6.7c-1.8,3.6-1.8,5.5-1.7,7.1a7.63,7.63,0,0,1-.2,2.6c-.6,2.2-1.7,3.3-2.6,3.6Z"/><path class="cls-4" d="M252.8,163.7c-1.8,5.1.1,8.5-2.3,12.8,2.7-3.1.9-7.1,3.3-12.3Z"/><path class="cls-3" d="M258.1,149.3l-1.5-40.7s0-.8-.5-.8-.5.8-.5.8L254,149.3Z"/><path class="cls-4" d="M257.9,149.3l-1.5-40.7s0-.6-.4-.6-.4.6-.4.6l-1.5,40.7,1.3-40.7c0-.3.1-.9.6-.9s.6.6.6.9l1.5,40.7Z"/><polygon class="cls-4" points="257 149.3 256 121.3 255 149.3 257 149.3"/><path class="cls-3" d="M259.9,136.1c2.3-5.1.3-9.3,2.7-13.8s.9-8.1,1.1-10.2,1.8-2.6,1.4-3.1-2.2.5-2.9,3.2.9,4.3-1.9,9.8-.6,8-3.4,12.9Z"/><path class="cls-4" d="M260,136.2l-.2-.1a18.48,18.48,0,0,0,1.3-7.1,15.7,15.7,0,0,1,1.3-6.7,13.14,13.14,0,0,0,1.2-8.1,7.17,7.17,0,0,1-.1-2,3.84,3.84,0,0,1,1.1-2.4c.3-.4.4-.5.3-.6-1,.1-2.1,1.1-2.7,3.1a11,11,0,0,0-.2,2.5c.1,1.7.2,3.6-1.7,7.3a16,16,0,0,0-1.7,6.6,13.88,13.88,0,0,1-1.7,6.3,17.21,17.21,0,0,0,1.5-6.3,15.28,15.28,0,0,1,1.7-6.7c1.8-3.6,1.8-5.5,1.7-7.1a7.63,7.63,0,0,1,.2-2.6c.5-2.2,1.8-3.2,2.5-3.4h.1l.5.2c.3.3,0,.6-.3.9a3.81,3.81,0,0,0-1.1,2.3,14.8,14.8,0,0,0,.1,2,13.82,13.82,0,0,1-1.2,8.3,15.55,15.55,0,0,0-1.3,6.6,19,19,0,0,1-1.3,7Z"/><path class="cls-4" d="M259.2,134.8c1.8-5.1-.1-8.5,2.3-12.8-2.7,3.1-.9,7.1-3.3,12.4Z"/><path class="cls-3" d="M256,147.2l-40.7,1.5s-.8,0-.8.5.8.5.8.5l40.7,1.6Z"/><path class="cls-4" d="M256,151.2l-40.7-1.3c-.3,0-.9-.1-.9-.6s.6-.6.9-.6l40.7-1.5v.3L215.3,149s-.6,0-.6.4.6.4.6.4l40.7,1.4Z"/><polygon class="cls-4" points="256 148.3 228 149.3 256 150.3 256 148.3"/><path class="cls-3" d="M242.8,145.4c-5.1-2.3-9.3-.3-13.8-2.7s-8.2-.9-10.2-1-2.6-1.8-3.1-1.4.5,2.2,3.2,2.9,4.3-.9,9.8,1.9,8,.6,12.9,3.4Z"/><path class="cls-4" d="M241.6,148.3a17.21,17.21,0,0,0-6.3-1.5,15.28,15.28,0,0,1-6.7-1.7c-3.6-1.9-5.5-1.8-7.1-1.7a7.63,7.63,0,0,1-2.6-.2c-2-.5-3.2-1.6-3.4-2.5v-.1l.1-.6c.3-.3.6,0,.9.3a3.81,3.81,0,0,0,2.3,1.1,7.17,7.17,0,0,0,2-.1c2.1-.2,5-.6,8.3,1.2,2.2,1.2,4.3,1.2,6.6,1.3a19.3,19.3,0,0,1,7.2,1.3l-.1.2c-2.5-1.2-4.8-1.2-7.1-1.3a16,16,0,0,1-6.7-1.3,12.59,12.59,0,0,0-8.2-1.1,14.8,14.8,0,0,1-2,.1,4.14,4.14,0,0,1-2.4-1.1q-.45-.45-.6-.3c.1,1,1.1,2.1,3.1,2.7a11,11,0,0,0,2.5.2c1.7-.1,3.6-.2,7.3,1.7a16,16,0,0,0,6.6,1.7,13.58,13.58,0,0,1,6.3,1.7Z"/><path class="cls-4" d="M241.5,146.1c-5.1-1.8-8.5.1-12.8-2.3,3.1,2.7,7.1.9,12.3,3.3Z"/><path class="cls-3" d="M256,151.3l40.7-1.5s.8,0,.8-.5-.8-.5-.8-.5L256,147.3Z"/><path class="cls-4" d="M256,151.5v-.3l40.7-1.5s.6,0,.6-.4-.6-.4-.6-.4L256,147.4l40.7,1.3c.3,0,.9.1.9.6s-.6.6-.9.6L256,151.5Z"/><polygon class="cls-4" points="256 150.3 284 149.3 256 148.3 256 150.3"/><path class="cls-3" d="M269.2,153.1c5.1,2.3,9.3.3,13.8,2.7s8.1.9,10.2,1,2.6,1.8,3.1,1.4-.5-2.2-3.2-2.9-4.3,1-9.8-1.9-8-.6-12.9-3.4Z"/><path class="cls-4" d="M296.1,158.5c-.2,0-.4-.2-.7-.4a3.53,3.53,0,0,0-2.3-1.1,15.56,15.56,0,0,0-2,.1c-2.1.2-5,.6-8.3-1.2-2.2-1.2-4.4-1.2-6.6-1.3a17.68,17.68,0,0,1-7.2-1.4l.1-.2c2.5,1.2,4.8,1.2,7.1,1.3a14.44,14.44,0,0,1,6.7,1.4,12.31,12.31,0,0,0,8.1,1.1,7.17,7.17,0,0,1,2-.1,4.14,4.14,0,0,1,2.4,1.1c.4.3.5.4.6.3-.1-1-1.1-2.1-3.1-2.7a11,11,0,0,0-2.5-.2c-1.7.1-3.6.2-7.3-1.7a16,16,0,0,0-6.6-1.7,12.72,12.72,0,0,1-6.3-1.7,17.21,17.21,0,0,0,6.3,1.5,15.28,15.28,0,0,1,6.7,1.7,13.28,13.28,0,0,0,7.1,1.7,7.63,7.63,0,0,1,2.6.2c2.2.5,3.2,1.8,3.4,2.5v.1l-.2.5c.1.1.1.2,0,.2Z"/><path class="cls-4" d="M270.5,152.5c5.1,1.8,8.5-.1,12.8,2.3-3.1-2.7-7.1-.9-12.4-3.3Z"/><path class="cls-3" d="M254.6,147.9l-27.7,29.9s-.5.6-.2.9.9-.2.9-.2l29.9-27.7Z"/><path class="cls-4" d="M227,178.9c-.7-.5-.4-1-.2-1.2l27.7-29.9.2.2L227,177.9s-.4.5-.2.7.7-.2.7-.2l29.9-27.7-29.7,27.9c0-.1-.4.3-.7.3Z"/><polygon class="cls-4" points="255.3 148.6 236.2 169 256.7 150 255.3 148.6"/><path class="cls-3" d="M244,155.9c-5.3,2-6.8,6.4-11.6,7.9s-6.4,5.1-8,6.5-3.2.6-3.2,1.2,1.9,1.2,4.3-.2,2.4-3.7,8.2-5.6,6-5.2,11.5-6.7Z"/><path class="cls-4" d="M222.6,172.2a2.13,2.13,0,0,1-1.2-.3l-.4-.5c0-.4.4-.4.9-.4a3.44,3.44,0,0,0,2.4-.9c.4-.4.8-.9,1.3-1.5a12.69,12.69,0,0,1,6.7-5,13.75,13.75,0,0,0,5.6-3.7,18.15,18.15,0,0,1,6-4.1l.1.2a16.34,16.34,0,0,0-5.9,4.1,15,15,0,0,1-5.7,3.8,12.8,12.8,0,0,0-6.6,5c-.5.6-.9,1.1-1.3,1.5a3.65,3.65,0,0,1-2.5.9c-.5,0-.6.1-.6.2.8.6,2.3.7,4.1-.4a10.46,10.46,0,0,0,1.9-1.7c1.1-1.3,2.4-2.7,6.3-3.9a14.77,14.77,0,0,0,5.8-3.4,12.39,12.39,0,0,1,5.7-3.2,17.35,17.35,0,0,0-5.5,3.4,14.85,14.85,0,0,1-5.9,3.5c-3.8,1.2-5.1,2.6-6.2,3.9a8.52,8.52,0,0,1-2,1.7,8.4,8.4,0,0,1-3,.8Z"/><path class="cls-4" d="M243.5,157.3c-4.9,2.3-5.9,6.1-10.7,7.4,4.1-.3,5.7-4.4,11.1-6.4Z"/><path class="cls-3" d="M257.5,150.7l27.7-29.9s.5-.5.2-.9-.9.2-.9.2l-29.9,27.7Z"/><path class="cls-4" d="M257.5,150.8l-.2-.2L285,120.7s.4-.5.2-.7-.7.2-.7.2l-29.9,27.7L284.3,120a.68.68,0,1,1,.9.9l-27.7,29.9Z"/><polygon class="cls-4" points="256.7 150 275.8 129.5 255.3 148.6 256.7 150"/><path class="cls-3" d="M268,142.7c5.3-2,6.8-6.4,11.6-7.9s6.4-5.2,8-6.5,3.1-.5,3.2-1.2-1.9-1.2-4.3.2-2.4,3.7-8.2,5.6-6,5.2-11.5,6.7Z"/><path class="cls-4" d="M268.1,142.8l-.1-.2a16.34,16.34,0,0,0,5.9-4.1,15,15,0,0,1,5.7-3.8,13.25,13.25,0,0,0,6.6-4.9,6.85,6.85,0,0,1,1.4-1.5,3.65,3.65,0,0,1,2.5-.9c.5,0,.6-.1.6-.2-.8-.6-2.3-.7-4.1.4a10.46,10.46,0,0,0-1.9,1.7c-1.1,1.3-2.4,2.7-6.4,3.9a13.71,13.71,0,0,0-5.8,3.5,12.39,12.39,0,0,1-5.7,3.2,18.59,18.59,0,0,0,5.5-3.4,14.85,14.85,0,0,1,5.9-3.5c3.8-1.2,5.1-2.6,6.2-3.9a8.52,8.52,0,0,1,2-1.7c1.8-1.1,3.4-1.1,4.1-.7l.4.5c0,.4-.4.4-.9.4a3.78,3.78,0,0,0-2.4.8c-.4.4-.8.9-1.3,1.5a12.69,12.69,0,0,1-6.7,5,13.75,13.75,0,0,0-5.6,3.7,15.39,15.39,0,0,1-5.9,4.2Z"/><path class="cls-4" d="M268.5,141.3c4.9-2.3,6-6.1,10.7-7.4-4.1.3-5.7,4.4-11.1,6.4Z"/><path class="cls-3" d="M257.5,147.9l-29.9-27.7s-.5-.5-.9-.2.2.9.2.9l27.7,29.9Z"/><path class="cls-4" d="M254.6,150.7,226.7,121a.89.89,0,0,1-.2-1.1c.4-.4.9,0,1.1.2l29.9,27.7-.2.2-29.9-27.7s-.5-.4-.7-.2.2.7.2.7l27.7,29.9Z"/><polygon class="cls-4" points="256.7 148.6 236.2 129.5 255.3 150 256.7 148.6"/><path class="cls-3" d="M249.4,137.3c-2-5.3-6.4-6.8-7.9-11.6s-5.1-6.4-6.5-8-.6-3.1-1.2-3.2-1.2,1.9.2,4.3,3.7,2.4,5.6,8.2,5.2,6,6.7,11.5Z"/><path class="cls-4" d="M246.5,138.5a17.35,17.35,0,0,0-3.4-5.5,14.85,14.85,0,0,1-3.5-5.9c-1.2-3.8-2.6-5.1-3.9-6.2a8.52,8.52,0,0,1-1.7-2c-1.1-1.9-1-3.5-.6-4.1l.5-.3c.4,0,.4.4.4.9a3.44,3.44,0,0,0,.9,2.4c.4.4.9.8,1.5,1.3a13.21,13.21,0,0,1,5,6.7c.7,2.4,2.2,3.9,3.7,5.6a19.25,19.25,0,0,1,4.1,6l-.2.1a17.71,17.71,0,0,0-4.1-6,15,15,0,0,1-3.8-5.7,12.92,12.92,0,0,0-4.9-6.5,6.85,6.85,0,0,1-1.5-1.4,3.65,3.65,0,0,1-.9-2.5c0-.5-.1-.6-.2-.6-.6.8-.8,2.3.3,4.1a10.46,10.46,0,0,0,1.7,1.9c1.3,1.1,2.7,2.4,3.9,6.4a13.71,13.71,0,0,0,3.5,5.8,10.7,10.7,0,0,1,3.2,5.5Z"/><path class="cls-4" d="M248.1,136.8c-2.3-4.9-6.1-5.9-7.4-10.7.3,4.1,4.4,5.7,6.4,11.1Z"/><path class="cls-3" d="M254.6,150.7l29.9,27.7s.5.5.9.2-.2-.9-.2-.9l-27.7-29.9Z"/><path class="cls-4" d="M285,178.7a1,1,0,0,1-.7-.2l-29.9-27.7.2-.2,29.9,27.7s.5.5.7.2-.2-.7-.2-.7l-27.7-29.9,27.9,29.7a.89.89,0,0,1,.2,1.1Z"/><polygon class="cls-4" points="255.3 150 275.8 169 256.7 148.6 255.3 150"/><path class="cls-3" d="M262.6,161.3c2,5.3,6.4,6.8,7.9,11.6s5.2,6.4,6.5,7.9.6,3.2,1.2,3.2,1.2-1.9-.2-4.3-3.7-2.4-5.6-8.2-5.2-6-6.7-11.5Z"/><path class="cls-4" d="M278.1,184.2c-.4,0-.4-.4-.4-.9a3.78,3.78,0,0,0-.8-2.4c-.4-.4-.9-.8-1.5-1.3a12.69,12.69,0,0,1-5-6.7,13,13,0,0,0-3.8-5.6,18.15,18.15,0,0,1-4.1-6l.2-.1a16.34,16.34,0,0,0,4.1,5.9,15,15,0,0,1,3.8,5.7,12.8,12.8,0,0,0,5,6.6c.6.5,1.1.9,1.5,1.3a3.65,3.65,0,0,1,.9,2.5c0,.5.1.6.2.6.6-.8.8-2.3-.3-4.1a10.46,10.46,0,0,0-1.7-1.9c-1.3-1.1-2.7-2.4-3.9-6.3a13.71,13.71,0,0,0-3.5-5.8,12.39,12.39,0,0,1-3.2-5.7,18.59,18.59,0,0,0,3.4,5.5,14.85,14.85,0,0,1,3.5,5.9c1.2,3.8,2.6,5.1,3.9,6.2a8.52,8.52,0,0,1,1.7,2c1.1,1.8,1.1,3.4.6,4.1l-.6.5Z"/><path class="cls-4" d="M264,161.8c2.3,4.9,6.1,5.9,7.4,10.7-.3-4.1-4.4-5.7-6.4-11.1Z"/><path class="cls-3" d="M254.1,148.5l-14.2,38.2s-.3.7.2.9.8-.5.8-.5l17-37Z"/><path class="cls-4" d="M240.5,187.7c-.9-.2-.8-.8-.7-1.1L254,148.4l.2.1L240,186.7s-.2.6.1.8l.6-.5,17-37L241,187.2a1.1,1.1,0,0,1-.5.5Z"/><polygon class="cls-4" points="255.1 148.9 245.3 175.1 256.9 149.7 255.1 148.9"/><path class="cls-3" d="M247.4,160c-4.1,3.8-3.9,8.5-7.7,11.7s-3.9,7.2-4.9,9-2.7,1.7-2.5,2.3,2.2.4,3.9-1.9.8-4.3,5.5-8.3,3.6-7.1,8-10.6Z"/><path class="cls-4" d="M232.9,183.5h-.2l-.6-.4c-.1-.4.2-.5.6-.7a4.73,4.73,0,0,0,1.9-1.7,19.68,19.68,0,0,0,.7-1.9,13.73,13.73,0,0,1,4.2-7.2,15.08,15.08,0,0,0,3.8-5.6,16.9,16.9,0,0,1,4-6.1l.2.2a17.61,17.61,0,0,0-3.9,6,16.29,16.29,0,0,1-3.8,5.7,13.16,13.16,0,0,0-4.2,7.1,6.9,6.9,0,0,1-.7,1.9,4.08,4.08,0,0,1-2,1.8c-.4.2-.6.3-.5.4,1,.3,2.4-.2,3.6-1.9a8,8,0,0,0,1.1-2.3,13.16,13.16,0,0,1,4.4-6.1,16.36,16.36,0,0,0,4.1-5.4,12.8,12.8,0,0,1,4-5.1,15.51,15.51,0,0,0-3.8,5.3,16.58,16.58,0,0,1-4.1,5.5,12.17,12.17,0,0,0-4.3,6,9,9,0,0,1-1.2,2.4,4.82,4.82,0,0,1-3.3,2.1Z"/><path class="cls-4" d="M247.5,161.4c-3.6,4-3.2,7.9-7.1,10.9,3.7-1.8,3.6-6.2,7.8-10.1Z"/><path class="cls-3" d="M257.9,150.1l14.2-38.2s.3-.7-.2-.9-.8.5-.8.5l-17,37Z"/><path class="cls-4" d="M258,150.1l-.2-.1L272,111.8s.2-.6-.1-.7l-.6.4-17,37,16.8-37.1a1.79,1.79,0,0,1,.5-.6l.7.3a2.08,2.08,0,0,1,0,.8L258,150.1Z"/><polygon class="cls-4" points="256.9 149.7 266.7 123.5 255.1 148.9 256.9 149.7"/><path class="cls-3" d="M264.6,138.6c4.1-3.8,3.9-8.5,7.7-11.7s3.9-7.2,4.9-9,2.7-1.7,2.5-2.3-2.2-.4-3.9,1.9-.8,4.3-5.5,8.3-3.6,7.1-8,10.6Z"/><path class="cls-4" d="M264.7,138.7l-.2-.2a17.61,17.61,0,0,0,3.9-6,16.29,16.29,0,0,1,3.8-5.7,13.16,13.16,0,0,0,4.2-7.1,6.9,6.9,0,0,1,.7-1.9,4.08,4.08,0,0,1,2-1.8c.4-.2.5-.3.5-.4-1-.3-2.4.2-3.6,1.9a8,8,0,0,0-1.1,2.3,12.43,12.43,0,0,1-4.4,6.1,16.36,16.36,0,0,0-4.1,5.4,12.16,12.16,0,0,1-4,5.1,15.51,15.51,0,0,0,3.8-5.3,15.65,15.65,0,0,1,4.1-5.5,12.17,12.17,0,0,0,4.3-6,9,9,0,0,1,1.2-2.4c1.2-1.7,2.7-2.3,3.5-2.2l.6.4c.1.4-.2.5-.6.7a4.73,4.73,0,0,0-1.9,1.7,13.05,13.05,0,0,0-.7,1.9,13.73,13.73,0,0,1-4.2,7.2,15.08,15.08,0,0,0-3.8,5.6,16.88,16.88,0,0,1-4,6.2Z"/><path class="cls-4" d="M264.5,137.2c3.6-4,3.2-7.9,7.1-10.9-3.7,1.8-3.6,6.2-7.8,10.2Z"/><path class="cls-3" d="M256.8,147.4l-38.2-14.2s-.7-.3-.9.2.5.8.5.8l37,17Z"/><path class="cls-4" d="M255.3,151.1l-37.2-16.8c-.3-.1-.8-.5-.6-.9s.8-.4,1.1-.2l38.2,14.2-.1.2-38.2-14.2s-.6-.2-.8.1.4.6.4.6l37.2,17Z"/><polygon class="cls-4" points="256.4 148.4 230.2 138.6 255.6 150.2 256.4 148.4"/><path class="cls-3" d="M245.3,140.7c-3.9-4.1-8.5-3.9-11.7-7.7s-7.2-3.9-9-4.9-1.7-2.7-2.3-2.5-.4,2.2,1.9,3.9,4.3.8,8.3,5.5,7.1,3.6,10.6,8Z"/><path class="cls-4" d="M243.1,142.9a15.51,15.51,0,0,0-5.3-3.8,16.58,16.58,0,0,1-5.5-4.1,12.17,12.17,0,0,0-6-4.3,7.24,7.24,0,0,1-2.3-1.2c-1.7-1.3-2.3-2.7-2.2-3.6l.4-.5c.3-.1.5.2.7.6a4.73,4.73,0,0,0,1.7,1.9,18.88,18.88,0,0,0,1.8.6,13.35,13.35,0,0,1,7.2,4.3,13.73,13.73,0,0,0,5.6,3.7,16.1,16.1,0,0,1,6.1,4l-.2.2a17.05,17.05,0,0,0-6.1-3.9,16.29,16.29,0,0,1-5.7-3.8,13.16,13.16,0,0,0-7.1-4.2c-.7-.2-1.4-.4-1.9-.6a4.08,4.08,0,0,1-1.8-2c-.2-.4-.3-.6-.4-.5-.3,1,.2,2.4,1.9,3.7a7,7,0,0,0,2.3,1.1,12.43,12.43,0,0,1,6.1,4.4,16.36,16.36,0,0,0,5.4,4.1,11.06,11.06,0,0,1,5.3,3.9Z"/><path class="cls-4" d="M243.9,140.8c-4-3.6-7.9-3.2-10.9-7.1,1.8,3.7,6.2,3.6,10.2,7.8Z"/><path class="cls-3" d="M255.2,151.2l38.2,14.2s.7.3.9-.2-.5-.8-.5-.8l-37-17Z"/><path class="cls-4" d="M293.9,165.6a.75.75,0,0,1-.5-.1l-38.2-14.2.1-.2,38.2,14.2s.6.2.8-.1-.4-.6-.5-.6l-37-17L294,164.4c.3.1.8.5.6.9a1.33,1.33,0,0,1-.7.3Z"/><polygon class="cls-4" points="255.6 150.2 281.8 160 256.4 148.4 255.6 150.2"/><path class="cls-3" d="M266.7,157.9c3.8,4.1,8.5,3.9,11.7,7.7s7.2,3.9,9,4.9,1.7,2.7,2.3,2.5.4-2.2-1.9-3.9-4.3-.8-8.3-5.5-7.1-3.6-10.6-8.1Z"/><path class="cls-4" d="M289.7,173.1c-.3,0-.4-.3-.6-.7a4.73,4.73,0,0,0-1.7-1.9,14.5,14.5,0,0,0-1.9-.6,13.73,13.73,0,0,1-7.2-4.2,14.43,14.43,0,0,0-5.6-3.7,16.1,16.1,0,0,1-6.1-4l.2-.2a17.61,17.61,0,0,0,6,3.9,14.31,14.31,0,0,1,5.7,3.8,13.16,13.16,0,0,0,7.1,4.2,6.9,6.9,0,0,1,1.9.7,4.08,4.08,0,0,1,1.8,2c.2.4.3.5.4.5.3-1-.2-2.4-1.9-3.6a8,8,0,0,0-2.3-1.1,12.43,12.43,0,0,1-6.1-4.4,16.36,16.36,0,0,0-5.4-4.1,13.73,13.73,0,0,1-5.2-4,15.51,15.51,0,0,0,5.3,3.8,16.58,16.58,0,0,1,5.5,4.1,12.17,12.17,0,0,0,6,4.3,9.73,9.73,0,0,1,2.3,1.1c1.8,1.3,2.3,2.9,2.2,3.6l-.4.5Z"/><path class="cls-4" d="M268.1,157.8c4,3.6,7.9,3.1,10.9,7.1-1.8-3.7-6.2-3.6-10.1-7.8Z"/><path class="cls-3" d="M255.2,147.4l-37,17s-.7.3-.5.8.9.2.9.2l38.2-14.2Z"/><path class="cls-4" d="M218.2,165.6a.62.62,0,0,1-.6-.4c-.2-.5.3-.8.6-.9l37-17,.1.2-37,17s-.6.3-.5.6.7.1.7.1L256.7,151l-38.1,14.4a.76.76,0,0,1-.4.2Z"/><polygon class="cls-4" points="255.6 148.4 230.2 160 256.4 150.2 255.6 148.4"/><path class="cls-3" d="M242.4,150.8c-5.6-.2-8.7,3.2-13.7,2.8s-7.9,2.3-9.8,3-3.1-.7-3.4-.1,1.3,1.8,4.1,1.4,3.6-2.5,9.7-2,7.6-2.5,13.2-1.8v-3.3Z"/><path class="cls-4" d="M218.4,158a3.68,3.68,0,0,1-3-1.1l-.1-.6c.2-.3.5-.2,1-.1a3.42,3.42,0,0,0,2.5.1,15,15,0,0,0,1.8-.9,13.54,13.54,0,0,1,8.1-2.1,14.44,14.44,0,0,0,6.6-1.3,17.27,17.27,0,0,1,7.1-1.5v.3a17.15,17.15,0,0,0-7,1.5,15.14,15.14,0,0,1-6.7,1.3,13.63,13.63,0,0,0-8,2.1,15,15,0,0,1-1.8.9,3.94,3.94,0,0,1-2.7-.1c-.5-.2-.6-.2-.6-.1.5.9,1.8,1.6,3.9,1.2a9.68,9.68,0,0,0,2.4-.8c1.5-.7,3.2-1.5,7.4-1.2a14.34,14.34,0,0,0,6.7-1,12.91,12.91,0,0,1,6.5-.8,14.43,14.43,0,0,0-6.4,1.1,16,16,0,0,1-6.8,1,12.29,12.29,0,0,0-7.2,1.2,6.68,6.68,0,0,1-2.5.8,5.74,5.74,0,0,1-1.2.1Z"/><path class="cls-4" d="M241.4,151.9c-5.4.3-7.8,3.3-12.7,2.7,3.9,1.3,6.9-1.9,12.7-1.7Z"/><path class="cls-3" d="M256.8,151.2l37-17s.7-.3.5-.8-.9-.2-.9-.2l-38.2,14.2Z"/><path class="cls-4" d="M256.8,151.3l-.1-.2,37-17s.6-.3.5-.6-.7-.1-.7-.1l-38.2,14.2,38.1-14.4c.3-.1.9-.2,1.1.2s-.3.8-.6.9l-37.1,17Z"/><polygon class="cls-4" points="256.4 150.2 281.8 138.6 255.6 148.4 256.4 150.2"/><path class="cls-3" d="M269.6,147.8c5.6.2,8.7-3.3,13.7-2.8s7.9-2.3,9.8-3,3.1.7,3.4.1-1.3-1.8-4.1-1.4-3.6,2.5-9.7,2-7.6,2.5-13.2,1.8v3.3Z"/><path class="cls-4" d="M270.1,147.9h-.5v-.3a16.79,16.79,0,0,0,7-1.5,15.14,15.14,0,0,1,6.7-1.3c3.7.3,6.1-1.1,8-2.1a15,15,0,0,1,1.8-.9,3.94,3.94,0,0,1,2.7.1c.4.2.6.2.6.1-.5-.9-1.8-1.6-3.9-1.3a9.68,9.68,0,0,0-2.4.8c-1.5.7-3.3,1.5-7.4,1.2a15.76,15.76,0,0,0-6.7,1,12.91,12.91,0,0,1-6.5.8,18.66,18.66,0,0,0,6.4-1,16,16,0,0,1,6.8-1,12.29,12.29,0,0,0,7.2-1.2,9.23,9.23,0,0,1,2.5-.9c2.1-.3,3.6.3,4.1,1l.1.6c-.2.3-.5.2-.9.1a3.42,3.42,0,0,0-2.5-.1,15,15,0,0,0-1.8.9,13.76,13.76,0,0,1-8.1,2.1,14.44,14.44,0,0,0-6.6,1.3,14.94,14.94,0,0,1-6.6,1.6Z"/><path class="cls-4" d="M270.6,146.7c5.4-.3,7.8-3.3,12.7-2.7-3.9-1.3-6.9,1.9-12.7,1.7Z"/><path class="cls-3" d="M257.9,148.5l-17-37s-.3-.7-.8-.5-.2.9-.2.9l14.2,38.2Z"/><path class="cls-4" d="M254.2,150l-14.4-38.1a.78.78,0,0,1,0-.7l.7-.3c.3.1.5.6.5.6l17,37-.2.1L240.5,111l-.3.1-.1.7L254.2,150Z"/><polygon class="cls-4" points="256.9 148.9 245.3 123.5 255.1 149.7 256.9 148.9"/><path class="cls-3" d="M254.5,135.7c.2-5.6-3.3-8.7-2.8-13.8s-2.3-7.9-2.9-9.8.7-3.1.1-3.4-1.8,1.3-1.4,4,2.5,3.6,2,9.8,2.5,7.6,1.8,13.2Z"/><path class="cls-4" d="M254.7,135.7h-.3a16.79,16.79,0,0,0-1.5-7c-.8-2.1-1.6-4.2-1.3-6.7a12.42,12.42,0,0,0-2.1-7.9,15,15,0,0,1-.9-1.8,3.94,3.94,0,0,1,.1-2.7c.1-.4.2-.6.1-.7-.9.5-1.6,1.8-1.2,3.9a8.47,8.47,0,0,0,.8,2.4c.7,1.5,1.5,3.3,1.2,7.4a15.76,15.76,0,0,0,1,6.7,12.91,12.91,0,0,1,.8,6.5,16.72,16.72,0,0,0-1.1-6.4,16,16,0,0,1-1-6.8,12.29,12.29,0,0,0-1.2-7.2,6.68,6.68,0,0,1-.8-2.5c-.3-2.1.3-3.5,1-4l.6-.1c.3.2.2.5.1,1a3.42,3.42,0,0,0-.1,2.5,15,15,0,0,0,.9,1.8,13.54,13.54,0,0,1,2.1,8.1,14.44,14.44,0,0,0,1.3,6.6,16.78,16.78,0,0,1,1.5,6.9Z"/><path class="cls-4" d="M253.4,134.7c-.3-5.4-3.3-7.8-2.7-12.7-1.3,3.9,1.8,6.9,1.7,12.7Z"/><path class="cls-3" d="M254.1,150.1l17,37s.3.7.8.5.2-.9.2-.9l-14.2-38.2Z"/><path class="cls-4" d="M271.9,187.7c-.8-.1-.9-.6-.9-.6l-17-37,.2-.1,17,37s.3.6.6.5.1-.7.1-.7l-14.2-38.2,14.4,38.1a.63.63,0,0,1-.2,1Z"/><polygon class="cls-4" points="255.1 149.7 266.7 175.1 256.9 148.9 255.1 149.7"/><path class="cls-3" d="M257.5,162.9c-.2,5.6,3.3,8.7,2.8,13.8s2.3,7.9,2.9,9.8-.7,3.1-.1,3.4,1.8-1.3,1.4-4.1-2.5-3.6-2-9.7-2.5-7.6-1.8-13.2Z"/><path class="cls-4" d="M263.1,190c-.3-.2-.2-.5-.1-1a3.42,3.42,0,0,0,.1-2.5,15,15,0,0,0-.9-1.8,13.76,13.76,0,0,1-2.1-8.1,14.44,14.44,0,0,0-1.3-6.6,17.27,17.27,0,0,1-1.5-7.1h.3a17.27,17.27,0,0,0,1.5,7.1c.8,2.1,1.6,4.2,1.3,6.7a12.94,12.94,0,0,0,2.1,8,15,15,0,0,1,.9,1.8,3.94,3.94,0,0,1-.1,2.7c-.2.4-.2.6-.1.7.9-.5,1.6-1.8,1.3-3.9a9.68,9.68,0,0,0-.8-2.4c-.7-1.5-1.5-3.3-1.2-7.4a15.76,15.76,0,0,0-1-6.7,12.91,12.91,0,0,1-.8-6.5,16.36,16.36,0,0,0,1.1,6.4,16,16,0,0,1,1,6.8,12.88,12.88,0,0,0,1.2,7.3,6.68,6.68,0,0,1,.8,2.5c.3,2.1-.3,3.6-1,4.1l-.7-.1Z"/><path class="cls-4" d="M258.6,163.9c.3,5.4,3.3,7.8,2.7,12.7,1.3-3.9-1.9-6.9-1.7-12.7Z"/><path class="cls-3" d="M256,132.7a16.6,16.6,0,1,1-16.6,16.6A16.56,16.56,0,0,1,256,132.7Z"/><path class="cls-4" d="M256,166a16.7,16.7,0,1,1,16.7-16.7A16.73,16.73,0,0,1,256,166Zm0-33.2a16.45,16.45,0,1,0,16.5,16.4A16.5,16.5,0,0,0,256,132.8Z"/><path class="cls-4" d="M266.5,145.7c-2.9-2.5-6.6-2.9-8.7-1-1.5,2-1.3,4.3.4,6.8a.68.68,0,0,0-.5.3,8.59,8.59,0,0,1-.6-7.3c2.7-2.4,6.6-2.6,9.4,1.2Z"/><path class="cls-4" d="M261.9,144.9a3.48,3.48,0,0,0-2.8,1,2.9,2.9,0,0,1-1.3.6c-.1.1,0,.5.3.4a7.19,7.19,0,0,0,1.5-1,3.35,3.35,0,0,1,2.3-.6c2.3,0,3.6,1.9,3.8,1.8s-1.3-2.2-3.8-2.2Z"/><path class="cls-4" d="M264.8,147.1c-1.7-1.8-4.7-1.9-6,.1h.5c1.3-2,4.4-1.2,4.6-.3v.3Z"/><path class="cls-4" d="M261.6,145.8a1.2,1.2,0,0,1,0,2.4,1.13,1.13,0,0,1-1.1-1.2,1.2,1.2,0,0,1,1.1-1.2Z"/><path class="cls-4" d="M258.8,147.2c1.3,1.2,4.1,1.3,6-.1l-.9-.1a3.41,3.41,0,0,1-4.6.3V147Z"/><path class="cls-4" d="M264.9,147.8a5.06,5.06,0,0,1-5.6.8c-1.3-.8-1.3-1-1-1s.5.2,1.5.8c1,.4,2.6.4,5.1-.6Z"/><path class="cls-4" d="M258.7,151.6a.79.79,0,0,1-.5,1.5.75.75,0,0,1-.5-.7,1.68,1.68,0,0,1-1.6,1h-.3l.3.4a2.57,2.57,0,0,0,1.5-.4,1.15,1.15,0,1,0,1.9-1.3c-.3-.3-.5-.5-.8-.5Z"/><path class="cls-4" d="M260.2,156.9c-1.2-.8-1.6-1.9-2.9-1.9a2.69,2.69,0,0,0-1.3.4h-.3l.3.4c.5,0,1.3-.6,2.2-.1a17.33,17.33,0,0,0,2,1.2Z"/><path class="cls-4" d="M259.8,156.9a6.07,6.07,0,0,0-3.8-.2h-.3l.3.5c1,0,1.5-.8,3.8-.3Z"/><path class="cls-4" d="M260.2,156.9c-2.8-.2-1.9,1.4-4.2,1.4h-.3l.3.4c2.8,0,1.5-1.5,4.2-1.8Z"/><path class="cls-4" d="M258.3,161a2.3,2.3,0,0,0-4.6,0,2.29,2.29,0,0,1,2.8-1.7,2.4,2.4,0,0,1,1.8,1.7Z"/><path class="cls-4" d="M245.5,145.7c2.9-2.5,6.6-2.9,8.7-1,1.5,2,1.3,4.3-.4,6.8a.68.68,0,0,1,.5.3,8.59,8.59,0,0,0,.6-7.3c-2.7-2.4-6.6-2.6-9.4,1.2Z"/><path class="cls-4" d="M250.1,144.9a3.48,3.48,0,0,1,2.8,1,2.9,2.9,0,0,0,1.3.6c.1.1,0,.5-.3.4a7.19,7.19,0,0,1-1.5-1,3.35,3.35,0,0,0-2.3-.6c-2.3,0-3.6,1.9-3.8,1.8s1.3-2.2,3.8-2.2Z"/><path class="cls-4" d="M247.2,147.1c1.6-1.8,4.7-1.9,6,.1h-.5c-1.3-2-4.3-1.2-4.6-.3v.3Z"/><path class="cls-4" d="M250.4,145.8a1.13,1.13,0,0,0-1.1,1.2,1.2,1.2,0,0,0,1.1,1.2,1.13,1.13,0,0,0,1.1-1.2,1.2,1.2,0,0,0-1.1-1.2Z"/><path class="cls-4" d="M253.2,147.2c-1.3,1.2-4.1,1.3-6-.1l.9-.1a3.41,3.41,0,0,0,4.6.3V147Z"/><path class="cls-4" d="M247.1,147.8a5.06,5.06,0,0,0,5.6.8c1.3-.8,1.3-1,1-1s-.5.2-1.5.8c-1,.4-2.6.4-5.1-.6Z"/><path class="cls-4" d="M253.3,151.6a.83.83,0,0,0-.5,1,.88.88,0,0,0,1,.5.75.75,0,0,0,.5-.7,1.73,1.73,0,0,0,1.7,1h.2l-.2.4a2.41,2.41,0,0,1-1.5-.4,1.15,1.15,0,1,1-1.9-1.3c.2-.3.4-.5.7-.5Z"/><path class="cls-4" d="M251.8,156.9c1.1-.8,1.6-1.9,2.9-1.9a2.69,2.69,0,0,1,1.3.4h.2l-.2.4c-.5,0-1.3-.6-2.2-.1a17.33,17.33,0,0,1-2,1.2Z"/><path class="cls-4" d="M252.2,156.9a6.12,6.12,0,0,1,3.8-.2h.2l-.2.5c-1,0-1.5-.8-3.8-.3Z"/><path class="cls-4" d="M251.8,156.9c2.8-.2,1.9,1.4,4.2,1.4h.2l-.2.4c-2.8,0-1.5-1.5-4.2-1.8Z"/><path class="cls-4" d="M253.7,161a2.3,2.3,0,0,1,4.6,0,2.29,2.29,0,0,0-2.8-1.7,2.4,2.4,0,0,0-1.8,1.7Z"/></g></g></svg>