<svg xmlns="http://www.w3.org/2000/svg" viewBox="0 0 512 372"><defs><style>.cls-1{fill:#c60909;}.cls-2{fill:#fff;}</style></defs><g id="Layer_2" data-name="Layer 2"><g id="Layer_1-2" data-name="Layer 1"><g id="Layer_2-2" data-name="Layer 2"><g id="Layer_1-2-2" data-name="Layer 1-2"><rect class="cls-1" x="5" y="5" width="502" height="105" rx="7"/><path d="M500,10a2,2,0,0,1,2,2v91a2,2,0,0,1-2,2H12a2,2,0,0,1-2-2V12a2,2,0,0,1,2-2H500m0-10H12A12,12,0,0,0,0,12v91a12,12,0,0,0,12,12H500a12,12,0,0,0,12-12V12A12,12,0,0,0,500,0Z"/><path class="cls-1" d="M43,111.75H469c3.87,0,7,2.36,7,5.27V366.73c0,2.91-3.13,5.27-7,5.27H43c-3.87,0-7-2.36-7-5.27V117C36,114.11,39.13,111.75,43,111.75Z"/><path d="M469,114.2c1.1,0,2,.67,2,1.49V363.06c0,.82-.9,1.49-2,1.49H43c-1.1,0-2-.67-2-1.49V115.69c0-.82.9-1.49,2-1.49H469m0-7.45H43c-6.63,0-12,4-12,8.94V363.06C31,368,36.37,372,43,372H469c6.63,0,12-4,12-8.94V115.69C481,110.75,475.63,106.75,469,106.75Z"/><rect class="cls-2" x="91" y="114.2" width="330" height="248.8"/></g></g></g></g></svg>