<svg id="Layer_1" data-name="Layer 1" xmlns="http://www.w3.org/2000/svg" viewBox="0 0 36.05 8.13"><defs><style>.cls-1,.cls-2,.cls-3{fill:#fff;}.cls-2,.cls-3{isolation:isolate;font-size:5px;font-family:Rubik-Regular, Rubik;}.cls-3{letter-spacing:-0.05em;}</style></defs><g id="Layer_2" data-name="Layer 2"><g id="Layer_1-2" data-name="Layer 1-2"><path class="cls-1" d="M.65,4.08A.71.71,0,0,1,.3,3.57a.68.68,0,0,1,.37-.75l1.76-1L4.93.35A2.21,2.21,0,0,1,5.8,0,2.33,2.33,0,0,1,8.2,1.28c.18.3.33.61.49.92A2.69,2.69,0,0,1,9,3.48a1.88,1.88,0,0,1-.16.7A14.79,14.79,0,0,1,7.84,6c-.32.59-.66,1.15-1,1.73a.71.71,0,0,1-.75.39.77.77,0,0,1-.58-.62.83.83,0,0,1,.11-.46c.22-.38.45-.75.67-1.16A1,1,0,0,0,6,4.53a.94.94,0,0,0-1.29.31h0a1,1,0,0,0-.11.28,1,1,0,0,0,.09.75c.22.4.44.79.64,1.2a.69.69,0,0,1-.92,1,.58.58,0,0,1-.22-.22,15,15,0,0,1-.75-1.5,3.68,3.68,0,0,1-.23-.66V5.54l-.42.24-1.66.89a.71.71,0,0,1-1-.2l0,0a.77.77,0,0,1-.07-.16.79.79,0,0,1,.24-.75A2.88,2.88,0,0,1,0,5.17a.72.72,0,0,1,.27-.92ZM6.08.33a1.82,1.82,0,0,0-.33,0A2.31,2.31,0,0,0,5,.67L1.84,2.48l-1,.61a.38.38,0,0,0-.15.51.35.35,0,0,0,.45.2h.17L3.93,2.3c.1-.06.21,0,.24,0a.19.19,0,0,1-.06.23H4L2,3.67.54,4.52A.4.4,0,0,0,.36,5h0a.35.35,0,0,0,.47.16h0l1.64-.92,1.9-1.1a.16.16,0,0,1,.24,0h0c0,.08,0,.17-.08.23h0A2.25,2.25,0,0,0,3.49,5.58a2.93,2.93,0,0,0,.13.57c.08.18.16.36.26.54s.3.58.46.86a.37.37,0,0,0,.51.11A.4.4,0,0,0,5,7.47a.44.44,0,0,0,0-.32C4.79,6.76,4.57,6.4,4.37,6a1.34,1.34,0,0,1-.12-1,1.3,1.3,0,0,1,1.57-.93l.26.1A1.35,1.35,0,0,1,6.58,6h0c-.21.38-.42.75-.64,1.12a.41.41,0,0,0,0,.4.37.37,0,0,0,.47.2l.06,0a.58.58,0,0,0,.11-.15L8,5.11a8.53,8.53,0,0,0,.52-1,2.17,2.17,0,0,0,.19-.66,1.54,1.54,0,0,0-.17-.92,11.24,11.24,0,0,0-.7-1.33A1.93,1.93,0,0,0,6.08.33ZM3.51,4.08H3.4l-1.25.75-1.5.84a.37.37,0,0,0-.24.39.38.38,0,0,0,.38.36H1l.18-.09,2-1.13V5.13c.07-.24.13-.49.2-.75A1.08,1.08,0,0,1,3.51,4.08Z" transform="translate(0.05 -0.02)"/></g></g><text class="cls-2" transform="translate(10.38 5.52)">picku</text><text class="cls-3" transform="translate(22.91 5.52)">r</text><text class="cls-2" transform="translate(24.78 5.52)">apps</text></svg>