<svg xmlns="http://www.w3.org/2000/svg" viewBox="0 0 41.14 8.39"><defs><style>.cls-1,.cls-2{fill:#fff;}.cls-1{stroke:#fff;stroke-miterlimit:10;stroke-width:0.27px;}.cls-2{font-size:6px;font-family:Rubik-Regular, Rubik;}.cls-3{letter-spacing:0em;}.cls-4{letter-spacing:-0.01em;}.cls-5{letter-spacing:0em;}</style></defs><g id="Layer_2" data-name="Layer 2"><g id="_Layer_" data-name="&lt;Layer&gt;"><g id="Layer_2-2" data-name="Layer 2"><g id="Layer_1-2" data-name="Layer 1-2"><path class="cls-1" d="M.79,4.17a.72.72,0,0,1-.36-.51A.7.7,0,0,1,.8,2.91l1.77-1L5.07.45a2.26,2.26,0,0,1,.87-.3,2.33,2.33,0,0,1,2.4,1.23c.17.31.33.62.49.93a2.71,2.71,0,0,1,.3,1.28,1.83,1.83,0,0,1-.15.7A15.68,15.68,0,0,1,8,6.13c-.32.58-.66,1.15-1,1.72a.69.69,0,0,1-.74.39.71.71,0,0,1-.57-.62.69.69,0,0,1,.11-.46c.22-.38.45-.77.66-1.15a1,1,0,0,0-.34-1.37,1,1,0,0,0-1.41.6,1,1,0,0,0,.1.75l.64,1.19a.71.71,0,0,1,0,.74.67.67,0,0,1-1.14,0c-.27-.49-.54-1-.77-1.49a2.85,2.85,0,0,1-.16-.67s0-.07,0-.11l-.42.24c-.54.31-1.08.61-1.61.93a.69.69,0,0,1-1-.41.72.72,0,0,1,.24-.76,4,4,0,0,1-.27-.34.71.71,0,0,1,.27-.93ZM6.21.44l-.32,0a2.15,2.15,0,0,0-.77.31L2,2.6l-1,.6a.39.39,0,0,0-.16.51.36.36,0,0,0,.53.17l.09,0L4,2.32c.11-.06.21,0,.24,0a.17.17,0,0,1-.08.24l-2,1.17L.66,4.61a.4.4,0,0,0-.16.55A.36.36,0,0,0,1,5.29l1.58-.91,1.9-1.09a.18.18,0,0,1,.26,0q.08.14-.09.24h0a2.07,2.07,0,0,0-.8.86,2.15,2.15,0,0,0-.25,1.29,2.79,2.79,0,0,0,.14.57A3,3,0,0,0,4,6.83c.15.29.3.58.46.86a.34.34,0,0,0,.38.21.37.37,0,0,0,.31-.29.38.38,0,0,0,0-.31L4.49,6.12a1.33,1.33,0,0,1-.11-1A1.27,1.27,0,0,1,6.2,4.34a1.33,1.33,0,0,1,.49,1.85c-.21.38-.43.75-.65,1.13a.39.39,0,0,0,0,.39.35.35,0,0,0,.58.13.53.53,0,0,0,.11-.15L8.11,5.25c.18-.31.37-.62.52-.94a2.48,2.48,0,0,0,.18-.66,1.71,1.71,0,0,0-.16-.95A12.94,12.94,0,0,0,8,1.37,2,2,0,0,0,6.21.44ZM3.65,4.16l-.12.06-1.24.72L.76,5.81a.4.4,0,0,0-.23.4.36.36,0,0,0,.55.31l.2-.11,2-1.13s0,0,0-.07c.07-.24.12-.48.2-.72A1.89,1.89,0,0,1,3.65,4.16Z"/></g></g><text class="cls-2" transform="translate(10.34 5.95)">pic<tspan class="cls-3" x="8.34" y="0">k</tspan><tspan x="11.43" y="0">u</tspan><tspan class="cls-4" x="15.04" y="0">r</tspan><tspan class="cls-5" x="17.27" y="0">apps</tspan></text></g></g></svg>