<svg xmlns="http://www.w3.org/2000/svg" viewBox="0 0 512 298.7"><defs><style>.cls-1{fill:#fff;}.cls-2{fill:#f0953d;}.cls-3{fill:#3d8a41;}.cls-4{fill:#2a2874;}</style></defs><g id="Layer_2" data-name="Layer 2"><g id="Layer_1-2" data-name="Layer 1"><rect class="cls-1" width="512" height="298.7"/><rect class="cls-2" width="512" height="99.6"/><rect class="cls-3" y="199.1" width="512" height="99.6"/><path class="cls-4" d="M256,104.5a44.8,44.8,0,1,0,44.8,44.8A44.85,44.85,0,0,0,256,104.5m0,4.4-1.1,22.5,1.2,12.8,1.2-12.8-1.1-22.5c1.2,0,2.3.1,3.4.2v.2a1.9,1.9,0,0,0,1.9,1.9,1.83,1.83,0,0,0,1.8-1.6c1.1.2,2.2.4,3.3.7l-6.9,21.4-2.2,12.7,4.5-12.1,4.7-22a29.92,29.92,0,0,1,3.2,1,1.48,1.48,0,0,0-.1.7,1.82,1.82,0,0,0,1.9,1.8,1.91,1.91,0,0,0,1.7-1.1c1,.5,2,1,3,1.6l-12.2,18.9-5.4,11.7,7.5-10.5,10.3-20.1c1,.6,1.9,1.2,2.8,1.8a2.1,2.1,0,0,0-.4,1.1,1.9,1.9,0,0,0,1.9,1.9,2.13,2.13,0,0,0,1.5-.7,27.25,27.25,0,0,1,2.5,2.3l-16.7,15.1-8.2,9.9,9.9-8.2L285,120.8a27.25,27.25,0,0,1,2.3,2.5,1.85,1.85,0,0,0,1.2,3.3,1.5,1.5,0,0,0,1.1-.4,28.23,28.23,0,0,1,1.8,2.9l-20.5,10.2-10.5,7.5,11.7-5.4L291,129.1a31.82,31.82,0,0,1,1.6,3.2,1.75,1.75,0,0,0-1.1,1.7,1.9,1.9,0,0,0,1.9,1.9,1.48,1.48,0,0,0,.7-.1,28.11,28.11,0,0,1,1,3.1l-22,4.7L261,148.1l12.7-2.2,21.4-6.9c.3,1.1.5,2.2.7,3.3a1.83,1.83,0,0,0-1.6,1.8,1.9,1.9,0,0,0,1.9,1.9h.2c.1,1.1.2,2.2.2,3.4L274,148.3l-12.9,1.2,12.8,1.2,22.5-1.1c0,1.1-.1,2.3-.2,3.4H296a1.9,1.9,0,0,0-1.9,1.9,1.83,1.83,0,0,0,1.6,1.8c-.2,1.1-.4,2.2-.7,3.3l-7.6-2.5L273.6,153l-12.7-2.2h0l12.1,4.5,22,4.7a29.92,29.92,0,0,1-1,3.2c-.1,0-.2-.1-.3-.1h-.4a1.9,1.9,0,0,0-1.9,1.9,1.48,1.48,0,0,0,.1.7h0a1.79,1.79,0,0,0,.5.7h0l.1.1h0l.1.1h0l.1.1c-.5,1-1,2-1.6,3l-18.9-12.2h0l-11.7-5.4h0l6.1,4.3,4.4,3.1h0l20,10.2a29,29,0,0,1-1.9,2.9,2,2,0,0,0-1.1-.3,1.9,1.9,0,0,0-1.9,1.9,1.75,1.75,0,0,0,.7,1.4c-.7.9-1.5,1.7-2.2,2.5l-15.1-16.7-9.9-8.2,8.2,9.9,16.7,15.1c-.8.8-1.6,1.5-2.4,2.2a1.59,1.59,0,0,0-1.2-.4,1.9,1.9,0,0,0-1.9,1.9,2.35,2.35,0,0,0,.2.8c-1,.7-2,1.3-3,1.9l-10.3-20L258,154.1h0l5.4,11.7,12.2,18.9a21,21,0,0,1-3,1.5,1.89,1.89,0,0,0-3.6.8,1.7,1.7,0,0,0,.1.7c-1.1.4-2.2.7-3.3,1l-4.7-22-4.5-12.1h0l2.2,12.7,6.9,21.4c-1.1.3-2.2.5-3.3.7a1.83,1.83,0,0,0-1.8-1.6,1.9,1.9,0,0,0-1.9,1.9v.2c-1.1.1-2.2.2-3.4.2l1.2-22.5-1.2-12.8-1.2,12.8,1.2,22.5c-1.2,0-2.3-.1-3.5-.2v-.2a1.9,1.9,0,0,0-1.9-1.9,1.83,1.83,0,0,0-1.8,1.6,30.05,30.05,0,0,1-3.2-.7l6.9-21.4,2.2-12.7-4.5,12.1-4.7,22a29.92,29.92,0,0,1-3.2-1,1.48,1.48,0,0,0,.1-.7,1.88,1.88,0,0,0-1.8-1.9,1.91,1.91,0,0,0-1.7,1.1c-1-.5-2-1-3-1.6l12.2-18.9,5.4-11.7-7.5,10.5-9.6,19.8c-1-.6-1.9-1.2-2.9-1.8a2.1,2.1,0,0,0,.4-1.1,1.9,1.9,0,0,0-1.9-1.9,1.75,1.75,0,0,0-1.4.7c-.9-.7-1.7-1.5-2.5-2.2l16.7-15.1,8.2-9.9h0l-9.9,8.2-15.1,16.7a27.25,27.25,0,0,1-2.3-2.5,1.91,1.91,0,0,0,.7-1.4,1.88,1.88,0,0,0-1.8-1.9,1.5,1.5,0,0,0-1.1.4,28.23,28.23,0,0,1-1.8-2.9l20.1-10.3,10.5-7.5-11.7,5.4L221,169.5a20,20,0,0,1-1.5-2.9,1.84,1.84,0,0,0,1.2-1.7,1.86,1.86,0,0,0-2.7-1.7c-.4-1.1-.7-2.2-1-3.3l22-4.7,12.1-4.5-12.7,2.2L217,159.8c-.3-1.1-.5-2.2-.7-3.3a1.83,1.83,0,0,0,1.6-1.8,1.9,1.9,0,0,0-1.9-1.9h-.2c-.1-1.1-.1-2.2-.2-3.4l22.5,1.1,12.8-1.2-12.8-1.2-22.5,1.2c0-1.1.1-2.3.2-3.4h.3A1.9,1.9,0,0,0,218,144a1.86,1.86,0,0,0-1.7-1.9c.2-1.1.4-2.2.7-3.3l21.4,6.9,12.7,2.2L239,143.4l-22-4.7a29.92,29.92,0,0,1,1-3.2,1.48,1.48,0,0,0,.7.1,1.88,1.88,0,0,0,1.9-1.8,1.91,1.91,0,0,0-1.1-1.7c.5-1,1-2,1.6-3L240,141.3l11.7,5.4-10.5-7.5L221,129c.6-1,1.2-1.9,1.8-2.9a2.1,2.1,0,0,0,1.1.4,1.88,1.88,0,0,0,1.9-1.8,2.13,2.13,0,0,0-.7-1.5,27.25,27.25,0,0,1,2.3-2.5l15.1,16.7,9.9,8.2-8.2-9.9-16.7-15.1a27.25,27.25,0,0,1,2.5-2.3,1.91,1.91,0,0,0,1.4.7,1.79,1.79,0,0,0,1.8-1.8,2,2,0,0,0-.3-1.1c.9-.6,1.9-1.3,2.8-1.8L246,134.4l7.5,10.5-5.4-11.7-12.2-18.9a16.81,16.81,0,0,1,3-1.5,1.84,1.84,0,0,0,1.7,1.2,1.88,1.88,0,0,0,1.9-1.8,2.35,2.35,0,0,0-.2-.8c1.1-.4,2.2-.7,3.3-1l4.7,22,4.5,12.1-2.2-12.7-6.9-21.4c1.1-.3,2.2-.5,3.3-.7a1.83,1.83,0,0,0,1.8,1.6,1.9,1.9,0,0,0,1.9-1.9v-.2a11.59,11.59,0,0,1,3.3-.3"/><path class="cls-1" d="M256,142.6a6.7,6.7,0,1,1-6.7,6.7,6.7,6.7,0,0,1,6.7-6.7"/><path class="cls-4" d="M256,144.1a5.2,5.2,0,1,1-5.2,5.2,5.29,5.29,0,0,1,5.2-5.2"/></g></g></svg>