<svg xmlns="http://www.w3.org/2000/svg" viewBox="0 0 512 298.6"><defs><style>.cls-1{fill:#fff;}.cls-2{fill:#2c3282;}.cls-3{fill:#cb202b;}.cls-4{fill:#3b7aa2;}.cls-5{fill:#5370b6;}.cls-6{fill:#f4eb36;}.cls-7{fill:#c1a22e;}.cls-8{fill:none;}.cls-9{fill:#614022;}.cls-10{fill:#2b2876;}.cls-11{fill:#d3202b;}.cls-12{fill:#ba2025;}.cls-13{fill:#83383c;}.cls-14{fill:#84363c;}.cls-15{fill:#e8d62b;}.cls-16{fill:#624f1f;}.cls-17{fill:#010101;}.cls-18{fill:#f4c627;}.cls-19{fill:#f3c427;}</style></defs><g id="Layer_2" data-name="Layer 2"><g id="Layer_1-2" data-name="Layer 1"><rect class="cls-1" y="99.5" width="512" height="99.6"/><rect class="cls-2" y="199.1" width="512" height="99.5"/><rect class="cls-3" width="512" height="99.6"/><path class="cls-1" d="M196.6,98.1a178.57,178.57,0,0,1,118.7.1l14.9-30.1L319.7,49.9s-18.7,7.7-18.8,7.7-13.2-14.3-13.2-14.3L271,53.4l-15.7-12L240.5,53.2l-17.3-10L210.6,58.1,191.7,50,181.6,68.1Z"/><path class="cls-3" d="M315.6,98.8l-.4-.1a177.72,177.72,0,0,0-118.4-.1L181.4,68.5,191.5,50l19.4,7.9L223,43.1,240.8,53l14.3-11.8,16.2,12,16.2-10.1c5.6,5.6,13.2,14,13.7,14.4.1-.2,13.4-5.7,18.4-7.7l11,18.4-15,30.6ZM191.7,50.5l-9.5,17.9,14.9,29.5a166,166,0,0,1,58.1-10.3,178.11,178.11,0,0,1,59.9,10.1L329.8,68,319.3,50.2c-18.2,7.9-18.3,7.9-18.5,7.9s-.3,0-13.5-14.5L271.1,53.8l-16.2-12L240.7,53.6,223,43.7,211,58.6l-19.3-8.1Z"/><path class="cls-4" d="M292.2,89.7l8.5-30.2L319,52.1l9.6,16.2L314.8,96.6c-7.9-3.2-12.2-4.5-22.6-6.9Z"/><path class="cls-5" d="M314.9,96.7h0c-7.9-3.2-12.1-4.5-22.7-6.9l8.5-30.3L319,52l9.8,16.2L314.9,96.7Zm4-44.5-18.1,7.5-8.5,30.1a112.18,112.18,0,0,1,22.5,6.7l13.8-28.2-9.7-16.1Z"/><path class="cls-4" d="M244.1,86.5l-2.9-31.2,14.5-11.5,15.2,11.5-2.7,31.3a213.51,213.51,0,0,0-24.1-.1Z"/><path class="cls-5" d="M268.3,86.6h-.1c-8.4-.4-14.3-.4-24.1,0l-3-31.3,14.6-11.6L271,55.2l-2.7,31.4ZM255.6,43.8,241.3,55.3l2.9,31.2a191.28,191.28,0,0,1,23.9-.1l2.7-31.2L255.6,43.8Z"/><path class="cls-4" d="M197.4,96.6,183.9,68l9-15.8,18.8,8.2,7.9,29.5c-8.6,1.7-13.1,3.2-22.2,6.7Z"/><path class="cls-5" d="M197.3,96.7,183.7,68l9-15.9,18.9,8.1,8,29.6a142.27,142.27,0,0,0-22.3,6.9Zm-4.5-44.5L183.9,68l13.5,28.4a116.36,116.36,0,0,1,22.1-6.7l-8-29.4-18.7-8.1Z"/><path class="cls-1" d="M194.5,82.2a23.63,23.63,0,0,0,10.7-1,14.81,14.81,0,0,0,6.8-6.1c1,3.6.6,7-4.2,9.8-4.3,2.2-10.5,1.5-13.3-2.7Z"/><path class="cls-1" d="M202.5,86.2a9.43,9.43,0,0,1-8.1-3.9h3.5a22.65,22.65,0,0,0,7.2-1.2,13.92,13.92,0,0,0,6.5-5.7v.1a13.61,13.61,0,0,1-6.5,5.9,23.63,23.63,0,0,1-10.7,1c2.7,3.5,8.8,4.7,13.3,2.4,3.9-2.3,4.7-4.9,4.5-7.4.4,2.4-.4,5.2-4.4,7.5a10.42,10.42,0,0,1-5.3,1.3Z"/><path class="cls-6" d="M259.7,60.1l-.8.2v1.5l-1,.2-.7,1.3.4.4-.3,1,.3.3.3.8.7.1.2.9,1.1.2,1,.7.1.4h1.1l.8.2,2.7-.3.4-.6v-.8h1.4l.1-1.2h.8l-.1-1.4.6.1-.2-.6-.4-.5-.1-.8L267,61.1l-.3-1.4-.7-.3v-1l.8-1.1-.1-.5h-.8l-.6.5-.8.1v.3l.2.6h-.9v-1l-1.2-.6-1.1.8-.1.9-.6.2-.6-.8-1-.4h-.5V58l1,1.3Z"/><path class="cls-7" d="M262.7,68.7l-2.1-.3-.1-.6-.9-.5-1-.1-.4-1.1-.5.1-.6-1.9.4-.5-.6-.2.6-1.6,1.2-.3-.2-1.2,1-.4-.1-.6-1-1.2V57.2h.8l1.1.4.7.9.2-.9c0-.1,0-.1,1.3-1l1.5.6.2,1.2.4-.2-.2-.3c0-.7,0-.7,1-.7l.4-.4h1.1l.1.7-.9,1.3.1.8c0-.2.6.1.6.1l.4,1.6,1.1,1,.7,2.1-.9.3.4,1.1-1,.3.1,1-1.7.3.2.5-.4.7-3,.1Zm-.8-.8.8.2,2.6-.3.2-.4v-.6l1.7-.3-.1-1,1-.2-.3-1.1.9-.2-.8-.8-.1-1-1.1-1-.3-1.6c-.7-.2-.7-.2-.7-.4v-1l.9-1.3-.6-.1-.4.4a2.2,2.2,0,0,1-.8.1l.4.7-1.1.2-.3-1.2-1-.4a3.51,3.51,0,0,1-.9.7v.9l-.7.2-.8-.9-.9-.3-.2.4,1,1.2v1l-1,.4.2,1.2-1.2.5-.5,1.2c.5.3.5.4.2,1-.2,0-.2.1.1.5l.3.9.5-.1.4,1.1h.9l1.2.8.1.5.4.1Z"/><path class="cls-8" d="M267.4,65.5l-.2-.8Z"/><path class="cls-8" d="M268,64.2l-.4-.5Z"/><path class="cls-7" d="M257.6,63.6l1.2-.1.2,1,.4.3.1,1.9.4.2.1-.8.9-.1.2,1.5-.2.2.1.2h1.1l.3-.4s.6-.1.6,0a2.19,2.19,0,0,0,.3.5l.2-.6.6-.2.5.7.8-.1-.5-.5-.2-1,1.1-.6.4.7h.4l-.5-.9V63.8l.9-1.1,1.2-.1v-.3L267,61.2l-.3-1.5-.7-.3-.2.2-.7.1.7,1.1v.7l.3.2-.1,1.9-.8.1-.1,1.1-.5.5-.3,1-.5.6h-.9l-.5-.5-.1-.7a2.27,2.27,0,0,0-.4-.1l-.2-.8-.7-.5v-.5l-.6-.3a4.33,4.33,0,0,1-.1-.5l-.3-.2V61.6l.5-.1-.3-.4-.1-.3v-.3l.4-.4-.8-.1-.8.3v1.4l-.9.3-.7,1.2Z"/><path class="cls-7" d="M260.8,68.4l-.2-.4V66.2l-.6.3.1.5v.3l-.7-.3-.2-2.1-.6-1.3-1,.3-.5-.4.7-1.5,1-.4a4.87,4.87,0,0,1-.1-1.2,6.78,6.78,0,0,1,.9-.6,3.19,3.19,0,0,1,1,0l-.4,1.3-.4-.3.3-.6a.48.48,0,0,1-.4,0c.2.1-.3.2-.6.3v1.2l-1.1.5-.6,1,1.3-.1.5,1.2.5,2.3V66l1.1-.3.4,1.8-.2.2,1.1-.2V68l-1.3.4Zm3.6-.1c-.8-.9-.8-.9-.8-1l-.3.2v.1l-.1-.4c.6-.2.6-.2.7-.2a3.63,3.63,0,0,1,.7.9l.6-.2h-.6l-.3-1.1.1-.1h-.1l-.3.5-1.1.1c-.8-.6-.8-.6-.8-.8l-.1-.7c-.3.1-.4.1-.6-.9l-.6-.2v-.6l-.6-.1-.1-.6c-.3,0-.3,0-.3-1.5v-.2l.7-.1h0l.5.4-.8.1a2.77,2.77,0,0,1,.1.9l1,.8v.6l.5.2a4.71,4.71,0,0,1,.3.9c.4.2.5.9.5,1l.5.3.7-.1c.3-.6.4-.6.5-.6-.2,0,.1-.8.1-.8l.6-.6v-.9c0-.2,0-.2,1-.4l-.5-2.5-.7-.9.9-.5,1,.2.4,1.6,1.2,1v.6l-1.4.4-.7,1,.1,1.6h0a4.35,4.35,0,0,1,.4.7l-.6.4-.6-.9-.8.7.7,1.1-1,.6Zm.8-4.4c.1.1,0,.9,0,.9l-.6.7a6.18,6.18,0,0,1-.3,1l1.1-.8.3.3V64l.2-.3c-.2.1-.5.1-.7.2Zm.5-4.3-.8.3.9.7.3,2.8.5-.7,1.3-.2-1.3-1.1-.4-1.6-.5-.2Z"/><path class="cls-9" d="M262.2,65.5l.6-.3v-.7l-.6-.1-.2-.2.6.1.8-.1.3-.1c-.1.3-.2.3-.2.3l-.4.2v.7l1.4.2v.3l-1.4-.3-.9.5Z"/><path class="cls-7" d="M261.9,66.1l.3-.7.7-.4-.2-.7.3.1v-.1l.5-.2v.1l-.4.3.1.5c1.4.1,1.4.1,1.4.2-.2.4-.2.4-1.6.1l-1.1.8Z"/><path class="cls-7" d="M265.7,61.5l-.8.6-.5.9h-.3l-.8-1h-.9l-.5,1.2h-.4l-.9-1-.3-.5h2.3V60.6a1.69,1.69,0,0,1-.5-.2h1.3l-.5.3v.9h2Z"/><path class="cls-7" d="M262,63.5h-.4l-1.2-1.2-.2-.7,2.6-.1-.2-.8.3-.1c-.1,0-.2.1-.3.1-.2-.5.2-.5,1-.5h.8l-1.1.8.1.7,2.4-.4-1.2,1.9h-.5l-.8-1-.6.1c.1.1-.3,1-.3,1l-.4.2Zm1-1.8-2.5.2,1.4,1.1a10,10,0,0,0,.4-1.1l.7-.2Z"/><path class="cls-9" d="M261.6,62h.2a.22.22,0,0,1,.2.2v.2a.22.22,0,0,1-.2.2h-.2a.22.22,0,0,1-.2-.2v-.2c0-.2.1-.2.2-.2Z"/><path class="cls-9" d="M264.1,61.9h.2a.22.22,0,0,1,.2.2v.2a.22.22,0,0,1-.2.2h-.2a.22.22,0,0,1-.2-.2v-.2c0-.2.1-.2.2-.2Z"/><path class="cls-7" d="M260.5,60.4l-.3-.2.1-.3a6.06,6.06,0,0,1,2.4-.6,8,8,0,0,1,2.7.2,11.53,11.53,0,0,1-2.6.3,7,7,0,0,0-2.3.6Z"/><polygon class="cls-7" points="260.7 58.5 260 58.5 259 57.4 259.5 57.5 260.2 57.8 260.7 58.5"/><polygon class="cls-7" points="261.1 58.7 260 58.7 258.3 57.1 260.3 57.6 261.1 58.7"/><polygon class="cls-7" points="264.8 58.1 266.4 56.9 265.9 56.8 265.3 57.4 264.6 57.5 264.8 58.1"/><polygon class="cls-8" points="264.8 58.1 266.4 56.9 265.9 56.8 265.3 57.4 264.6 57.5 264.8 58.1"/><path class="cls-7" d="M263.9,58.3l-2.4.1v-.3l.9-.1.1-.3h.3l.2.3.9.2Z"/><polygon class="cls-7" points="261.2 58.6 261.2 58.1 262.4 57.8 261.9 58.1 262.7 58.1 262.5 57.8 263.9 57.9 264.1 58.3 263.9 58.5 261.2 58.6"/><polygon class="cls-7" points="263.8 57.4 262.9 57.4 262.9 56.9 263.8 57.4"/><polygon class="cls-8" points="263.8 57.4 262.9 57.4 262.9 56.9 263.8 57.4"/><polygon class="cls-7" points="262.3 57 262.3 57.4 261.5 57.6 262.3 57"/><polygon class="cls-8" points="262.3 57 262.3 57.4 261.5 57.6 262.3 57"/><polygon class="cls-7" points="257.7 65.3 258.1 64.3 257.7 63.5 257.3 64.6 257.7 65.3"/><polygon class="cls-8" points="257.7 65.3 258.1 64.3 257.7 63.5 257.3 64.6 257.7 65.3"/><polygon class="cls-7" points="258.5 65.9 259 64.6 258.1 65.6 258.5 65.9"/><polygon class="cls-7" points="258.7 66.2 258 65.9 258.8 64.5 258.2 65.8 258.5 65.9 258.3 65.8 258.9 64.5 258.7 66.2"/><path class="cls-6" d="M246.2,60.5l-.8.2v1.5l-1,.2-.7,1.3.4.4-.3,1,.3.3.3.8.7.1.2.9,1.1.2,1,.7.1.4h1.1l.8.2,2.7-.3.4-.6V67H254l.1-1.2h.8l-.1-1.4.6.1-.2-.6-.4-.5-.1-.8-1.1-1.1-.3-1.4-.7-.3v-1l.8-1.1-.1-.4h-.8l-.6.5-.8.1v.3l.2.6h-.9v-1l-1.2-.6-1.1.8-.1.9-.6.2-.6-.8-1-.4h-.5v.6l1,1.3Z"/><path class="cls-7" d="M249.2,69.1l-2.1-.3-.1-.6-.9-.5-1-.1-.4-1.1-.5.1-.6-1.8a2.07,2.07,0,0,0,.2-.6l-.4-.5.7-1.3,1.2-.3-.2-1.2,1-.5-.1-.6-1-1.2V57.5h.8l1.1.4.7.9.2-.9c0-.1,0-.1,1.3-1l1.5.6.2,1.2.4-.2-.2-.3c0-.7,0-.7,1-.8l.4-.4h1.1l.1.6-.9,1.3.1.8c0-.1.6.1.6.1l.4,1.6,1.1,1,.7,2.1-.9.3.4,1.1-1,.3.1,1-1.7.3.2.5-.4.7-3.1.4Zm-.8-.8.8.2,2.6-.3.2-.4v-.6l1.7-.3-.1-1,1-.2-.3-1.1.9-.2-.8-.8-.1-1-1.1-1-.3-1.6c-.7-.2-.7-.2-.7-.4v-1l.9-1.3-.6-.1-.4.4a2.77,2.77,0,0,1-.9.1l.4.7-1.1.2-.3-1.2-1-.4a3.51,3.51,0,0,1-.9.7v.9l-.7.2-.8-.9-.9-.3-.2.4,1,1.2v1l-1,.4.2,1.2-1.2.5-.5,1.2c.5.3.5.3.2,1.1-.2-.1-.2-.1.1.4l.3.9.5-.1.4,1.1h.9l1.2.8.1.5.5.1Z"/><path class="cls-8" d="M253.9,65.9l-.2-.8Z"/><path class="cls-8" d="M254.5,64.6l-.4-.5Z"/><path class="cls-7" d="M244.1,64l1.2-.1.2,1,.4.3.1,1.9.4.2.1-.8.9-.1.2,1.6-.2.2.1.2h1.1l.3-.4s.6-.1.6,0l.3.5.2-.6.6-.2.5.7.8-.1-.5-.5-.2-1,1.1-.6.4.7h.4l-.5-.8V64.4l.9-1.1,1.2-.1v-.5l-1.2-1.1-.3-1.5-.7-.3-.2.2-.7.1.7,1.1v.7l.3.2-.1,1.9-.8.1-.1,1.1-.5.5-.3,1-.5.6h-.9l-.5-.5-.1-.7a2.27,2.27,0,0,0-.4-.1c-.1,0-.2-.8-.2-.8l-.6-.3v-.5l-.6-.3a4.33,4.33,0,0,1-.1-.5l-.3-.2V62.2l.5-.1-.3-.4-.1-.3V61l.4-.4-.8-.1s-.8.4-.8.3v1.4l-.9.3-.7,1.2Z"/><path class="cls-7" d="M247.3,68.8l-.2-.4V66.6l-.6.3.1.6v.3l-.7-.3-.2-2.1-.6-1.3-1,.3-.4-.4.7-1.5,1-.4a4.87,4.87,0,0,1-.1-1.2,6.78,6.78,0,0,1,.9-.6h1l-.4,1.3-.4-.3.3-.6h-.4c.2.1-.3.2-.6.3v1.2l-1.1.5-.6,1,1.3-.1.5,1.2.5,2.3v-.6l1.1-.3.4,1.8-.2.2,1.1-.2v.5l-1.4.3Zm3.6-.1c-.8-.9-.8-.9-.8-1l-.3.2V68l-.1-.4c.6-.2.6-.2.7-.2l.7.9.6-.2h-.6l-.3-1.1,1.2-.9.3.3v-2l.2-.4a2.54,2.54,0,0,1-.7.2c.1.1,0,.9,0,.9l-.6.7c-.3,1.1-.3,1.1-.5,1.1l-.3.5-1.1.1c-.8-.6-.8-.6-.8-.8l-.1-.7c-.4.1-.4,0-.6-.9l-.6-.2-.1-.6-.6-.1-.1-.6c-.3,0-.3,0-.3-1.5v-.2l.7-.1h0l.5.4-.8.1a2.77,2.77,0,0,1,.1.9l1,.8.1.6.5.2a4.71,4.71,0,0,1,.3.9c.4.2.5.9.5,1,0-.1.5.3.5.3l.7-.1c.3-.6.4-.6.5-.6-.2,0,.1-.8.1-.8l.6-.6V64c0-.2.1-.2,1-.4l-.5-2.5-.7-.9.9-.5,1,.2.4,1.7,1.2,1v.6l-1.4.4-.7,1,.1,1.6h0a4.35,4.35,0,0,1,.4.7h0l-.6.4-.6-.9-.8.7.7,1.1-.9.5Zm1.3-8.6-.8.3.9.7.3,2.8.5-.7,1.3-.2-1.3-1.1-.4-1.6-.5-.2Z"/><path class="cls-9" d="M248.8,65.9l.6-.3v-.7l-.6-.1-.2-.2.6.1.8-.1.3-.1c-.1.3-.2.3-.2.3l-.4.2v.7l1.4.2v.3l-1.4-.3-.9.5Z"/><path class="cls-7" d="M248.4,66.6l.3-.7.7-.4-.2-.6.3.1v-.1l.6-.2v.1l-.4.3.1.5c1.4.1,1.4.1,1.4.2-.2.4-.2.4-1.6.1l-1.2.7Z"/><path class="cls-7" d="M252.2,61.9l-.8.6-.5.9h-.3l-.8-1h-.9l-.5,1.2H248l-.9-1-.3-.5h2.3V61a1.69,1.69,0,0,1-.5-.2h1.3l-.5.3V62h2Z"/><path class="cls-7" d="M248.5,63.9l-.4-.1-1.2-1.2-.2-.7,2.6-.1-.2-.8.2-.1c-.1,0-.2.1-.3.1-.2-.5.2-.5,1-.5h.8l-1.2.8.1.7,2.4-.4-1.2,1.9h-.5l-.8-1-.6.1c.1.1-.3,1-.3,1.1l-.2.2Zm1-1.8-2.5.2,1.4,1.1a10,10,0,0,0,.4-1.1l.7-.2Z"/><path class="cls-9" d="M248.1,62.4h.2a.22.22,0,0,1,.2.2v.2a.22.22,0,0,1-.2.2h-.2a.22.22,0,0,1-.2-.2v-.2a.22.22,0,0,1,.2-.2Z"/><path class="cls-9" d="M250.6,62.3h.2a.22.22,0,0,1,.2.2v.2a.22.22,0,0,1-.2.2h-.2a.22.22,0,0,1-.2-.2v-.2a.22.22,0,0,1,.2-.2Z"/><path class="cls-7" d="M247,60.8l-.3-.1.1-.3a7,7,0,0,1,2.3-.6,8,8,0,0,1,2.7.2,11.53,11.53,0,0,1-2.6.3,5.09,5.09,0,0,0-2.2.5Z"/><polygon class="cls-7" points="247.2 58.9 246.5 58.9 245.5 57.9 246.1 57.9 246.7 58.2 247.2 58.9"/><polygon class="cls-7" points="247.7 59.2 246.5 59.2 244.9 57.5 246.8 58 247.7 59.2"/><polygon class="cls-7" points="251.3 58.5 252.9 57.3 252.4 57.3 251.8 57.8 251.1 57.9 251.3 58.5"/><polygon class="cls-8" points="251.3 58.5 252.9 57.3 252.4 57.3 251.8 57.8 251.1 57.9 251.3 58.5"/><path class="cls-7" d="M250.4,58.7l-2.4.1v-.3l.9-.1.1-.3h.3l.2.3.9.2Z"/><polygon class="cls-7" points="247.7 59.1 247.7 58.5 248.9 58.2 248.4 58.5 249.2 58.5 249.1 58.2 250.4 58.4 250.6 58.7 250.4 59 247.7 59.1"/><polygon class="cls-7" points="250.3 57.8 249.4 57.8 249.4 57.4 250.3 57.8"/><polygon class="cls-8" points="250.3 57.8 249.4 57.8 249.4 57.4 250.3 57.8"/><polygon class="cls-7" points="248.9 57.4 248.8 57.9 248 58 248.9 57.4"/><polygon class="cls-8" points="248.9 57.4 248.8 57.9 248 58 248.9 57.4"/><polygon class="cls-7" points="244.2 65.7 244.6 64.7 244.2 64 243.9 65 244.2 65.7"/><polygon class="cls-8" points="244.2 65.7 244.6 64.7 244.2 64 243.9 65 244.2 65.7"/><polygon class="cls-7" points="245 66.3 245.6 65.1 244.6 66.1 245 66.3"/><polygon class="cls-7" points="245.2 66.7 244.5 66.3 245.3 65 244.8 66.2 245 66.3 244.8 66.2 245.4 64.9 245.2 66.7"/><path class="cls-2" d="M268.4,86.5l2.7-31.3,16.6-9.5,12.8,13.9L292,89.8a144.21,144.21,0,0,0-23.6-3.3Z"/><path class="cls-10" d="M292.1,89.8h0a158.41,158.41,0,0,0-23.7-3.2L271,55.1l16.6-9.6,13,13.9-8.5,30.4Zm-4.5-44.1-16.5,9.6-2.7,31.2a144.69,144.69,0,0,1,23.4,3.1l8.5-30.1L287.6,45.7Z"/><path class="cls-6" d="M253.2,72.2l-.8.2v1.5l-1,.2-.7,1.3.4.4-.3,1,.3.3.3.8.7.1.2.9,1.1.2,1,.7.1.4h1.1l.8.2,2.7-.3.4-.6v-.8h1.4l.1-1.2h.8l-.1-1.4.6.1-.2-.6-.4-.5-.1-.8-1.1-1.1-.3-1.4-.7-.3v-1l.8-1.1-.1-.5h-.7l-.6.5-.8.1v.3l.2.6h-.9v-1l-1.2-.6-1.1.8-.1.9-.6.2-.6-.8-1-.4h-.5v.6l1,1.3Z"/><path class="cls-7" d="M256.2,80.8l-2.1-.3-.1-.6-.9-.5-1-.1-.4-1.1-.5.1-.7-2-.1-.9.7-1.3,1.2-.3-.2-1.2,1-.4-.1-.6-1-1.2V69.3h.8l1.1.4.7.9.2-.9c0-.1,0-.1,1.3-1l1.5.6.2,1.2.4-.2L258,70c0-.7,0-.7,1-.8l.4-.4h1.1l.1.7-.9,1.3.1.8c0-.1.6.1.6.1l.4,1.6,1.1,1,.7,2.1-.9.3.4,1.1-1,.3.1,1-1.7.3.2.5-.4.7-3.1.2Zm-.8-.7.8.2,2.6-.3.2-.4V79l1.7-.3-.1-1,1-.2-.3-1.1.9-.2-.8-.8-.1-1-1.1-1-.3-1.6c-.7-.2-.7-.2-.7-.4v-1l.9-1.3-.6-.1-.4.4a2.77,2.77,0,0,1-.9.1l.4.7-1.1.2-.3-1.2-1-.4a3.51,3.51,0,0,1-.9.7v.9l-.7.2-.8-.9-.9-.3-.2.4,1,1.2v1l-1,.4.2,1.2-1.2.5-.5,1.2c.5.3.5.4.3,1-.2,0-.2.1.1.5l.3.9.5-.1.4,1.1h.9l1.2.8.1.5.4.1Z"/><path class="cls-8" d="M260.9,77.7l-.2-.8Z"/><path class="cls-8" d="M261.5,76.3l-.4-.5Z"/><path class="cls-7" d="M251.1,75.7l1.2-.1.2,1,.4.3.1,1.9.4.2.1-.8.9-.1.2,1.5-.2.2.1.2h1.1s.2-.4.3-.4.6-.1.6,0l.2.5.2-.6.6-.2.5.7.8-.1-.5-.5-.2-1,1.1-.6.4.7h.4l-.5-.9V75.9l.8-1.1,1.2-.1v-.5l-1.2-1.1-.3-1.5-.7-.3-.2.2-.7.1.7,1.1v.7l.3.2-.1,1.9-.8.1-.1,1.1-.5.5-.3,1-.5.6h-.9l-.5-.5-.1-.7a2.27,2.27,0,0,0-.4-.1l-.2-.8-.6-.3v-.5l-.6-.3a4.33,4.33,0,0,1-.1-.5l-.3-.2V73.7l.5-.1-.3-.4-.1-.3v-.3l.4-.4-.8-.1-.8.3v1.4l-.9.3-.7,1.2Z"/><path class="cls-7" d="M254.3,80.5l-.2-.4V78.3l-.6.3.1.5v.3l-.7-.3-.2-2.1-.6-1.3-1,.3-.4-.4.7-1.5,1-.4a4.48,4.48,0,0,1-.1-1.2,6.78,6.78,0,0,1,.9-.6c.3,0,1,.1,1,0l-.4,1.3-.4-.3.3-.6h-.4c.2.1-.3.2-.6.3v1.2l-1.1.5-.6,1.1,1.3-.1.5,1.2.5,2.3v-.6l1.1-.3.4,1.8-.2.2,1.1-.2v.5l-1.4.3Zm3.6-.1c-.8-.9-.8-.9-.8-1l-.3.9-.7-.5-.4.1.6-.3v.3l.5.3v-.1l-.2-.6c.6-.2.6-.2.7-.2a2.43,2.43,0,0,1,.7.9l.6-.2H258l-.3-1.1,1.2-.9.3.3v-2l.2-.3a2.54,2.54,0,0,1-.7.2c.1.1,0,.9,0,.9l-.6.7c-.3,1.1-.3,1.1-.5,1.1.1,0-.3.5-.3.5l-1.1.1c-.8-.6-.8-.6-.8-.8l-.1-.7c-.3.1-.4.1-.6-.9l-.6-.2v-.6l-.6-.1-.1-.5c-.3,0-.3,0-.3-1.5V74l.7-.1h0l.5.4-.9.1a2.77,2.77,0,0,1,.1.9c.3.1.3.1.4.6l.6.1v.6l.5.2a4.71,4.71,0,0,1,.3.9c.4.2.5.9.5,1,0-.1.5.3.5.3l.7-.1c.3-.6.3-.6.5-.6-.2,0,.1-.8.1-.8l.6-.6V76c0-.2,0-.2,1-.4l-.5-2.5-.7-.9.9-.5,1,.2.4,1.7,1.2,1v.6l-1.4.4-.7,1,.1,1.6h0a4.35,4.35,0,0,1,.4.7l-.6.4-.6-.9-.8.7.7,1.1-.7.2Zm1.3-8.6-.8.3.9.7.3,2.8.5-.6,1.3-.2-1.3-1.1-.4-1.6-.5-.3Z"/><path class="cls-9" d="M255.7,77.7l.6-.3v-.7l-.6-.1-.2-.2.6.1.8-.1.3-.1c-.1.3-.2.3-.2.3l-.4.2v.7l1.4.2V78l-1.4-.3-.9.5Z"/><path class="cls-7" d="M255.4,78.3l.3-.7.7-.4-.2-.7.3.1v-.1l.5-.2v.1l-.4.3.1.5c1.4.1,1.4.1,1.4.2-.2.4-.2.4-1.6.1l-1.1.8Z"/><path class="cls-7" d="M259.2,73.6l-.8.6-.5.9h-.3l-.8-1h-.9l-.5,1.2H255l-.9-1s-.3-.5-.2-.5h2.3V72.7a4.71,4.71,0,0,1-.5-.2H257l-.5.3v.9h2Z"/><path class="cls-7" d="M255.5,75.6l-.4-.1-1.2-1.2-.2-.7,2.6-.1-.3-.8.3-.1c-.1,0-.2.1-.3.1-.2-.5.2-.5,1-.5h.8l-1.1.8.1.7,2.4-.4-1.2,2h-.5l-.8-1-.6.1c.1.1-.3,1-.3,1l-.3.2Zm1-1.8L254,74l1.4,1.1a10,10,0,0,0,.4-1.1l.7-.2Z"/><path class="cls-9" d="M255.1,74.1h.2a.22.22,0,0,1,.2.2v.2a.22.22,0,0,1-.2.2h-.2a.22.22,0,0,1-.2-.2v-.2a.22.22,0,0,1,.2-.2Z"/><path class="cls-9" d="M257.6,74h.2a.22.22,0,0,1,.2.2v.2a.22.22,0,0,1-.2.2h-.2a.22.22,0,0,1-.2-.2v-.2a.22.22,0,0,1,.2-.2Z"/><path class="cls-7" d="M254,72.5l-.3-.2.1-.3a6.06,6.06,0,0,1,2.4-.6,8,8,0,0,1,2.7.2,11.53,11.53,0,0,1-2.6.3,7,7,0,0,0-2.3.6Z"/><polygon class="cls-7" points="254.2 70.6 253.5 70.6 252.5 69.6 253.1 69.7 253.7 69.9 254.2 70.6"/><polygon class="cls-7" points="254.7 70.9 253.5 70.9 251.8 69.3 253.8 69.7 254.7 70.9"/><polygon class="cls-7" points="258.3 70.2 259.9 69 259.4 69 258.8 69.5 258.1 69.6 258.3 70.2"/><polygon class="cls-8" points="258.3 70.2 259.9 69 259.4 69 258.8 69.5 258.1 69.6 258.3 70.2"/><path class="cls-7" d="M257.4,70.4l-2.4.1v-.3l.9-.1.1-.3h.3l.2.3.9.2Z"/><polygon class="cls-7" points="254.7 70.8 254.7 70.2 255.9 69.9 255.4 70.3 256.2 70.2 256 69.9 257.4 70.1 257.6 70.4 257.4 70.7 254.7 70.8"/><polygon class="cls-7" points="257.3 69.5 256.4 69.5 256.4 69.1 257.3 69.5"/><polygon class="cls-8" points="257.3 69.5 256.4 69.5 256.4 69.1 257.3 69.5"/><polygon class="cls-7" points="255.9 69.1 255.8 69.6 255 69.7 255.9 69.1"/><polygon class="cls-8" points="255.9 69.1 255.8 69.6 255 69.7 255.9 69.1"/><polygon class="cls-7" points="251.2 77.5 251.6 76.4 251.2 75.7 250.9 76.8 251.2 77.5"/><polygon class="cls-8" points="251.2 77.5 251.6 76.4 251.2 75.7 250.9 76.8 251.2 77.5"/><polygon class="cls-7" points="252 78 252.5 76.8 251.6 77.8 252 78"/><polygon class="cls-7" points="252.2 78.4 251.5 78 252.3 76.7 251.7 78 252 78 251.8 77.9 252.4 76.6 252.2 78.4"/><path class="cls-3" d="M272.5,80.9l-.8,1,.1.8h1.7c.6-.1.7-.3.8-.5s0-.4.1-.8Z"/><path class="cls-11" d="M271.7,82.8l-.1-.9.9-1,2,.4-.1.9h.1a1.09,1.09,0,0,1-.9.6Z"/><path class="cls-3" d="M276.6,83.2l-.8.6-.1.8,1.5.1c.6-.1.6-.2.8-.4s.1-.3.2-.6Z"/><path class="cls-11" d="M277.3,84.7l-1.6-.1v-.9l.8-.7,1.8.4-.3.7.1.1c0,.3-.2.4-.8.5Z"/><path class="cls-3" d="M283.4,81.2l-.8.8v.6l1.6.1c.6-.1.5-.1.6-.4s.1-.3.2-.7Z"/><path class="cls-11" d="M284.3,82.8l-1.6-.1-.1-.7.8-.9,1.8.4-.2.8.1.1c-.2.3-.3.3-.8.4Z"/><path class="cls-3" d="M288.2,82.7l-.9.8v.8l1.7.2c.6-.1.6-.3.7-.5s.1-.3.1-.7Z"/><path class="cls-11" d="M289,84.5l-1.7-.2-.1-.9,1-.9,1.8.5-.1.8a1,1,0,0,1-.9.7Z"/><path class="cls-3" d="M276.6,62.1l3.3,2.2c.6-.5,1.9-.2,2.4-.1.9.2,1.5.8,2.3.9a13.55,13.55,0,0,0,4.4.5,9.27,9.27,0,0,0,3.4-1.3V64h-.6a7.28,7.28,0,0,1-3.6.2c-1.1-.1-1.4-.6-3.1-1.1l-.1-.3a7,7,0,0,0,3.3-.3,5.45,5.45,0,0,0,1.7-1v-.4h-.6a3.35,3.35,0,0,1-2.5.5c-1.1-.1-2.1-.7-2.8-.7s-.7-.4-1.5-.4a14.21,14.21,0,0,0-3.6.3,3.89,3.89,0,0,0-2.4,1.3Z"/><path class="cls-12" d="M288.2,65.8a17.19,17.19,0,0,1-3.7-.5,6.12,6.12,0,0,1-1.2-.5,11.73,11.73,0,0,0-1.1-.5,2.91,2.91,0,0,0-2.3,0l-3.4-2.2a4.22,4.22,0,0,1,2.3-1.6,11.43,11.43,0,0,1,3.6-.3,1.55,1.55,0,0,1,.8.2,1.17,1.17,0,0,0,.7.2,7.89,7.89,0,0,1,1.3.3,4.19,4.19,0,0,0,1.6.4,3.2,3.2,0,0,0,2.4-.5h0l.6.1V61h0v.1h-.1l-.2.6a3.22,3.22,0,0,1-1.3.8,3.74,3.74,0,0,1-2,.4h-.5l.5-.2a3.58,3.58,0,0,0,1.9-.4,4,4,0,0,0,1.3-.7l.3-.4a4.75,4.75,0,0,1-3,.4c-.6-.1-1.1-.3-1.6-.4a3,3,0,0,0-1.2-.3,1.55,1.55,0,0,1-.8-.2,1.17,1.17,0,0,0-.7-.2,11.43,11.43,0,0,0-3.6.3,3.39,3.39,0,0,0-2,1.1l3,2.2c.2-.4,1.2-.4,2.4-.1a6.12,6.12,0,0,1,1.2.5,2.46,2.46,0,0,0,1.1.4,14.47,14.47,0,0,0,4.4.5,7.29,7.29,0,0,0,2.9-1.1l-.1-.3a6.48,6.48,0,0,1-3.6.2,4.57,4.57,0,0,1-1.4-.5,8,8,0,0,0-1.7-.6l.4-.1a4.78,4.78,0,0,1,1.4.6,4.57,4.57,0,0,0,1.4.5,9.1,9.1,0,0,0,3.6-.2h.7l-.4.8a7.29,7.29,0,0,1-2.9,1.1Z"/><path class="cls-13" d="M277.2,61.7a9.44,9.44,0,0,1,.9.3c.3.1.2.1.5.3,0-.3,0-.2-.2-.4s-.5-.4-.7-.6Z"/><path class="cls-8" d="M277.2,61.7a9.44,9.44,0,0,1,.9.3c.3.1.2.1.5.3,0-.3,0-.2-.2-.4s-.5-.4-.7-.6Z"/><path class="cls-13" d="M280,64a1.33,1.33,0,0,0-.3-.8,2.51,2.51,0,0,0-.4-.7,1.27,1.27,0,0,1,.6.4,1.34,1.34,0,0,1,.2.9Z"/><path class="cls-8" d="M280,64a1.33,1.33,0,0,0-.3-.8,2.51,2.51,0,0,0-.4-.7,1.27,1.27,0,0,1,.6.4,1.34,1.34,0,0,1,.2.9Z"/><path class="cls-13" d="M280.6,60.6a2.39,2.39,0,0,1,.3.7c.1.4.2.9.2.9v-.9c0-.3-.2-.5-.2-.8Z"/><path class="cls-8" d="M280.6,60.6a2.39,2.39,0,0,1,.3.7c.1.4.2.9.2.9v-.9c0-.3-.2-.5-.2-.8Z"/><polygon class="cls-13" points="283.2 60.7 283.4 62.3 283.5 60.8 283.2 60.7"/><polygon class="cls-8" points="283.2 60.7 283.4 62.3 283.5 60.8 283.2 60.7"/><path class="cls-13" d="M282.6,64a2.15,2.15,0,0,0,0-.8,2.35,2.35,0,0,0-.2-.8,1.37,1.37,0,0,1,.5.8,1.14,1.14,0,0,1-.3.8Z"/><path class="cls-8" d="M282.6,64a2.15,2.15,0,0,0,0-.8,2.35,2.35,0,0,0-.2-.8,1.37,1.37,0,0,1,.5.8A1.14,1.14,0,0,1,282.6,64Z"/><path class="cls-13" d="M285.3,63.3a2.42,2.42,0,0,1,0,.9c-.1.4-.2.4-.4.6.3-.2.6-.3.7-.5,0-.4-.2-1-.3-1Z"/><path class="cls-8" d="M285.3,63.3a2.42,2.42,0,0,1,0,.9c-.1.4-.2.4-.4.6.3-.2.6-.3.7-.5C285.6,63.9,285.4,63.3,285.3,63.3Z"/><path class="cls-13" d="M285.8,62.8c-.2,0-.2-.8-.3-1.1.1,0,.2,0,.3.2v.9Z"/><path class="cls-8" d="M285.8,62.8c-.2,0-.2-.8-.3-1.1.1,0,.2,0,.3.2Z"/><path class="cls-13" d="M287.7,62.5l.1-.6h.2v.6c0-.1-.3,0-.3,0Z"/><path class="cls-8" d="M287.7,62.5l.1-.6h.2v.6C288,62.4,287.7,62.5,287.7,62.5Z"/><path class="cls-13" d="M287.5,64.2c.1.2.3.4.4.6a.85.85,0,0,1-.2.6h.3a1.08,1.08,0,0,0,.2-.7.86.86,0,0,0-.3-.6Z"/><path class="cls-14" d="M288,65.6h-.4l.1-.7-.3-.6h.1l.5.5a.73.73,0,0,1-.2.6l.2.1-.1-.1a1.42,1.42,0,0,0,.2-.6l-.2-.5a.51.51,0,0,1,.4.5,1.33,1.33,0,0,1-.3.8Z"/><polygon class="cls-13" points="289.8 64.4 289.9 65.3 290.1 65.2 290 64.4 289.8 64.4"/><polygon class="cls-8" points="289.8 64.4 289.9 65.3 290.1 65.2 290 64.4 289.8 64.4"/><path class="cls-6" d="M276.4,62.3a3,3,0,0,0-1.4,1l-2.1-1.1a1,1,0,0,0-.3,1.1,5.54,5.54,0,0,0,1.3,1.4,6.61,6.61,0,0,1-.5,1.5c-.2.6-.7,1.3-.7,1.5s-.1.8.3,1a13.4,13.4,0,0,0,2-.1,2.35,2.35,0,0,0-.2.8c0,.2.2.2.5.2-.1.2-.3.5-.2.6a.8.8,0,0,0,.8.1l-.6.6a11.3,11.3,0,0,0-1.1,1.1c-.3.5-.4,1,.3.9-.3.3-.5.5-.4.8s.2.5.7.3a3.08,3.08,0,0,0,0,1.9,7.72,7.72,0,0,0-.2,1.5c-.5.3-.5.6-.9,1.2s-.8.8-1.1,2l1.9.5c.1-.3.3-.4.4-.7a1.39,1.39,0,0,0,0-.9,17.61,17.61,0,0,0,1.4-2.3,2.6,2.6,0,0,1,1-.4c.3,0,.5.2.8.4-.1.5-.6,1.1-.6,1.8v2c-.1.5-.6.5-.9,2l1.7.4c.3-.5.8-.6.9-.8l.1-2c.2-1,1.6-1.8,1.6-2.8a2,2,0,0,0,.9-.1c.3-.1.3-.2.6-.4.1.3.3.3.5.3s.6-.3.8-.4a.78.78,0,0,0,.4.4,2.88,2.88,0,0,0,1.3-.1L284,79.8a1.27,1.27,0,0,1-.1.6c-.1.2-.3.3-.4.6l1.6.4.3-.7a2,2,0,0,0,.8-.4c.2-.2.2-.6.3-.9a18.78,18.78,0,0,0,2-2,1.78,1.78,0,0,1,1.2.9,5.81,5.81,0,0,1-.2,2.2l-1,1.6-.1.3,1.6.6,1-.8V81.1a7.61,7.61,0,0,1,2-2,5.63,5.63,0,0,0,0-1.3c-.2-.1-.3-.1-.3-.3a4.8,4.8,0,0,1,0-1.2c.1-.1.3-.3.3-.4-.3-.3-.2-1.1-.1-1.7s.9-1.5,1.1-2l.1-.7c-.1-.2-.3-.3-.3-.4s.2-.4.3-.6l.2-.3V68.4c-.1-.2-.2-.5-.4-.5s-.4.2-.6.3l-.9.7a2.8,2.8,0,0,1-1.6,0h-1.2a1.81,1.81,0,0,1-1.6-.1h-.7a5.94,5.94,0,0,1-.8.4c-.2,0-.6.1-.8,0a3.64,3.64,0,0,0-1.9.4,3.5,3.5,0,0,0-1.9-.3l-.6-.2a6,6,0,0,1-2-2.4c1.7-.5,2.4-1,2.9-2.2l-2.4.1Z"/><path class="cls-15" d="M278.5,83.5l-1.8-.5a2.81,2.81,0,0,1,.6-1.7l.2-2.3a2.84,2.84,0,0,1,.4-1.3l-.5-.8a2.65,2.65,0,0,0-1,.3,15.92,15.92,0,0,1-1.3,2.2,2.55,2.55,0,0,1,0,.9l-.5.8-1.9-.5a2.45,2.45,0,0,1,.7-1.7l.5-.9c.2-.3.3-.6.7-.8a3.6,3.6,0,0,1-.5.9c-.3.6-.4.8-.6.9a3,3,0,0,0-.7,1.5l1.8.3.3-.6a1.1,1.1,0,0,0,0-.8,14.17,14.17,0,0,0,1.4-2.3c.8-.5,1.3-.5,1.8-.2.2.4.2.6.1.8a2.38,2.38,0,0,0-.3,1.2v2a4.57,4.57,0,0,0-.9,2l1.5.3a1.33,1.33,0,0,1,.6-.5l.3-2.2a3.53,3.53,0,0,1,.8-1.3,2.78,2.78,0,0,0,.8-1.5h.5l.2-.1.4.1-.8.1a2.78,2.78,0,0,1-.8,1.5,3.75,3.75,0,0,0-.7,1.2l-.1,2a3.3,3.3,0,0,0-1.2,1Zm11.6-.4-1.7-.6,1.1-2a6.53,6.53,0,0,0,.2-2.2,1.78,1.78,0,0,0-1.1-.8,11.38,11.38,0,0,1-1.9,1.9l-.3.8a1.61,1.61,0,0,1-.7.4l-.4.7-1.7-.3.4-.6-.1.3,1.3.5.1-.6c.5-.2.7-.3.8-.5l.3-.9a17.5,17.5,0,0,0,2-1.9,1.57,1.57,0,0,1,1.4.9,5.14,5.14,0,0,1-.2,2.3l-1,1.6,1.4.7.9-.8V81a5,5,0,0,1,1.7-1.8,5.76,5.76,0,0,0,.3-1.4,1.87,1.87,0,0,1-.3-1.5,16.46,16.46,0,0,1,.2-2.1,2.67,2.67,0,0,1,.7-1.4,2.09,2.09,0,0,0,.4-.6l.1-.7a1,1,0,0,1,0-1.1l.2-2.1h0l-.8-.1-.9.7a2.44,2.44,0,0,1-1.7,0h-1.2a1.81,1.81,0,0,1-1.6-.1h-.7a3,3,0,0,1-.8.4l-.8-.1v.1c-1.3.1-1.4.2-1.6.3h-.7c-.2-.1-.4-.2-1.6-.2l-.7-.2a6.77,6.77,0,0,1-2.1-2.5c1.8-.6,2.4-1.1,2.9-2.3l-2.3.2-3.5-2.3a2.09,2.09,0,0,0-1,.8l-.2-.1a2.26,2.26,0,0,1,1.2-.9l3.5,2.3,2.4-.1c-.4,1.3-1.2,1.9-2.9,2.4a8.75,8.75,0,0,0,2,2.2l.6.2a4.11,4.11,0,0,1,1.7.2,14.26,14.26,0,0,1,2.1-.3h.8c.2,0,.4-.2.6-.3l.9-.1a2,2,0,0,0,1.5.1h1.2a2.8,2.8,0,0,0,1.6,0l.9-.7c.1-.1.4-.4.6-.4a.9.9,0,0,1,.5.6V70l-.5.9.2,1.2a2.09,2.09,0,0,1-.4.6,2.79,2.79,0,0,0-.7,1.3c-.1.5-.2,1.4.1,1.7a4.12,4.12,0,0,0-.3,1.6c.4.3.4.3.3,1.5a9.69,9.69,0,0,0-2,2.2v1.1l-.7,1ZM284,80.4h0v-.7l1.4-2.3c-.1.2-.6.3-.9.3l-.7-.4c-.6.5-1.1.8-1.4,0l.6.1c.1,0,.2-.1.7-.4l.5.4c.5,0,1-.1,1.2-.1L284,80.4Zm-9.5-3.1a2.57,2.57,0,0,1,.2-1.4,2.49,2.49,0,0,1,0-1.9c-.5.2-.6.1-.7-.2a.86.86,0,0,1,.3-.6,3.54,3.54,0,0,1-.1.6l.2-.1.4.4a2.56,2.56,0,0,0,0,1.5,8.17,8.17,0,0,0-.1,1.4c-.1,0-.1.2-.2.3Zm-.4-4.6c-.2-.2-.2-.4,0-.7a8.18,8.18,0,0,0,.8-.9l.9-.9a.6.6,0,0,1-.8,0l.2-.6v.1l.6.4-.3.7a14.35,14.35,0,0,0-1.3,1.3c0,.2-.1.4-.1.6Zm1.2-3-.5-.3c-.1-.2,0-.4.1-.7a3.54,3.54,0,0,1-.6.1c-.3,0-.7.1-.9.1a.93.93,0,0,1-.8-1.1,1.74,1.74,0,0,1,.3-.7c.1-.3.3-.5.4-.8a6.61,6.61,0,0,0,.5-1.5,3.25,3.25,0,0,1-1.3-1.3,1.1,1.1,0,0,1,.3-1.2l1.4.7-1.4-.5a1.09,1.09,0,0,0-.2,1,4.89,4.89,0,0,0,1.2,1.3,3.77,3.77,0,0,1-.5,1.6c-.1.3-.3.5-.4.8s-.3.6-.3.7c-.1.4-.1.8.2.9h1.3c.3,0,.5-.1.7-.1l.5,1Z"/><path class="cls-16" d="M275.5,65.3l.7.3a.76.76,0,0,0,.4.2c.1,0,.2-.1.3-.2l.6-.3c-.4-.1-.5-.3-.9-.3a4.51,4.51,0,0,0-1.1.3Z"/><path class="cls-16" d="M276.6,65.9l-1.1-.5h.1v-.1h.1a2.67,2.67,0,0,1,1-.4l.6.3-.6-.1-.9.2.8.5v0l.1-.2.6-.4.2.1-.9.6Z"/><path class="cls-7" d="M276.8,73.3c0,.1-.1.1-.1,0a5.87,5.87,0,0,0-.5-2,11.69,11.69,0,0,1,.6,2Z"/><path class="cls-8" d="M276.8,73.3c0,.1-.1.1-.1,0a5.87,5.87,0,0,0-.5-2A11.69,11.69,0,0,1,276.8,73.3Z"/><path class="cls-7" d="M280.8,73.4a.6.6,0,0,0,.4-.1c.1-.2-.1-.4-.2-.6-.2-.5-.4-.9-.5-1.2-.1-.1-.2-.1-.2,0,.2.6.4,1.8.5,1.9Z"/><path class="cls-8" d="M280.8,73.4a.6.6,0,0,0,.4-.1c.1-.2-.1-.4-.2-.6-.2-.5-.4-.9-.5-1.2-.1-.1-.2-.1-.2,0C280.5,72.1,280.7,73.3,280.8,73.4Z"/><path class="cls-7" d="M283,73.2c0,.1-.3,0-.4-.2a16.25,16.25,0,0,1-.4-1.9c.1,0,.4.5.5.8a3.55,3.55,0,0,1,.3,1.3Z"/><path class="cls-8" d="M283,73.2c0,.1-.3,0-.4-.2a16.25,16.25,0,0,1-.4-1.9c.1,0,.4.5.5.8A3.55,3.55,0,0,1,283,73.2Z"/><path class="cls-7" d="M282.7,76.4c0,.1.3,0,.3-.1.3-.5.7-.9.8-1.1a5,5,0,0,0,.3-1.4s-.3.6-.7,1.3a9.32,9.32,0,0,0-.7,1.3Z"/><path class="cls-7" d="M282.8,76.6l-.1-.1c0-.1-.1-.2.7-1.5l.4-.8h.1l-.4,1a8.74,8.74,0,0,0-.7,1.3v0l.7-.8a5.85,5.85,0,0,0,.6-1.5c.2.2,0,1.1-.1,1.1l-1.2,1.3Z"/><path class="cls-7" d="M284.9,75.7a10.5,10.5,0,0,1,.2-1.3c.1-.3.1-.9.3-1.6a3.93,3.93,0,0,1-.5,2.9Z"/><path class="cls-7" d="M284.9,75.9l-.1-.1c-.1-.1,0-.2.1-.9l.4-2.1a3.44,3.44,0,0,1-.3,3l-.1.1Z"/><path class="cls-7" d="M286.2,72.2c-.1.1-1-1.5-.9-1.5a7.35,7.35,0,0,1,.9,1.2c0,.1.1.2,0,.3Z"/><path class="cls-8" d="M286.2,72.2c-.1.1-1-1.5-.9-1.5a7.35,7.35,0,0,1,.9,1.2C286.2,72,286.3,72.1,286.2,72.2Z"/><path class="cls-7" d="M288.4,73.4c-.1-.1,0-.6-.2-1.1s-.4-1.1-.3-1.2.2,0,.3.1c.1.3.2,1.4.3,2.2.1,0,0,.1-.1,0Z"/><path class="cls-8" d="M288.4,73.4c-.1-.1,0-.6-.2-1.1s-.4-1.1-.3-1.2.2,0,.3.1c.1.3.2,1.4.3,2.2C288.6,73.4,288.5,73.5,288.4,73.4Z"/><path class="cls-7" d="M290,72c-.1-.1.2.5.4,1.3a17,17,0,0,0,.4,1.9c.1-.1.1-.2.3-.3h1a8,8,0,0,1-1.3-1.3A4.81,4.81,0,0,1,290,72Z"/><path class="cls-7" d="M290.8,75.3h0l-.2-.6a7,7,0,0,0-.3-1.4,6.21,6.21,0,0,0-.3-1h0c0-.1-.1-.1-.1-.2a1.76,1.76,0,0,1,.4.5l.6.9a10,10,0,0,0,1,1.1l-1.1.7Z"/><path class="cls-1" d="M297.9,69.7a138.21,138.21,0,0,1,13.4,3.5c4.3,1.4,8.5,3.1,12.7,4.9l-7,14.2c-3.9-1.5-7.8-2.7-11.7-3.9s-7.6-2.4-11.6-3.6Z"/><path class="cls-1" d="M316.9,92.4h0c-3.4-1.3-6.7-2.4-10-3.4l-1.7-.6c-2.7-.9-5.3-1.6-7.9-2.4l-3.7-1.1,4.2-15.2a120.9,120.9,0,0,1,13.5,3.4A136,136,0,0,1,324,78l-7.1,14.4Zm-19-22.6-4.1,15,3.6,1c2.6.8,5.3,1.6,7.9,2.4l1.7.6c3.3,1,6.5,2.1,9.9,3.4l7-14.1c-3.6-1.4-7.9-3.2-12.6-4.7a109.48,109.48,0,0,0-13.4-3.6Z"/><path class="cls-3" d="M296.9,73s6.6,1.5,12.9,3.5,12.5,4.7,12.5,4.7l-4,8.1c-3.8-1.5-7.8-2.9-11.8-4.2s-7.9-2.5-12-3.4Z"/><path class="cls-11" d="M318.4,89.4h0c-3.8-1.5-7.7-2.9-11.9-4.3-3.8-1.2-7.8-2.5-12-3.4l2.3-8.7a119.88,119.88,0,0,1,13,3.4,113.41,113.41,0,0,1,12.4,4.7c-.6,0-6.4-2.5-12.5-4.5-6.3-2-12.8-3.5-12.9-3.5l-2.3,8.5a109.25,109.25,0,0,1,11.9,3.3c4.1,1.3,8.1,2.7,11.7,4.2,3.5-7.1,3.9-8,4-8.1l.1.1c.1.4-2.7,6.1-3.8,8.3Z"/><path class="cls-17" d="M297.5,77c.6-.4,1.1-.5,1.4-1h2.3v.8a10.93,10.93,0,0,0,1.5.8c.6.3,1.4.5,1.9.8l5,.4a8.08,8.08,0,0,1,2.2.7,4,4,0,0,1,1.3,1.3,10.76,10.76,0,0,0,3.1.7c1.1.2,2.4.2,3.4.3.5.2.5.4.3.7a2.62,2.62,0,0,1-2.1.8c-1.5,0-3.3-.9-4-.7,0,.5.8,1.4,1.7,1.8v2.2l-.4.4-.4-.3c.4-.5.2-1.1.1-1.7-.3-.5-.4-.7-1-.7a4.48,4.48,0,0,1-2.3-1l-.3.1a1.45,1.45,0,0,1-.9.8l-1-.1-2.3-.5v-.4h.8a10.62,10.62,0,0,0,1.5.1v-.8l1.5-.1c-.3-1.1-.4-1.7-1.8-2l-4.4.1.1.6a11.23,11.23,0,0,0-4.1.2c-.6.1-1.4.4-1.8.4l-.5-.1c-.3-.1-.3-.2-.2-.4a5.34,5.34,0,0,0,2.8-.6c0-.2-.2-.6-.3-.6a19.65,19.65,0,0,0-2.5,0,7.69,7.69,0,0,1-1.2-.4l-.1-.5.8.2a6.45,6.45,0,0,0,2.5-.1v-.6c0-.3-.2-.6-.3-.6s-1.3-.2-1.8-.2-.5-.4-.5-.8Z"/><path class="cls-17" d="M315.1,87.2l-.5-.3a2.52,2.52,0,0,0,.1-1.7c-.3-.5-.4-.6-.9-.6a4.57,4.57,0,0,1-2.1-.9,10.09,10.09,0,0,0,2.1.7c.6,0,.7.2,1,.6a2,2,0,0,1,0,2l.4.2-.1-.1.4-.4V84.6a2.68,2.68,0,0,1-1.7-1.8,3.33,3.33,0,0,1,1.7.2,10,10,0,0,0,2.4.4,2.41,2.41,0,0,0,2-.7,12.34,12.34,0,0,0-3.6-.8,28.17,28.17,0,0,1-3.1-.7,4,4,0,0,0-1.3-1.3,8.08,8.08,0,0,0-2.2-.7l-5-.4c-.3-.1-.7-.3-1-.4s-.7-.3-1-.4a4.35,4.35,0,0,1-.7-.4,4.35,4.35,0,0,0-.7-.4l-.1-.9-2.2.1a1.65,1.65,0,0,1-1,.8c-.4.6-.4.8.2.9a5.54,5.54,0,0,1,1.8.2c.1,0,.3.3.4.7v.6a4.85,4.85,0,0,1-2.7.2l-.5-.2.1-.1c1.8.4,2.6.2,2.9,0V79c-.3-.5-1.5-.6-1.9-.6-.7-.1-.7-.5-.7-.8v-.1l.5-.4a2.54,2.54,0,0,0,1-.8l2.4-.1.1.9a2.12,2.12,0,0,1,.7.3,4.35,4.35,0,0,0,.7.4,10.37,10.37,0,0,0,1,.4c.3.1.7.3,1,.4l4.9.4a10.1,10.1,0,0,1,2.3.7,2.74,2.74,0,0,1,1.3,1.3c1,.3,2,.5,3,.7s2.4.2,3.4.3h.1l.4.4a2.31,2.31,0,0,1-2.4,1.3,7,7,0,0,1-2.5-.5,4.41,4.41,0,0,0-1.4-.3,3,3,0,0,0,1.6,1.6v2.4l-.6.3Zm-4.9-2.9h-1c-2.4-.5-2.4-.5-2.4-.6.1-.5.2-.5,1-.5a10.62,10.62,0,0,0,1.5.1l-.1-.7,1-.1-.9.2.1.7a4.16,4.16,0,0,1-1.6,0H307a11.09,11.09,0,0,0,2.2.7l1,.1a1.56,1.56,0,0,0,.8-.8c.1,0,.2.1.3.1a4.44,4.44,0,0,1-1.1.8Zm.5-2c-.4-.9-.6-1.5-1.8-1.7l-4.4.1.2.5a10.82,10.82,0,0,1-1.8,0,6.71,6.71,0,0,0-2.3.3,4.4,4.4,0,0,0-1,.2,3.71,3.71,0,0,1-.9.2l-.8-.3c.1,0,.2-.1.4-.1l.4.3v-.1a3.09,3.09,0,0,0,.8-.2,3.55,3.55,0,0,1,1-.2,10.5,10.5,0,0,1,2.4-.3,10.28,10.28,0,0,1,1.8.1l-.2-.5,4.5-.2c1.4.2,1.6.9,1.7,1.9Zm-11.8-1.1a7.23,7.23,0,0,0,1.8-.7l-1.1-.4H298a8.93,8.93,0,0,1-1.3-.5l.2-.2a5.36,5.36,0,0,0,1.1.5h2.4a1,1,0,0,1,.4.7c-.4.4-.7.5-1.9.6Z"/><path class="cls-1" d="M307.1,82.2a6.87,6.87,0,0,0,2.2.3l1.5-.1c-.3-1.1-.4-1.7-1.8-2l-4.4.1.1.6c1.3.6,1.9.9,2.4,1.1Z"/><path class="cls-17" d="M309.3,82.6h0a6.65,6.65,0,0,1-2.2-.4c-.8-.3-1.4-.6-2.5-1l-.1-.7,4.5-.2c1.4.2,1.6.9,1.9,1.9h-.1c-.4-.9-.6-1.5-1.8-1.7l-4.4.1.2.5c1,.3,1.6.6,2.1.7a11.43,11.43,0,0,0,2.4.5l1.1-.1-1.1.4Z"/><path class="cls-2" d="M219.8,89.7l-7.9-29.6L224,45.4l17,9.7,2.9,31.4a232.57,232.57,0,0,0-24.1,3.2Z"/><path class="cls-10" d="M219.7,89.9h0l-8-29.7,12.1-14.8,17.1,9.7,2.9,31.5a203.78,203.78,0,0,0-24.1,3.3Zm4.2-44.4-12,14.7,7.9,29.4a195.89,195.89,0,0,1,24-3.2l-3-31.3-16.9-9.6Z"/><path class="cls-6" d="M191.4,65.1l2.9,2.3-.6,4,3.8-1.6,3,2.3.4-3.6,3.1-1.2-2.5-2.4.6-3.6-3.7,1.3-2.7-2.2-.6,3.4Z"/><path class="cls-18" d="M200.5,72.2l-3.2-2.4-3.6,1.6.4-4.1-2.9-2.1,3.6-1.7c.5-3.3.5-3.4.5-3.4.2,0,2.9,2.2,2.9,2.2s3.6-1.3,3.6-1.3l-.4,3.8,2.5,2.3-3.1,1.4-.3,3.7Zm-3.1-2.6,2.9,2.1.4-3.4,3.2-1.3-2.6-2.2.5-3.7a32.31,32.31,0,0,1-3.6,1.5c-.2-.2-2.6-2.1-2.7-2.2a33.1,33.1,0,0,1-.4,3.3l-3.7,1.6,2.9,2-.5,4.1,3.6-1.8Z"/><path class="cls-19" d="M191.4,65.1l12.5,2-3.1,1.3-3-2.1s2.7,5.6,2.6,5.6-2.8-2.1-2.9-2.2l.3-3.4-4,5,.6-3.9Z"/><polygon class="cls-18" points="194.9 63.7 197.8 66.1 195.5 60.2 194.9 63.7"/><path class="cls-18" d="M198.2,62.5l-.4,3.6c.3-.4,4.1-5,4.1-5s-3.6,1.4-3.7,1.4Z"/><path class="cls-6" d="M310.1,60l.7,3.6-3,2.7,3.9,1.2.8,3.6,2.7-2.5,3.1,1-.3-3.5,2.8-2.4-3.7-1.3s-.5-3.4-.6-3.4l-2.7,2.2Z"/><path class="cls-18" d="M312.4,71.3l-.8-3.8-3.8-1.1,3-2.9L310,60l3.8,1c2.6-2.2,2.6-2.2,2.7-2.3a22.87,22.87,0,0,1,.7,3.6c.2,0,3.6,1.2,3.6,1.2L318,66.1l.4,3.4-3.3-.9-2.7,2.7Zm-2.3-11.2.9,3.5-3.1,2.8,3.8,1,.8,3.5,2.6-2.4,3.2,1-.5-3.4,2.8-2.5a23.73,23.73,0,0,1-3.7-1.2c0-.2-.5-3.2-.6-3.4,0,.1-2.6,2.3-2.6,2.3l-3.6-1.2Z"/><path class="cls-18" d="M310.2,60.1l8.2,9.4-3.2-1-.9-3.5-1.7,6s-.8-3.4-.8-3.5l2.5-2.5L308,66.3l3-2.6Z"/><polygon class="cls-18" points="313.8 61.2 314.4 64.9 316.6 58.9 313.8 61.2"/><path class="cls-18" d="M317.1,62.3l-2.7,2.5c.5-.1,6.4-1.1,6.4-1.2s-3.7-1.2-3.7-1.3Z"/><path class="cls-3" d="M211.9,60.2a46.83,46.83,0,0,1,14.3-4.4,104.7,104.7,0,0,1,14.9-.8s.6,7.7.6,7.8a89.49,89.49,0,0,0-13.9.9c-6.9,1-9.8,1.8-14,3.4Z"/><path class="cls-11" d="M213.7,67.3l-1.9-7.1a44.68,44.68,0,0,1,14.3-4.5,100.14,100.14,0,0,1,13.9-.8h1c.1.1.8,7.8.8,7.9l-1.2.1a76.21,76.21,0,0,0-12.8.9c-7,1-9.8,1.8-14,3.4l-.1.1Zm27.2-12.2-.9.1a86.75,86.75,0,0,0-13.9.8,45.64,45.64,0,0,0-14.2,4.4l1.9,6.7c4.1-1.6,7-2.4,14-3.4a107.72,107.72,0,0,1,12.8-.9h1.1c-.1,0-.8-7.7-.8-7.7Z"/><path class="cls-3" d="M215.6,73.9c-.1,0,2.2,8.2,2.2,8.2,4.1-1,8.4-1.8,12.6-2.4s8.7-.9,12.8-1.2l-.7-8a68.89,68.89,0,0,0-13.6.3,67.61,67.61,0,0,0-13.3,3.1Z"/><path class="cls-11" d="M217.7,82.2h0c-2.3-8.3-2.2-8.3-2.2-8.4a61.28,61.28,0,0,1,13.2-3.1,77.07,77.07,0,0,1,13.7-.3l.8,8.1c-4,.4-8.6.7-12.9,1.3a117.28,117.28,0,0,0-12.6,2.4ZM237,70.4a66.84,66.84,0,0,0-8.2.5A76,76,0,0,0,215.6,74c.1.1,1.4,4.8,2.2,7.9a110.89,110.89,0,0,1,12.5-2.4c4.3-.6,8.9-.9,12.8-1.2l-.8-7.9c-1.6.1-3.4,0-5.3,0Z"/><path class="cls-1" d="M195.8,99.1H316.2v77.2c-3.1,30.1-32,52.6-58.4,52.4-28.5,1.2-60-22.1-62.3-52.6Z"/><path class="cls-3" d="M255.7,229.2c-26.8,0-58.2-21.8-60.6-53.1l.3-77,120.9-.4.4,77.7c-3.2,31.1-33.4,52.8-58.5,52.8ZM315.8,99.1l-120,.4L196,176c2.4,31.6,34.9,53.4,61.9,52.2,25.1,0,54.8-21.3,58-52l-.1-77.1Z"/><path class="cls-3" d="M198.3,101.8H313.7v74c-2.9,28.8-30.6,50.4-55.9,50.2-27.3,1.2-57.5-21.2-59.7-50.5Z"/><path class="cls-3" d="M255.7,226.5c-25.7,0-55.8-20.9-58-50.9l.3-73.8,115.8-.4.4,74.4c-3,29.8-32,50.6-56.1,50.6a21.82,21.82,0,0,1-2.4.1Zm57.6-124.7-115,.4.2,73.3c2.3,30.3,33.5,51.1,59.3,50,24,0,52.6-20.5,55.6-49.8l-.1-73.9Z"/><rect class="cls-1" x="221.5" y="102.2" width="22.9" height="24.7"/><path class="cls-1" d="M290.5,176.3v24.4l13,.1c6.3-9.4,9-18.5,9.6-24.5-.2.1-22.5,0-22.6,0Z"/><path class="cls-1" d="M303.5,200.9l-13-.1-.1-24.5,10.8-.1H313c-.1,3-1.6,13-9.5,24.7Zm-13-24.4.1,24.3h12.8c7.7-11.6,9.2-21.6,9.5-24.4l-11.7.1Z"/><path class="cls-1" d="M267.6,201v23.4c10-2,18.1-7,22.7-10.3V201Z"/><path class="cls-1" d="M267.5,224.6V201l22.8-.1.1,13.2c-5.1,3.7-13.1,8.5-22.8,10.4l-.1.1ZM290.2,201l-22.6.1.1,23.2A61.08,61.08,0,0,0,290.3,214l-.1-13Z"/><path class="cls-1" d="M221.7,201v13.1a64.3,64.3,0,0,0,22.7,10.1l-.1-23.2Z"/><path class="cls-1" d="M244.5,224.3h-.1a66.37,66.37,0,0,1-22.7-10.1l-.1-13.2,22.8-.1.1,23.4Zm-.2-23.3-22.6.1.2,13a65.46,65.46,0,0,0,22.5,10l-.1-23.1Z"/><path class="cls-1" d="M198.7,176.4c.7,9.6,5,18.1,9.3,24.1l13.4.3V176.4Z"/><path class="cls-1" d="M221.5,200.9h-.1l-13.4-.3c-3.2-4.4-8.6-13.4-9.4-24.2l22.8-.1.1,24.6Zm-.2-24.6-22.6.1c.9,10.7,6.3,19.6,9.4,23.9l13.2.2V176.3Z"/><rect class="cls-1" x="198.6" y="126.9" width="22.9" height="24.7"/><rect class="cls-1" x="244.5" y="126.9" width="22.9" height="24.7"/><rect class="cls-1" x="267.4" y="102.1" width="22.9" height="24.7"/><rect class="cls-1" x="290.4" y="126.9" width="22.9" height="24.7"/><rect class="cls-1" x="221.5" y="151.6" width="22.9" height="24.7"/><rect class="cls-1" x="267.4" y="151.6" width="22.9" height="24.7"/><rect class="cls-1" x="244.5" y="176.2" width="22.9" height="24.7"/><path class="cls-7" d="M278.7,73.1c-.1.1-.3-1.1-.3-1.3s-.2-.9-.4-1.6a5.19,5.19,0,0,1,.7,2.9Z"/><path class="cls-7" d="M278.7,73.2c-.1,0-.2-.1-.3-1l-.5-2a3.59,3.59,0,0,1,1,2.9l-.2.1Z"/></g></g></svg>