<svg xmlns="http://www.w3.org/2000/svg" viewBox="0 0 512 298.7"><defs><style>.cls-1{fill:#e91d26;}.cls-2{fill:#2e6934;}.cls-3{fill:#f4eb32;}.cls-4{fill:#010101;}.cls-5{fill:none;}.cls-6{fill:#fff;}.cls-7{fill:#2d2d86;}</style></defs><g id="Layer_2" data-name="Layer 2"><g id="Layer_1-2" data-name="Layer 1"><rect class="cls-1" x="179.1" width="332.9" height="298.7"/><rect class="cls-2" width="179.1" height="298.7"/><path class="cls-3" d="M237.4,195.6c-22.5-.7-125.9-65.2-126.6-75.5l5.7-9.5c10.3,14.9,115.9,77.7,126.3,75.5l-5.4,9.5Z"/><path class="cls-3" d="M115.3,109.3c-2,5.4,27,23.4,61.9,44.6s65,34.3,67.2,32.5c.1-.3,1.1-1.9,1-1.9-.4.6-1.4.8-3,.4-9.4-2.7-34-14-64.4-32.5s-56.9-35.5-61-42.7a4.65,4.65,0,0,1-.5-2.1h-.1l-.9,1.5-.2.2ZM238,195.9c-.4.7-1.1.7-2.4.6-8.4-.9-34-13.4-64.3-31.5-35.2-21.1-64.3-40.3-61.2-45.4l.9-1.5h.2c-2.8,8.5,57.4,43,61,45.2,34.9,21.6,64.3,34.2,66.9,31l-1.1,1.6Z"/><path class="cls-4" d="M236.6,196.8a4.48,4.48,0,0,1-1.1-.1c-8.6-1-34.5-13.6-64.4-31.6-40-24-60.1-38.4-61.4-44.1a2.13,2.13,0,0,1,.2-1.6l.8-1.5v.5l-.5,1.2a1.43,1.43,0,0,0-.1,1.3c1.3,5.6,21.4,19.9,61.2,43.8,29.9,17.9,55.7,30.5,64.2,31.5,1.3.1,1.9.1,2.2-.5l.6-1a3.59,3.59,0,0,1-1.1.2c-7.1,0-33.5-11.8-65.3-31.5-.3-.2-1.2-.7-2.4-1.4-38.9-23-58.7-37.5-58.8-43.3.8,3.8,9.9,14,59,42.9,1.2.7,2.1,1.2,2.4,1.4,31.7,19.7,58,31.4,65,31.4a2.23,2.23,0,0,0,1.5-.4v.1c0,.2,0,.3-.1.4l-.4,1.4a1.37,1.37,0,0,1-1.5.9Zm7-10c-5.2,0-33.8-12.7-66.6-32.7-37.5-22.9-64-39.5-61.9-44.9l1-1.8a.1.1,0,0,0,.1.1l-.6,1.6c-2.2,5.7,31.7,26.4,61.7,44.6,32.7,19.9,61.1,32.6,66.3,32.6a1.45,1.45,0,0,0,.6-.1c.2-.4.4-.7.6-1.1a4.33,4.33,0,0,1-2.5-.1c-10.3-3-35.8-15.1-64.5-32.5-27.8-16.9-56.7-35.1-61.1-42.8a5.09,5.09,0,0,1-.5-2.2c.4.7.6,1.6.9,2,4.3,7.7,34.9,26.8,61,42.7,28.7,17.4,54.1,29.5,64.4,32.5,1.4.4,2.4.3,2.8-.3.5.2.5.2-.4,1.7-.6.6-.8.7-1.3.7Z"/><path class="cls-3" d="M179.2,126.3c22.6-.2,50.4-3.1,66.4-9.5l-3.5-5.6c-9.5,5.2-37.5,8.7-63.2,9.2-30.4-.3-51.8-3.1-62.6-10.3l-3.3,6c19.9,8.4,40.1,10.1,66.2,10.2Z"/><path class="cls-3" d="M246.5,117c-.6.9-11,4.5-26.4,7.1a268.86,268.86,0,0,1-41,3,286.24,286.24,0,0,1-39.3-2.5c-16.2-2.5-24.5-6.1-27.6-7.3.3-.6.5-1,.8-1.5a121.5,121.5,0,0,0,27.1,7.2,298,298,0,0,0,39,2.5,276.65,276.65,0,0,0,40.7-3c15.8-2.5,24.4-5.8,25.6-7.4l1.1,1.9Zm-3-5.7c-1.7,1.4-10.2,4.4-25.2,6.8a274.54,274.54,0,0,1-39,2.7,266.3,266.3,0,0,1-37.7-2.4,109.36,109.36,0,0,1-26.3-6.6l.9-1.5c2.3,1.1,10.1,4.3,25.5,6.5a280.16,280.16,0,0,0,37.5,2.3,254,254,0,0,0,38.7-2.8c15.1-2.1,23.2-5.9,24.4-6.9l1.2,1.9Z"/><path class="cls-4" d="M178.6,127.3a281.18,281.18,0,0,1-38.8-2.5c-15.7-2.5-24.2-5.9-27.3-7.2l-.1-1,.5-1a133.07,133.07,0,0,0,27.3,7.1,281.78,281.78,0,0,0,38.7,2.5,278.72,278.72,0,0,0,41-3c15.6-2.5,24.3-5.8,25.5-7.3l1.5,2c-.6,1.2-11.5,4.9-26.5,7.5a267.39,267.39,0,0,1-41.1,3h-.7ZM112.9,116l-.5,1.4a141.61,141.61,0,0,0,27.4,7,297.71,297.71,0,0,0,38.8,2.5v.2l.5-.2a267,267,0,0,0,41-3c15.8-2.7,25.8-6.3,26.2-7l-1.1-1.7c-.8,1.5-8.8,4.8-25.4,7.5a278,278,0,0,1-40.8,3,283.11,283.11,0,0,1-39-2.5,126.29,126.29,0,0,1-27.1-7.2Zm66.1,5a263.18,263.18,0,0,1-37.4-2.4c-13.5-1.8-21.3-4.7-25.1-6.2l-1.2-.5.5-1.4c.1-.1.4-.5.5-.5,1.3.7,8.8,4.1,25.5,6.5a263.07,263.07,0,0,0,37.2,2.3,262.31,262.31,0,0,0,39-2.8c14.4-2,22.9-5.7,24.3-6.9l1.4,1.9c-1.7,1.6-10.1,4.7-25.4,7.1a263.35,263.35,0,0,1-39,2.7c0,.2-.3.2-.3.2Zm-62.8-10.5-.6,1.4,1.1.2a100.61,100.61,0,0,0,25,6.1,262.18,262.18,0,0,0,37.4,2.4v.2l.3-.2a277.62,277.62,0,0,0,39-2.7c15.2-2.4,23.5-5.4,25.1-6.8l-1.1-1.6c-.8.9-8.6,4.9-24.2,7a275.44,275.44,0,0,1-38.7,2.8A281.06,281.06,0,0,1,142,117c-16.9-2.4-24.5-5.9-25.8-6.5Z"/><path class="cls-3" d="M105.1,153.5C119,161,149.8,164.7,179,165c26.6,0,61.2-4.1,74.1-11l-.4-7.5c-4,6.3-41.1,12.4-74,12.2s-63.5-5.3-73.6-11.9v6.7Z"/><path class="cls-3" d="M253.8,152.5v1.8c-1.9,2.3-14.1,5.8-29.4,8.3a301.65,301.65,0,0,1-45.7,3.1,286.94,286.94,0,0,1-43.4-3c-17.6-2.6-28.8-7-31-8.4v-2.1c6.8,4.5,25.1,7.8,31.3,8.8a283.56,283.56,0,0,0,43.1,3,299.72,299.72,0,0,0,45.5-3.1c10.9-1.6,26.5-5.7,29.6-8.4Zm0-6.4v1.8c-1.9,2.3-14.1,5.8-29.4,8.3a301.65,301.65,0,0,1-45.7,3.1,286.94,286.94,0,0,1-43.4-3c-17.6-2.6-28.8-7-31-8.4v-2.1c6.8,4.5,25.1,7.8,31.3,8.8a283.56,283.56,0,0,0,43.1,3,299.72,299.72,0,0,0,45.5-3.1c10.9-1.5,26.5-5.6,29.6-8.4Z"/><path class="cls-4" d="M178.6,165.9a286.2,286.2,0,0,1-43.4-3c-16.8-2.4-28.4-6.8-31.1-8.4l-.1-2.3c7.1,4.3,25.9,7.7,31.5,8.6a282.09,282.09,0,0,0,43.1,3,297.17,297.17,0,0,0,45.4-3.1c10.9-1.6,26.5-5.7,29.6-8.4l.4,2c-2.1,2.6-14.5,6.1-29.6,8.5a317.24,317.24,0,0,1-45.8,3.1Zm-74.5-13.5.3,1.9c1.6.8,12.5,5.5,30.9,8.2a286.2,286.2,0,0,0,43.4,3,315.8,315.8,0,0,0,45.7-3.1c14.8-2.4,27.4-5.9,29.3-8.2l-.1-1.7c-2.7,2.9-18.5,7.1-29.4,8.7a299.46,299.46,0,0,1-45.5,3.1,282.52,282.52,0,0,1-43.2-3c-7.2-1.2-24.7-4.4-31.4-8.9Zm74.5,7.2a286.2,286.2,0,0,1-43.4-3c-16.9-2.5-28.4-6.8-31.1-8.4l-.1-2.3c7.1,4.3,25.9,7.7,31.5,8.6a282.09,282.09,0,0,0,43.1,3,297.17,297.17,0,0,0,45.4-3.1c10.9-1.6,26.5-5.7,29.6-8.4l.4,1.9c-2.1,2.6-14.5,6.1-29.6,8.5a301.86,301.86,0,0,1-45.8,3.2Zm-74.5-13.5.3,1.9c1.6.8,12.4,5.5,30.9,8.2a286.2,286.2,0,0,0,43.4,3,314.78,314.78,0,0,0,45.7-3.1c14.8-2.4,27.4-5.9,29.3-8.2l-.1-1.6c-2.8,2.9-18.5,7.1-29.4,8.7a297.61,297.61,0,0,1-45.5,3.1,284.4,284.4,0,0,1-43.2-3c-7.2-1.4-24.7-4.6-31.4-9Z"/><path class="cls-3" d="M178.9,194.4c-31.9-.2-59.3-8.7-65-10.1l4.2,6.6c10.2,4.3,36.9,10.7,61.1,10s45.4-2.6,60.4-9.9l4.3-6.8c-10.2,4.7-44.8,10.1-65,10.2Z"/><path class="cls-3" d="M241.2,189.4c-.6,1-1.3,1.9-1.9,2.9a175.84,175.84,0,0,1-22.8,5.9c-9.6,2-24.4,3.4-37.5,3.4-28.3-.4-51.4-6-62.3-10.7l-.9-1.5.1-.2,1.5.6c19.4,6.9,41.1,9.7,61.7,10.2a214.48,214.48,0,0,0,36.8-3.4c16.2-3.3,22.8-5.7,24.8-6.8l.5-.4Zm3.8-6.2h0a20.13,20.13,0,0,1-1.4,2.5,166.72,166.72,0,0,1-28.9,6.4c-9.8,1.3-15.9,2.6-35.4,3-36.6-.9-60.3-8.1-65.9-9.8l-.8-1.6c21.2,5.5,42.8,9.4,66.7,9.8a255.29,255.29,0,0,0,35.2-3c17.4-2.7,26.1-5.6,28.7-6.4a.35.35,0,0,1-.1-.2l1.9-.7Z"/><path class="cls-4" d="M178.9,201.8h0c-28.8-.4-51.6-6-62.4-10.7l-1-1.6c0-.1.3-.5.4-.5h0l1.5.6c17.3,6.2,38,9.6,61.6,10.2h0a206.42,206.42,0,0,0,36.7-3.4c18.1-3.6,23.5-6.1,24.8-6.8.1,0,.2-.1.4-.1a.1.1,0,0,1,.1-.1l.2.1h0c.1,0,.2,0,.2.1-.6,1-1.3,1.9-1.9,2.9a169.94,169.94,0,0,1-23,5.9,212.47,212.47,0,0,1-37.6,3.4Zm-63.1-12.5,1,1.4c11.5,4.9,35.2,10.2,62.1,10.6a213.08,213.08,0,0,0,37.5-3.4,173.69,173.69,0,0,0,22.8-5.8c.4-.7.9-1.4,1.4-2.1-1.6.8-7.4,3.3-24.7,6.7a207,207,0,0,1-36.2,3.4h0c-24.3-.6-45-4-62.4-10.2l-1.5-.6Zm63.5,6.1h0c-32.5-.8-55.3-6.5-65.9-9.9l-1-1.7c24.5,6,45.7,9.1,66.9,9.5a221.86,221.86,0,0,0,32-2.6l3.2-.4c16.6-2.6,25.5-5.4,28.4-6.3l2.1-1-.1.2-1.7.9c-3.1,1.2-12,4-28.7,6.5l-3.2.4a236,236,0,0,1-32,2.6c-21.3-.4-42.5-3.5-66.8-9.8l1.1,1.3c10.5,3.2,33.2,8.9,65.7,9.7a212.29,212.29,0,0,0,31.2-2.4l4.2-.6c13.2-1.9,23.8-4.6,28.8-6.4l1.3-2.3-1.1,2.6c-5.1,1.9-15.7,4.7-29,6.5l-4.2.6c-7.8,1.3-14.6,2.2-31.2,2.6Z"/><path class="cls-3" d="M178.9,82.9a66.4,66.4,0,1,1-66.3,66.4,66.34,66.34,0,0,1,66.3-66.4Zm0-6.6a73,73,0,1,1-72.9,73,73.06,73.06,0,0,1,72.9-73Z"/><path class="cls-3" d="M179,75.4a74,74,0,1,1-73.9,73.9A74,74,0,0,1,179,75.4Zm0,1.7c39.6,0,72.3,32.5,72.3,72.3A72.53,72.53,0,0,1,179,221.7c-39.6,0-72.3-32.5-72.3-72.3S139.4,77.1,179,77.1Z"/><path class="cls-4" d="M179,223.5a74.2,74.2,0,1,1,74.1-74.2A74.22,74.22,0,0,1,179,223.5Zm0-147.9a73.7,73.7,0,1,0,73.7,73.7A73.83,73.83,0,0,0,179,75.6Zm0,146.3a72.5,72.5,0,1,1,72.5-72.5A72.55,72.55,0,0,1,179,221.9Zm0-144.6a72.1,72.1,0,1,0,72,72.1,72.1,72.1,0,0,0-72-72.1Z"/><path class="cls-3" d="M179.1,81.6c37.1,0,67.7,30.5,67.7,67.7S216.2,217,179.1,217s-67.7-30.5-67.7-67.7S142,81.6,179.1,81.6Zm0,1.6a66.1,66.1,0,1,1-66,66.1c-.1-36.3,29.7-66.1,66-66.1Z"/><path class="cls-4" d="M179.1,217.3a68,68,0,1,1,67.9-68,68,68,0,0,1-67.9,68Zm0-135.5a67.5,67.5,0,1,0,67.4,67.5,67.6,67.6,0,0,0-67.4-67.5Zm0,133.8a66.3,66.3,0,1,1,66.3-66.3,66.39,66.39,0,0,1-66.3,66.3Zm0-132.2a65.9,65.9,0,1,0,65.8,65.9,65.94,65.94,0,0,0-65.8-65.9Z"/><rect class="cls-3" x="176" y="75.1" width="6.4" height="148.8"/><path class="cls-5" d="M176.8,75.1h0Z"/><path class="cls-5" d="M176.9,223.7h0Z"/><path class="cls-3" d="M181.4,74.3H183V224.6h-1.6V74.3Zm-6.3,0h1.6V224.6h-1.6V74.3Z"/><path class="cls-4" d="M183,224.8h-1.6l-.2-150.5,1.8-.2.2,150.5c0,.1,0,.1-.1.2Zm-.2-150.5-1.4.2.2,150.1,1.2-.2V74.3Zm-6.1,150.5h-1.6l-.2-150.5,1.8-.2.2,150.5c0,.1,0,.1-.1.2Zm-.2-150.5-1.4.2.2,150.1,1.2-.2V74.3Z"/><path class="cls-3" d="M104.9,146.2c9.3-8.5,43.4-14.1,73.8-13.9s66.2,6.4,74,13.8l.1,6.4c-6.5-6.2-34.4-13.5-74.1-13.6s-68.4,7.5-73.8,13.8v-6.5Z"/><path class="cls-4" d="M105.1,152l-.4-5.5c0-.2.4-.2.4,0V152Z"/><path class="cls-4" d="M253.1,152.2l-.4-5.5c0-.2.4-.2.4,0v5.5Z"/><path class="cls-3" d="M179,137.9a260.11,260.11,0,0,1,47.8,4.3c13.9,2.8,23.6,6.2,26.9,10.1v1.9c-4-4.8-17.1-8.4-27.3-10.4a248.13,248.13,0,0,0-47.5-4.2,266.93,266.93,0,0,0-48.5,4.3c-10.5,2.1-24.6,6.3-26.3,10.4v-2c1-2.8,11.4-7.1,26.1-10a270.53,270.53,0,0,1,48.8-4.4Zm0-6.3a251.65,251.65,0,0,1,47.8,4.3c13.8,2.8,23.6,6.2,26.9,10.1v1.9c-4-4.8-17.1-8.4-27.2-10.4a248.13,248.13,0,0,0-47.5-4.2,265.75,265.75,0,0,0-48.4,4.3c-10.2,1.9-24.8,6.3-26.4,10.3v-2c1-2.8,11.6-7.2,26.1-10a260.52,260.52,0,0,1,48.7-4.3Z"/><path class="cls-4" d="M104.2,154.5h0a.22.22,0,0,1-.2-.2v-2c1-3.1,12.1-7.4,26.3-10.2s31.4-4.3,48.8-4.3a253.54,253.54,0,0,1,47.8,4.3c14.5,2.9,23.8,6.4,27.1,10.2l.1,2.1c-4.6-5-19.2-8.6-27.5-10.2a255.62,255.62,0,0,0-46.9-4.2,268.31,268.31,0,0,0-49,4.3c-11.5,2.3-24.6,6.5-26.2,10.2-.1-.1-.2,0-.3,0ZM179,139.4a258.29,258.29,0,0,1,47.5,4.2c8.4,1.7,23,5.3,27.4,10.5l-.4-1.8c-3.1-3.6-12.4-7-26.8-9.9a253.09,253.09,0,0,0-47.4-4.3,268.31,268.31,0,0,0-49,4.3c-15.7,3.1-25.1,7.4-25.9,9.9v1.2c3.1-4.2,17.6-8.1,26.1-9.8a268.39,268.39,0,0,1,48.5-4.3Zm-74.8,8.8h0a.22.22,0,0,1-.2-.2v-2c1.1-3.1,12.4-7.5,26.3-10.2,14.1-2.8,31.4-4.3,48.8-4.3a252.77,252.77,0,0,1,47.8,4.3c14.5,2.9,23.8,6.4,27.1,10.2v2.1c-4.6-5-19.2-8.5-27.5-10.2a257,257,0,0,0-47.1-4.2,267.35,267.35,0,0,0-48.7,4.3c-11.6,2.2-24.8,6.5-26.3,10.2,0-.1-.1,0-.2,0ZM179,133a259.09,259.09,0,0,1,47.5,4.2c8.4,1.7,23,5.3,27.4,10.5l-.4-1.8c-3.1-3.6-12.4-7-26.8-9.9a250.92,250.92,0,0,0-47.2-4.3,268.14,268.14,0,0,0-49.2,4.3c-15.1,3-25.1,7.3-25.9,9.9v1.2c3-4.1,17-8,26.2-9.8A277.46,277.46,0,0,1,179,133Z"/><path class="cls-3" d="M178.7,99.2c27.5-.1,51.5,3.8,62.4,9.5l4,6.9c-9.5-5.1-35.4-10.5-66.4-9.7-25.3.2-52.2,2.8-65.8,10l4.8-8c11.1-5.7,37.3-8.6,61-8.7Z"/><path class="cls-5" d="M241.8,109.8l2.7,4.4Z"/><path class="cls-3" d="M179,105c15.7,0,30.8.8,42.9,3,11.2,2.1,21.9,5.2,23.5,6.9l1.2,2.1c-3.7-2.4-13-5.1-24.9-7.4s-27.1-3-42.7-2.9c-17.7-.1-31.4.9-43.2,2.9-12.5,2.3-21.1,5.7-23.3,7.3l1.2-2.2c4.1-2.1,10.7-4.7,21.8-6.7,12.2-2.3,26.1-2.9,43.5-3Zm0-6.4c15,0,29.8.8,41.4,2.9,9.1,1.8,18.1,4.5,21.4,7l1.7,2.8c-3-3.3-14.1-6.4-23.9-8.1-11.5-2-25.7-2.8-40.7-2.9-15.7,0-30.3,1-41.6,3.1-10.8,2.1-17.7,4.5-20.7,6.4l1.5-2.3c4.1-2.1,10.6-4.1,18.9-5.7,11.5-2.2,26.2-3.1,42-3.2Z"/><path class="cls-4" d="M246.6,117.2h-.1c-3.6-2.4-12.7-5.1-24.8-7.4-10.4-2-24.3-2.9-41.2-2.9h-3c-17,0-30.2.9-41.6,2.9-12.4,2.3-21,5.6-23.2,7.2l.8-2.5c5.7-2.9,12.9-5.1,22-6.8,11.1-2,23.7-2.9,43.6-3h.9c16.5,0,31,1.1,42,3,11.4,2.1,22,5.3,23.6,7l1.2,2.1v.3a.31.31,0,0,1-.2.1Zm-66.6-12h-1c-19.9.1-32.5,1-43.6,3-9.1,1.6-16.2,3.8-21.7,6.6l-1.1,2.1c1.9-1.9,10.5-5.2,23-7.6,11.4-2,24.7-2.9,41.7-2.9h3c17,0,30.9,1,41.3,3,11.4,2.2,20.2,4.7,24.2,7L245,115c-1.4-1.6-12.1-4.7-23.3-6.8-10.8-2-25.3-3-41.7-3Zm63.6,6.3c-.1,0-.1,0-.2-.1-3-3.4-14.7-6.5-23.7-8.1-10.4-1.8-23.7-2.7-40.6-2.9-16.4,0-30.8,1.1-41.6,3.1-9.6,1.8-17.3,4.2-20.6,6.4l1.2-2.6c4.1-2.2,10.7-4.2,19-5.8,10.7-2,25.2-3,41.9-3.1h1.2c15.8,0,29.7,1,40.2,2.9,9.8,1.9,18.4,4.7,21.5,7l1.8,2.8c.1.1,0,.2,0,.3a.1.1,0,0,1-.1.1ZM179,100c17,.1,30.3,1.1,40.7,2.9,8.2,1.5,18.6,4.2,22.9,7.2l-1-1.5c-3-2.2-11.6-5-21.3-6.9-10.4-1.9-24.3-2.9-40.1-2.9H179c-16.7,0-31.1,1.1-41.8,3.1-8.3,1.6-14.8,3.6-18.8,5.7l-1.4,2.2c3.1-2.5,10.8-4.9,20.4-6.7,10.8-2,25.2-3,41.6-3.1Z"/><path class="cls-3" d="M215.7,180.1a196.93,196.93,0,0,0-36.7-2.8c-45.8.5-60.6,9.4-62.4,12.1l-3.4-5.6c11.7-8.5,36.6-13.2,66.1-12.7,15.3.3,28.5,1.3,39.6,3.4l-3.2,5.6Z"/><path class="cls-5" d="M113.9,184.6l2.2,3.9Z"/><path class="cls-3" d="M178.8,176.5c12.7.2,25.3.7,37.3,3l-.9,1.6a189.47,189.47,0,0,0-36.4-2.8c-16.9-.1-34,1.4-48.9,5.7-4.7,1.3-12.5,4.3-13.3,6.8l-.9-1.4c.3-1.5,5-4.5,13.7-7,17.1-4.9,33.1-5.8,49.4-5.9Zm.5-6.4c13.2.3,26.8.9,40.1,3.5l-.9,1.6c-12-2.4-23.4-3.2-39.1-3.4-17,0-35,1.2-51.3,6-5.3,1.5-14.4,4.9-14.7,7.5l-.9-1.5c.2-2.4,8.1-5.5,15.2-7.6,16.5-4.8,34.5-6.1,51.6-6.1Z"/><path class="cls-4" d="M116.6,191c-.1,0-.1,0-.2-.1l-.9-1.4c.3-1.8,5.2-4.9,13.9-7.3,16.3-4.7,31.5-5.7,49.3-5.8,12.1.2,25,.7,37.4,3l-.7,1.9a203.25,203.25,0,0,0-35-2.7h-3.5c-17.9,0-33.7,1.9-46.9,5.7-5,1.4-12.4,4.4-13.1,6.7-.1-.1-.2,0-.3,0Zm62.1-14.3c-17.8.1-32.9,1.2-49.2,5.8-8.9,2.5-13.4,5.6-13.6,6.8l.6,1c1.5-2.8,10-5.7,13.3-6.6,13.2-3.8,29.1-5.7,47-5.7h3.5a190,190,0,0,1,34.8,2.8l.7-1.5c-12.1-1.9-25-2.4-37.1-2.6Zm-65.3,8.8c-.1,0-.1,0-.2-.1l-.9-1.5c.2-3.3,11.8-6.9,15.3-7.9,14.1-4.1,30.5-6,51.7-6.1,13,.2,26.8.8,40.1,3.5l-.8,1.9c-12.9-2.4-25-3.1-39.3-3.3-21,0-37.3,1.9-51.3,6-6.8,2-14.3,5.1-14.6,7.3.2.1.1.2,0,.2Zm65.9-15.2c-21.1,0-37.5,2-51.6,6.1-9,2.6-14.9,5.5-15,7.4l.6,1c1.5-3.2,13.3-6.8,14.7-7.2,14-4.1,30.3-6,51.4-6,14.3.2,26.4.9,39.1,3.4l.7-1.5c-13.1-2.3-26.9-2.9-39.9-3.2Z"/><path class="cls-4" d="M165.6,174.6a1.42,1.42,0,0,1,.2-.6.76.76,0,0,1,.5-.2.37.37,0,0,1,.3.1c.1.1.2.1.2.2s.1.2,0,.4a.6.6,0,0,1-.1.4l-.3.3a.5.5,0,0,1-.6,0c-.1-.1-.2-.1-.2-.2v-.4Zm.2,0c0,.2,0,.3.1.4a.37.37,0,0,0,.3.1c.1,0,.3-.1.3-.2a.52.52,0,0,0,.2-.4v-.3c0-.1-.1-.1-.1-.2h-.2c-.1,0-.2.1-.3.2s-.2.2-.3.4Zm1.8.2h.2c0,.1,0,.1.1.2h.2c.1,0,.1,0,.2-.1l.1-.1v-.1h-.2a.37.37,0,0,1-.3-.1l-.1-.1v-.2a.1.1,0,0,1,.1-.1h.4a.1.1,0,0,1,.1.1v.1h-.2v-.1h-.3a.1.1,0,0,1-.1.1v.1h.2c.1,0,.2,0,.2.1a.1.1,0,0,1,.1.1v.1c0,.1,0,.1-.1.2a.35.35,0,0,1-.2.1h-.2a.37.37,0,0,1-.3-.1c.1,0,.1-.1.1-.2Zm1.7-.1h.2a.22.22,0,0,1-.2.2.37.37,0,0,1-.3.1c-.1,0-.3,0-.3-.1s-.1-.2-.1-.4a.52.52,0,0,1,.2-.4c.1-.1.2-.1.3-.2a.37.37,0,0,1,.3.1c.1.1.1.2.1.4h-.7c0,.1,0,.2.1.2s.1.1.2.1h.2c-.1.1-.1,0,0,0Zm-.5-.3h.5v-.2c0-.1-.1-.1-.2-.1s-.1,0-.2.1-.1.1-.1.2Zm.8.6h.2v.1h.4l.1-.1v-.2a.43.43,0,0,1-.6-.6c0-.1.1-.1.2-.2s.1-.1.2-.1a.37.37,0,0,1,.3.1v-.1h.1l-.1.9c0,.2,0,.3-.1.3s-.1.1-.2.2-.2.1-.3.1a.37.37,0,0,1-.3-.1c.1-.1,0-.2.1-.3Zm.2-.6v.3c0,.1.1.1.2.1s.1,0,.2-.1a.37.37,0,0,0,.1-.3v-.3c0-.1-.1-.1-.2-.1s-.1,0-.2.1a.37.37,0,0,0-.1.3Zm.8.5.1-1h.2v.1a.1.1,0,0,1,.1-.1c.1,0,.1-.1.2-.1h.2l.1.1c.1-.1.2-.2.3-.2s.2,0,.2.1v.3l-.1.7h-.2l.1-.6V174h-.1c-.1,0-.2,0-.2.1a.35.35,0,0,0-.1.2l-.1.6h-.2l.1-.6v-.2s-.1-.1-.1,0H171l-.1.1v.2l-.1.5Zm2.3-.4h.2a.22.22,0,0,1-.2.2.37.37,0,0,1-.3.1c-.1,0-.3,0-.3-.1s-.1-.2-.1-.4a.52.52,0,0,1,.2-.4c.1-.1.2-.1.3-.2a.37.37,0,0,1,.3.1c.1.1.1.2.1.4h-.7a.37.37,0,0,0,.1.3c0,.1.1.1.2.1h.2c-.1,0,0,0,0-.1Zm-.5-.3h.5V174c0-.1-.1-.1-.2-.1s-.1,0-.2.1-.1.1-.1.2Zm.8.6.1-1h.2v.1c.1-.1.2-.2.3-.2h.2a.1.1,0,0,1,.1.1v.3l-.1.6h-.2l.1-.6v-.2l-.1-.1h-.1c-.1,0-.1,0-.2.1s-.1.1-.1.3l-.1.5Zm1.5-.2v.1h-.2l-.1-.1v-.2l.1-.6h-.1v-.1h.1v-.3l.2-.1v.3h.2v.1h-.2l-.1.6v.1h0c0,.2,0,.2.1.2Zm.1-.4a.52.52,0,0,1,.2-.4.5.5,0,0,1,.6,0c.1.1.1.2.1.4a.37.37,0,0,1-.1.3c0,.1-.1.1-.2.2a.35.35,0,0,0-.2.1.37.37,0,0,1-.3-.1.9.9,0,0,1-.1-.5Zm.2,0v.3c0,.1.1.1.2.1s.2,0,.2-.1a.37.37,0,0,0,.1-.3v-.3c0-.1-.1-.1-.2-.1s-.2,0-.2.1-.1.2-.1.3Zm2.1.2h.2a.22.22,0,0,1-.2.2.5.5,0,0,1-.6,0c-.1-.1-.1-.2-.1-.4a.52.52,0,0,1,.2-.4.5.5,0,0,1,.6,0c.1.1.1.2.1.4h-.7v.3c0,.1.1.1.2.1h.2c0-.1,0-.1.1-.2Zm-.5-.3h.5v-.2c0-.1-.1-.1-.2-.1s-.1,0-.2.1-.1.1-.1.2Zm.8.6.2-1.4h.2l-.2,1.4Zm.6-1.2v-.2h.2v.2Zm-.2,1.2.2-1h.2l-.2,1Zm.4,0,.2-1h.1v.1l.1-.1h.4l.1.1c.1-.1.2-.2.3-.2s.2,0,.2.1.1.1,0,.3l-.1.7h-.2l.1-.6v-.2h-.1c-.1,0-.1,0-.2.1s-.1.1-.1.2l-.1.6h-.2l.1-.6V174l-.1-.1h-.1l-.1.1a.31.31,0,0,1-.1.2l-.1.5Zm1.8-1.2v-.2h.2v.2Zm-.2,1.2.2-1h.2l-.2,1Zm.4,0,.2-1h.1v.1c.1-.1.2-.2.3-.2h.2a.1.1,0,0,1,.1.1v.3l-.1.6h-.2l.1-.6v-.3h-.1c-.1,0-.2,0-.2.1s-.1.1-.1.3l-.1.5h-.2Zm1.7-.1c-.1.1-.1.1-.2.1h-.2c-.1,0-.2,0-.2-.1s-.1-.1,0-.2v-.1l.1-.1h.5v-.1a.35.35,0,0,0-.2-.1h-.2l-.1.1h-.2c0-.1.1-.1.1-.2a.35.35,0,0,1,.2-.1h.4a.1.1,0,0,1,.1.1v.9h-.2a.31.31,0,0,0,.1-.2Zm0-.4a.37.37,0,0,0-.3.1h-.1a.1.1,0,0,0-.1.1v.2h.3l.1-.1a.37.37,0,0,0,.1-.3Zm1,.5v-.1c-.1.1-.2.2-.3.1s-.1,0-.2-.1-.1-.1-.1-.2v-.3c0-.1.1-.2.1-.3s.1-.1.2-.2.1-.1.2-.1h.1l.1.1.1-.5h.2l-.3,1.4h-.1Zm-.5-.5v.3c0,.1.1.1.2.1s.1,0,.2-.1a.37.37,0,0,0,.1-.3v-.3c0-.1-.1-.1-.2-.1s-.1,0-.2.1a.37.37,0,0,1-.1.3Zm.9,0a.52.52,0,0,1,.2-.4.5.5,0,0,1,.6,0c.1.1.1.2.1.4s-.1.2-.1.3-.1.1-.2.2a.35.35,0,0,0-.2.1c-.1,0-.2-.1-.3-.1a.9.9,0,0,1-.1-.5Zm.2,0v.3c0,.1.1.1.2.1s.2,0,.2-.1a.37.37,0,0,0,.1-.3v-.3c0-.1-.1-.1-.2-.1s-.2,0-.2.1a.37.37,0,0,0-.1.3Zm1.3.6.2-1h.1v.2a.1.1,0,0,1,.1-.1h.1c.1,0,.1,0,.2.1l-.1.2h-.2a.1.1,0,0,0-.1.1c0,.1,0,.1-.1.2l-.1.5h-.1Zm1.4-.3h.2a.22.22,0,0,1-.2.2.37.37,0,0,1-.3.1c-.1,0-.3-.1-.3-.2s-.1-.2,0-.4a.52.52,0,0,1,.2-.4.5.5,0,0,1,.6,0c.1.1.1.2,0,.4h-.7v.3c0,.1.1.1.2.1h.2a.1.1,0,0,1,.1-.1Zm-.5-.3h.5V174c0-.1-.1-.1-.2-.1s-.1,0-.2.1a.35.35,0,0,0-.1.2Zm.8.3h.2v.2a.31.31,0,0,1,.2.1h.2l.1-.1v-.1a.31.31,0,0,1-.2-.1.35.35,0,0,1-.2-.1l-.1-.1v-.1a.1.1,0,0,1,.1-.1l.1-.1h.4a.1.1,0,0,1,.1.1v.2h-.2v-.1h-.3a.1.1,0,0,0-.1.1v.1h.2a.35.35,0,0,1,.2.1l.1.1v.1c0,.1,0,.1-.1.2a.35.35,0,0,1-.2.1h-.2a.37.37,0,0,1-.3-.1v-.4Zm.8.7.3-1.4h.1v.1l.1-.1h.2c.1,0,.1,0,.2.1a.35.35,0,0,1,.1.2v.3c0,.1-.1.2-.1.3s-.1.1-.2.2a.35.35,0,0,0-.2.1h-.1l-.1-.1-.1.5h-.2Zm.3-.9v.3c0,.1.1.1.2.1s.1,0,.2-.1a.37.37,0,0,0,.1-.3V174c0-.1-.1-.1-.2-.1s-.1,0-.2.1a.37.37,0,0,1-.1.3Zm1.6.3h.2a.22.22,0,0,1-.2.2c-.1,0-.2.1-.3.1a1,1,0,0,1-.3-.1c-.1-.1-.1-.2,0-.4a.52.52,0,0,1,.2-.4.37.37,0,0,1,.3-.1c.1,0,.2.1.3.2s.1.2,0,.4h-.7v.3c0,.1.1.1.2.1h.2c0-.2,0-.3.1-.3Zm-.5-.3h.5v-.2c0-.1-.1-.1-.2-.1s-.1,0-.2.1-.1.1-.1.2Zm1-.6v-.2h.2v.2Zm-.2,1.2.2-1h.2l-.2,1Zm.7-.1v.2h-.3v-.3l.1-.6h-.1V174h.1v-.3l.2-.1-.1.3h.2v.1h-.2l-.1.6v.1h0a.31.31,0,0,0,.2.1Zm.8,0c-.1,0-.1.1-.2.1h-.2c-.1,0-.2,0-.2-.1s-.1-.1,0-.2a.1.1,0,0,1,.1-.1l.1-.1a.1.1,0,0,0,.1-.1h.4v-.1a.35.35,0,0,0-.2-.1h-.2l-.1.1h-.2c0-.1.1-.1.1-.2a.35.35,0,0,1,.2-.1h.4a.1.1,0,0,1,.1.1v.9H191v-.1Zm.1-.3h-.5v.2h.3a.1.1,0,0,0,.1-.1c0,.1,0,0,.1-.1Zm.8,0a.52.52,0,0,1,.2-.4.5.5,0,0,1,.6,0c.1.1.1.2,0,.4s-.1.2-.1.3-.1.1-.2.2h-.2a.37.37,0,0,1-.3-.1v-.4Zm.2,0v.3c0,.1.1.1.2.1s.2,0,.2-.1a.37.37,0,0,0,.1-.3v-.3c0-.1-.1-.1-.2-.1s-.2,0-.2.1-.1.2-.1.3Zm1.2,1,.3-1.4h.1v.1l.1-.1h.2c.1,0,.2,0,.2.1a.35.35,0,0,1,.1.2v.3c0,.1-.1.2-.1.3s-.1.1-.2.2-.1.1-.2,0h-.1l-.1-.1-.1.5Zm.4-.9v.3c0,.1.1.1.2.1s.1,0,.2-.1a.37.37,0,0,0,.1-.3v-.3c0-.1-.1-.1-.2-.1s-.1,0-.2.1-.1.2-.1.3Zm.8.5.2-1h.1v.2a.1.1,0,0,1,.1-.1h.1c.1,0,.1,0,.2.1l-.1.2h-.2l-.1.1c0,.1,0,.1-.1.2l-.1.5h-.1Zm.6-.4a.52.52,0,0,1,.2-.4.5.5,0,0,1,.6,0c.1.1.1.2,0,.4s-.1.2-.1.3-.1.1-.2.2h-.3c-.1,0-.2-.1-.3-.2.1,0,.1-.1.1-.3Zm.2,0v.3c0,.1.1.1.2.1s.2,0,.2-.1.1-.1.1-.3v-.3c0-.1-.1-.1-.2-.1s-.2,0-.2.1-.1.2-.1.3Zm1-.6v-.2h.2v.2Zm-.5,1.5.1-.1h.1a.31.31,0,0,1,.1-.2l.2-1h.2l-.2,1c0,.1-.1.2-.1.3s-.1.1-.2.1-.2,0-.2-.1Zm1.4-.6h.2a.22.22,0,0,1-.2.2.37.37,0,0,1-.3.1c-.1,0-.2-.1-.3-.2s-.1-.2,0-.4a.52.52,0,0,1,.2-.4c.1-.1.2-.1.4-.1a.37.37,0,0,1,.3.1c.1.1.1.2,0,.4h-.7v.3c0,.1.1.1.2.1h.2c-.1,0,0,0,0-.1Zm-.4-.3h.5v-.2c0-.1-.1-.1-.2-.1s-.1,0-.2.1-.1.1-.1.2Z"/><path class="cls-4" d="M198.2,175h.2c0,.1-.1.2-.2.3a.37.37,0,0,1-.3.1c-.1,0-.2-.1-.3-.2s-.1-.2,0-.4.1-.2.1-.3.1-.1.2-.2h.2c.1,0,.2,0,.2.1s.1.1.1.2h-.2v-.2l-.1-.1c-.1,0-.2,0-.2.1a.37.37,0,0,0-.1.3v.3c0,.1.1.1.2.1h.2c-.1.1,0,0,0-.1Zm.6.3v.2h-.3l-.1-.1v-.2l.1-.6h-.1v-.1h.1v-.3l.2-.1-.1.3h.2v.1h-.2l-.1.6v.1h0c.2.1.2.1.3.1Zm.2-.3a.52.52,0,0,1,.2-.4.37.37,0,0,1,.3-.1c.1,0,.2.1.3.2s.1.2,0,.4-.1.2-.1.3l-.2.2c-.1,0-.2.1-.2,0s-.2-.1-.3-.2V175Zm.2,0v.3c0,.1.1.1.2.1s.2,0,.2-.1a.37.37,0,0,0,.1-.3v-.3c0-.1-.1-.1-.2-.1s-.2,0-.2.1a.37.37,0,0,0-.1.3Zm1.9.7v-.1a.37.37,0,0,1-.3.1c-.1,0-.1,0-.2-.1s-.1-.1-.1-.2v-.3c0-.1.1-.2.1-.3s.1-.1.2-.2h.3l.1.1.1-.5h.2l-.3,1.4-.1.1Zm-.4-.6v.3c0,.1.1.1.2.1s.1,0,.2-.1.1-.1.1-.3v-.3c0-.1-.1-.1-.2-.1s-.1,0-.2.1-.1.2-.1.3Zm1.5.4h.2c-.1.1-.1.2-.2.2s-.2.1-.3,0-.2-.1-.3-.2-.1-.2,0-.4a.52.52,0,0,1,.2-.4.37.37,0,0,1,.3-.1c.1,0,.2.1.3.2s.1.2,0,.4h0l-.7-.1v.3c0,.1.1.1.2.1h.2c0,.1.1,0,.1,0Zm-.4-.4h.5v-.2c0-.1-.1-.1-.2-.1s-.1,0-.2.1-.1.1-.1.2Zm2.3.4.2.1c-.1.1-.2.3-.3.3s-.2.1-.4.1a.35.35,0,0,1-.4-.4v-.4a.76.76,0,0,1,.2-.4c.1-.1.2-.2.3-.2s.2-.1.3-.1.2.1.3.1a.37.37,0,0,1,.1.3h-.2c0-.1,0-.2-.1-.2s-.1-.1-.2-.1h-.3c-.1,0-.1.1-.2.2s-.1.2-.1.3v.3c0,.1,0,.2.1.2s.1.1.2.1a.37.37,0,0,0,.3-.1c.1.1.1,0,.2-.1Zm.3,0c0-.2.1-.3.3-.4a.37.37,0,0,1,.3-.1c.1,0,.2.1.3.2s.1.2,0,.4-.1.2-.1.3-.1.1-.2.1h-.2c-.1,0-.2-.1-.3-.2s-.2-.1-.1-.3Zm.2,0v.3c0,.1.1.1.2.1s.2,0,.2-.1.1-.1.2-.3v-.3c0-.1-.1-.1-.2-.1s-.2,0-.2.1c-.2.1-.2.2-.2.3Zm.7.6.4-1.4h.2l-.4,1.4Zm1.1.1v-.1a.37.37,0,0,1-.3.1h-.2l-.1-.1v-.3l.2-.6h.2l-.2.6v.3h.2c.1,0,.1,0,.1-.1a.35.35,0,0,0,.1-.2l.1-.5h.2l-.3,1v-.1Zm.3.1.3-1h.1v.1l.1-.1h.2c.1,0,.1,0,.2.1a.1.1,0,0,0,.1.1c.1-.1.2-.2.3-.1s.2,0,.2.1v.3l-.2.7h-.2l.2-.6v-.3h-.2a.35.35,0,0,0-.1.2l-.2.6h-.2l.2-.6v-.2l-.1-.1h-.1l-.1.1a.35.35,0,0,0-.1.2l-.1.5Zm1.7.2h-.1l.4-1.4h.2l-.1.5a.37.37,0,0,1,.3-.1c.1,0,.1,0,.2.1l.1.1v.4c-.1.2-.1.3-.2.4a.37.37,0,0,1-.3.1.22.22,0,0,1-.2-.2l-.3.1Zm.1-.5v.3c0,.1.1.1.2.2s.1,0,.2-.1a.77.77,0,0,0,.2-.3v-.3a.1.1,0,0,0-.1-.1c-.1,0-.1,0-.2.1s-.2.1-.3.2Zm1.4.6c-.1,0-.1.1-.2.1h-.2a.35.35,0,0,1-.2-.1c0-.1-.1-.1,0-.2a.1.1,0,0,1,.1-.1l.1-.1h.5V176a.35.35,0,0,0-.2-.1h-.2l-.1.1h-.2c0-.1.1-.1.1-.2a.35.35,0,0,1,.2-.1h.2c.1,0,.1,0,.2.1l.1.1v.3l-.1.2a.44.44,0,0,1-.1.3v.1h-.2c.2-.1.2-.2.2-.2Zm.1-.4h-.5v.2l.1.1h.2c.1,0,.1,0,.1-.1a.35.35,0,0,0,.1-.2Zm.3.6.3-1h.1v.1a.37.37,0,0,1,.3-.1h.1l.1.1v.3l-.2.6h-.2l.2-.6v-.3h-.3c-.1,0-.1.1-.2.2l-.2.5v.2Zm1-.4c0-.2.1-.3.3-.4a.37.37,0,0,1,.3-.1c.1,0,.2.1.3.2s.1.2,0,.4-.1.2-.1.3-.1.1-.2.1h-.2c-.1,0-.2-.1-.3-.2s-.1-.1-.1-.3Zm.2.1v.3c0,.1.1.1.2.1s.1,0,.2-.1a.77.77,0,0,0,.2-.3v-.3c0-.1-.1-.1-.2-.1s-.2,0-.2.1-.2.1-.2.3Z"/><path class="cls-1" d="M215.3,181.3h-.2c-.2-.1-.2-.3-.1-.5l4-7.2c.1-.2.3-.2.5-.1s.2.3.1.5l-4,7.2a1,1,0,0,1-.3.1Z"/><path class="cls-3" d="M117.1,107.9c22.7-.3,127.5,64.1,127.8,76l-6.5,10c-2.9-13.8-109.3-76.4-126.8-75.3l5.5-10.7Z"/><path class="cls-4" d="M239.1,193.3l5.1-8.8a.22.22,0,0,1,.4.2l-5.5,8.6Z"/><path class="cls-4" d="M112,118l4.7-9.7a.22.22,0,0,1,.4.2L112,118Z"/><path class="cls-3" d="M110.9,118.2c4.2-2.9,35.2,10.9,67.6,30.5s63.2,41.8,60.4,45.9L238,196l-.4.3c.1-.1.6-.6,0-2.2-1.4-4.5-23.3-22-59.6-44-35.4-21.1-64.9-33.9-67.9-30.2l.8-1.7Zm134.6,66.4c2.7-5.3-26.1-26.9-61.6-48-36.4-20.7-62.7-32.8-67.5-29.2l-1.1,1.9c0,.1,0-.1.3-.3a4.42,4.42,0,0,1,3-.7c8.3.1,31.8,11,64.9,30,14.5,8.5,61.2,38.4,61.1,46.9,0,.7.1.9-.2,1.2l1.1-1.8Z"/><path class="cls-4" d="M237.7,196.5l-.2-.3c-.1,0-.1,0-.1-.1s.5-.5-.1-1.9c-1.4-4.7-24.6-22.7-59.5-43.9-29.9-17.9-57.6-30.8-65.8-30.8a2.89,2.89,0,0,0-1.9.5v-.1a.37.37,0,0,1,.1-.3l.5-1.6a2.85,2.85,0,0,1,1.9-.5c8.3,0,37.2,13.6,65.9,30.9,29.1,17.7,59.3,38.8,60.6,45a1.23,1.23,0,0,1-.2,1.2L238,196a1.44,1.44,0,0,0-.3.2c.1.2,0,.3,0,.3ZM112,119.1c8.2,0,36,13,66,30.9,35.5,21.5,58.2,39.3,59.7,44.1a5,5,0,0,1,.3,1.4l.7-1.1c.2-.2.2-.5.1-.9-1.3-6.1-32.1-27.6-60.4-44.7-28.6-17.3-57.5-30.8-65.7-30.8a3.23,3.23,0,0,0-1.6.3l-.6,1.1a2.81,2.81,0,0,1,1.5-.3Zm132.5,67.3h-.1l-.1-.3h0l-.1.2.1-.2c.1-.1.1-.3.1-.7.2-8.7-47.5-39.1-61-47-33-18.9-56.6-29.8-64.8-29.9a4.08,4.08,0,0,0-2.8.7h0a3,3,0,0,1,2.7-1.1c8.5.1,32.2,11,65.2,30,9.5,5.6,61.4,37.9,61.2,47.1v.2l.6-.9c2.5-4.8-24.6-25.8-61.6-47.7-39.1-22.2-62.9-32.4-67.2-29.2l-.9,1.6c-.2.1-.5.2-.5.1l1.1-2a4.65,4.65,0,0,1,2.8-.7c10.2,0,41,16.2,65,29.9,32.1,19,64.7,42.4,61.7,48.3l-1.1,1.6Z"/><path class="cls-6" d="M134.7,157.5a44.3,44.3,0,0,0,88.6,0h0V98.4l-88.6-.1v59.2Z"/><path class="cls-4" d="M179,202.1a44.48,44.48,0,0,1-31.4-13.2,43.87,43.87,0,0,1-13.1-31.4V98.3l88.9-.1.3,59.4A44.11,44.11,0,0,1,210.6,189,44.74,44.74,0,0,1,179,202.1ZM223.1,98.4l-88.3.1.3,59a43.27,43.27,0,0,0,13,31,44,44,0,0,0,75.1-31V98.4Z"/><path class="cls-1" d="M136.4,157.6h0a42.5,42.5,0,0,0,85,.1h0V100.3H136.5l-.1,57.3Zm67.9-40.1v40.4h0c0,1-.1,2.2-.2,3.2a24.34,24.34,0,0,1-7.3,14.7,25.11,25.11,0,0,1-35.7-.1,25.54,25.54,0,0,1-7.5-17.9V117.5Z"/><path class="cls-4" d="M178.9,200.2a42.71,42.71,0,0,1-30.1-12.5,42.16,42.16,0,0,1-12.6-30V100.4l85.1-.2.2,57.6a42.51,42.51,0,0,1-42.6,42.4Zm42.3-99.9-84.8.2.1,57.1A41.61,41.61,0,0,0,149,187.4a42.3,42.3,0,0,0,72.2-29.8V100.3Zm-42.3,83a25.33,25.33,0,0,1-17.9-7.6,25.7,25.7,0,0,1-7.5-18V117.2l50.9.1.2,36.7v3.9c0,1-.1,2.2-.2,3.2a25.14,25.14,0,0,1-7.3,14.8,26.07,26.07,0,0,1-18.2,7.4Zm-25.1-65.7v40.1a25.56,25.56,0,0,0,7.4,17.8,24.75,24.75,0,0,0,35.4.1,24.2,24.2,0,0,0,7.2-14.6c.1-1,.2-2.1.2-3.1V117.5l-50.2.1Z"/><path class="cls-7" d="M173.6,151.1h0a6.33,6.33,0,0,0,1.6,4.3,5.37,5.37,0,0,0,4,1.8,5.71,5.71,0,0,0,4-1.8,6.33,6.33,0,0,0,1.6-4.3v-8H173.6v8Z"/><path class="cls-6" d="M182.3,145a1.1,1.1,0,1,0,1.1,1.1,1,1,0,0,0-1.1-1.1Z"/><path class="cls-6" d="M179.2,148a1.1,1.1,0,1,0,1.1,1.1,1.11,1.11,0,0,0-1.1-1.1Z"/><path class="cls-6" d="M182.3,151.1a1.1,1.1,0,1,0,1.1,1.1,1.11,1.11,0,0,0-1.1-1.1Z"/><path class="cls-6" d="M176.3,151.1a1.1,1.1,0,1,0,1.1,1.1,1.11,1.11,0,0,0-1.1-1.1Z"/><path class="cls-6" d="M176.3,145a1.1,1.1,0,1,0,1.1,1.1,1.11,1.11,0,0,0-1.1-1.1Z"/><path class="cls-7" d="M173.5,170.4h0a6,6,0,0,0,1.7,4.3,5.37,5.37,0,0,0,4,1.8,5.71,5.71,0,0,0,4-1.8,6.26,6.26,0,0,0,1.6-4.2v-8H173.6l-.1,7.9Z"/><path class="cls-6" d="M182.3,164.3a1.1,1.1,0,1,0,1.1,1.1,1.11,1.11,0,0,0-1.1-1.1Z"/><path class="cls-6" d="M179.2,167.3a1.1,1.1,0,1,0,1.1,1.1,1,1,0,0,0-1.1-1.1Z"/><path class="cls-6" d="M182.3,170.4a1.1,1.1,0,1,0,1.1,1.1,1.11,1.11,0,0,0-1.1-1.1Z"/><path class="cls-6" d="M176.2,170.4a1.1,1.1,0,1,0,1.1,1.1,1.11,1.11,0,0,0-1.1-1.1Z"/><path class="cls-6" d="M176.2,164.3a1.1,1.1,0,1,0,1.1,1.1,1.11,1.11,0,0,0-1.1-1.1Z"/><path class="cls-7" d="M158.1,151.1h0a6.07,6.07,0,0,0,1.6,4.2,5.37,5.37,0,0,0,4,1.8,5.53,5.53,0,0,0,4-1.8,6.26,6.26,0,0,0,1.6-4.2v-8H158.1v8Z"/><path class="cls-6" d="M166.8,145.1a1.1,1.1,0,1,0,1.1,1.1,1,1,0,0,0-1.1-1.1Z"/><path class="cls-6" d="M163.7,148a1.1,1.1,0,1,0,1.1,1.1,1.11,1.11,0,0,0-1.1-1.1Z"/><path class="cls-6" d="M166.8,151.2a1.1,1.1,0,1,0,1.1,1.1,1,1,0,0,0-1.1-1.1Z"/><path class="cls-6" d="M160.8,151.2a1.1,1.1,0,1,0,1.1,1.1,1.11,1.11,0,0,0-1.1-1.1Z"/><path class="cls-6" d="M160.7,145a1.1,1.1,0,1,0,1.1,1.1,1,1,0,0,0-1.1-1.1Z"/><path class="cls-7" d="M189.1,151.1h0a6.33,6.33,0,0,0,1.6,4.3,5.37,5.37,0,0,0,4,1.8,5.53,5.53,0,0,0,4-1.8,6.26,6.26,0,0,0,1.6-4.2v-8H189.1v7.9Z"/><path class="cls-6" d="M197.8,145a1.1,1.1,0,1,0,1.1,1.1,1.11,1.11,0,0,0-1.1-1.1Z"/><path class="cls-6" d="M194.7,148a1.1,1.1,0,1,0,1.1,1.1,1.11,1.11,0,0,0-1.1-1.1Z"/><path class="cls-6" d="M197.8,151.1a1.1,1.1,0,1,0,1.1,1.1,1.11,1.11,0,0,0-1.1-1.1Z"/><path class="cls-6" d="M191.8,151.2a1.1,1.1,0,1,0,1.1,1.1,1,1,0,0,0-1.1-1.1Z"/><path class="cls-6" d="M191.7,145a1.1,1.1,0,1,0,1.1,1.1,1,1,0,0,0-1.1-1.1Z"/><path class="cls-7" d="M173.6,131.7h0a6.26,6.26,0,0,0,1.6,4.2,5.37,5.37,0,0,0,4,1.8,5.53,5.53,0,0,0,4-1.8,6.33,6.33,0,0,0,1.6-4.3v-8H173.6v8.1Z"/><path class="cls-6" d="M182.3,125.6a1.1,1.1,0,1,0,1.1,1.1,1.11,1.11,0,0,0-1.1-1.1Z"/><path class="cls-6" d="M179.2,128.6a1.1,1.1,0,1,0,1.1,1.1,1.11,1.11,0,0,0-1.1-1.1Z"/><path class="cls-6" d="M182.3,131.7a1.1,1.1,0,1,0,1.1,1.1,1.11,1.11,0,0,0-1.1-1.1Z"/><path class="cls-6" d="M176.3,131.7a1.1,1.1,0,1,0,1.1,1.1,1.11,1.11,0,0,0-1.1-1.1Z"/><path class="cls-6" d="M176.3,125.6a1.1,1.1,0,1,0,1.1,1.1,1.11,1.11,0,0,0-1.1-1.1Z"/><path class="cls-3" d="M141.9,115.3c.1-4.1,3-5.1,3-5.1a4.94,4.94,0,0,1,3.1,5.1Z"/><path class="cls-3" d="M139.4,110.2l-.5,4.7H142c0-3.9,3-4.6,3-4.6a4.64,4.64,0,0,1,3.1,4.6h3.1l-.6-4.8-11.2.1Z"/><path class="cls-4" d="M151.3,115.2H148c-.3-3.7-3-4.6-3.1-4.6s-2.8.6-2.8,4.4l-3.3.2.3-4.9,11.4-.2.8,5.1Zm-6.6-4.9-5.3.1-.3,4.6,2.9-.2c-.2-3.2,1.8-4.2,2.7-4.5Zm.5,0a4.79,4.79,0,0,1,3,4.7l2.7-.2-.5-4.6-5.2.1Z"/><path class="cls-3" d="M138.7,115h12.6a.61.61,0,0,1,0,1.2H138.7a.61.61,0,0,1,0-1.2Z"/><path class="cls-4" d="M151.3,116.4H138.7a.71.71,0,0,1-.7-.8.77.77,0,0,1,.7-.8h12.6a.71.71,0,0,1,.7.8.77.77,0,0,1-.7.8Zm-12.6-1.2v.8h12.6c.2,0,.3-.2.3-.4l-12.9-.4Z"/><path class="cls-3" d="M143.3,115a3.28,3.28,0,0,1,1.7-3.2,3.27,3.27,0,0,1,1.8,3.2Z"/><path class="cls-4" d="M146.9,115.2h-3.6c-.2-2.8,1.5-3.5,1.6-3.5a3.22,3.22,0,0,1,2,3.3v.2Zm-2-3.2a3.44,3.44,0,0,0-1.4,3l3.1-.2a3.4,3.4,0,0,0-1.7-2.8Z"/><path class="cls-3" d="M138.9,108.3H151a.5.5,0,0,1,0,1H138.9a.47.47,0,0,1-.5-.5c.1-.3.3-.5.5-.5Z"/><path class="cls-4" d="M151.1,109.5H139c-.4,0-.6-.3-.6-.7a.67.67,0,0,1,.6-.7h12.1c.4,0,.6.3.6.7a.67.67,0,0,1-.6.7Zm-12.2-1v.7H151a.45.45,0,0,0,.3-.3l-12.4-.4Z"/><path class="cls-3" d="M139.2,109.3h11.6a.51.51,0,0,1,0,1H139.2c-.3,0-.4-.2-.4-.5s.1-.5.4-.5Z"/><path class="cls-4" d="M150.8,110.6H139.2c-.4,0-.6-.3-.6-.7a.67.67,0,0,1,.6-.7h11.6a.67.67,0,0,1,.6.7c0,.3-.3.7-.6.7Zm-11.6-1.1v.7h11.6a.45.45,0,0,0,.3-.3l-11.9-.4Z"/><path class="cls-3" d="M142.9,101.4h.9v.6h.7v-.7h.9v.7h.7v-.7h.9v1.5a.43.43,0,0,1-.4.4h-3.3a.43.43,0,0,1-.4-.4v-1.4Z"/><path class="cls-4" d="M146.7,103.5h-3.5l-.4-.6v-1.5l1.1-.2.2.8.5-.2-.2-.5,1.1-.2.2.8.5-.2-.2-.5,1.1-.2.2,1.9-.6.6Zm-3-2.1-.7.2.2,1.3,3.5.4.2-.4v-1.5l-.8.2.2.5-.9.2-.2-.8-.8.2.2.5-.8.2-.1-1Z"/><polygon class="cls-3" points="146.4 103.4 146.6 108.3 143.4 108.2 143.6 103.4 146.4 103.4"/><path class="cls-4" d="M146.8,108.4h-3.4v-5l3-.2.4,5.2Zm-.6-5-2.6.2v4.6l2.8-.2-.2-4.6Z"/><path class="cls-3" d="M146.9,103.8h.9v.6h.6v-.7h.9v.7h.6v-.7h.9v1.5a.43.43,0,0,1-.4.4h-3.2a.43.43,0,0,1-.4-.4v-1.4Z"/><path class="cls-4" d="M150.6,105.8h-3.4l-.4-.6v-1.5l1.1-.2.2.8.5-.2-.2-.5,1.1-.2.2.8.5-.2-.2-.5,1.1-.2.2,1.9-.7.6Zm-3-2-.7.2.2,1.3,3.4.4.2-.4v-1.5l-.7.2.2.5-.8.2-.2-.8-.7.2.2.5-.8.2-.3-1Z"/><polygon class="cls-3" points="150.4 105.7 150.5 108.3 147.4 108.3 147.5 105.7 150.4 105.7"/><path class="cls-4" d="M150.7,108.4h-3.3l-.1-2.8,3.1-.2.3,3Zm-.5-2.7-2.7.2.1,2.4,2.7-.2-.1-2.4Z"/><path class="cls-3" d="M139,103.8h.9v.7h.6v-.7h.9v.7h.7v-.7h.9v1.5a.43.43,0,0,1-.4.4h-3.2a.43.43,0,0,1-.4-.4v-1.5Z"/><path class="cls-4" d="M142.6,105.9h-3.4l-.4-.6v-1.5l1.1-.2.2.8.5-.2-.2-.5,1.1-.2.2.8.5-.2-.2-.5,1.1-.2.2,1.9-.7.6Zm-2.9-2.1-.7.2.2,1.3,3.5.4.2-.4v-1.5l-.7.2.2.5-.8.2-.2-.8-.7.2.2.5-.8.2-.4-1Z"/><polygon class="cls-3" points="142.5 105.7 142.6 108.3 139.5 108.3 139.6 105.7 142.5 105.7"/><path class="cls-4" d="M142.7,108.5h-3.3l-.1-2.8,3.1-.2.3,3Zm-.4-2.8-2.7.2.1,2.4,2.7-.2-.1-2.4Z"/><path class="cls-4" d="M144.7,105c0-.5.6-.5.6,0v1.1h-.6V105Z"/><path class="cls-4" d="M148.6,106.6c0-.5.6-.5.6,0v.9h-.6v-.9Z"/><path class="cls-4" d="M140.7,106.6c0-.4.6-.5.6,0v.9h-.6v-.9Z"/><path class="cls-3" d="M177,101.4h.9v.7h.7v-.7h.9v.7h.7v-.7h.9v1.5a.43.43,0,0,1-.4.4h-3.3a.43.43,0,0,1-.4-.4v-1.5Z"/><path class="cls-4" d="M180.8,103.5h-3.5l-.4-.6v-1.5l1.1-.2.2.8.5-.2-.2-.5,1.1-.2.2.9.5-.2-.2-.5,1.1-.2.2,1.9-.6.5Zm-3-2.1-.7.2.2,1.3,3.5.4.2-.4v-1.5l-.8.2.2.5-.9.2-.2-.9-.8.2.2.5-.7.2-.2-.9Z"/><polygon class="cls-3" points="180.5 103.4 180.7 108.3 177.5 108.2 177.7 103.4 180.5 103.4"/><path class="cls-4" d="M180.9,108.4h-3.4v-5l3-.2.4,5.2Zm-.6-4.9-2.6.2v4.6l2.8-.2-.2-4.6Z"/><path class="cls-3" d="M181,103.8h.9v.6h.7v-.7h.9v.7h.6v-.7h.9v1.5a.43.43,0,0,1-.4.4h-3.2a.43.43,0,0,1-.4-.4v-1.4Z"/><path class="cls-4" d="M184.7,105.8h-3.4l-.4-.6v-1.5l1.1-.2.2.8.5-.2-.2-.5,1.1-.2.2.9.5-.2-.2-.5,1.1-.2.2,1.9-.7.5Zm-3-2-.7.2.2,1.3,3.4.4.2-.4v-1.5l-.7.2.2.5-.8.2-.2-.9-.7.2.2.5-.8.2-.3-.9Z"/><polygon class="cls-3" points="184.5 105.7 184.6 108.3 181.5 108.3 181.6 105.7 184.5 105.7"/><path class="cls-4" d="M181.3,108.5l.1-2.8,3.1-.2.3,2.8-3.5.2Zm3-2.8-2.7.2.1,2.2h2.9l-.3-2.4Z"/><path class="cls-3" d="M173.1,103.8h.9v.6h.6v-.7h.9v.7h.6v-.7h.9v1.5a.43.43,0,0,1-.4.4h-3.2a.43.43,0,0,1-.4-.4v-1.4Z"/><path class="cls-4" d="M176.7,105.9h-3.4l-.4-.6v-1.5l1.1-.2.2.8.5-.2-.2-.5,1.1-.2.2.8.5-.2-.2-.5,1.1-.2.2,1.9-.7.6Zm-2.9-2.1-.7.2.2,1.3,3.5.4.2-.4v-1.5l-.7.2.2.5-.8.2-.2-.8-.7.2.2.5-.8.2-.4-1Z"/><polygon class="cls-3" points="176.6 105.7 176.7 108.3 173.6 108.3 173.7 105.7 176.6 105.7"/><path class="cls-4" d="M176.9,108.5h-3.3l-.1-2.8,3.1-.2.3,3Zm-.5-2.8-2.7.2.1,2.4,2.7-.2-.1-2.4Z"/><path class="cls-3" d="M176,115.3c.1-4.1,3-5.1,3-5.1a5.13,5.13,0,0,1,3.1,5.2l-6.1-.1Z"/><path class="cls-3" d="M173.5,110.2l-.5,4.7h3.1c0-3.9,3-4.6,3-4.6a4.64,4.64,0,0,1,3.1,4.6h3.1l-.6-4.8-11.2.1Z"/><path class="cls-4" d="M185.5,115.2h-3.3c-.3-3.8-3.1-4.6-3.1-4.6s-2.8.6-2.8,4.4l-3.3.2.3-4.9,11.4-.2.8,5.1Zm-6.8-4.9-5.3.1-.3,4.6,2.9-.2c-.1-3.2,1.9-4.2,2.7-4.5Zm.7,0a4.79,4.79,0,0,1,3,4.7l2.7-.2-.5-4.6-5.2.1Z"/><path class="cls-3" d="M172.8,115h12.6a.61.61,0,0,1,0,1.2H172.8a.61.61,0,0,1,0-1.2Z"/><path class="cls-4" d="M185.4,116.4H172.8a.71.71,0,0,1-.7-.8.77.77,0,0,1,.7-.8h12.6a.71.71,0,0,1,.7.8.77.77,0,0,1-.7.8Zm-12.6-1.2v.8h12.6c.2,0,.3-.2.3-.4l-12.9-.4Z"/><path class="cls-3" d="M177.4,115a3.28,3.28,0,0,1,1.7-3.2,3.27,3.27,0,0,1,1.8,3.2Z"/><path class="cls-4" d="M181,115.2h-3.6c-.2-2.8,1.5-3.5,1.6-3.5a3.22,3.22,0,0,1,2,3.3v.2Zm-2-3.2a3.44,3.44,0,0,0-1.4,3l3.1-.2A3.4,3.4,0,0,0,179,112Z"/><path class="cls-3" d="M173,108.3h12.1a.5.5,0,0,1,0,1H173a.47.47,0,0,1-.5-.5c.1-.3.3-.5.5-.5Z"/><path class="cls-4" d="M185.2,109.5H173c-.4,0-.6-.3-.6-.7a.67.67,0,0,1,.6-.7h12.1c.4,0,.6.3.6.7a.54.54,0,0,1-.5.7Zm-12.2-1v.7h12.1a.45.45,0,0,0,.3-.3l-12.4-.4Z"/><path class="cls-3" d="M173.3,109.3h11.6c.3,0,.4.2.4.5a.46.46,0,0,1-.4.5H173.3c-.3,0-.4-.2-.4-.5s.1-.5.4-.5Z"/><path class="cls-4" d="M184.9,110.6H173.3c-.4,0-.6-.3-.6-.7a.67.67,0,0,1,.6-.7h11.6a.71.71,0,0,1,0,1.4Zm-11.6-1.1v.7h11.6a.45.45,0,0,0,.3-.3l-11.9-.4Z"/><path class="cls-4" d="M178.8,105c0-.5.6-.5.6,0v1.2h-.6V105Z"/><path class="cls-4" d="M182.7,106.6c0-.4.6-.5.6,0v.9h-.6v-.9Z"/><path class="cls-4" d="M174.8,106.6c0-.5.6-.5.6,0v.9h-.6v-.9Z"/><path class="cls-3" d="M210.8,101.4h.9v.6h.7v-.7h.9v.7h.7v-.7h.9v1.5a.43.43,0,0,1-.4.4h-3.3a.43.43,0,0,1-.4-.4v-1.4Z"/><path class="cls-4" d="M214.5,103.5H211l-.4-.6v-1.5l1.1-.2.2.8.5-.2-.2-.5,1.1-.2.2.8.5-.2-.2-.5,1.1-.2.2,1.9-.6.6Zm-3-2.1-.7.2.2,1.3,3.5.4.2-.4v-1.5l-.8.2.2.5-.8.2-.2-.8-.8.2.2.5-.9.2-.1-1Z"/><polygon class="cls-3" points="214.2 103.5 214.4 108.3 211.2 108.3 211.4 103.5 214.2 103.5"/><path class="cls-4" d="M214.6,108.5h-3.4v-5l3-.2.4,5.2Zm-.6-5-2.6.2v4.6l2.8-.2-.2-4.6Z"/><path class="cls-3" d="M214.7,103.8h.9v.6h.6v-.7h.9v.7h.7v-.7h.9v1.5a.43.43,0,0,1-.4.4h-3.2a.43.43,0,0,1-.4-.4v-1.4Z"/><path class="cls-4" d="M218.4,105.9H215l-.4-.6v-1.5l1.1-.2.2.8.5-.2-.2-.5,1.1-.2.2.8.5-.2-.2-.5,1.1-.2.2,1.9-.7.6Zm-2.9-2.1-.7.2.2,1.3,3.5.4.2-.4v-1.5l-.7.2.2.5-.8.2-.2-.8-.7.2.2.5-.8.2-.4-1Z"/><polygon class="cls-3" points="218.2 105.7 218.3 108.3 215.2 108.3 215.3 105.7 218.2 105.7"/><path class="cls-4" d="M218.5,108.5h-3.3l-.1-2.8,3.1-.2.3,3Zm-.5-2.8-2.7.2.1,2.4,2.7-.2-.1-2.4Z"/><path class="cls-3" d="M206.8,103.8h.9v.6h.7v-.7h.9v.7h.7v-.7h.9v1.5a.43.43,0,0,1-.4.4h-3.2a.43.43,0,0,1-.4-.4v-1.4Z"/><path class="cls-4" d="M210.5,105.9h-3.4l-.4-.6v-1.5l1.1-.2.2.8.5-.2-.2-.5,1.1-.2.2.8.5-.2-.2-.5,1.1-.2.2,1.9-.7.6Zm-3-2.1-.7.2.2,1.3,3.5.4.2-.4v-1.5l-.7.2.2.5-.8.2-.2-.8-.7.2.2.5-.8.2-.4-1Z"/><polygon class="cls-3" points="210.3 105.7 210.4 108.3 207.3 108.3 207.4 105.7 210.3 105.7"/><path class="cls-4" d="M210.6,108.5h-3.3l-.1-2.8,3.1-.2.3,3Zm-.5-2.8-2.7.2.1,2.4,2.7-.2-.1-2.4Z"/><path class="cls-3" d="M209.7,115.3c.1-4.1,3-5.1,3.1-5.1a5.13,5.13,0,0,1,3.1,5.2l-6.2-.1Z"/><path class="cls-3" d="M207.2,110.3l-.5,4.7h3.1c0-3.9,3-4.6,3-4.6a4.64,4.64,0,0,1,3.1,4.6H219l-.6-4.8-11.2.1Z"/><path class="cls-4" d="M219.2,115.2h-3.3a5,5,0,0,0-3.1-4.6s-2.8.6-2.8,4.4l-3.3.2.3-4.9,11.4-.2.8,5.1Zm-6.7-4.8-5.3.1-.3,4.6,2.9-.2c-.1-3.3,1.9-4.3,2.7-4.5Zm.6-.1a4.79,4.79,0,0,1,3,4.7l2.7-.2-.5-4.6-5.2.1Z"/><path class="cls-3" d="M206.5,115h12.6a.61.61,0,0,1,0,1.2H206.5a.61.61,0,0,1,0-1.2Z"/><path class="cls-4" d="M219.1,116.4H206.5a.81.81,0,0,1,0-1.6h12.6a.81.81,0,0,1,0,1.6Zm-12.6-1.2v.8h12.6c.2,0,.3-.2.3-.4l-12.9-.4Z"/><path class="cls-3" d="M211.1,115a3.28,3.28,0,0,1,1.7-3.2,3.27,3.27,0,0,1,1.8,3.2Z"/><path class="cls-4" d="M214.7,115.2h-3.6c-.2-2.7,1.6-3.5,1.6-3.5a3.22,3.22,0,0,1,2,3.3v.2Zm-2-3.2a3.44,3.44,0,0,0-1.4,3l3.1-.2a3,3,0,0,0-1.7-2.8Z"/><path class="cls-3" d="M206.8,108.3h12.1a.5.5,0,0,1,0,1H206.8a.5.5,0,0,1,0-1Z"/><path class="cls-4" d="M218.9,109.5H206.8a.7.7,0,0,1,0-1.4h12.1a.68.68,0,0,1,.7.7.84.84,0,0,1-.7.7Zm-12.1-1v.7h12.1a.32.32,0,0,0,.3-.3l-12.4-.4Z"/><path class="cls-3" d="M207,109.4h11.6a.51.51,0,0,1,0,1H207a.51.51,0,0,1,0-1Z"/><path class="cls-4" d="M218.6,110.6H207a.71.71,0,0,1,0-1.4h11.6a.67.67,0,0,1,.6.7c0,.4-.2.7-.6.7ZM207,109.5v.7h11.6a.45.45,0,0,0,.3-.3l-11.9-.4Z"/><path class="cls-4" d="M212.5,105c0-.5.7-.5.6,0v1.2h-.6V105Z"/><path class="cls-4" d="M216.5,106.6c0-.5.6-.5.6,0v.9h-.6v-.9Z"/><path class="cls-4" d="M208.5,106.7c0-.5.6-.5.6,0v.9h-.6v-.9Z"/><path class="cls-3" d="M143,136h.9v.7h.7V136h.9v.7h.7V136h.9v1.5a.43.43,0,0,1-.4.4h-3.3a.43.43,0,0,1-.4-.4V136Z"/><path class="cls-4" d="M146.7,138h-3.5l-.4-.6v-1.5l1.1-.2.2.8.5-.2-.2-.5,1.1-.2.2.8.5-.2-.2-.5,1.1-.2.2,1.8-.6.7Zm-3-2-.7.2.2,1.3,3.5.4.2-.4V136l-.8.2.2.5-.8.2-.2-.8-.8.2.2.5-.8.2-.2-1Z"/><polygon class="cls-3" points="146.4 138 146.6 142.8 143.4 142.8 143.6 138 146.4 138"/><path class="cls-4" d="M146.8,143h-3.4v-5l3-.2.4,5.2Zm-.6-5-2.6.2v4.6l2.8-.2-.2-4.6Z"/><path class="cls-3" d="M146.9,138.4h.9v.6h.6v-.7h.9v.7h.7v-.7h.9v1.5a.43.43,0,0,1-.4.4h-3.2a.43.43,0,0,1-.4-.4v-1.4Z"/><path class="cls-4" d="M150.6,140.4h-3.4l-.4-.6v-1.5l1.1-.2.2.8.5-.2-.2-.5,1.1-.2.2.8.5-.2-.2-.5,1.1-.2.2,1.9-.7.6Zm-2.9-2-.7.2.2,1.3,3.5.4.2-.4v-1.6l-.7.2.2.5-.8.2-.2-.8-.7.2.2.5-.8.2-.4-.9Z"/><polygon class="cls-3" points="150.4 140.2 150.5 142.8 147.4 142.8 147.5 140.2 150.4 140.2"/><path class="cls-4" d="M150.7,143h-3.3l-.1-2.8,3.1-.2.3,3Zm-.5-2.8-2.7.2.1,2.4,2.7-.2-.1-2.4Z"/><path class="cls-3" d="M139,138.4h.9v.6h.7v-.7h.9v.7h.6v-.7h.9v1.5a.43.43,0,0,1-.4.4h-3.2a.43.43,0,0,1-.4-.4v-1.4Z"/><path class="cls-4" d="M142.7,140.4h-3.4l-.4-.6v-1.5l1.1-.2.2.8.5-.2-.2-.5,1.1-.2.2.8.5-.2-.2-.5,1.1-.2.2,1.9-.7.6Zm-3-2-.7.2.2,1.3,3.5.4.2-.4v-1.5l-.7.2.2.5-.8.2-.2-.8-.7.2.2.5-.8.2-.4-1Z"/><polygon class="cls-3" points="142.5 140.2 142.6 142.8 139.5 142.8 139.6 140.2 142.5 140.2"/><path class="cls-4" d="M142.8,143h-3.3l-.1-2.8,3.1-.2.3,3Zm-.5-2.7-2.7.2.1,2.4,2.7-.2-.1-2.4Z"/><path class="cls-3" d="M141.9,149.9c.1-4.1,3-5.1,3-5.1A5.13,5.13,0,0,1,148,150l-6.1-.1Z"/><path class="cls-3" d="M139.4,144.8l-.5,4.7H142c0-3.9,3-4.6,3-4.6a4.64,4.64,0,0,1,3.1,4.6h3.1l-.6-4.8-11.2.1Z"/><path class="cls-4" d="M151.4,149.8h-3.3c-.3-3.8-3.1-4.6-3.1-4.6s-2.8.6-2.8,4.4l-3.3.2.3-5,11.4-.2.8,5.2Zm-6.7-4.9-5.3.1-.3,4.6,2.9-.2c-.1-3.2,1.9-4.2,2.7-4.5Zm.6,0a4.93,4.93,0,0,1,3,4.7l2.7-.2-.5-4.6-5.2.1Z"/><path class="cls-3" d="M138.7,149.6h12.6a.61.61,0,0,1,0,1.2H138.7a.61.61,0,0,1,0-1.2Z"/><path class="cls-4" d="M151.3,150.9H138.7a.71.71,0,0,1-.7-.8.77.77,0,0,1,.7-.8h12.6a.81.81,0,0,1,0,1.6Zm-12.6-1.1v.8h12.6c.2,0,.3-.2.3-.4l-12.9-.4Z"/><path class="cls-3" d="M143.3,149.6a3.28,3.28,0,0,1,1.7-3.2,3.27,3.27,0,0,1,1.8,3.2Z"/><path class="cls-4" d="M146.9,149.7h-3.6c-.2-2.7,1.5-3.5,1.7-3.5a3.41,3.41,0,0,1,1.9,3.4v.1Zm-2-3.1a3.2,3.2,0,0,0-1.4,3l3.1-.2a3,3,0,0,0-1.7-2.8Z"/><path class="cls-3" d="M138.9,142.9H151a.5.5,0,0,1,0,1H138.9a.47.47,0,0,1-.5-.5c.1-.3.3-.5.5-.5Z"/><path class="cls-4" d="M151.1,144.1H139a.7.7,0,0,1,0-1.4h12.1a.68.68,0,0,1,.7.7.84.84,0,0,1-.7.7ZM138.9,143v.7H151a.32.32,0,0,0,.3-.3l-12.4-.4Z"/><path class="cls-3" d="M139.2,143.9h11.6a.5.5,0,0,1,0,1H139.2a.51.51,0,0,1,0-1Z"/><path class="cls-4" d="M150.8,145.1H139.2a.71.71,0,0,1,0-1.4h11.6c.4,0,.6.3.6.7a.67.67,0,0,1-.6.7Zm-11.6-1v.7h11.6a.45.45,0,0,0,.3-.3l-11.9-.4Z"/><path class="cls-4" d="M144.7,139.5c0-.5.6-.5.6,0v1.1h-.6v-1.1Z"/><path class="cls-4" d="M148.7,141.2c0-.5.6-.5.6,0v.9h-.6v-.9Z"/><path class="cls-4" d="M140.7,141.2c0-.5.6-.5.6,0v.9h-.6v-.9Z"/><path class="cls-3" d="M208.8,172.5l.6.6-.5.5.5.5.5-.5.7.7-.5.5.5.5.5-.5.7.7-1.1,1.1c-.2.2-.4.1-.6,0l-2.3-2.3a.37.37,0,0,1,0-.6l1-1.2Z"/><path class="cls-4" d="M210.4,176.8l-.4-.2-2.5-2.5.1-.7,1.1-1.1.9.6-.5.7.5.2.2-.5.9.7-.5.7.5.2.2-.5.9.7-1.4,1.7Zm-1.7-4.2-.8,1,2.5,2.9.1-.2,1.1-1.1-.7-.4-.2.5-.7-.5.5-.7-.7-.4-.2.5-.7-.5.5-.7-.7-.4Z"/><polygon class="cls-3" points="209.8 176.4 206.5 179.9 204.3 177.6 207.8 174.4 209.8 176.4"/><path class="cls-4" d="M206.5,180.2l-2.4-2.4,3.6-3.5,2.2,2-3.4,3.9Zm1.2-5.7-3.3,3.3,2.1,1.9,3.1-3.4-1.9-1.8Z"/><path class="cls-3" d="M209.9,177l.6.6-.5.5.5.5.5-.5.6.6-.5.5.5.5.5-.5.6.6-1.1,1.1c-.2.2-.4.1-.6,0l-2.3-2.3a.38.38,0,0,1,0-.6l1.2-1Z"/><path class="cls-4" d="M211.5,181.2l-.4-.2-2.4-2.4.1-.7,1.1-1.1.9.6-.5.7.5.2.2-.5.9.6-.5.7.5.2.2-.5.9.6-1.5,1.8Zm-1.7-4.1-.8,1,2.5,2.8.1-.2,1.1-1.1-.7-.3-.2.5-.7-.5.5-.7-.6-.4-.2.5-.7-.5.5-.7-.8-.4Z"/><polygon class="cls-3" points="211.1 180.8 209.3 182.7 207.1 180.5 209 178.7 211.1 180.8"/><path class="cls-4" d="M209.3,182.9l-2.3-2.3,1.9-2,2.3,2.1-1.9,2.2Zm-.4-4.1-1.6,1.8,2,1.8,1.6-1.8-2-1.8Z"/><path class="cls-3" d="M204.3,171.4l.6.6-.5.5.5.5.5-.5.6.6-.5.5.5.5.5-.5.6.6-1.1,1.1c-.2.2-.4.1-.6,0l-2.3-2.3c-.2-.1-.2-.4,0-.6l1.2-1Z"/><path class="cls-4" d="M205.9,175.6l-.4-.2-2.3-2.4v-.8l1-1.1.9.6-.5.7.5.2.2-.5.9.6-.5.7.5.2.2-.5.9.6-1.4,1.9Zm-1.7-4.1-.8,1.1,2.5,2.8.1-.2,1.1-1.1-.6-.4-.2.5-.7-.5.5-.7-.6-.4-.2.5-.7-.5.5-.7-.9-.4Z"/><polygon class="cls-3" points="205.4 175.1 203.7 177.1 201.5 174.9 203.4 173.1 205.4 175.1"/><path class="cls-4" d="M203.7,177.3l-2.3-2.3,1.9-2,2.3,2-1.9,2.3Zm-.4-4.1-1.6,1.8,2,1.8,1.6-1.8-2-1.8Z"/><path class="cls-3" d="M198.3,181.6c3-2.8,5.7-1.5,5.8-1.5a5.2,5.2,0,0,1-1.4,5.9l-4.4-4.4Z"/><path class="cls-3" d="M200,176.2l-3.7,3,2.2,2.2c2.8-2.8,5.3-1.1,5.4-1.1a4.64,4.64,0,0,1-1.1,5.4l2.2,2.2,3-3.8-8-7.9Z"/><path class="cls-4" d="M205,188.2l-2.3-2.3c2.4-2.8,1.1-5.3,1-5.4h0a3.32,3.32,0,0,0-1.8-.5,4.59,4.59,0,0,0-3.3,1.5l-2.4-2.2,3.7-3.3,8.2,7.9-3.1,4.3Zm-.8-7.7a4.2,4.2,0,0,1,.3,1.4,5,5,0,0,1-1.5,4l2,1.8,2.8-3.6-3.6-3.6Zm-4.3-4.2-3.5,3,2.2,1.9a4.73,4.73,0,0,1,5-1.3l-3.7-3.6Z"/><path class="cls-3" d="M196.2,179.1l8.9,8.9c.2.2.2.5-.1.8a.62.62,0,0,1-.8.1l-8.9-8.9c-.2-.2-.2-.5.1-.8a.53.53,0,0,1,.8-.1Z"/><path class="cls-4" d="M204.6,189.2l-.4-.2-8.9-8.9a.68.68,0,0,1,.1-1l.6-.3,9.4,9.1a.68.68,0,0,1-.1,1l-.7.3Zm-9.1-9.4,9.1,9.2.3-.3-8.9-9.4-.7.7.2-.2Z"/><path class="cls-3" d="M199.4,182.3a3.39,3.39,0,0,1,3.5-1,3.39,3.39,0,0,1-1,3.5l-2.5-2.5Z"/><path class="cls-4" d="M201.9,185l-2.6-2.6c1.9-2.4,3.6-1.4,3.6-1.3.2.2.8,2-.9,3.8l-.1.1Zm.1-3.7a3.38,3.38,0,0,0-2.4,1.1l2.3,2.1a2.86,2.86,0,0,0,.8-3.1,2.44,2.44,0,0,0-.7-.1Z"/><path class="cls-3" d="M201.1,174.5l8.6,8.6a.49.49,0,0,1-.7.7l-8.6-8.6a.49.49,0,0,1,.7-.7Z"/><path class="cls-4" d="M209.3,184.1l-.5-.2-8.6-8.6a.76.76,0,0,1,0-1h1l8.6,8.6a.9.9,0,0,1,0,1l-.5.2Zm-8.3-9.5-.5.5,8.8,8.8.2-.3-8.5-9Z"/><path class="cls-3" d="M200.5,175.4l8.2,8.2a.49.49,0,0,1-.1.7.48.48,0,0,1-.7,0l-8.2-8.2a.49.49,0,0,1,.1-.7.82.82,0,0,1,.7,0Z"/><path class="cls-4" d="M208.3,184.7l-.4-.2-8.2-8.2a.64.64,0,0,1,.1-.9l.9-.1,8.2,8.2a.64.64,0,0,1-.1.9l-.5.3Zm-7.9-9.1-.5.5,8.4,8.5.3-.3-8.2-8.7Z"/><path class="cls-4" d="M207.5,176.1a.35.35,0,0,1,.5.5l-.8.8-.5-.5.8-.8Z"/><path class="cls-4" d="M209.1,180.1c.3-.3.8.1.4.4l-.6.6-.4-.4.6-.6Z"/><path class="cls-4" d="M203.5,174.5c.3-.3.8.1.4.4l-.6.6-.4-.4.6-.6Z"/><path class="cls-3" d="M210.7,136h.9v.6h.7v-.7h.9v.7h.7v-.7h.9v1.5a.43.43,0,0,1-.4.4h-3.3a.43.43,0,0,1-.4-.4V136Z"/><path class="cls-4" d="M214.4,138.1H211l-.4-.6V136l1.1-.2.2.8.5-.2-.2-.5,1.1-.2.2.8.5-.2-.2-.5,1.1-.2.2,1.9-.7.6Zm-3-2.1-.7.2.2,1.3,3.5.4.2-.4V136l-.8.2.2.5-.9.2-.2-.8-.8.2.2.5-.8.2-.1-1Z"/><polygon class="cls-3" points="214.2 138 214.4 142.8 211.2 142.8 211.4 138 214.2 138"/><path class="cls-4" d="M214.6,143h-3.4v-5l3-.2.4,5.2Zm-.6-5-2.6.2v4.6l2.8-.2L214,138Z"/><path class="cls-3" d="M214.7,138.4h.9v.6h.6v-.7h.9v.7h.7v-.7h.9v1.5a.43.43,0,0,1-.4.4h-3.2a.43.43,0,0,1-.4-.4v-1.4Z"/><path class="cls-4" d="M218.3,140.4h-3.4l-.4-.6v-1.5l1.1-.2.2.8.5-.2-.2-.5,1.1-.2.2.8.5-.2-.2-.5,1.1-.2.2,1.9-.7.6Zm-2.9-2-.7.2.2,1.3,3.5.4.2-.4v-1.5l-.7.2.2.5-.8.2-.2-.8-.7.2.2.5-.8.2-.4-1Z"/><polygon class="cls-3" points="218.2 140.2 218.3 142.8 215.2 142.8 215.3 140.2 218.2 140.2"/><path class="cls-4" d="M218.4,143h-3.3l-.1-2.8,3.1-.2.3,3Zm-.4-2.7-2.7.2.1,2.4,2.7-.2-.1-2.4Z"/><path class="cls-3" d="M206.8,138.4h.9v.6h.7v-.7h.9v.7h.7v-.7h.9v1.5a.43.43,0,0,1-.4.4h-3.2a.43.43,0,0,1-.4-.4v-1.4Z"/><path class="cls-4" d="M210.4,140.4H207l-.4-.6v-1.5l1.1-.2.2.8.5-.2-.2-.5,1.1-.2.2.8.5-.2-.2-.5,1.1-.2.2,1.9-.7.6Zm-2.9-2-.7.2.2,1.3,3.4.4.2-.4v-1.5l-.7.2.2.5-.8.2-.2-.8-.7.2.2.5-.8.2-.3-1Z"/><polygon class="cls-3" points="210.3 140.3 210.3 142.8 207.3 142.9 207.4 140.2 210.3 140.3"/><path class="cls-4" d="M207.1,143l.1-2.8,3.1-.2.3,2.8-3.5.2Zm3-2.7-2.7.2.1,2.2h2.9l-.3-2.4Z"/><path class="cls-3" d="M209.7,149.9c.1-4.1,3-5.1,3-5.1a4.94,4.94,0,0,1,3.1,5.1Z"/><path class="cls-3" d="M207.2,144.8l-.5,4.7h3.1c0-3.9,3-4.6,3-4.6a4.64,4.64,0,0,1,3.1,4.6H219l-.6-4.8-11.2.1Z"/><path class="cls-4" d="M219.1,149.8h-3.3c-.3-3.8-3-4.6-3.1-4.6s-2.8.6-2.8,4.4l-3.3.2.3-4.9,11.4-.2.8,5.1Zm-6.7-4.9-5.3.1-.3,4.6,2.9-.2c-.1-3.2,1.9-4.2,2.7-4.5Zm.7,0a4.73,4.73,0,0,1,2.9,4.7l2.7-.2-.5-4.6-5.1.1Z"/><path class="cls-3" d="M206.5,149.6h12.6a.61.61,0,0,1,0,1.2H206.5a.61.61,0,0,1,0-1.2Z"/><path class="cls-4" d="M219.1,150.9H206.5a.71.71,0,0,1-.7-.8.77.77,0,0,1,.7-.8h12.6a.81.81,0,0,1,0,1.6Zm-12.6-1.1v.8h12.6c.2,0,.3-.2.3-.4l-12.9-.4Z"/><path class="cls-3" d="M211,149.6a3.28,3.28,0,0,1,1.7-3.2,3.27,3.27,0,0,1,1.8,3.2Z"/><path class="cls-4" d="M214.7,149.8H211c-.2-2.8,1.6-3.5,1.6-3.5a3.22,3.22,0,0,1,2,3.3v.2Zm-2-3.2a3.44,3.44,0,0,0-1.4,3l3.1-.2a3.4,3.4,0,0,0-1.7-2.8Z"/><path class="cls-3" d="M206.7,142.9h12.1a.5.5,0,0,1,0,1H206.7a.47.47,0,0,1-.5-.5.54.54,0,0,1,.5-.5Z"/><path class="cls-4" d="M218.8,144.1H206.7a.7.7,0,0,1,0-1.4h12.1a.7.7,0,1,1,0,1.4Zm-12.1-1v.7h12.1a.32.32,0,0,0,.3-.3l-12.4-.4Z"/><path class="cls-3" d="M207,143.9h11.6a.51.51,0,0,1,0,1H207a.46.46,0,0,1-.4-.5c-.1-.2.1-.5.4-.5Z"/><path class="cls-4" d="M218.6,145.2H207a.71.71,0,0,1,0-1.4h11.6c.4,0,.6.3.6.7s-.3.7-.6.7ZM207,144.1v.7h11.6a.45.45,0,0,0,.3-.3l-11.9-.4Z"/><path class="cls-4" d="M212.5,139.5c0-.5.6-.5.6,0v1.2h-.6v-1.2Z"/><path class="cls-4" d="M216.4,141.2c0-.5.6-.5.6,0v.9h-.6v-.9Z"/><path class="cls-4" d="M208.5,141.2c0-.4.6-.5.6,0v.9h-.6v-.9Z"/><path class="cls-3" d="M146.3,175.4l.6-.6.5.5.5-.5-.5-.5.7-.7.5.5.5-.5-.5-.5.7-.7,1.1,1.1c.2.2.1.4,0,.6l-2.3,2.3a.37.37,0,0,1-.6,0l-1.2-1Z"/><path class="cls-4" d="M147.6,176.7l-.4-.2-1-1,.6-.9.7.5.2-.5-.5-.2.7-.9.7.5.2-.5-.5-.2.7-.9,1.5,1.2-.1.7-2.8,2.4Zm-.8-1.9-.4.6,1.2,1,.2-.3,2.3-2.3-1-1.4-.4.7.5.2-.5.7-.7-.5-.4.7.5.2-.5.7-.8-.3Z"/><polygon class="cls-3" points="150.2 174.3 153.7 177.6 151.4 179.9 148.2 176.3 150.2 174.3"/><path class="cls-4" d="M151.4,180.1l-3.4-3.7,2-2.2,3.8,3.3-2.4,2.6Zm-1.4-5.6-1.7,2,3.1,3.1,2.1-2.1-3.5-3Z"/><path class="cls-3" d="M150.8,174.2l.6-.6.5.5.5-.5-.5-.5.6-.6.5.5.5-.5-.5-.5.7-.6,1.1,1.1c.2.2.1.4,0,.6l-2.3,2.3c-.2.1-.4.2-.6,0l-1.1-1.2Z"/><path class="cls-4" d="M152.1,175.5l-.4-.2-1-1,.6-.9.7.5.2-.5-.5-.2.6-.9.7.5.2-.5-.5-.2.7-.9,1.3,1.2v.7l-2.6,2.4Zm-.8-1.8-.4.6,1.2,1,.2-.3,2.3-2.3-1-1.4-.4.6.5.2-.5.7-.7-.5-.4.6.5.2-.5.7-.8-.1Z"/><polygon class="cls-3" points="154.6 173.1 156.5 174.8 154.3 177 152.5 175.1 154.6 173.1"/><path class="cls-4" d="M154.3,177.3l-1.9-2,2.1-2.3,2.2,1.8-2.4,2.5Zm.1-4.1-1.8,2,1.6,1.5,2-2-1.8-1.5Z"/><path class="cls-3" d="M145.2,179.8l.6-.6.5.5.5-.5-.5-.5.6-.6.5.5.5-.5-.5-.5.6-.6,1.1,1.1c.2.2.1.4,0,.6l-2.3,2.3c-.1.2-.4.2-.6,0l-1-1.2Z"/><path class="cls-4" d="M146.5,181.1l-.4-.2-1.1-1,.6-.9.7.5.2-.5-.5-.2.6-.9.7.5.2-.5-.5-.2.6-.9,1.3,1.1v.7l-2.4,2.5Zm-.8-1.8-.4.6,1.2,1,.2-.3,2.3-2.3-1.1-1.3-.4.6.5.2-.5.7-.7-.5-.4.6.5.2-.5.7-.7-.2Z"/><polygon class="cls-3" points="149 178.7 150.9 180.5 148.7 182.6 146.9 180.7 149 178.7"/><path class="cls-4" d="M148.7,182.9l-1.9-2,2-2.3,2.2,1.8-2.3,2.5Zm.1-4.1-1.8,2,1.6,1.5,2-2-1.8-1.5Z"/><path class="cls-3" d="M155.4,185.9c-2.8-3-1.5-5.7-1.5-5.8a5.2,5.2,0,0,1,5.9,1.4l-4.4,4.4Z"/><path class="cls-3" d="M150,184.1l3,3.7,2.2-2.2c-2.8-2.8-1.1-5.3-1.1-5.4a4.64,4.64,0,0,1,5.4,1.1l2.2-2.2-3.8-3-7.9,8Z"/><path class="cls-4" d="M153,188.1l-3.1-3.9,7.9-8.2,4,3-2.2,2.5A5.85,5.85,0,0,0,156,180a3.91,3.91,0,0,0-1.8.4h0s-1.5,2.4,1.1,5.1l-2.3,2.6Zm.8-7.6-3.6,3.8,2.9,3.3,2-2a4.08,4.08,0,0,1-1.6-3.8,2.06,2.06,0,0,1,.3-1.3Zm2.2-.9a5,5,0,0,1,3.6,1.6l1.9-2.2-3.7-2.7-3.6,3.7a4,4,0,0,1,1.8-.4Z"/><path class="cls-3" d="M152.9,188l8.9-8.9c.2-.2.5-.2.8.1a.62.62,0,0,1,.1.8l-8.9,8.9a.43.43,0,0,1-.7-.1c-.4-.3-.4-.6-.2-.8Z"/><path class="cls-4" d="M153.4,189.1l-.6-.3a.92.92,0,0,1-.1-1l8.9-8.9c.7-.2.9-.1,1,.1a.92.92,0,0,1,.1,1l-9.3,9.1Zm8.7-10-9.1,9-.1.6.4.2.2-.2,9-9,.1-.6Z"/><path class="cls-3" d="M156.1,184.7a3.23,3.23,0,0,1-1-3.4,3.39,3.39,0,0,1,3.5,1l-2.5,2.4Z"/><path class="cls-4" d="M156.1,185l-.1-.1a3.49,3.49,0,0,1-1.1-3.6c.2-.2,1.9-.9,3.8.9l-2.6,2.8Zm-1-3.6a3.41,3.41,0,0,0,1,3l2.3-2.3a4,4,0,0,0-3.3-.7Z"/><path class="cls-3" d="M148.3,183l8.6-8.6a.49.49,0,0,1,.7.7l-8.6,8.6a.49.49,0,0,1-.7-.7Z"/><path class="cls-4" d="M148.7,184.1l-.5-.3v-.9l8.6-8.6h1a.67.67,0,0,1,0,1l-9.1,8.8Zm0-.4v.2l.2-.3,8.6-8.6.1-.6h-.4l-8.8,8.6-.1.6.4.1Z"/><path class="cls-3" d="M149.2,183.6l8.2-8.2a.48.48,0,0,1,.7,0,.62.62,0,0,1,.1.7l-8.2,8.2a.49.49,0,0,1-.7-.1c-.2-.1-.2-.4-.1-.6Z"/><path class="cls-4" d="M149.7,184.6l-.5-.2a.65.65,0,0,1-.1-.9l8.2-8.2,1,.1a.77.77,0,0,1,.1,1l-8.7,8.2Zm0-.3v.2l.2-.2,8.2-8.2.1-.6h-.4l-8.4,8.3-.1.6.4-.1Z"/><path class="cls-4" d="M150,176.5a.35.35,0,0,1,.5-.5l.8.8-.5.5-.8-.8Z"/><path class="cls-4" d="M154,174.9c-.3-.3.1-.8.4-.4l.6.6-.4.4-.6-.6Z"/><path class="cls-4" d="M148.4,180.5c-.3-.3.1-.8.4-.4l.6.6-.4.4-.6-.6Z"/></g></g></svg>