<svg xmlns="http://www.w3.org/2000/svg" viewBox="0 0 512 298.7"><defs><style>.cls-1{fill:#fff;}.cls-2{fill:#e91d26;}.cls-3{fill:#485fab;}.cls-4{fill:#f8e625;}</style></defs><g id="Layer_2" data-name="Layer 2"><g id="Layer_1-2" data-name="Layer 1"><rect class="cls-1" width="512" height="298.7"/><rect class="cls-2" y="199.1" width="512" height="99.6"/><rect class="cls-3" y="99.5" width="512" height="99.6"/><path class="cls-2" d="M113.2,57.4c-.9.4-1.8.8-2.7,1.3l2.8,45.2a51.07,51.07,0,0,0,14.8,32.8,50.16,50.16,0,0,0,21.3,12.7h0a50.75,50.75,0,0,0,36.1-45.5l2.8-45.2c-.9-.4-1.8-.9-2.7-1.3h0l-2.9,46.2a48.19,48.19,0,0,1-33.3,42.7h0a47.18,47.18,0,0,1-19.3-11.8,48.35,48.35,0,0,1-14-30.9l-2.9-46.2h0"/><path class="cls-3" d="M185.7,57.4a90,90,0,0,0-72.4,0l2.9,46.2a48.19,48.19,0,0,0,33.3,42.7h0a47.18,47.18,0,0,0,19.3-11.8,48.35,48.35,0,0,0,14-30.9"/><polyline class="cls-4" points="151.6 71.4 153.2 69.2 150.5 69.5 149.4 67 148.3 69.5 145.6 69.2 147.3 71.4 145.6 73.6 148.3 73.3 149.4 75.8 150.5 73.3 153.2 73.6"/><polyline class="cls-4" points="141.4 57.7 143 55.5 140.3 55.8 139.2 53.3 138.1 55.8 135.4 55.5 137 57.7 135.4 59.9 138.1 59.6 139.2 62.1 140.3 59.6 143 59.9"/><polyline class="cls-4" points="161.9 57.7 163.5 55.5 160.8 55.8 159.7 53.3 158.6 55.8 155.9 55.5 157.5 57.7 155.9 59.9 158.6 59.6 159.7 62.1 160.8 59.6 163.5 59.9"/><path class="cls-1" d="M178.7,110.3,164.1,90.8l-5.9,7.8-8.8-17.5-8.8,17.5-5.8-7.8-14.6,19.5a9.44,9.44,0,0,0,2.9,6.9,10,10,0,0,0,6.9,2.9,10.54,10.54,0,0,0,4.9-1.3h0a13.32,13.32,0,0,1,2.4-1,9.63,9.63,0,0,1,7.4,1,9.47,9.47,0,0,0,4.9,1.3h0a9.47,9.47,0,0,0,4.9-1.3,10,10,0,0,1,7.4-1,12.23,12.23,0,0,1,2.4,1h0a9.75,9.75,0,0,0,11.8-1.6,9.75,9.75,0,0,0,2.6-6.9"/><path class="cls-1" d="M123.7,120.9c.7,1.3,1.4,2.6,2.2,3.9h0a10,10,0,0,0,6.6.6,9.43,9.43,0,0,0,2.3-1h0a9.22,9.22,0,0,1,4.9-1.3h0a9.47,9.47,0,0,1,4.9,1.3,10,10,0,0,0,7.4,1,9.43,9.43,0,0,0,2.3-1h0a9.22,9.22,0,0,1,4.9-1.3h0a9.47,9.47,0,0,1,4.9,1.3,10,10,0,0,0,7.4,1,5.23,5.23,0,0,0,1.6-.6c.8-1.3,1.5-2.6,2.2-3.9h0a6.11,6.11,0,0,0-1.4.7h0a8.66,8.66,0,0,1-2.4,1,9.57,9.57,0,0,1-7.4-1,9.47,9.47,0,0,0-4.9-1.3h0a10.54,10.54,0,0,0-4.9,1.3h0a8.66,8.66,0,0,1-2.4,1,9.57,9.57,0,0,1-7.4-1,9.47,9.47,0,0,0-4.9-1.3h0a10.54,10.54,0,0,0-4.9,1.3h0a8.66,8.66,0,0,1-2.4,1,9.57,9.57,0,0,1-7.4-1,3.46,3.46,0,0,0-1.2-.7h0"/><path class="cls-1" d="M170.5,128.4a48.35,48.35,0,0,1-3.7,4.2,45.52,45.52,0,0,1-17.3,10.8h0a45.89,45.89,0,0,1-17.4-10.8,50.42,50.42,0,0,1-3.7-4.2h0a9.56,9.56,0,0,0,4.1-.2,9.43,9.43,0,0,0,2.3-1h0a10.23,10.23,0,0,1,4.9-1.3h0a9.47,9.47,0,0,1,4.9,1.3,10,10,0,0,0,7.4,1,9.43,9.43,0,0,0,2.3-1h0a10.23,10.23,0,0,1,4.9-1.3h0a9.47,9.47,0,0,1,4.9,1.3,9,9,0,0,0,6.4,1.2h0"/></g></g></svg>