<svg xmlns="http://www.w3.org/2000/svg" viewBox="0 0 512 298.7"><defs><style>.cls-1{fill:#cb2127;}.cls-2{fill:#f7de28;}</style></defs><g id="Layer_2" data-name="Layer 2"><g id="Layer_1-2" data-name="Layer 1"><rect class="cls-1" width="512" height="298.7"/><polygon class="cls-2" points="49.3 108.1 58.9 78.3 33.6 59.8 64.9 59.7 74.7 30 84.4 59.7 115.7 59.8 90.4 78.3 100 108.1 74.7 89.7 49.3 108.1"/><polygon class="cls-2" points="136.6 124.2 147.2 128.4 154.5 119.7 153.7 131.1 164.3 135.4 153.2 138.2 152.4 149.5 146.3 139.9 135.3 142.6 142.6 133.8 136.6 124.2"/><polygon class="cls-2" points="193.8 66.9 182.6 65 177.2 75 175.6 63.7 164.4 61.7 174.6 56.7 173 45.4 181 53.6 191.2 48.6 185.9 58.7 193.8 66.9"/><polygon class="cls-2" points="170 117.9 173.5 107.1 164.3 100.4 175.7 100.4 179.2 89.5 182.7 100.4 194.1 100.4 184.9 107.1 188.4 117.9 179.2 111.3 170 117.9"/><polygon class="cls-2" points="137.1 19 147.5 23.7 155.3 15.4 153.9 26.7 164.2 31.6 153 33.8 151.6 45.1 146.1 35.1 134.9 37.3 142.6 28.9 137.1 19"/></g></g></svg>