<svg xmlns="http://www.w3.org/2000/svg" viewBox="0 0 512 298.7"><defs><style>.cls-1{fill:#e91e26;}.cls-2{fill:#fff;}</style></defs><g id="Layer_2" data-name="Layer 2"><g id="Layer_1-2" data-name="Layer 1"><rect class="cls-1" width="120.4" height="298.7"/><rect class="cls-1" x="391.6" width="120.4" height="298.7"/><rect class="cls-2" x="120.4" width="271.1" height="298.7"/><path class="cls-1" d="M256,38.7,238.2,73.2c-2,3.8-5.6,3.4-9.2,1.3l-12.9-6.9,9.6,53c2,9.7-4.5,9.7-7.6,5.5L195.7,99.9l-3.6,13.3a4.29,4.29,0,0,1-5,3.1l-28.4-6.2,7.5,28.2c1.6,6.3,2.8,8.9-1.6,10.5l-10.1,4.9L203.3,195a6.87,6.87,0,0,1,2.2,6.9l-4.3,14.6,48.7-5.8c1.5,0,4,1.3,4,3.1l-2.2,53.5h8.2l-1.3-53.4c0-1.8,2.2-3.2,3.7-3.2l48.7,5.8-4.3-14.6a6.81,6.81,0,0,1,2.2-6.9l48.8-41.3-10.1-4.9c-4.4-1.7-3.2-4.3-1.6-10.5l7.4-28.2L325,116.3a4.32,4.32,0,0,1-5-3.1l-3.6-13.3L294,126.1c-3.2,4.2-9.7,4.2-7.6-5.5l9.6-53-12.9,6.9c-3.6,2.1-7.2,2.4-9.2-1.3Z"/></g></g></svg>