<svg xmlns="http://www.w3.org/2000/svg" viewBox="0 0 512 298.7"><defs><style>.cls-1{fill:#fff;}.cls-2{fill:#313f99;}.cls-3{fill:#c22827;}</style></defs><g id="Layer_2" data-name="Layer 2"><g id="Layer_1-2" data-name="Layer 1"><rect class="cls-1" width="512" height="298.7"/><rect class="cls-2" width="149.3" height="298.7"/><rect class="cls-3" y="149.3" width="512" height="149.3"/><polygon class="cls-1" points="74.7 37.3 63.1 72.8 80.9 78.6 74.7 37.3"/><polygon class="cls-1" points="74.7 37.3 86.2 72.8 68.5 78.6 74.7 37.3"/><polygon class="cls-1" points="110.2 63.1 72.8 63.1 72.8 81.8 110.2 63.1"/><polygon class="cls-1" points="110.2 63.1 80 85 69 69.9 110.2 63.1"/><polygon class="cls-1" points="39.2 63.1 69.4 85 80.3 69.9 39.2 63.1"/><polygon class="cls-1" points="39.2 63.1 76.5 63.1 76.5 81.8 39.2 63.1"/><polygon class="cls-1" points="96.6 104.8 85.1 69.3 67.3 75.1 96.6 104.8"/><polygon class="cls-1" points="96.6 104.8 66.4 82.9 77.4 67.8 96.6 104.8"/><polygon class="cls-1" points="52.7 104.8 82.9 82.9 71.9 67.8 52.7 104.8"/><polygon class="cls-1" points="52.7 104.8 64.3 69.3 82 75.1 52.7 104.8"/></g></g></svg>