<svg xmlns="http://www.w3.org/2000/svg" viewBox="0 0 512 298.7"><defs><style>.cls-1{fill:#fff;}.cls-2{fill:#010101;}.cls-3{fill:#2e6934;}.cls-4{fill:#aa1e23;}</style></defs><g id="Layer_2" data-name="Layer 2"><g id="Layer_1-2" data-name="Layer 1"><rect class="cls-1" width="512" height="298.7"/><rect class="cls-2" width="512" height="89.6"/><rect class="cls-3" y="209" width="512" height="89.6"/><path class="cls-2" d="M200.5,238l3.2,1.9,87.1-151c5.1-1.4,7.9-6.2,10.7-11.1a108.93,108.93,0,0,0,12.6-33,105.48,105.48,0,0,0-22.2,27.4c-2.8,4.9-5.6,9.7-4.2,14.8Z"/><path class="cls-2" d="M203.8,240.2l-3.5-2,87-151.4c-1.4-5,1.4-10,4.2-14.8a106.21,106.21,0,0,1,22.3-27.4c-1.1,7.9-4.5,19.9-12.2,33.3-2.8,4.8-5.6,9.8-10.8,11.2l-87,151.1Zm110-195.5A123.75,123.75,0,0,0,292,72.2c-2.7,4.7-5.5,9.6-4.2,14.6L200.7,238l2.9,1.4,87-150.8c5.1-1.5,8-6.3,10.7-11.1a102.72,102.72,0,0,0,12.5-32.8Z"/><path class="cls-1" d="M200.5,238l3.2,1.9,87.1-151c5.1-1.4,7.9-6.2,10.7-11.1a108.93,108.93,0,0,0,12.6-33,105.48,105.48,0,0,0-22.2,27.4c-2.8,4.9-5.6,9.7-4.2,14.8Z"/><path class="cls-2" d="M307.1,238l-3.2,1.9-87.1-151c-5.1-1.4-7.9-6.2-10.7-11.1a108.93,108.93,0,0,1-12.6-33,109.1,109.1,0,0,1,22.3,27.4c2.8,4.9,5.6,9.7,4.2,14.8Z"/><path class="cls-2" d="M303.8,240.2l-.1-.2L216.6,89c-5-1.3-7.9-6.3-10.7-11.1a108.93,108.93,0,0,1-12.6-33.1c6.3,4.9,15,13.8,22.7,27.2,2.8,4.8,5.6,9.8,4.3,15l87.1,150.9-3.6,2.3ZM193.3,44.9a126.12,126.12,0,0,0,12.9,32.7c2.7,4.7,5.5,9.6,10.5,11L304,239.5l3-1.7L219.8,87.1c1.3-5.2-1.5-10.1-4.2-14.8a108,108,0,0,0-22.3-27.4Z"/><path class="cls-1" d="M307.1,238l-3.2,1.9-87.1-151c-5.1-1.4-7.9-6.2-10.7-11.1a108.93,108.93,0,0,1-12.6-33,109.1,109.1,0,0,1,22.3,27.4c2.8,4.9,5.6,9.7,4.2,14.8Z"/><path class="cls-4" d="M0,104.5v89.6H218.4c5.6,14.9,24.2,44.8,35.4,44.8s29.8-29.9,35.4-44.8H512V104.5H289.2c-5.6-14.9-24.2-44.8-35.4-44.8S224,89.6,218.4,104.5Z"/><path class="cls-2" d="M289.2,194.1c5.6-14.9,9.3-29.9,9.3-44.8s-3.7-29.9-9.3-44.8c-5.6,14.9-9.3,29.9-9.3,44.8s3.7,29.9,9.3,44.8Z"/><path class="cls-2" d="M218.4,194.1c-5.6-14.9-9.3-29.9-9.3-44.8s3.7-29.9,9.3-44.8c5.6,14.9,9.3,29.9,9.3,44.8s-3.7,29.9-9.3,44.8Z"/><path class="cls-1" d="M253.8,138.1c4.1,0,7.5,5,7.5,11.2s-3.3,11.2-7.5,11.2-7.5-5-7.5-11.2,3.4-11.2,7.5-11.2Z"/><path class="cls-1" d="M255.7,160.2s7.5,14.9,7.5,39.2-7.5,39.2-7.5,39.2V160.2Z"/><path class="cls-1" d="M251.9,138.4s-7.5-14.9-7.5-39.2S251.9,60,251.9,60Z"/><path class="cls-1" d="M251.9,160.2s-7.5,14.9-7.5,39.2,7.5,39.2,7.5,39.2Z"/><path class="cls-1" d="M255.7,138.4s7.5-14.9,7.5-39.2S255.7,60,255.7,60v78.4Z"/></g></g></svg>