<svg xmlns="http://www.w3.org/2000/svg" viewBox="0 0 512 298.7"><defs><style>.cls-1{fill:#2e3d85;}.cls-2,.cls-4{fill:#fff;}.cls-3{fill:#d81e34;}.cls-4{fill-rule:evenodd;}</style></defs><g id="Layer_2" data-name="Layer 2"><g id="Layer_1-2" data-name="Layer 1"><rect class="cls-1" width="512" height="298.7"/><path class="cls-2" d="M0,239H512V179.4H0ZM0,119.2H512V59.6H0Z"/><polygon class="cls-3" points="0 0 0 298.6 258.2 149.5 0 0"/><polygon class="cls-4" points="86.2 99.5 70.8 146.7 94.4 154.4 86.2 99.5"/><polygon class="cls-4" points="86.2 99.5 101.2 146.7 77.6 154.4 86.2 99.5"/><polygon class="cls-4" points="133.4 134.2 83.8 134.2 83.8 158.7 133.4 134.2"/><polygon class="cls-4" points="133.4 134.2 93 163 78.5 143.3 133.4 134.2"/><polygon class="cls-4" points="38.5 134.2 79 163 93.5 143.3 38.5 134.2"/><polygon class="cls-4" points="38.5 134.2 88.6 134.2 88.6 158.7 38.5 134.2"/><polygon class="cls-4" points="115.1 189.5 99.7 142.3 76.1 150 115.1 189.5"/><polygon class="cls-4" points="115.1 189.5 75.1 160.1 89.6 140.4 115.1 189.5"/><polygon class="cls-4" points="56.9 189.5 96.8 160.1 82.4 140.4 56.9 189.5"/><polygon class="cls-4" points="56.9 189.5 72.3 142.3 95.9 150 56.9 189.5"/></g></g></svg>