<svg xmlns="http://www.w3.org/2000/svg" viewBox="0 0 512 298.7"><defs><style>.cls-1{fill:#2d328e;}.cls-2{fill:#c01f3f;}.cls-3,.cls-8{fill:#fff;}.cls-4,.cls-5{fill:#2e6d36;}.cls-10,.cls-13,.cls-4,.cls-6,.cls-8,.cls-9{fill-rule:evenodd;}.cls-15,.cls-6{fill:#e5b32c;}.cls-7{fill:#010101;}.cls-11,.cls-9{fill:#2c3686;}.cls-10,.cls-12{fill:#c12028;}.cls-13{fill:#4d3714;}.cls-14{fill:none;}</style></defs><g id="Layer_2" data-name="Layer 2"><g id="Layer_1-2" data-name="Layer 1"><rect class="cls-1" width="512" height="298.7"/><rect class="cls-2" y="149.3" width="512" height="149.4"/><rect class="cls-3" x="207.5" y="110.7" width="96.9" height="77.2"/><path class="cls-4" d="M275.5,166.5l-19.8.6-19.7.2s-10.1,3.7-14.2,4.6-3.6,2.2-6.8,2.9a22.53,22.53,0,0,1-4.4.9,8.73,8.73,0,0,0-3.1,1.5v10.7h96.9V177.7a12,12,0,0,0-3.1-1.3,35.11,35.11,0,0,0-4.9-1.6c-3.2-.7-2.7-2.1-6.8-2.9s-14.1-5.4-14.1-5.4Z"/><path class="cls-5" d="M304.5,187.9h-97l-.1-10.8a6.85,6.85,0,0,1,3.2-1.6,23.36,23.36,0,0,0,2.6-.4l1.7-.4a6.08,6.08,0,0,0,2.8-1.3,8,8,0,0,1,3.9-1.6c4.1-.8,14.1-4.5,14.2-4.6l19.7-.2,19.8-.6c.1.1,10.1,4.6,14.2,5.4a10.67,10.67,0,0,1,3.9,1.6,8.15,8.15,0,0,0,2.8,1.3,21.57,21.57,0,0,1,3.8,1.2l1.1.4a25.83,25.83,0,0,1,3.1,1.3l.3,10.3Zm-29-21.3-19.7.6-19.7.2c-.1,0-10.1,3.8-14.2,4.6a8,8,0,0,0-3.9,1.6,6.55,6.55,0,0,1-2.9,1.3l-1.7.4a8.24,8.24,0,0,1-2.6.4,8.73,8.73,0,0,0-3.1,1.5v10.6l96.7-.1V177.6a18.77,18.77,0,0,0-3-1.2l-1.2-.4a24.88,24.88,0,0,0-3.8-1.2,6.55,6.55,0,0,1-2.9-1.3,8,8,0,0,0-3.9-1.6c-4.1-.8-14-5.3-14.1-5.3Z"/><polygon class="cls-4" points="254.7 124.3 254.3 133.6 257.2 133.6 256.8 124.4 259.9 124 259.5 120.3 251.8 120.6 251.9 123.9 254.7 124.3"/><path class="cls-5" d="M257.3,133.7h-3.1l.4-9.4-2.8-.3-.1-3.4,7.8-.4.4,3.8-3.2.5.6,9.2Zm2.2-13.4-7.6.4.1,3.2,2.8.3-.4,9.4,2.8-.1-.4-9.1,3.2-.5-.5-3.6Z"/><polygon class="cls-6" points="247.7 149.9 245.1 144.3 246.2 144.1 251 153.3 247.7 149.9"/><path class="cls-7" d="M251.3,153.8l-3.7-3.9-2.6-5.6,1.2-.4,5.1,9.9Zm-5.1-9.7-1,.3,2.7,5.4,2.8,2.9-4.5-8.6Z"/><polygon class="cls-8" points="241.7 137.8 244.6 145.6 246.1 145.6 241.7 137.8"/><path class="cls-7" d="M246.2,145.7h-1.6l-2.9-7.9,4.5,7.9Zm-4.5-7.8,3,7.7,1.2-.1-4.2-7.6Z"/><polygon class="cls-6" points="250.4 142.7 251.8 142.6 254.4 153.6 253.9 157.1 250.4 142.7"/><path class="cls-7" d="M253.9,157.6l-3.6-14.9,1.5-.2,2.7,11.1-.6,4Zm-2.2-15-1.3.1,3.5,13.9.5-3-2.7-11Z"/><polygon class="cls-6" points="251.6 154 247.2 142.2 248.9 142.1 254 156.5 251.6 154"/><path class="cls-7" d="M254.2,156.9l-2.7-2.8-4.4-11.8,1.7-.2,5.4,14.8Zm-5.4-14.8-1.6.2,4.5,11.7,2,2.2-4.9-14.1Z"/><polygon class="cls-8" points="245.2 135.4 247 143.7 248.4 143.7 245.2 135.4"/><path class="cls-7" d="M248.6,143.8H247l-1.9-8.3,3.5,8.3Zm-3.5-8.3,2,8.2,1.2-.1-3.2-8.1Z"/><polygon class="cls-8" points="248.9 135.3 249.9 143.8 250.9 143.7 248.9 135.3"/><path class="cls-7" d="M249.8,143.9h0l-1-8.6,2.2,8.4-1.2.2Zm-1-8.6,1.1,8.4,1-.1-2.1-8.3Z"/><path class="cls-9" d="M248.1,150.7l-11.7-12.8c-3.7,2.9-3,8.2-3,8.2l13.3,10.4Z"/><path class="cls-7" d="M246.7,156.7l-13.4-10.5c0-.1-.7-5.5,3-8.4l11.8,12.8-1.4,6.1ZM236.3,138c-3.4,2.8-2.8,8.1-2.8,8.1l13.1,10.3,1.4-5.7L236.3,138Z"/><path class="cls-10" d="M254.8,157.7l-8.7-8.8c-3.7.1-.8,5.6-.6,6.3l9.3,7.9Z"/><path class="cls-7" d="M254.9,163.3l-9.7-8.7c-.5-1.2-1.6-3.8-.7-5.1a2.08,2.08,0,0,1,1.6-.8l8.8,8.8v5.8ZM246.1,149a2.1,2.1,0,0,0-1.4.7c-.8,1.2.3,3.7.8,4.9a3.93,3.93,0,0,1,.2.6l9.1,7.7v-5.2l-8.7-8.7Z"/><polygon class="cls-6" points="254.1 156.2 236.1 137 235.4 137.5 254.4 158.6 254.1 156.2"/><path class="cls-7" d="M254.6,158.9l-.2-.2-19-21.1.7-.6,18.1,19.2.4,2.7Zm-18.5-21.8-.6.5,18.8,20.8-.3-2.1-17.9-19.2Z"/><polygon class="cls-6" points="235.1 135.8 234.7 135.3 234.7 134.4 231 132 232.7 135.8 233.9 136 234.3 136.4 235.1 135.8"/><polygon class="cls-7" points="234.3 136.6 233.9 136 232.7 135.8 231 132.1 234.8 134.3 234.8 134.9 234.6 134.4 231 132.1 232.8 135.7 234 135.9 234.3 136.3 235 135.7 235 135.6 235.2 135.8 234.3 136.6"/><path class="cls-6" d="M233.2,137.1a7.8,7.8,0,0,1,2.7-2.2l1,1.5-2.2,1.9Z"/><path class="cls-7" d="M234.7,138.3l-1.6-1.1a7.15,7.15,0,0,1,2.7-2.4l1.2,1.5-2.3,2Zm1.1-3.4a10.08,10.08,0,0,0-2.6,2.3l1.5.9,2.2-1.8-1.1-1.4Z"/><path class="cls-9" d="M243,154.1l-14.7-11.7c-2.5,2.6-.4,10.5-.4,10.5l14.4,7.8Z"/><path class="cls-7" d="M242.3,160.8l-14.5-7.9c-.1-.4-2.1-8,.4-10.6L243,154l-.7,6.8Zm-14.1-18.3c-2.3,2.5-.3,10.3-.3,10.4l14.2,7.7.7-6.5-14.6-11.6Z"/><path class="cls-10" d="M255.1,163.6,243,153.9c-4.1.6-.9,6.7-.6,7.3l12.8,6.9Z"/><path class="cls-7" d="M255.3,168.3l-12.9-7c-.7-1.5-2.1-4.6-1.2-6.4a2.28,2.28,0,0,1,1.8-1.1l12.2,9.7.1,4.8ZM243,153.9a2.09,2.09,0,0,0-1.6,1.1c-.9,1.7.5,4.8,1,5.8l12.7,7.2v-4.4L243,153.9Z"/><polygon class="cls-6" points="254.7 161.6 228.5 142 227.9 142.6 255.4 164 254.7 161.6"/><path class="cls-7" d="M255.5,164.3l-.2-.2-27.5-21.5.6-.7,26.3,19.6.8,2.8ZM228.4,142l-.5.6,27.2,21.1-.6-2.1L228.4,142Z"/><polygon class="cls-6" points="227.2 140.9 226.8 140.5 226.7 139.6 222.6 137.9 224.9 141.3 226.2 141.3 226.6 141.7 227.2 140.9"/><polygon class="cls-7" points="226.7 141.8 226.1 141.4 224.9 141.4 222.5 138 226.7 139.5 226.8 140.1 226.6 139.6 222.5 138 225 141.3 226.2 141.2 226.6 141.6 227.2 140.9 227.1 140.8 227.3 141 226.7 141.8"/><path class="cls-6" d="M225.6,142.6a8.94,8.94,0,0,1,2.3-2.7l1.3,1.3-1.8,2.2Z"/><path class="cls-7" d="M227.4,143.5l-1.8-.9a5.85,5.85,0,0,1,2.3-2.8l1.4,1.3-1.9,2.4Zm.4-3.5a8.81,8.81,0,0,0-2.1,2.6l1.6.7,1.8-2.2-1.3-1.1Z"/><path class="cls-9" d="M241.9,161.2c-.2,0-19-10.7-19-10.7-1.4,2.3-.1,5.7.5,6.2,0,1.5-.6,2.4.7,5.6a8.54,8.54,0,0,0,2.8,5.1c1.7,6.6,8.4,7,11,1.7Z"/><path class="cls-7" d="M232.7,172.9h0c-2.2,0-4.8-1.4-5.9-5.4a9.66,9.66,0,0,1-2.8-5.2,7.94,7.94,0,0,1-.8-4.5c0-.3.1-.7.1-1.1-.5-.4-1.9-3.8-.5-6.2,6.5,3.6,18.8,10.5,19.1,10.7l-3.9,8c-1.2,2.3-3.1,3.7-5.3,3.7Zm-9.8-22.3c-1.2,2.3,0,5.6.6,6v1.2a7.54,7.54,0,0,0,.8,4.4,8.68,8.68,0,0,0,2.7,5.1c1,3.9,3.6,5.3,5.7,5.3h0a6,6,0,0,0,5.2-3.6l4-7.9h0c-.4.1-15.9-8.7-19-10.5Z"/><path class="cls-10" d="M254.3,168.3l-12.9-7.5c-4.1.6.1,8.2.3,8.9l12.4,4.4Z"/><path class="cls-7" d="M254.3,174.2l-12.6-4.5-.2-.5c-.7-1.5-2.7-5.6-1.6-7.5a1.85,1.85,0,0,1,1.6-1l12.9,7.5-.1,6Zm-12.9-13.4a1.94,1.94,0,0,0-1.4.9c-1,1.9.9,5.9,1.6,7.4l12.5,4.8.1-5.7-12.8-7.4Z"/><polygon class="cls-6" points="252.1 165.5 223.1 150.1 222.6 150.8 253.3 167.8 252.1 165.5"/><path class="cls-7" d="M253.5,168l-30.9-17.2.5-.8,29.1,15.4,1.3,2.6Zm-30.4-17.8-.4.7L253,167.7l-1-2-28.9-15.5Z"/><polygon class="cls-6" points="221.7 149.2 221.2 148.9 220.9 148.1 216.6 147 219.4 150 220.7 149.8 221.3 150.1 221.7 149.2"/><polygon class="cls-7" points="221.3 150.2 220.7 149.9 219.5 150.1 216.6 147 221 148 221.1 148.5 220.8 148.1 216.6 147.1 219.5 149.9 220.7 149.7 221.2 150 221.6 149.2 221.6 149.1 221.8 149.3 221.3 150.2"/><path class="cls-6" d="M220.4,151.1a8.19,8.19,0,0,1,1.8-3l1.5,1.1-1.5,2.5Z"/><path class="cls-7" d="M222.3,151.8l-1.9-.6a6.73,6.73,0,0,1,1.8-3.1l1.6,1.1-1.5,2.6Zm-.1-3.6a10.2,10.2,0,0,0-1.7,2.9l1.7.4,1.4-2.4-1.4-.9Z"/><path class="cls-9" d="M231.2,140.4l.6,1.1a52.64,52.64,0,0,0,4.1-3.5l2.7-.1.8-.9c-2-2.1-3.8.3-3.8.3Z"/><path class="cls-11" d="M231.8,141.5l-.6-1.1,4.4-3.2c0-.1,2.3-2.1,4-.3l-.8,1-2.8.1c-.4.3-3.8,3.4-4.2,3.5Zm5.9-5.3a2.78,2.78,0,0,0-2,1.1l-4.4,3.1.6.9c.5-.3,2.6-2.2,4-3.5l2.8-.1.7-.8a2.51,2.51,0,0,0-1.7-.7Z"/><path class="cls-10" d="M233.4,142.1a9.09,9.09,0,0,1,2.2-3.4c1.3.4,2.6,1.2,3.9-1.9-1.2,1.5-3.6,0-3.6,0l-1,.9v.4l-3.1,2.9Z"/><path class="cls-12" d="M233.4,142.3l-1.7-1.2,1.2-1.2-1.1,1.2,1.5.9a10.39,10.39,0,0,1,2.2-3.3,5,5,0,0,0,1.6.4c.6,0,1.3-.2,2.2-2-.7,1.2-3.4,0-3.5-.1l-.5.4.4-.6c.2,0,2.6,1.2,3.5,0-.8,2.5-2.2,2.6-3.5,2.1-.7-.1-2.3,2.2-2.4,3.2l.1.2Z"/><path class="cls-9" d="M224.2,145.9l.2,1.1c.3-.2,3.6-3.8,3.6-3.8l2.7-.5.5-.8c-1.8-2.2-3.8.7-3.8.7Z"/><path class="cls-11" d="M224.3,147.1l-.2-1.2,3.2-3.4c0-.1,2.4-2.6,3.9-.7l-.5,1-2.7.5c-.3.3-3.3,3.6-3.6,3.8Zm5.4-6c-1.2,0-2.2,1.5-2.2,1.5l-3.2,3.4.2.9c.5-.4,2.3-2.4,3.5-3.7l2.7-.5.5-.8a1.89,1.89,0,0,0-1.5-.8Z"/><path class="cls-10" d="M226.3,147.8a10.69,10.69,0,0,1,1.5-4.1c1.6.5,3,1.2,3.5-2.1-.9,1.7-3.5.4-3.5.4l-.9,1,.1.5-2.7,3.5Z"/><path class="cls-12" d="M226.4,148l-2.1-.9.7-.9-.6.9,1.8.6a9.45,9.45,0,0,1,1.6-4,5.87,5.87,0,0,0,1.8.4c.6,0,1.3-.3,1.7-2.4-.4,1.5-3.4.5-3.5.5l-.3.3.2-.5a7.07,7.07,0,0,0,2,.4,1.65,1.65,0,0,0,1.5-.8c-.2,2.7-1.5,2.9-3.1,2.4-.5,0-1.9,2.9-1.7,3.9v.1Z"/><path class="cls-9" d="M219.2,154.6l.6,1.2c.3-.2,3.1-4.7,3.1-4.7l2.5-.8.5-1c-2-1.9-3.6,1.4-3.6,1.4Z"/><path class="cls-11" d="M219.8,155.9l-.7-1.3,3.1-4.1c0-.1,1.9-3.1,3.7-1.4l-.5,1.1-2.6.9a29.7,29.7,0,0,1-3,4.8Zm4.9-7.2c-1.3,0-2.2,1.9-2.2,1.9l-3.1,4,.6,1c.4-.5,2-2.9,3-4.6l2.6-.9.4-1a3.82,3.82,0,0,0-1.3-.4Z"/><path class="cls-10" d="M222,156.3a12.2,12.2,0,0,1,.7-4.4c1.6.5,2.9.6,3.3-2.7-.9,1.6-3.4,1-3.4,1l-.7,1.1.2.4-2.1,4Z"/><path class="cls-12" d="M222.1,156.4l-2.2-.7.8-1.7-.7,1.6,1.9.5a11.91,11.91,0,0,1,.8-4.4c1.4.3,2.8,1.3,3.3-2.6-.7,1.7-3.3,1.1-3.3,1.1l-.3.5.3-.7a10.42,10.42,0,0,0,1.1.1,2.62,2.62,0,0,0,2.3-1c-.1,2.9-1.6,3.3-3.2,2.8a15.23,15.23,0,0,0-.6,4.3l-.2.2Z"/><polygon class="cls-6" points="251.9 172.6 244.7 170.4 241.6 165 230.4 164.5 230.8 168.5 240.3 170.3 241.2 171.9 252.1 175 251.9 172.6"/><path class="cls-7" d="M252.2,175.1,241.1,172l-1-1.7-9.4-1.8-.5-4.1,11.3.4,3.2,5.4,7.2,2.2.3,2.7Zm-21.8-10.5.5,3.9,9.4,1.7,1,1.7,10.7,3-.2-2.2-7.2-2.2-3.2-5.4-11-.5Z"/><polygon class="cls-13" points="244.4 174.1 233 157.3 232.4 157.8 243.7 174.6 244.4 174.1"/><path class="cls-7" d="M243.7,174.8l-11.4-16.9.6-.6,11.6,16.8-.8.7Zm-10.8-17.4-.4.4,11.3,16.7.6-.4-11.5-16.7Z"/><path class="cls-8" d="M234,158l-1.2-2c-.2-.4-.6-.5-1.1-.2a.85.85,0,0,0-.3,1.1l1.1,1.9Z"/><path class="cls-7" d="M232.6,158.9l-1.2-2a.89.89,0,0,1,.3-1.3c.8-.2,1,0,1.2.3l1.2,2-1.5,1Zm-.4-3.3-.5.2a.68.68,0,0,0-.2,1l1.1,1.8,1.3-.7-1.7-2.3Z"/><polygon class="cls-6" points="245.7 163.8 222.7 161.4 222.2 164.8 245.1 167.1 245.7 163.8"/><path class="cls-7" d="M245.2,167.2l-23-2.3.5-3.5,23.1,2.3-.6,3.5Zm-22.5-5.7-.5,3.3L245,167l.6-3.2-22.9-2.3Z"/><polygon class="cls-6" points="222.3 160.6 221.7 165.2 222.7 165.2 223.3 161 222.3 160.6"/><path class="cls-7" d="M222.7,165.3h-1.1l.5-4.8,1.2.3-.6,4.5Zm-.4-4.6-.5,4.6.8-.1.7-4.2-1-.3Z"/><polygon class="cls-6" points="226.1 161.3 225.9 165.5 226.5 165.6 227 161.9 226.1 161.3"/><path class="cls-7" d="M226.6,165.7l-.7-.1.2-4.3,1,.5-.5,3.9Zm-.5-4.3-.1,4.1.5.1h-.1l.5-3.7-.8-.5Z"/><polygon class="cls-6" points="241.7 163.1 241.2 167 242.3 167 242.8 163.1 241.7 163.1"/><polygon class="cls-7" points="241.1 167.1 241.7 163.1 242.8 163 242.4 167 241.1 167.1"/><path class="cls-6" d="M245.2,163.2l-.8,4.5,1.3.2.4-2.4a1,1,0,0,0,1.1.8,1.11,1.11,0,0,0,1.1-1.1,1,1,0,0,0-1.1-1,1,1,0,0,0-1,.7l.2-1.7Z"/><path class="cls-7" d="M245.7,168.1l-1.4-.2.7-4.6h1.3l-.1,1.6c.2-1,2-.5,2,.5,0,1.2-2.1,1.4-2.3.2l-.2,2.5Zm.6-4.8h-1.1l-.7,4.5,1.1.1.3-2.3c.6,1,2.2.8,2.2-.2a1,1,0,0,0-1.9-.3l.1-1.8Z"/><polygon class="cls-6" points="236.9 164 233.7 167.5 234.1 168 238.1 165.2 236.9 164"/><path class="cls-7" d="M234,168.1l-.4-.5,3.2-3.7,1.4,1.2-4.2,3Zm2.8-4.1-3,3.6.3.4-.1-.1,4.1-2.8-1.3-1.1Z"/><polygon class="cls-6" points="229.5 172.9 232.7 169.3 232.3 168.9 228.2 171.6 229.5 172.9"/><path class="cls-7" d="M229.5,173l-1.3-1.3,4.1-3,.4.5-3.2,3.8Zm3.1-3.8-4.3,2.5,1.2,1,3.1-3.5Z"/><polygon class="cls-6" points="237.8 172 233.9 169 233.5 169.3 236.6 173.1 237.8 172"/><path class="cls-7" d="M236.6,173.2l-3.1-3.9.5-.4,3.9,3-1.3,1.3Zm-2.7-4.1,2.7,3.9,1.1-1.1-3.8-2.8Z"/><polygon class="cls-6" points="228.3 165.1 232.2 168 232.7 167.6 229.6 163.8 228.3 165.1"/><path class="cls-7" d="M232.2,168.1l-4-2.9,1.3-1.5,3.3,3.9-.6.5Zm-2.7-4.3-1.2,1.3,3.8,2.7.4-.3-3-3.7Z"/><polygon class="cls-6" points="232.5 162.7 232.9 167.4 233.4 167.4 234.7 162.8 232.5 162.7"/><path class="cls-7" d="M232.8,167.5l-.4-4.8h2.2l-1.2,4.7-.6.1Zm1.8-4.7h-2.1l.5,4.5h.4l1.2-4.5Z"/><polygon class="cls-6" points="233.8 174.1 233.4 169.4 232.9 169.3 232.2 174.1 233.8 174.1"/><path class="cls-7" d="M233.9,174.2h-1.8l.6-4.9.7.1.5,4.8Zm-.5-4.8-1.1,4.7,1.5-.1-.4-4.6Z"/><polygon class="cls-6" points="239 167.8 234.1 168.3 234 168.8 239 169.4 239 167.8"/><path class="cls-7" d="M239.1,169.5l-5.1-.7.1-.6,4.9-.5.1,1.8Zm-.2-1.7-4.8.6,4.8.9v-1.5Z"/><polygon class="cls-6" points="227.3 169.4 232.1 168.6 232.2 168.3 227.3 167.7 227.3 169.4"/><polygon class="cls-7" points="227.2 169.5 227.2 167.7 232.2 168.2 231.3 168.4 227.2 167.8 227.4 169.3 229 169 227.2 169.5"/><path class="cls-6" d="M234.5,168.3a1.3,1.3,0,1,1-1.3-1.3,1.32,1.32,0,0,1,1.3,1.3Z"/><path class="cls-7" d="M233.2,169.6a1.35,1.35,0,0,1-1.4-1.3c0-1.5,2.8-1.5,2.8,0a1.42,1.42,0,0,1-1.4,1.3Zm0-2.5a1.16,1.16,0,0,0-1.2,1.2c0,1.3,2.4,1.3,2.4,0a1.29,1.29,0,0,0-1.2-1.2Z"/><path class="cls-6" d="M240.1,168.3a6.9,6.9,0,1,1-6.9-6.7,6.81,6.81,0,0,1,6.9,6.7Zm-1.4,0a5.5,5.5,0,1,1-5.5-5.3,5.44,5.44,0,0,1,5.5,5.3Z"/><path class="cls-7" d="M233.2,175.1a6.8,6.8,0,1,1,7-6.8,7,7,0,0,1-7,6.8Zm0-13.4a6.64,6.64,0,0,0-6.8,6.6,6.77,6.77,0,0,0,6.8,6.6,6.64,6.64,0,0,0,6.8-6.6,6.77,6.77,0,0,0-6.8-6.6Zm0,12a5.4,5.4,0,1,1,5.6-5.4,5.49,5.49,0,0,1-5.6,5.4Zm0-10.6a5.34,5.34,0,0,0-5.4,5.2,5.27,5.27,0,0,0,5.4,5.2,5.34,5.34,0,0,0,5.4-5.2,5.27,5.27,0,0,0-5.4-5.2Z"/><path class="cls-14" d="M228.8,164.9l-1.1-.8Zm7.8-.8.9-.9Zm2,8.5-1.1-.9Zm-9.8,1,1-1Z"/><polygon class="cls-6" points="252.1 161.7 253.3 167.7 252.3 168.3 251.3 161.8 252.1 161.7"/><path class="cls-7" d="M252.3,168.4l-1.1-6.6.9-.2,1.3,6.1-1.1.7Zm-.3-6.7-.7.2,1.1,6.2.9-.5-1.3-5.9Z"/><path class="cls-8" d="M251.5,160.9c-.6-.2-1.3.2-2.4-1.3-1.9,1.8-.1,2,.2,3.8.5.2.9-1.4,2.4-1.5.2,0,2.4-.2,2.4-.2l-.6-.7c-.1-.1-1.6,0-2-.1Z"/><path class="cls-7" d="M249.3,163.5h-.1a3,3,0,0,0-.7-1.4c-.5-.7-.8-1.3.5-2.5a3.07,3.07,0,0,0,2,1.2l.9.1h1.4l.6.8-2.4.4a2.36,2.36,0,0,0-1.6,1,.68.68,0,0,1-.6.4Zm-.3-3.8c-1.1,1.1-.8,1.6-.3,2.3a3,3,0,0,1,.6,1.4v-.1c.1,0,.3-.2.5-.4a2.69,2.69,0,0,1,1.7-1.1l2.4-.2-.6-.6-1.4.1-.9-.1a3,3,0,0,1-2-1.3Z"/><path class="cls-8" d="M252.3,162.1l-.2-1.8c-.2-.6-1-.1-1,.3l.2,1.7Z"/><path class="cls-7" d="M251.2,162.4l-.2-1.7a.85.85,0,0,1,.7-.7l.1.3a.59.59,0,0,0-.7.3l.2,1.6.9-.1-.1-.6.2.6-1.1.3Z"/><path class="cls-6" d="M238.9,177a.55.55,0,0,1-.4.6,1.1,1.1,0,0,1-.8,0,.82.82,0,0,1-.4-.6.55.55,0,0,1,.4-.6,1.1,1.1,0,0,1,.8,0,.68.68,0,0,1,.4.6Z"/><path class="cls-14" d="M238.9,177a.55.55,0,0,1-.4.6,1.1,1.1,0,0,1-.8,0,.82.82,0,0,1-.4-.6.55.55,0,0,1,.4-.6,1.1,1.1,0,0,1,.8,0A.68.68,0,0,1,238.9,177Z"/><path class="cls-6" d="M236.9,175.6a.55.55,0,0,1-.4.6,1.1,1.1,0,0,1-.8,0,.82.82,0,0,1-.4-.6.55.55,0,0,1,.4-.6,1.1,1.1,0,0,1,.8,0,.62.62,0,0,1,.4.6Z"/><path class="cls-14" d="M236.9,175.6a.55.55,0,0,1-.4.6,1.1,1.1,0,0,1-.8,0,.82.82,0,0,1-.4-.6.55.55,0,0,1,.4-.6,1.1,1.1,0,0,1,.8,0A.62.62,0,0,1,236.9,175.6Z"/><path class="cls-6" d="M234.3,176.5a.55.55,0,0,1-.4.6,1.1,1.1,0,0,1-.8,0,.82.82,0,0,1-.4-.6.55.55,0,0,1,.4-.6,1.1,1.1,0,0,1,.8,0,.62.62,0,0,1,.4.6Z"/><path class="cls-14" d="M234.3,176.5a.55.55,0,0,1-.4.6,1.1,1.1,0,0,1-.8,0,.82.82,0,0,1-.4-.6.55.55,0,0,1,.4-.6,1.1,1.1,0,0,1,.8,0A.62.62,0,0,1,234.3,176.5Z"/><path class="cls-6" d="M230.3,177.4a.55.55,0,0,1-.4.6,1.1,1.1,0,0,1-.8,0,.82.82,0,0,1-.4-.6.55.55,0,0,1,.4-.6,1.1,1.1,0,0,1,.8,0,.68.68,0,0,1,.4.6Z"/><path class="cls-14" d="M230.3,177.4a.55.55,0,0,1-.4.6,1.1,1.1,0,0,1-.8,0,.82.82,0,0,1-.4-.6.55.55,0,0,1,.4-.6,1.1,1.1,0,0,1,.8,0A.68.68,0,0,1,230.3,177.4Z"/><path class="cls-6" d="M228.6,177.6a.55.55,0,0,1-.4.6,1.1,1.1,0,0,1-.8,0,.82.82,0,0,1-.4-.6.55.55,0,0,1,.4-.6,1.1,1.1,0,0,1,.8,0,.68.68,0,0,1,.4.6Z"/><path class="cls-14" d="M228.6,177.6a.55.55,0,0,1-.4.6,1.1,1.1,0,0,1-.8,0,.82.82,0,0,1-.4-.6.55.55,0,0,1,.4-.6,1.1,1.1,0,0,1,.8,0A.68.68,0,0,1,228.6,177.6Z"/><path class="cls-6" d="M226.9,177.6a.55.55,0,0,1-.4.6,1.1,1.1,0,0,1-.8,0,.82.82,0,0,1-.4-.6.55.55,0,0,1,.4-.6,1.1,1.1,0,0,1,.8,0,.55.55,0,0,1,.4.6Z"/><path class="cls-14" d="M226.9,177.6a.55.55,0,0,1-.4.6,1.1,1.1,0,0,1-.8,0,.82.82,0,0,1-.4-.6.55.55,0,0,1,.4-.6,1.1,1.1,0,0,1,.8,0A.55.55,0,0,1,226.9,177.6Z"/><path class="cls-6" d="M225.2,177.6a.55.55,0,0,1-.4.6,1.1,1.1,0,0,1-.8,0,.82.82,0,0,1-.4-.6.55.55,0,0,1,.4-.6,1.1,1.1,0,0,1,.8,0,.68.68,0,0,1,.4.6Z"/><path class="cls-14" d="M225.2,177.6a.55.55,0,0,1-.4.6,1.1,1.1,0,0,1-.8,0,.82.82,0,0,1-.4-.6.55.55,0,0,1,.4-.6,1.1,1.1,0,0,1,.8,0A.68.68,0,0,1,225.2,177.6Z"/><path class="cls-6" d="M226,176.3a.55.55,0,0,1-.4.6,1.1,1.1,0,0,1-.8,0,.82.82,0,0,1-.4-.6.55.55,0,0,1,.4-.6,1.1,1.1,0,0,1,.8,0,.55.55,0,0,1,.4.6Z"/><path class="cls-14" d="M226,176.3a.55.55,0,0,1-.4.6,1.1,1.1,0,0,1-.8,0,.82.82,0,0,1-.4-.6.55.55,0,0,1,.4-.6,1.1,1.1,0,0,1,.8,0A.55.55,0,0,1,226,176.3Z"/><path class="cls-6" d="M227.7,176.3a.55.55,0,0,1-.4.6,1.1,1.1,0,0,1-.8,0,.82.82,0,0,1-.4-.6.55.55,0,0,1,.4-.6,1.1,1.1,0,0,1,.8,0,.82.82,0,0,1,.4.6Z"/><path class="cls-14" d="M227.7,176.3a.55.55,0,0,1-.4.6,1.1,1.1,0,0,1-.8,0,.82.82,0,0,1-.4-.6.55.55,0,0,1,.4-.6,1.1,1.1,0,0,1,.8,0A.82.82,0,0,1,227.7,176.3Z"/><path class="cls-6" d="M229.3,176.1a.55.55,0,0,1-.4.6,1.1,1.1,0,0,1-.8,0,.82.82,0,0,1-.4-.6.55.55,0,0,1,.4-.6,1.1,1.1,0,0,1,.8,0,.82.82,0,0,1,.4.6Z"/><path class="cls-14" d="M229.3,176.1a.55.55,0,0,1-.4.6,1.1,1.1,0,0,1-.8,0,.82.82,0,0,1-.4-.6.55.55,0,0,1,.4-.6,1.1,1.1,0,0,1,.8,0A.82.82,0,0,1,229.3,176.1Z"/><path class="cls-6" d="M228.5,174.9a.55.55,0,0,1-.4.6,1.1,1.1,0,0,1-.8,0,.82.82,0,0,1-.4-.6.55.55,0,0,1,.4-.6,1.1,1.1,0,0,1,.8,0,.68.68,0,0,1,.4.6Z"/><path class="cls-14" d="M228.5,174.9a.55.55,0,0,1-.4.6,1.1,1.1,0,0,1-.8,0,.82.82,0,0,1-.4-.6.55.55,0,0,1,.4-.6,1.1,1.1,0,0,1,.8,0A.68.68,0,0,1,228.5,174.9Z"/><path class="cls-6" d="M226.9,174.8a.55.55,0,0,1-.4.6,1.1,1.1,0,0,1-.8,0,.82.82,0,0,1-.4-.6.55.55,0,0,1,.4-.6,1.1,1.1,0,0,1,.8,0,.62.62,0,0,1,.4.6Z"/><path class="cls-14" d="M226.9,174.8a.55.55,0,0,1-.4.6,1.1,1.1,0,0,1-.8,0,.82.82,0,0,1-.4-.6.55.55,0,0,1,.4-.6,1.1,1.1,0,0,1,.8,0A.62.62,0,0,1,226.9,174.8Z"/><path class="cls-8" d="M239.9,172.2c-.6-.3-.6,1.2-.6,1.2h1c.4.2.8.9.5,1.2s-2.2-.5-2.4,0c.3,2,3,2.8,3.9,1.9s1.2-3.1-1.9-3.7Z"/><path class="cls-7" d="M241.3,176.9a4.4,4.4,0,0,1-1-.2,3,3,0,0,1-2-2.1c.1-.3.7-.2,1.4-.1.3.1.9.2,1,.1,0-.6-.2-.9-.5-1h-1a1.53,1.53,0,0,1,.3-1.4h.4l.6.5a2.66,2.66,0,0,1,2.4,1.8,2.17,2.17,0,0,1-.6,2.1,1.66,1.66,0,0,1-1,.3Zm-2.5-2.4c-.1,0-.2,0-.2.1a3,3,0,0,0,1.8,2,1.76,1.76,0,0,0,1.9-.2,2,2,0,0,0,.5-1.9c-.2-.8-1-1.4-2.3-1.7l-.2.5c.3.2.6.5.6.8-.2.7-.6.6-1.3.5-.2,0-.6-.1-.8-.1ZM220,172.9l-1-4.2h0l6.4,2.6-.1.2-6.3-2.7,1.2,4.1Zm1.2-.2-1.5-3.2,1.7,3.1-.2.1Zm2.7-.8-3.4-1.8,3.5,1.7-.1.1Z"/><path class="cls-10" d="M215.3,165.7s-2.3,0-2.7.1c-.2.1.6.8.4,1.1-.6,1.1-4.5,1-4.8.7-.5-.4,3.7-.8,3.7-1.1s-.6-1.2-.5-1.7c.1-.7,1.8-.9,1.8-.9Z"/><path class="cls-12" d="M209.7,167.9a5.14,5.14,0,0,1-1.6-.2c0-.4.6-.6,2.1-.8a7.14,7.14,0,0,0,1.6-.4c-.4-.9-.6-1.3-.5-1.7.1-.7,1.7-1,1.9-1l2.2,1.7c-1.2.1-1.9.2-2.3.2a4.42,4.42,0,0,1,1.7-.2l-1.6-1.5c-.4.1-1.6.4-1.7.9a1.31,1.31,0,0,0,.3,1,2.54,2.54,0,0,1,.2.7c0,.2-.4.3-1.7.5a5.65,5.65,0,0,0-2,.5c.2.1,4.2.3,4.7-.7.1-.1-.1-.5-.3-.7,0-.1,0-.1.1-.2.3.4.5.7.4.9-.6,1-2.8,1-3.5,1Z"/><path class="cls-13" d="M218.4,167.8l-5.2-4.3a.28.28,0,0,0-.4,0c-.2.2.1.4.1.4l5.4,4.4Z"/><path class="cls-7" d="M218.2,168.5l-5.5-4.5h0l.1-.7,5.6,4.5-.2.7Zm-5.1-5,5.1,4.6.2-.4-5.3-4.2Z"/><path class="cls-6" d="M223.4,172.1c-.1-.1-4.3-3.7-4.3-3.7l-.3-1.1a7.61,7.61,0,0,0-.9.7,8,8,0,0,0-.6.8l1.2.1,3.7,3.4Z"/><path class="cls-7" d="M222.2,172.3l-3.7-3.4h-1.1c-.1-.2.3-.8.5-1s.9-.7.9-.7l.4,1.1h0s4.1,3.6,4.2,3.7l-1.2.3Zm-3.7-3.5,3.7,3.4,1.1-.2c-.2,0-4.3-3.5-4.3-3.5l-.3-1-.7.7a8,8,0,0,0-.6.8l1.1-.2Z"/><path class="cls-6" d="M246.5,167.1v1.7c-.5.2-.5.6-.4,1.2v4.9c-.2.3-.8.3-1.1.6s-.3.7,1,1.1h1c1.5-.3,1.8-.8,1.1-1.1-.4-.2-.9-.3-1.1-.6v-1.2h1c.3,0,.8-.7.8-1.2V170a1.44,1.44,0,0,0-1.4-1.6v-1.3Zm1.7,2.8c0-.4-.6-.8-.8-.8a1.23,1.23,0,0,0-.8.9v1c0,.4.3,1.6.9,1.7.3,0,.6-.4.6-.8Z"/><path class="cls-7" d="M247.1,176.6h-1c-1-.2-1.2-.6-1.3-.8l.7-.7c.2-.1.5-.2.5-.3V170c0-.7,0-1.1.5-1.3l-.1-1.6,1-.1.1,1.4c.5-.1,1.4.3,1.4,1.6v2.5c0,.6-.5,1.3-.9,1.3h-1l.1,1.1a5.13,5.13,0,0,0,1,.4c.5.2.6.4.6.5-.1.3-.6.6-1.6.8Zm.3-9.5-.8.1.1,1.6c-.5.2-.5.5-.5,1v5.1a.62.62,0,0,1-.6.4l-.6.5c0,.1.2.4,1.1.6h1c1-.2,1.4-.5,1.4-.7-.8-.5-1.3-.6-1.5-.9v-1.2l1.1-.1c.2,0,.7-.6.7-1.1v-2.5a1.33,1.33,0,0,0-1.3-1.5l-.1-1.3Zm.2,5.8h0c-.8-.1-1-1.6-1.1-1.8v-1a1.17,1.17,0,0,1,.9-1h0a1.06,1.06,0,0,1,.9.9v2.1c0,.2-.3.8-.7.8Zm-.2-3.8h0c-.2.1-.7.5-.7.9v1c0,.4.4,1.6.9,1.7h0c.3,0,.5-.4.5-.7v-2.1c0-.3-.5-.7-.7-.8Z"/><path class="cls-4" d="M255.8,120.5c-7.9-8-14.2-4.1-15.7-3a4.35,4.35,0,0,0,2.3-.5c-.3.4-.9,1.3-.9,1.3a16.87,16.87,0,0,1,2.7-1.1,6.31,6.31,0,0,0-.7,1c.2.1,1.6-1.1,1.8-1.1a4.59,4.59,0,0,0-.6,1.6l1.2-.6c.3.2-.1.6.2.6,2-.2,4.8,1.8,5.2,2.4Z"/><path class="cls-7" d="M251.5,121.1c-.5-.5-3.2-2.5-5.2-2.3l-.1-.2v.1c2.1-.2,4.8,1.8,5.3,2.4Zm4.2-.5c-7.7-7.7-13.9-4.2-15.6-3a4.25,4.25,0,0,0,1.7-.5h.3a3.42,3.42,0,0,1-2.1.5c1.7-1.4,8-5,15.8,2.8l-.1.2Zm-10.8-1.8a2.42,2.42,0,0,1,.3-1.5,1.79,1.79,0,0,1-.7.5c-.7.5-.8.6-1,.5a2.82,2.82,0,0,1,.7-1.1l-2.6,1.2c-.1-.1.4-.9.7-1.3h.2c-.3.4-.9,1.3-.9,1.3a7.74,7.74,0,0,1,2.7-1.2,8.65,8.65,0,0,1-.7,1c.1-.2.5-.4.7-.6.5-.4.8-.6,1-.6a5.87,5.87,0,0,0-.4,1.8l1.1-.7v.2l-1.1.5Z"/><path class="cls-4" d="M253.8,122c-.8-1.9-16-5.1-19,.3,1.2.3,2.3-1,2.3-1l-.1,1.2,2-1.6-.7,1.6,1.6-1.3-.1,1.3,2-2.1-.3,1.3,1.8-.8-.2,1Z"/><path class="cls-7" d="M238.4,122.5l.6-1.7-1.9,1.7v-1.2a2.21,2.21,0,0,1-2.3,1c1.6-3.1,6.6-3.3,9.4-3.1,4.4.2,9.3,1.6,9.8,2.7l-.2.1c-.4-1-4.9-2.4-9.6-2.6-2.8-.2-7.6,0-9.2,2.9,1,.1,2.2-1.1,2.2-1.1v1.3l1.9-1.6-.7,1.6,1.5-1.4.1,1.4,1.8-2.2-.1,1.3,1.6-.9-.1,1.1v-1.1l-1.6.9.1-1.4-1.8,2.2-.1-1.4-1.4,1.5Z"/><path class="cls-4" d="M253.2,122.3c-3.9-2.6-9.9-.8-9.9-.8-3.8,2.1-5.9,1.8-6.4,5.7a9,9,0,0,0,1.4-1.4l.8,1.6.3-2.2.6,1.7.9-2.8.2,1.9,1.4-1.9.7.5.6-1.4.6.9s1-.6,1.6-.2l1.1-1.3.3.9.9-1.1.4.8.9-.9-.1.6,3.2.1Z"/><path class="cls-7" d="M239.2,127.3l-.9-1.5c0,.1-.9,1.3-1.3,1.4.2-3.1,1.5-3.7,3.7-4.6a20.79,20.79,0,0,0,2.6-1.3c.1,0,6.1-1.7,10,.9l-.1.2c-3.8-2.5-9.8-.8-9.8-.8l-2.6,1.3c-2.2,1-3.4,1.5-3.7,4.4.2-.2.9-1.1,1.2-1.5l.9,1.5.1-2.2.8,1.7.8-2.8.4,1.9,1.3-1.9.8.5.5-1.4.7.9a1.54,1.54,0,0,1,1.5-.3l1-1.2.4.9.8-1.1.5.8,1-1-.1.8h3.1l-3.2.1h-.1l.1-.7-.8.9-.5-.8-.8,1.1-.4-.9-.9,1.3c-.6-.3-1.6.3-1.6.3l-.7-1-.5,1.4-.8-.5-1.3,1.9-.4-1.9-.8,2.8-.8-1.7-.1,2.1Z"/><path class="cls-4" d="M252.3,122.7c-2.7,0-10.5,2.9-12.5,5.9.8-.4,1.3-.6,1.3-.6l.4,1.2.5-1.2.1.9c.3-.7.6-.8,1.2-.1l.2-1.1.3,1.1.5-1.2s.3,1.3.5,1.2a10.21,10.21,0,0,1,1.2-2.3l.1,1.4.5-1.4.5,1,.1-1.5.5,1.1s.3-1.1.7-1.3l.8.7,3.5-2.5Z"/><path class="cls-7" d="M241.6,129.3l-.5-1.2c0,.1-.5.3-1.2.7,1.9-3.3,9.6-6.1,12.4-6.1h.1v.2h-.1c-2.7,0-10.4,2.9-12.3,5.9a4.87,4.87,0,0,1,1.2-.8l.4,1.3.3-1.3.3,1a.72.72,0,0,1,.4-.7c.2,0,.5.1.8.6l.1-1.1.5,1.1.4-1.2c.3.5.5,1.1.6,1.2.1-.3.8-2.2,1.2-2.3l.2,1.5.3-1.4.6,1-.1-1.5.7,1.1a1.57,1.57,0,0,1,.6-1.3l.9.7,3.3-2.5-3.3,2.6-.9-.7a3,3,0,0,0-.5,1.3l-.7-1.1.1,1.5-.6-1-.3,1.4-.3-1.4c-.1.1-.6,1.3-1.1,2.4-.4-.1-.6-1-.7-1.3l-.4,1.2-.5-1.1v1.1c-.4-.3-.7-.4-.8-.5s-.3.2-.4.5l-.3-1-.4,1.2Z"/><path class="cls-4" d="M252.8,123.4c-3.6,1.4-6.8,6.3-6.6,8.4,1.6-2,1.3-1.7,2,.6a11.22,11.22,0,0,1,.5-2.2l.5,1.5.2-1.9h.5l-.1-1.2.7.5c-.2-.7-.3-.9.4-1.5,0,0-.9.1-.2-1.6l.7.7a1.91,1.91,0,0,1,.1-1l2.5-.9Z"/><path class="cls-7" d="M248.3,132.4l-.5-1c-.1-.5-.2-.9-.3-.9h0a4.09,4.09,0,0,0-1,1v-.1c.6-.9.8-1.2,1-1.1s.3.3.5,1l.3,1.1a4.14,4.14,0,0,1,.4-2.3l.6,1.5v-1.9l.3-1.2.2.1-.2-.1.3,1.1-.7,1.9-.6-1.5c0,.4-.2,1.6-.3,2.4Zm-1.8-2c.4-2.3,3.2-6,6.3-7.2l.1.2a12.71,12.71,0,0,0-6.4,7Zm4-3.2c-.3-.3-.2-.7.1-1.3l.8.6a1.21,1.21,0,0,1,.1-1l2.6-.9-2.5,1.1a2.77,2.77,0,0,0-.1.9l-.9-.6c-.2.7-.2,1.1-.1,1.2Z"/><path class="cls-4" d="M253.2,123.7l-1.4,2.6.7.2-1.6,1.2,1.3-.1a3.66,3.66,0,0,0-2.3,2.7l2.1-.9a10.46,10.46,0,0,0-2,2.9l1.2-1a4.26,4.26,0,0,0-1,3.1l.9-1c-.2,2.3-.1,2.5.9,4.2,0,0-.3-2.7,0-3l2.3,2.4-1.3-3.4s1.4,2.2,2.3,2l-1.8-2.8,1.8,1.4-2-3,1.9.6s-1.4-1.7-1.3-2.8l1.3,1.4a5.48,5.48,0,0,1-.3-2.1l.7.1-1.3-1.5.9-.2-.1-1,.6-.2v-1.1Z"/><path class="cls-7" d="M252.1,137.6c-1.2-1.7-1.3-1.9-1.1-4.3l-.7,1a4.34,4.34,0,0,1,.8-3.2h0a6.27,6.27,0,0,0-.8,3.2l.7-1a6.07,6.07,0,0,0,1.1,4.3,6.51,6.51,0,0,1-.1-3.1l2.4,2.4-1.4-3.3c.5.5,1.7,2,2.4,1.8l-1.9-2.6,1.9,1.3-2.2-2.9,1.9.4a4.29,4.29,0,0,1-1.3-2.7l1.4,1.3a3.44,3.44,0,0,1-.4-2l.8.1-1.4-1.3.9-.3-.2-.9.7-.3-.1-1,.2,1.1-.7.3.2.9-.9.3,1.3,1.3h-.7a9.69,9.69,0,0,0,.5,2l-1.5-1.3a7.94,7.94,0,0,0,1.4,2.7l-2-.4,2.1,2.9-1.9-1.3,2,2.6c-1,.4-2.4-1.8-2.5-1.9l1.4,3.3-2.5-2.3c0,.2.1,1.9.2,2.9Zm.1-2.9a16.13,16.13,0,0,0,.6-4.1c.2-2,.3-4.4,1.6-6.1l.1.1c-1.3,1.7-1.4,4-1.6,6a8.85,8.85,0,0,1-.7,4.1Zm-2.1-2.4c.1-1.2,1.8-2.9,1.9-3l-2,1.1a3.36,3.36,0,0,1,2.2-2.9h0c0,.2-1.9.9-2.2,2.8l1.9-1c.2.2-1.5,1.9-1.8,3l1-1.1-1,1.1Zm.8-4.5,1.5-1.3h-.7l1.3-2.7.2.1-1.4,2.6.6.1-1.5,1.2,1.3-.3-1.3.3Z"/><path class="cls-6" d="M242.1,178c0-.3-.8-.2-.8-.6s1.2-.1,1.4.3c.7-.6,1-.2,1.4,0,.6-.9,1.3-.8,2-.2.4-.5,1.4-.3,1.8.2a1.12,1.12,0,0,1,1.8,0c.2-.4.5-.3.7,0a1.15,1.15,0,0,1,1.7,0c.3-.4.7-.1,1.1.2.3-.3.8-.2.8,0s-.6.2-.6.5.5.1.5.5-.7.4-.8-.1c-.2.5-1.1.3-1.2-.1a.86.86,0,0,1-1.3-.1c-.3.2-.6.3-.8,0a1,1,0,0,1-1.7-.2h-.3a1,1,0,0,1-1.6,0,1.37,1.37,0,0,1-1.9,0c-.6.7-1.4.6-1.6,0-.4.3-1.2.3-1.2,0s.6-.1.6-.4Zm1.7.1c0,.2-.2.3-.4.3s-.4-.1-.4-.3a.45.45,0,0,1,.4-.3c.2.1.4.2.4.3Zm1.9-.2c0,.2-.2.3-.5.3s-.5-.1-.5-.3.2-.3.5-.3.5.1.5.3Zm3.7.2c0,.2-.2.3-.5.3s-.5-.1-.5-.3.2-.3.5-.3.5.1.5.3Zm-2-.1a.51.51,0,1,1-.5-.4.46.46,0,0,1,.5.4Zm4.2,0a.4.4,0,1,1-.4-.4c.2.1.4.2.4.4Zm-1.3.1c0,.1-.1.2-.3.2s-.3-.1-.3-.2.1-.2.3-.2.3.1.3.2Zm2.5.1a.27.27,0,0,1-.3.3.32.32,0,0,1-.3-.3.27.27,0,0,1,.3-.3.32.32,0,0,1,.3.3Z"/><path class="cls-7" d="M248.9,179a1.05,1.05,0,0,1-.9-.5c.8.4,1.3.4,1.7,0l.1-.1h.9a.6.6,0,0,0,.6.3l.1-.2.6-.1c0,.2.3.3.6.3-.5.1-.7-.1-.7-.3,0,.5-.9.5-1.3,0h-.7l.1.1a1.53,1.53,0,0,1-1.1.5Zm-5.6,0a.76.76,0,0,1-.8-.6.78.78,0,0,1-.7.3v-.3c.4,0,.6,0,.7-.1a.94.94,0,0,0,1.6,0c.9.5,1.2.5,1.9,0,.4.3.9.9,1.5,0a.35.35,0,0,1,.2.1c-1.1,1-1.6.3-1.8,0a1.4,1.4,0,0,1-1.9.1c.1.3-.3.5-.7.5Zm-1.5-.7v-.2c-.3-.4-.5-.4-.5-.7.8-.3,1.4-.1,1.5.2a.51.51,0,0,1,.5-.4l.8.4-.1-.1a1.31,1.31,0,0,1,2.2-.2c.1-.4,1.4-.3,1.8.2.3-.7,1.2-.6,1.8,0,1.3-.6,1.7-.6,2.2-.1-.8-.1-1.2-.5-1.6.2l-.1.1-.8-.1a1,1,0,0,0-1.6,0,1.4,1.4,0,0,0-1.8-.2c-1-.6-1.5-.6-2,.2l-.8-.3a.86.86,0,0,0-.6.3,1.82,1.82,0,0,0-1.1-.4l.6.7-.4.4Z"/><polygon class="cls-6" points="264.1 149.9 266.7 144.3 265.6 144.1 260.9 153.3 264.1 149.9"/><path class="cls-7" d="M260.5,153.8l5-9.8,1.2.2-2.5,5.7-3.7,3.9Zm5.1-9.6-4.3,8.6,2.8-3,2.6-5.5-1.1-.1Z"/><polygon class="cls-8" points="270.1 137.8 267.2 145.6 265.8 145.6 270.1 137.8"/><path class="cls-7" d="M267.3,145.7h-1.5l4.3-8-2.8,8Zm2.7-7.9-4.2,7.9,1.3-.1,2.9-7.8Z"/><polygon class="cls-6" points="261.5 142.7 260 142.6 257.4 153.6 258 157.1 261.5 142.7"/><path class="cls-7" d="M257.9,157.6l-.6-3.9,2.6-11h1.5l-3.5,14.9Zm3.5-15-1.3.1-2.5,10.9.5,3,3.3-14Z"/><polygon class="cls-6" points="260.2 154 264.6 142.2 263 142.1 257.9 156.5 260.2 154"/><path class="cls-7" d="M257.6,156.9l5.3-14.9h1.7l-4.3,11.9-2.7,3Zm6.9-14.8h-1.6l-4.9,14,2.1-2.2,4.4-11.8Z"/><polygon class="cls-8" points="266.7 135.4 264.9 143.7 263.4 143.7 266.7 135.4"/><path class="cls-7" d="M265,143.8h-1.5l3.2-8.3-1.7,8.3Zm1.6-8.4-3.1,8.3,1.3-.1,1.8-8.2Z"/><polygon class="cls-8" points="263 135.3 262 143.8 260.9 143.7 263 135.3"/><path class="cls-7" d="M262.1,143.9l-1.1-.1,1.9-8.5-.8,8.6Zm.8-8.6-1.8,8.4h.9l.9-8.4Z"/><path class="cls-9" d="M263.8,150.7l11.7-12.8c3.7,2.9,3,8.2,3,8.2l-13.3,10.4Z"/><path class="cls-7" d="M265.2,156.7l-1.5-6,11.7-12.9c3.8,2.9,3.1,8.2,3.1,8.3l-13.3,10.6ZM275.5,138l-11.6,12.8,1.4,5.6,13.2-10.3h0c-.1,0,.5-5.3-3-8.1Z"/><path class="cls-10" d="M257,157.7l8.7-8.8c3.7.1.8,5.6.6,6.3l-9.3,7.9v-5.4Z"/><path class="cls-7" d="M256.9,163.3v-5.6l8.7-8.9h0a2.09,2.09,0,0,1,1.7.7c.8,1.3-.2,3.9-.7,5.1l-.2.6-9.5,8.1Zm8.8-14.3-8.6,8.8V163l9.1-7.8a1.69,1.69,0,0,1,.2-.5c.5-1.2,1.5-3.7.8-4.9a1.87,1.87,0,0,0-1.5-.8Z"/><polygon class="cls-6" points="257.8 156.2 275.7 137 276.4 137.5 257.4 158.6 257.8 156.2"/><path class="cls-7" d="M257.3,158.9l.4-2.7,18-19.3.8.5-19.2,21.5Zm18.4-21.8-17.9,19.2-.3,2,18.8-20.9-.6-.3Z"/><polygon class="cls-6" points="276.8 135.8 277.2 135.3 277.1 134.4 280.8 132 279.2 135.8 277.9 136 277.5 136.4 276.8 135.8"/><path class="cls-7" d="M277.5,136.5l-.8-.7.5-.5-.1-.9,3.7-2.4-1.5,3.8-1.8.7Zm3.2-4.5-3.6,2.5.1.9-.4.5.7.5.3-.4,1.3-.3,1.6-3.7Z"/><path class="cls-6" d="M278.7,137.1a7.8,7.8,0,0,0-2.7-2.2l-1,1.5,2.2,1.9Z"/><path class="cls-7" d="M277.1,138.3l-2.3-1.9,1-1.6a8,8,0,0,1,2.9,2.2l-1.6,1.3Zm-1.2-3.3-.9,1.5,2.1,1.7,1.5-1.1a7.47,7.47,0,0,0-2.7-2.1Z"/><path class="cls-9" d="M268.9,154.1l14.7-11.7c2.5,2.6.4,10.5.4,10.5l-14.4,7.8Z"/><path class="cls-7" d="M269.6,160.8l-.8-6.7,14.7-11.8c2.7,2.6.7,10.2.6,10.6l-14.5,7.9Zm14-18.3L269,154.2l.8,6.4,14.3-7.7c-.1-.1,1.9-7.9-.5-10.4Z"/><path class="cls-10" d="M256.7,163.6l12.1-9.7c4.1.6.9,6.7.6,7.3l-12.8,6.9Z"/><path class="cls-7" d="M256.6,168.3v-4.7l12.1-9.8a2.17,2.17,0,0,1,1.9,1.1c.9,1.7-.5,4.8-1,6l-.2.1c.6-1.4,2-4.4,1.1-6a2,2,0,0,0-1.7-1l-12,9.7V168l9.6-5.2-9.8,5.5Z"/><polygon class="cls-6" points="257.2 161.6 283.4 142 284 142.6 256.5 164 257.2 161.6"/><path class="cls-7" d="M256.3,164.3l.8-2.7,26.2-19.7.7.6-27.7,21.8Zm27-22.3-26.1,19.6-.6,2.1,27.3-21.3-.6-.4Z"/><polygon class="cls-6" points="284.6 140.9 285.1 140.5 285.2 139.6 289.3 137.9 287 141.3 285.7 141.3 285.2 141.7 284.6 140.9"/><path class="cls-7" d="M285.1,141.8l-.7-.9.6-.4.1-.8,4.1-1.8-2.2,3.5-1.9.4Zm4.1-3.9-4,1.8-.1.9-.5.4.6.6.4-.3h1.3l2.3-3.4Z"/><path class="cls-6" d="M286.2,142.6a8.94,8.94,0,0,0-2.3-2.7l-1.3,1.3,1.8,2.2Z"/><path class="cls-7" d="M284.5,143.5l-1.9-2.3,1.3-1.4a7,7,0,0,1,2.4,2.7l-1.8,1Zm-.6-3.5-1.2,1.3,1.8,2,1.6-.8a7.8,7.8,0,0,0-2.2-2.5Z"/><path class="cls-9" d="M270,161.2c.2,0,19-10.7,19-10.7,1.4,2.3.1,5.7-.5,6.2,0,1.5.6,2.4-.7,5.6a8.54,8.54,0,0,1-2.8,5.1c-1.7,6.6-8.4,7-11,1.7Z"/><path class="cls-7" d="M279.2,172.9a6,6,0,0,1-5.3-3.7l-4-7.9c.3-.2,12.6-7.2,19-10.8a5.92,5.92,0,0,1-.4,6.3c0,.3.1.7.1,1a7.94,7.94,0,0,1-.8,4.5,8.53,8.53,0,0,1-2.8,5.2c-1,3.9-3.6,5.4-5.8,5.4Zm9.6-22.3c-3,1.8-18.7,10.7-18.9,10.7L274,169a5.76,5.76,0,0,0,5.2,3.6c2.1,0,4.7-1.4,5.7-5.3a8.54,8.54,0,0,0,2.8-5.1,7.84,7.84,0,0,0,.8-4.5c0-.4-.1-.7-.1-1.1.5-.4,1.8-3.7.4-6Z"/><path class="cls-10" d="M257.5,168.3l12.9-7.5c4.1.6-.1,8.2-.3,8.9l-12.4,4.4Z"/><path class="cls-7" d="M257.6,174.2l-.1-5.9,12.9-7.6a1.85,1.85,0,0,1,1.6,1c1,1.9-.9,6-1.6,7.5l-.3.6-12.5,4.4Zm12.8-13.4-12.8,7.5.2,5.6,12.3-4.4c.9-2,2.8-6,1.8-7.8a2,2,0,0,0-1.5-.9Z"/><polygon class="cls-6" points="259.7 165.5 288.7 150.1 289.2 150.8 258.6 167.8 259.7 165.5"/><path class="cls-7" d="M258.4,168l1.2-2.5L288.7,150l.6.7L258.4,168Zm30.3-17.9-28.9,15.5-.9,2,30.4-16.9-.6-.6Z"/><polygon class="cls-6" points="290.1 149.2 290.7 148.9 290.9 148.1 295.2 147 292.4 150 291.1 149.8 290.6 150.1 290.1 149.2"/><path class="cls-7" d="M290.5,150.2l-.5-1,.6-.4.2-.8,4.4-1.1-2.7,3.2-1.4-.2-.6.3Zm4.7-3.3-4.2,1.2-.2.8-.5.3.5.7.5-.3,1.3.2,2.6-2.9Z"/><path class="cls-6" d="M291.5,151.1a8.19,8.19,0,0,0-1.8-3l-1.5,1.1,1.5,2.5Z"/><path class="cls-7" d="M289.6,151.8l-1.5-2.5,1.5-1.2a8.6,8.6,0,0,1,2,3l-2,.7Zm0-3.6-1.3,1.1,1.4,2.3,1.8-.5a11.75,11.75,0,0,0-1.9-2.9Z"/><path class="cls-9" d="M280.6,140.4l-.6,1.1a52.64,52.64,0,0,1-4.1-3.5l-2.7-.1-.8-.9c2-2.1,3.8.3,3.8.3Z"/><path class="cls-11" d="M280.1,141.5h0a36.22,36.22,0,0,1-4.2-3.6l-2.6-.1-.8-.9c1.6-2.1,3.9.1,4,.2l4.3,3.1-.7,1.3Zm-5.9-5.3a2.67,2.67,0,0,0-1.7.8l.8.7,2.6.1c1.5,1.3,3.6,3.2,4.1,3.5l.6-1-4.3-3c-.1,0-1-1.1-2.1-1.1Z"/><path class="cls-10" d="M278.5,142.1a9.09,9.09,0,0,0-2.2-3.4c-1.3.4-2.6,1.2-3.9-1.9,1.2,1.5,3.6,0,3.6,0l1,.9v.4l3.1,2.9Z"/><path class="cls-12" d="M278.4,142.3v-.1a8,8,0,0,0-1.9-3,6.91,6.91,0,0,1,2,2.9l1.5-1-4.1-4c0,.1-2.6,1.2-3.6,0,1.7,3.1,2.6,2.2,3.6,1.9a.49.49,0,0,1,.3.1c-2.3.8-2.9.3-3.9-2,1.3.9,3.6-.1,3.6-.1l1.1.9,3.1,3.3-1.7,1.1Z"/><path class="cls-9" d="M287.7,145.9l-.2,1.1c-.3-.2-3.6-3.8-3.6-3.8l-2.7-.5-.5-.8c1.8-2.2,3.8.7,3.8.7Z"/><path class="cls-11" d="M287.6,147.1l-.1-.1c-.4-.2-3.3-3.5-3.7-3.8l-2.6-.5-.6-.9c1.6-2.2,3.9.5,4,.6l3.2,3.3-.2,1.4Zm-5.4-6a1.87,1.87,0,0,0-1.4.8l.5.7,2.6.5a43.93,43.93,0,0,0,3.6,3.7l.1-.9-3.2-3.3a3.06,3.06,0,0,0-2.2-1.5Z"/><path class="cls-10" d="M285.6,147.8a10.69,10.69,0,0,0-1.5-4.1c-1.6.5-3,1.2-3.5-2.1.9,1.7,3.5.4,3.5.4l.9,1-.1.5,2.7,3.5Z"/><path class="cls-12" d="M285.5,148v-.2a8.6,8.6,0,0,0-1.2-3.5,8.48,8.48,0,0,1,1.3,3.4l1.8-.8-2.7-3.3.1-.6-.9-.9c0,.1-2.8.9-3.6-.4.9,3.5,2,2.5,3.2,2.1.1,0,.2,0,.2.1-2.4.8-3,.3-3.5-2.2,1.1,1.1,3.6.3,3.6.3l1,1.1-.1.6,2.7,3.4-1.9.9Z"/><path class="cls-9" d="M292.6,154.6l-.6,1.2c-.3-.2-3.1-4.7-3.1-4.7l-2.5-.8-.5-1c2-1.9,3.6,1.4,3.6,1.4Z"/><path class="cls-11" d="M292,155.9h0a57.16,57.16,0,0,1-3.2-4.8l-2.5-.8-.5-1.1c1.9-2.1,3.7,1.2,3.8,1.3l3.1,4-.7,1.4Zm-4.8-7.2a1.73,1.73,0,0,0-1.2.6l.5.9,2.5.8c1.1,1.7,2.6,4.1,3,4.6l.5-1.1-3.1-3.9s-.9-1.9-2.2-1.9Z"/><path class="cls-10" d="M289.9,156.3a12.2,12.2,0,0,0-.7-4.4c-1.6.5-2.9.6-3.3-2.7.9,1.6,3.4,1,3.4,1l.7,1.1-.1.4,2.1,4Z"/><path class="cls-12" d="M289.8,156.4v-.2a12.62,12.62,0,0,0-.7-4.4,5,5,0,0,1-1.3.3c-1.2,0-1.8-.9-2-3,1.2,1.4,3.5.9,3.5.9l.8,1.2,2,4.4-2.3.8Zm-.7-4.6c.4.2,1,3.3.9,4.4l1.9-.6-2.7-5.4c-.1.1-2.5.6-3.4-1,.7,3.9,2.1,2.9,3.3,2.6Z"/><polygon class="cls-6" points="259.9 172.6 267.1 170.4 270.3 165 281.4 164.5 281.1 168.5 271.6 170.3 270.7 171.9 259.7 175 259.9 172.6"/><path class="cls-7" d="M259.6,175.1l.2-2.5,7.3-2.3,3.1-5.3,11.2-.6-.3,4.1-9.6,1.9-.8,1.6-11.1,3.1Zm21.8-10.6-11,.6-3.1,5.3-7.3,2.3-.1,2.1,10.8-3,.8-1.6,9.6-1.9.3-3.8Z"/><polygon class="cls-13" points="267.5 174.1 278.9 157.3 279.4 157.8 268.1 174.6 267.5 174.1"/><path class="cls-7" d="M268.1,174.8l-.7-.6,11.4-16.9.7.4-11.4,17.1Zm10.7-17.4-11.3,16.8.5.3,11.3-16.8-.5-.3Z"/><path class="cls-8" d="M277.8,158l1.2-2c.2-.4.6-.5,1.1-.2a.73.73,0,0,1,.2,1.1l-1.1,1.9Z"/><path class="cls-7" d="M279.3,158.9l-1.5-.8,1.2-2.2a.75.75,0,0,1,.7-.4c.7.3.9.4.9.6a1.18,1.18,0,0,1-.1.8l-1.2,2Zm.3-3.2-1.7,2.4,1.3.6,1.1-1.8a.88.88,0,0,0,.1-.7l-.8-.5Z"/><polygon class="cls-6" points="266.1 163.8 289.2 161.4 289.7 164.8 266.8 167.1 266.1 163.8"/><path class="cls-7" d="M266.7,167.2l-.7-3.4,23.1-2.5.7,3.4-23.1,2.5Zm22.4-5.8-22.9,2.4.7,3.1,22.8-2.3-.6-3.2Z"/><polygon class="cls-6" points="289.6 160.6 290.1 165.2 289.2 165.2 288.5 161 289.6 160.6"/><polygon class="cls-7" points="290.3 165.3 289.2 165.3 288.4 161 289.5 160.5 290.3 165.3"/><polygon class="cls-6" points="285.7 161.3 286 165.5 285.4 165.6 284.9 161.9 285.7 161.3"/><polygon class="cls-7" points="285.3 165.7 284.8 161.9 285.7 161.2 286.1 165.6 285.3 165.7"/><polygon class="cls-6" points="270.1 163.1 270.7 167 269.5 167 269.1 163.1 270.1 163.1"/><polygon class="cls-7" points="270.8 167.1 269.5 167.1 269 163.1 270.1 163 270.8 167.1"/><path class="cls-6" d="M266.7,163.2l.8,4.5-1.3.2-.4-2.4a1,1,0,0,1-1.1.8,1.11,1.11,0,0,1-1.1-1.1,1,1,0,0,1,1.1-1,1,1,0,0,1,1,.7l-.2-1.7Z"/><path class="cls-7" d="M266.1,168.1l-.4-2.5c.1,1.2-2.2.9-2.2-.2a1.16,1.16,0,0,1,2.2-.4l-.4-1.7,1.3-.2.9,4.6-1.4.4Zm-.3-2.6.5,2.3,1.2-.2-.9-4.4-1.1.1.3,1.6c-.8-.8-2.1-.5-2.1.4a1.11,1.11,0,0,0,2.1.2Z"/><polygon class="cls-6" points="275 164 278.2 167.5 277.8 168 273.7 165.2 275 164"/><path class="cls-7" d="M277.8,168.1l-4.1-2.8,1.3-1.4,3.3,3.6-.5.6Zm-2.9-4.1-1.1,1.2,4,2.6.3-.4-3.2-3.4Z"/><polygon class="cls-6" points="282.4 172.9 279.2 169.3 279.6 168.9 283.6 171.6 282.4 172.9"/><path class="cls-7" d="M282.3,173l-3.3-3.7.4-.5,4.2,2.8-1.3,1.4Zm-2.8-4.1,2.9,3.8,1.2-1.1-4.1-2.7Z"/><polygon class="cls-6" points="274.1 172 277.9 169 278.3 169.3 275.3 173.1 274.1 172"/><path class="cls-7" d="M275.3,173.2,274,172l3.9-3.1.5.4-3.1,3.9Zm2.9-4-4.1,2.8,1.1.9,3-3.7Z"/><polygon class="cls-6" points="283.6 165.1 279.7 168 279.2 167.6 282.2 163.8 283.6 165.1"/><path class="cls-7" d="M279.7,168.1l-.5-.4,3-4,1.4,1.3-3.9,3.1Zm2.5-4.3-2.9,3.8.4.3-.1-.1,3.9-2.9-1.3-1.1Z"/><polygon class="cls-6" points="279.3 162.7 278.9 167.4 278.4 167.4 277.2 162.8 279.3 162.7"/><path class="cls-7" d="M279,167.5h-.6l-1.3-4.6,2.2-.2-.3,4.8Zm.2-4.8-2,.2,1.3,4.4h.3l.4-4.6Z"/><polygon class="cls-6" points="278 174.1 278.4 169.4 279 169.3 279.7 174.1 278 174.1"/><path class="cls-7" d="M279.8,174.2H278l.3-4.9.7-.1.8,5Zm-.9-4.8-.8,4.7,1.5-.1-.7-4.6Z"/><polygon class="cls-6" points="272.8 167.8 277.8 168.3 277.8 168.8 272.9 169.4 272.8 167.8"/><path class="cls-7" d="M272.8,169.5v-1.7l5,.5.1.6-5.1.6Zm0-1.6.1,1.4,4.9-.6-5-.8Z"/><polygon class="cls-6" points="284.5 169.4 279.7 168.6 279.6 168.3 284.6 167.7 284.5 169.4"/><polygon class="cls-7" points="284.6 169.5 279.7 168.7 280.6 168.5 284.4 169.3 284.5 167.7 283.8 167.8 284.6 167.6 284.6 169.5"/><path class="cls-6" d="M277.4,168.3a1.3,1.3,0,1,0,1.3-1.3,1.32,1.32,0,0,0-1.3,1.3Z"/><path class="cls-7" d="M278.7,169.6a1.35,1.35,0,0,1-1.4-1.3c0-1.5,2.8-1.5,2.8,0a1.35,1.35,0,0,1-1.4,1.3Zm0-2.5a1.16,1.16,0,0,0-1.2,1.2c0,1.3,2.4,1.3,2.4,0a1.22,1.22,0,0,0-1.2-1.2Z"/><path class="cls-6" d="M271.8,168.3a6.9,6.9,0,1,0,6.9-6.7,6.81,6.81,0,0,0-6.9,6.7Zm1.4,0a5.5,5.5,0,1,0,5.5-5.3,5.38,5.38,0,0,0-5.5,5.3Z"/><path class="cls-7" d="M278.7,175.1a6.8,6.8,0,1,1,7-6.8,6.85,6.85,0,0,1-7,6.8Zm0-13.4a6.64,6.64,0,0,0-6.8,6.6,6.77,6.77,0,0,0,6.8,6.6,6.6,6.6,0,1,0,0-13.2Zm0,12a5.4,5.4,0,1,1,5.6-5.4,5.49,5.49,0,0,1-5.6,5.4Zm0-10.6a5.34,5.34,0,0,0-5.4,5.2,5.27,5.27,0,0,0,5.4,5.2,5.34,5.34,0,0,0,5.4-5.2,5.27,5.27,0,0,0-5.4-5.2Z"/><path class="cls-14" d="M283,164.9l1.1-.8Zm-7.7-.8-.9-.9Zm-2,8.5,1.1-.9Zm9.7,1-1-1Z"/><polygon class="cls-6" points="259.8 161.7 258.6 167.7 259.5 168.3 260.6 161.8 259.8 161.7"/><path class="cls-7" d="M259.6,168.4l-1.1-.6,1.1-6.1h.9l-.9,6.7Zm.9-6.6h-.7l-1.1,6,.8.4,1-6.4Z"/><path class="cls-8" d="M260.4,160.9c.6-.2,1.3.2,2.4-1.3,1.9,1.8.1,2-.2,3.8-.5.2-.9-1.4-2.4-1.5-.2,0-2.4-.2-2.4-.2l.5-.7c.1-.1,1.7,0,2.1-.1Z"/><path class="cls-7" d="M262.5,163.5c-.2,0-.4-.2-.6-.5a2.06,2.06,0,0,0-1.6-1l-2.4-.2.5-.9,2.5-.1a2.43,2.43,0,0,0,1.9-1.2c1.4,1.2,1.1,1.8.6,2.5a4.54,4.54,0,0,0-.6,1.4Zm-4.1-2.5-.5.7,2.3.1a2.44,2.44,0,0,1,1.7,1.1c.2.2.4.4.5.4v.1l.1-.1a2.25,2.25,0,0,1,.6-1.4c.5-.7.8-1.2-.4-2.3a2.65,2.65,0,0,1-1.9,1.3l-.9.1Z"/><path class="cls-8" d="M259.6,162.1l.2-1.8c.2-.6,1-.1,1,.3l-.2,1.7Z"/><path class="cls-7" d="M260.7,162.4l-1.1-.2.2-1.9a.76.76,0,0,1,.4-.1l-.5,2h.9l.2-1.6c0-.1-.2-.4-.4-.4h0c.4,0,.6.2.6.4l-.3,1.8Z"/><path class="cls-6" d="M273,177a.55.55,0,0,0,.4.6,1.1,1.1,0,0,0,.8,0,.82.82,0,0,0,.4-.6.55.55,0,0,0-.4-.6,1.1,1.1,0,0,0-.8,0,.55.55,0,0,0-.4.6Z"/><path class="cls-14" d="M273,177a.55.55,0,0,0,.4.6,1.1,1.1,0,0,0,.8,0,.82.82,0,0,0,.4-.6.55.55,0,0,0-.4-.6,1.1,1.1,0,0,0-.8,0A.55.55,0,0,0,273,177Z"/><path class="cls-6" d="M274.9,175.6a.55.55,0,0,0,.4.6,1.1,1.1,0,0,0,.8,0,.82.82,0,0,0,.4-.6.55.55,0,0,0-.4-.6,1.1,1.1,0,0,0-.8,0,.82.82,0,0,0-.4.6Z"/><path class="cls-14" d="M274.9,175.6a.55.55,0,0,0,.4.6,1.1,1.1,0,0,0,.8,0,.82.82,0,0,0,.4-.6.55.55,0,0,0-.4-.6,1.1,1.1,0,0,0-.8,0A.82.82,0,0,0,274.9,175.6Z"/><path class="cls-6" d="M277.5,176.5a.55.55,0,0,0,.4.6,1.1,1.1,0,0,0,.8,0,.82.82,0,0,0,.4-.6.55.55,0,0,0-.4-.6,1.1,1.1,0,0,0-.8,0,.82.82,0,0,0-.4.6Z"/><path class="cls-14" d="M277.5,176.5a.55.55,0,0,0,.4.6,1.1,1.1,0,0,0,.8,0,.82.82,0,0,0,.4-.6.55.55,0,0,0-.4-.6,1.1,1.1,0,0,0-.8,0A.82.82,0,0,0,277.5,176.5Z"/><path class="cls-6" d="M281.6,177.4a.55.55,0,0,0,.4.6,1.1,1.1,0,0,0,.8,0,.82.82,0,0,0,.4-.6.55.55,0,0,0-.4-.6,1.1,1.1,0,0,0-.8,0,.55.55,0,0,0-.4.6Z"/><path class="cls-14" d="M281.6,177.4a.55.55,0,0,0,.4.6,1.1,1.1,0,0,0,.8,0,.82.82,0,0,0,.4-.6.55.55,0,0,0-.4-.6,1.1,1.1,0,0,0-.8,0A.55.55,0,0,0,281.6,177.4Z"/><path class="cls-6" d="M283.3,177.6a.55.55,0,0,0,.4.6,1.1,1.1,0,0,0,.8,0,.82.82,0,0,0,.4-.6.55.55,0,0,0-.4-.6,1.1,1.1,0,0,0-.8,0,.55.55,0,0,0-.4.6Z"/><path class="cls-14" d="M283.3,177.6a.55.55,0,0,0,.4.6,1.1,1.1,0,0,0,.8,0,.82.82,0,0,0,.4-.6.55.55,0,0,0-.4-.6,1.1,1.1,0,0,0-.8,0A.55.55,0,0,0,283.3,177.6Z"/><path class="cls-6" d="M285,177.6a.55.55,0,0,0,.4.6,1.1,1.1,0,0,0,.8,0,.82.82,0,0,0,.4-.6.55.55,0,0,0-.4-.6,1.1,1.1,0,0,0-.8,0,.55.55,0,0,0-.4.6Z"/><path class="cls-14" d="M285,177.6a.55.55,0,0,0,.4.6,1.1,1.1,0,0,0,.8,0,.82.82,0,0,0,.4-.6.55.55,0,0,0-.4-.6,1.1,1.1,0,0,0-.8,0A.55.55,0,0,0,285,177.6Z"/><path class="cls-6" d="M286.7,177.6a.55.55,0,0,0,.4.6,1.1,1.1,0,0,0,.8,0,.82.82,0,0,0,.4-.6.55.55,0,0,0-.4-.6,1.1,1.1,0,0,0-.8,0,.55.55,0,0,0-.4.6Z"/><path class="cls-14" d="M286.7,177.6a.55.55,0,0,0,.4.6,1.1,1.1,0,0,0,.8,0,.82.82,0,0,0,.4-.6.55.55,0,0,0-.4-.6,1.1,1.1,0,0,0-.8,0A.55.55,0,0,0,286.7,177.6Z"/><path class="cls-6" d="M285.8,176.3a.55.55,0,0,0,.4.6,1.1,1.1,0,0,0,.8,0,.82.82,0,0,0,.4-.6.55.55,0,0,0-.4-.6,1.1,1.1,0,0,0-.8,0,.68.68,0,0,0-.4.6Z"/><path class="cls-14" d="M285.8,176.3a.55.55,0,0,0,.4.6,1.1,1.1,0,0,0,.8,0,.82.82,0,0,0,.4-.6.55.55,0,0,0-.4-.6,1.1,1.1,0,0,0-.8,0A.68.68,0,0,0,285.8,176.3Z"/><path class="cls-6" d="M284.2,176.3a.55.55,0,0,0,.4.6,1.1,1.1,0,0,0,.8,0,.82.82,0,0,0,.4-.6.55.55,0,0,0-.4-.6,1.1,1.1,0,0,0-.8,0,.62.62,0,0,0-.4.6Z"/><path class="cls-14" d="M284.2,176.3a.55.55,0,0,0,.4.6,1.1,1.1,0,0,0,.8,0,.82.82,0,0,0,.4-.6.55.55,0,0,0-.4-.6,1.1,1.1,0,0,0-.8,0A.62.62,0,0,0,284.2,176.3Z"/><path class="cls-6" d="M282.6,176.1a.55.55,0,0,0,.4.6,1.1,1.1,0,0,0,.8,0,.82.82,0,0,0,.4-.6.55.55,0,0,0-.4-.6,1.1,1.1,0,0,0-.8,0,.62.62,0,0,0-.4.6Z"/><path class="cls-14" d="M282.6,176.1a.55.55,0,0,0,.4.6,1.1,1.1,0,0,0,.8,0,.82.82,0,0,0,.4-.6.55.55,0,0,0-.4-.6,1.1,1.1,0,0,0-.8,0A.62.62,0,0,0,282.6,176.1Z"/><path class="cls-6" d="M283.4,174.9a.55.55,0,0,0,.4.6,1.1,1.1,0,0,0,.8,0,.82.82,0,0,0,.4-.6.55.55,0,0,0-.4-.6,1.1,1.1,0,0,0-.8,0,.55.55,0,0,0-.4.6Z"/><path class="cls-14" d="M283.4,174.9a.55.55,0,0,0,.4.6,1.1,1.1,0,0,0,.8,0,.82.82,0,0,0,.4-.6.55.55,0,0,0-.4-.6,1.1,1.1,0,0,0-.8,0A.55.55,0,0,0,283.4,174.9Z"/><path class="cls-6" d="M285,174.8a.55.55,0,0,0,.4.6,1.1,1.1,0,0,0,.8,0,.82.82,0,0,0,.4-.6.55.55,0,0,0-.4-.6,1.1,1.1,0,0,0-.8,0,.62.62,0,0,0-.4.6Z"/><path class="cls-14" d="M285,174.8a.55.55,0,0,0,.4.6,1.1,1.1,0,0,0,.8,0,.82.82,0,0,0,.4-.6.55.55,0,0,0-.4-.6,1.1,1.1,0,0,0-.8,0A.62.62,0,0,0,285,174.8Z"/><path class="cls-8" d="M272,172.2c.6-.3.6,1.2.6,1.2h-1c-.4.2-.8.9-.5,1.2s2.2-.5,2.4,0c-.3,2-3,2.8-3.9,1.9s-1.2-3.1,1.9-3.7Z"/><path class="cls-7" d="M270.6,176.9a1.59,1.59,0,0,1-1.2-.4,2.34,2.34,0,0,1-.6-2.1,3,3,0,0,1,2.5-1.8l.7-.5h.3c.4.3.4,1.2.4,1.3l-1.1.1a.94.94,0,0,0-.5.7c.1.4.7.3,1.1.3.7-.1,1.3-.2,1.4.1a3,3,0,0,1-2,2.2c-.4,0-.7.1-1,.1Zm.7-4.1c-1.3.3-2.1.9-2.3,1.7a2,2,0,0,0,.5,1.9,2.2,2.2,0,0,0,2,.2,2.45,2.45,0,0,0,1.8-2c0-.1-.8,0-1.2.1-.6.1-1,.2-1.2,0,0-.8.2-1.2.6-1.3h.2l-.4-.6Zm15.2-1.3-.1-.2,6.3-2.8-6.2,3Z"/><path class="cls-10" d="M296.6,165.7s2.3,0,2.7.1c.2.1-.6.8-.4,1.1.6,1.1,4.5,1,4.8.7.5-.4-3.7-.8-3.7-1.1s.6-1.2.5-1.7c-.1-.7-1.8-.9-1.8-.9Z"/><path class="cls-12" d="M302.1,167.9c-.7,0-2.9-.1-3.3-.9-.1-.2.1-.5.3-.8,0-.3-.8-.4-2-.4l.1-.1a7.51,7.51,0,0,1,2.2,0c-.2.7-.4,1.1-.4,1.2.5,1,4.5.8,4.7.7a9.33,9.33,0,0,0-2-.5c-1.3-.2-1.7-.3-1.7-.5a2.54,2.54,0,0,1,.2-.7,1.93,1.93,0,0,0,.3-1c-.1-.5-1.3-.8-1.7-.9l-.5.4.5-.6c.3,0,1.8.3,2,1a1.68,1.68,0,0,1-.3,1.1,2.07,2.07,0,0,0-.2.6,7.52,7.52,0,0,0,1.5.3c1.5.3,2.1.4,2.2.6-.4.5-1.2.5-1.9.5Z"/><path class="cls-13" d="M293.5,167.8l5.2-4.3a.28.28,0,0,1,.4,0c.2.2-.1.4-.1.4l-5.4,4.4Z"/><path class="cls-7" d="M293.7,168.5l-.2-.7,5.3-4.4.6.2-5.7,4.9Zm5.3-4.7-5.5,4.1.1.4,5.4-4.5Z"/><path class="cls-6" d="M288.5,172.1c.1-.1,4.3-3.7,4.3-3.7l.3-1.1a7.61,7.61,0,0,1,.9.7,8,8,0,0,1,.6.8l-1.2.1-3.7,3.4Z"/><path class="cls-7" d="M289.7,172.3l-1.2-.2c0-.2,4.2-3.9,4.2-3.9l.2-1c.2-.1.8.4,1,.6a3.47,3.47,0,0,1,.6.9l-1.2.2-3.6,3.4Zm3.3-4.9-.1,1s-4.2,3.6-4.3,3.7h1.1l3.7-3.3,1.1-.1c-.1-.1-.4-.5-.6-.7l-.9-.6Z"/><path class="cls-6" d="M265.3,167.1v1.7c.6.2.5.6.5,1.2v4.9c.2.3.8.3,1.1.6s.2.7-1,1.1h-1c-1.5-.3-1.8-.8-1.1-1.1.4-.2.9-.3,1.1-.6v-1.2h-1c-.3,0-.8-.7-.8-1.2V170a1.44,1.44,0,0,1,1.4-1.6v-1.3Zm-1.7,2.8c0-.4.6-.8.8-.8a1.23,1.23,0,0,1,.8.9v1c0,.4-.3,1.6-.9,1.7-.3,0-.6-.4-.6-.8Z"/><path class="cls-7" d="M264.8,176.6h0c-1-.2-1.5-.5-1.6-.8v-.1l.5-.4a3.83,3.83,0,0,0,1.1-.5l-.1-1.1-.9.1c-.4,0-.9-.8-.9-1.3V170a1.52,1.52,0,0,1,1.5-1.7l-.1-1.2,1-.1.1,1.8c.5.1.5.5.5,1v5.1a2.19,2.19,0,0,0,.5.3l.7.7c-.1.2-.3.5-1.2.8l-1.1-.1Zm0-3,.1,1.3a2,2,0,0,1-1.1.6c-.5.5-.1.8.9,1h1c.9-.2,1.1-.5,1.1-.6l-.6-.5a.92.92,0,0,1-.6-.4v-4.9c0-.7,0-1-.4-1.1v-1.8l-.8.1.1,1.2a1.44,1.44,0,0,0-1.4,1.6v2.5c0,.5.5,1.1.7,1.1l1-.1Zm-.5-.8a1,1,0,0,1-.8-.9v-2.1a1.06,1.06,0,0,1,.9-.9h0c.3,0,.8.5.9,1v1c0,.4-.3,1.8-1,1.9Zm.2-3.6c-.2,0-.7.4-.7.7V172c0,.3.3.7.5.7.5-.1.8-1.2.9-1.7v-1a1.42,1.42,0,0,0-.7-.8Z"/><path class="cls-4" d="M256,120.5c7.9-8,14.2-4.1,15.7-3a4.35,4.35,0,0,1-2.3-.5c.3.4.9,1.3.9,1.3a16.87,16.87,0,0,0-2.7-1.1,6.31,6.31,0,0,1,.7,1c-.2.1-1.6-1.1-1.8-1.1a4.59,4.59,0,0,1,.6,1.6l-1.2-.6c-.3.2.1.6-.2.6-2-.2-4.8,1.8-5.2,2.4Z"/><path class="cls-7" d="M260.6,121.2c.2-.7,3.2-2.8,5.1-2.6h0v.2c-2.1-.1-4.8,1.9-5.1,2.4Zm-4.5-.6-.1-.1c7.8-7.8,14.1-4.3,15.8-3a2.38,2.38,0,0,1-1.9-.2c-.1,0,.5.9.5.9h-.2c-1.2-.4-2.4-.9-2.6-.9.4.1.8.8.8.8-.2.2-.4,0-1.1-.4a4.38,4.38,0,0,0-.9-.5c.5.3.6,1.4.6,1.5l-1.3-.5V118l1.1.5a7.26,7.26,0,0,0-.6-1.4c.2-.1.5.1,1,.4a3,3,0,0,0,.7.5c-.2-.2-.4-.6-.7-.7.3-.3,1.9.5,2.6.8-.2-.2-.6-.8-.8-1l-.2-.3.9.3a3.23,3.23,0,0,0,1.7.3c-1.4-1-7.6-4.5-15.3,3.2Z"/><path class="cls-4" d="M258,122c.8-1.9,16-5.1,19,.3-1.2.3-2.3-1-2.3-1l.1,1.2-2-1.6.7,1.6-1.6-1.3v1.3l-2-2.1.3,1.3-1.8-.8.2,1Z"/><path class="cls-7" d="M272,122.5l-2.1-2.1.4,1.2-1.9-.6.3.9-.4-1,1.9.6-.4-1.1,2.2,2.1-.2-1.3,1.8,1.2-.9-1.5,2.2,1.4-.2-1.1a4.1,4.1,0,0,0,2.1.9h.3c-1.7-2.7-6.6-2.9-9.3-2.7-4.6.2-9.1,1.6-9.6,2.6l-.2-.1c.5-1.1,5.3-2.5,9.7-2.7,2.8-.1,7.8,0,9.4,3a2.68,2.68,0,0,1-2.5-.9l.3,1.1-2.2-1.5.9,1.5-1.8-1.2.2,1.3Z"/><path class="cls-4" d="M258.7,122.3c3.9-2.6,9.9-.8,9.9-.8,3.8,2.1,5.9,1.8,6.4,5.7a9,9,0,0,1-1.4-1.4l-.8,1.6-.3-2.2-.6,1.7-.9-2.8-.2,1.9-1.4-1.9-.7.5-.6-1.4-.6.9s-1-.6-1.6-.2l-1.1-1.3-.3.9-.9-1.1-.4.8-.9-.9.1.6-3.2.1Z"/><path class="cls-7" d="M272.8,127.4l-.4-2.2-.5,1.7-1.1-2.8V126l-1.6-1.9-.5.6-.8-1.5-.4,1a3.87,3.87,0,0,0-1.2-.3.6.6,0,0,0-.4.1l-1.2-1.3-.1.9-1.1-1.1-.2.8-.2-.2.2.1.2-.8,1.1,1.1.1-.9,1.2,1.2c.5-.4,1.5.2,1.5.2l.4-.9.8,1.5.5-.6,1.6,1.9.1-1.9,1.1,2.8.5-1.7.4,2.3.6-1.6c.4.3,1.2,1.2,1.5,1.4-.5-2.8-1.7-3.4-3.9-4.3a15.68,15.68,0,0,1-2.6-1.3s-6-1.7-9.8.8l-.1-.2c3.9-2.6,9.9-.9,10-.9,1,.6,1.9.9,2.6,1.3,2.2,1,3.5,1.5,3.8,4.6-.5-.1-1.4-1.2-1.6-1.3l-.5,1.5Z"/><path class="cls-4" d="M259.6,122.7c2.7,0,10.5,2.9,12.5,5.9-.8-.4-1.3-.6-1.3-.6l-.4,1.2-.5-1.2-.1.9c-.3-.7-.6-.8-1.2-.1l-.2-1.1-.3,1.1-.5-1.2s-.3,1.3-.5,1.2a10.21,10.21,0,0,0-1.2-2.3l-.1,1.4-.5-1.4-.5,1-.1-1.5-.5,1.1s-.3-1.1-.7-1.3l-.8.7-3.5-2.5Z"/><path class="cls-7" d="M270.4,129.3l-.7-1.2.1.9c-.3-.3-.4-.5-.6-.5a1.18,1.18,0,0,0-.6.5l-.4-1.2-.1,1.1-.7-1.2a1.81,1.81,0,0,1-.3,1.3c-.6-1.1-1.1-2.3-1.4-2.3V128l-.7-1.4-.3,1.1-.3-1.5-.3,1.2c-.2-.3-.5-1.1-.8-1.3l-.7.7-3.6-2.5,3.6,2.3.7-.7c.5.2.8,1.3.8,1.4l.3-1.2.3,1.5.3-1.1.7,1.4-.1-1.4c.5,0,1.3,1.9,1.4,2.3,0-.1.2-.7.3-1.2l.7,1.2.1-1.1.4,1.2c.1-.5.4-.7.6-.6s.4.2.6.6l-.1-.9.8,1.3.2-1.3c.2-.1.6.2,1.4.6-2.1-2.9-9.7-5.8-12.5-5.8h-.1v-.2h.1c2.7,0,10.4,2.8,12.5,6-.9-.3-1.4-.5-1.4-.5l-.2,1.2Z"/><path class="cls-4" d="M259,123.4c3.6,1.4,6.8,6.3,6.6,8.4-1.6-2-1.3-1.7-2,.6a11.22,11.22,0,0,0-.5-2.2l-.5,1.5-.2-1.9h-.5l.1-1.2-.7.5c.2-.7.3-.9-.4-1.5,0,0,.9.1.2-1.6l-.7.7a1.91,1.91,0,0,0-.1-1l-2.5-.9Z"/><path class="cls-7" d="M263.7,132.4a19.74,19.74,0,0,0-.7-2.2l-.3,1.4v0l.3-1.5c.4.2.7,1.9.7,2.3l.1-1c.2-.7.3-1,.5-1,.4,0,.5.3,1.2,1.1.3-1.7-2.9-6.6-6.5-8l.1-.2c3.7,1.4,6.9,6.4,6.6,8.5-.9-.8-1.2-1.3-1.3-1.3h0c-.1,0-.2.4-.3.9l-.4,1Zm-2.3-3.3c.1-.8.1-1-.5-1.5.5-.4.6-.7.2-1.6l-.5.7c-.1-.3-.1-.8-.3-1l-2.5-.9,2.6.7c.3.3.2,1,.2,1.1l.5-.7c.5.8.5,1.3.3,1.5a1.74,1.74,0,0,1,.1,1.4l.5-.4v.1l-.6.6Z"/><path class="cls-4" d="M258.7,123.7l1.4,2.6-.7.2,1.6,1.2-1.3-.1a3.66,3.66,0,0,1,2.3,2.7l-2.1-.9s1.8,1.8,2,2.9l-1.2-1a4.26,4.26,0,0,1,1,3.1l-.9-1c.2,2.3.1,2.5-.9,4.2,0,0,.3-2.7,0-3l-2.3,2.4,1.3-3.4s-1.4,2.2-2.3,2l1.8-2.8-1.8,1.4,2-3-1.9.6s1.4-1.7,1.3-2.8l-1.3,1.4a5.48,5.48,0,0,0,.3-2.1l-.7.1,1.3-1.5-.9-.2.1-1-.6-.2v-1.1Z"/><path class="cls-7" d="M259.9,137.7a18,18,0,0,0-.2-3l-2.2,2.4,1-3.2c-.3.6-1.3,2-2.1,1.8l1.8-2.9-1.7,1.6,1.9-3.2-1.8.7c-.1-.2,1.2-1.8,1.1-2.9l-1.1,1.5a18.32,18.32,0,0,0,.2-2.1l-.6.2,1.2-1.6h-.8v-1.1l-.6-.1v-1.2l.1,1.1.6.1v1.1l.8.1-1.2,1.6.6-.3c.3.5-.2,2-.2,2.2l1.1-1.5c.3,1.2-1.1,2.8-1.1,2.9l1.8-.7-1.9,3.2,1.7-1.6-1.7,2.9h0c.6,0,1.7-1.5,2.1-2.1h0a.31.31,0,0,1-.1.2l-1,3.2,2.2-2.5c.4.4.1,2.7.1,3.2.9-1.8.9-2,.7-4.3l1,.9a4.79,4.79,0,0,0-1.1-3h0c.1,0,.2.1.3.2l1,.7a15.79,15.79,0,0,0-2.1-2.7h.1l2.1.7a4.16,4.16,0,0,0-2.3-2.6H261l-1.6-1,.7-.4-1.4-2.5.2-.1,1.4,2.6-.8.3,1.6,1h-1.2a3.33,3.33,0,0,1,2.2,2.6l-2.1-.8a6.56,6.56,0,0,1,2,2.7l-1-.7a3.89,3.89,0,0,1,.8,2.8l-1-.9c.2,2.4.2,2.7-.9,4.5Zm-.1-3.1a7.88,7.88,0,0,1-1-4c-.2-2-.3-4.3-1.6-6l.1-.1c1.3,1.7,1.5,4.1,1.6,6.1a13.92,13.92,0,0,0,.9,4Z"/><path class="cls-6" d="M269.7,178c0-.3.8-.2.8-.6s-1.2-.1-1.4.3c-.7-.6-1-.2-1.4,0-.6-.9-1.3-.8-2-.2-.4-.5-1.4-.3-1.8.2a1.12,1.12,0,0,0-1.8,0c-.2-.4-.5-.3-.7,0a1.15,1.15,0,0,0-1.7,0c-.3-.4-.7-.1-1.1.2-.3-.3-.8-.2-.8,0s.6.2.6.5-.5.1-.5.5.7.4.8-.1c.2.5,1.1.3,1.2-.1a.86.86,0,0,0,1.3-.1c.3.2.6.3.8,0a1,1,0,0,0,1.7-.2h.3a1,1,0,0,0,1.6,0,1.37,1.37,0,0,0,1.9,0c.6.7,1.4.6,1.6,0,.4.3,1.2.3,1.2,0s-.6-.1-.6-.4Zm-1.7.1c0,.2.2.3.4.3s.4-.1.4-.3a.45.45,0,0,0-.4-.3c-.2.1-.4.2-.4.3Zm-1.8-.2c0,.2.2.3.5.3s.5-.1.5-.3-.2-.3-.5-.3-.5.1-.5.3Zm-3.7.2c0,.2.2.3.5.3s.5-.1.5-.3-.2-.3-.5-.3-.5.1-.5.3Zm1.9-.1a.51.51,0,1,0,.5-.4.46.46,0,0,0-.5.4Zm-4.1,0a.4.4,0,1,0,.4-.4c-.2.1-.4.2-.4.4Zm1.3.1c0,.1.1.2.3.2s.3-.1.3-.2-.1-.2-.3-.2-.3.1-.3.2Zm-2.5.1a.27.27,0,0,0,.3.3.32.32,0,0,0,.3-.3.3.3,0,1,0-.6,0Z"/><path class="cls-7" d="M258.5,179.1h0l-.5-.3.5-.5-.6-.5.5-.1.3.5-.5.5.3.4.4-.5.6.3a.6.6,0,0,0,.6-.3l.7.2a.86.86,0,0,0,.6-.3l.1-.1.9.1a1,1,0,0,0,1.6-.2c.1,0,.2.1.3.1a1.44,1.44,0,0,1-2,.2l-.7-.1.1.1a.9.9,0,0,1-1.4.1c.1.3-.3.4-.6.4h-.1l-.5-.3a.86.86,0,0,1-.6.3Zm10-.1a1.39,1.39,0,0,1-1-.5c-.2.4-1,.6-1.9,0,0,.3-.8,1-1.5,0,1.4.6,1.4.1,1.5-.2.9.4,1.3.5,1.9,0,.7.6,1.4.6,1.6,0a2.92,2.92,0,0,0,.9.2l-.4-.6.5-.4v.2l.4.6c-.8.3-1.1.2-1.3.1,0,.4-.3.6-.7.6Zm-6.3-.9h-.7l.4-.3-.5-.1a.89.89,0,0,0-1.5,0,1,1,0,0,0-1,.1h-.2c.3-.3.5-.4.7-.4,1-.1,1.8-.3,2.1.2,1.7-.6,1.8-.6,2.4,0,.1-.5,1.4-.7,1.8-.2a1.14,1.14,0,0,1,2,.2l.7-.4a1.33,1.33,0,0,1,.7.3c0-.3.6-.5,1-.5v.3c-.5,0-.9.2-.9.3-.4-.2-.5-.3-.7-.3l-.8.3c-.5-.8-1.2-.8-1.9-.2a1.33,1.33,0,0,0-1.8.2c-.8-.5-1.2-.6-1.8,0l-.1.1h-.2l.3.4Z"/><path class="cls-6" d="M257,166.2s1.2-10.2,1.2-14.6c0-3.5-.8-11.1-.8-11.1h-3.5s-.5,7.6-.5,11c.1,4.4,1.2,14.6,1.2,14.6H257Z"/><path class="cls-7" d="M257.1,166.3h-2.4c-.1-.2-1.2-10.4-1.3-14.7-.1-3.4.5-11,.5-11.1l3.6-.1c.1.2.9,7.8.9,11.2-.1,4.4-1.3,14.5-1.3,14.7Zm-3.2-25.6c.1,0-.5,7.6-.4,11,.1,4.3,1.2,14.5,1.2,14.6l2.2-.1c.1-1,1.2-10.4,1.2-14.5,0-3.4-.8-11-.8-11.1l-3.4.1Z"/><polygon class="cls-6" points="253.6 141.1 257.7 141.1 257.2 138.3 254.3 138.3 253.6 141.1"/><path class="cls-7" d="M257.8,141.2h-4.2l.6-2.8,3-.1.6,2.9Zm-.7-2.9-2.8.1-.6,2.7,3.9-.1-.5-2.7Z"/><polygon class="cls-6" points="253.9 138.9 257.5 138.9 256.8 136.1 254.6 136.1 253.9 138.9"/><path class="cls-7" d="M257.6,139h-3.7l.6-2.8,2.3-.1.8,2.9Zm-.9-2.8-2.1.1L254,139l3.4-.1-.7-2.7Z"/><polygon class="cls-6" points="254.1 136.7 257.1 136.7 256.6 133.9 254.7 133.9 254.1 136.7"/><path class="cls-7" d="M257.2,136.8h-3.1l.5-2.8,2-.1.6,2.9Zm-.7-2.9-1.8.1-.5,2.7,2.8-.1-.5-2.7Z"/><polygon class="cls-6" points="256.7 133.6 254.6 133.6 254.4 134.6 256.9 134.6 256.7 133.6"/><path class="cls-7" d="M257.7,160.1h-3.8l3.8-.2v.2Zm.2-2.2h-4l4-.2v.2Zm0-2.2h-4.2l4.2-.2v.2Zm.2-2h-4.6l4.6-.2v.2Zm0-1.9h-4.8l4.8-.2v.2Zm0-2.2h-4.8l4.8-.2v.2Zm-.2-2.2h-4.6l4.6-.2v.2Zm-.2-2.2h-4.2l4.2-.2v.2Zm-.2-2h-3.8l3.8-.2v.2Z"/><path class="cls-9" d="M255.8,165.4c-2.6,0-4.7,1-4.7,2.2a1.42,1.42,0,0,0,.2.6c.6.6,2.4,1.1,4.5,1.1a7.67,7.67,0,0,0,4.4-1,1.08,1.08,0,0,0,.3-.7c0-1.2-2.1-2.2-4.7-2.2Z"/><path class="cls-11" d="M255.9,169.4c-2.1,0-4-.5-4.6-1.2l-.2-.7c0-1.3,2.1-2.3,4.8-2.3s4.8,1,4.8,2.3a1.33,1.33,0,0,1-.3.8c-.8.7-2.6,1.1-4.5,1.1Zm-.1-3.9c-2.5,0-4.6.9-4.6,2,1.3,2.2,7.5,1.8,8.9.6a.73.73,0,0,0,.2-.6c.1-1.1-2-2-4.5-2Z"/><path class="cls-6" d="M260.5,167.7v7.2c0,.8-2.1,1.5-4.7,1.5s-4.7-.7-4.7-1.5v-7.2c0,.8,2.1,1.5,4.7,1.5s4.7-.6,4.7-1.5Z"/><path class="cls-7" d="M255.9,176.6c-2.7,0-4.8-.7-4.8-1.6v-7.2c.2.7,2,1.4,4.8,1.4s4.6-.7,4.6-1.4v.2l.2,7c-.1.9-2.2,1.6-4.8,1.6Zm-4.8-8.9.2,7.2c0,.7,1.8,1.4,4.6,1.4s4.6-.7,4.6-1.4v-7c-.2.8-2.1,1.4-4.6,1.4-2.7,0-4.8-.7-4.8-1.6Z"/><path class="cls-10" d="M251.2,167.7v1.1l2.3,7,1.8-5.4,2,5.6,1.5-5.3,1.8,3.5v-2l-1.7-3.4a1.27,1.27,0,0,1-.6.1l-1.1,3.9-1.5-3.7H255l-1.5,3.7-1.7-4.5q-.6-.15-.6-.6Z"/><path class="cls-12" d="M257.3,176.3l-2.1-5.9-1.6,5.4-2.4-7v-1.1h0a4.62,4.62,0,0,0,.7.7l1.7,4.5,1.3-3.7h.8l1.6,3.8.9-3.9.7-.2,1.8,3.5v2l-2-3.5-1.4,5.4Zm-6.2-8.4.2.9,2.3,7,1.6-5.4,2.1,5.3,1.4-5,2,3.5-.2-1.9-1.7-3.4-.5.2-1,3.8-1.7-3.7h-.7l-1.4,3.7-1.9-4.5c-.2,0-.4-.3-.5-.5Z"/><path class="cls-9" d="M260.5,173.6V175c0,.8-2.1,1.5-4.7,1.5s-4.7-.7-4.7-1.5v-1.4c0,.8,2.1,1.5,4.7,1.5s4.7-.7,4.7-1.5Z"/><path class="cls-11" d="M255.9,176.6c-2.7,0-4.8-.7-4.8-1.6v-1.4c.2.7,2,1.4,4.8,1.4s4.6-.7,4.6-1.4v.1l.2,1.3c-.1.9-2.2,1.6-4.8,1.6Zm-4.8-2.8.2,1.2c0,.7,1.8,1.4,4.6,1.4s4.6-.7,4.6-1.4v-1.1c-.2.8-2.1,1.4-4.6,1.4s-4.6-.7-4.8-1.5Z"/><path class="cls-6" d="M257.8,175a4.87,4.87,0,0,1-1.2.1v1.3c.4,0,.8-.1,1.2-.1Z"/><path class="cls-14" d="M257.8,175a4.87,4.87,0,0,1-1.2.1v1.3c.4,0,.8-.1,1.2-.1Z"/><path class="cls-6" d="M252.8,174.8v1.3l1.2.3v-1.3a7,7,0,0,0-1.2-.3Z"/><path class="cls-14" d="M252.8,174.8v1.3l1.2.3v-1.3A7,7,0,0,0,252.8,174.8Z"/><path class="cls-6" d="M251.2,173.6v1.3c0,.3.2.5.5.7v-1.3c-.3-.2-.5-.4-.5-.7Z"/><path class="cls-14" d="M251.2,173.6v1.3c0,.3.2.5.5.7v-1.3C251.4,174.1,251.2,173.9,251.2,173.6Z"/><path class="cls-6" d="M260.5,173.7h0c-.1.3-.4.5-.9.7v1.3c.6-.2.9-.6.9-.9Z"/><path class="cls-7" d="M255.9,176.6c-2.7,0-4.8-.7-4.8-1.6v-7.2l.2,7.2c0,.7,1.8,1.4,4.6,1.4a8.83,8.83,0,0,0,3.8-.7l-.1-1.2c.5-.3.8-.5.9-.8h0v-6c0-.1.2-.1.2,0v7.2h0a.72.72,0,0,1-.4.6,7.07,7.07,0,0,1-4.4,1.1Z"/><path class="cls-8" d="M259.5,167.2c0,.5-1.6.9-3.6.9s-3.6-.4-3.6-.9,1.6-.9,3.6-.9,3.6.4,3.6.9Z"/><path class="cls-3" d="M255.9,168.3c-1.8,0-3.7-.4-3.7-1,0-1.3,7.4-1.3,7.4,0-.1.6-2,1-3.7,1Zm0-1.9c-2.1,0-3.5.5-3.5.9s1.5.9,3.5.9,3.5-.5,3.5-.9-1.5-.9-3.5-.9Z"/><path class="cls-6" d="M254.7,167.9l.2,1.3h1l.2-1.3Z"/><path class="cls-14" d="M254.7,167.9l.2,1.3h1l.2-1.3Z"/><path class="cls-6" d="M258.9,167.6l-.9.3.1,1.2c.3-.1.6-.1.9-.2Z"/><path class="cls-14" d="M258.9,167.6l-.9.3.1,1.2c.3-.1.6-.1.9-.2Z"/><path class="cls-6" d="M253.3,165.7a4.88,4.88,0,0,0-.7.3l.1,1,.6-.2Z"/><path class="cls-14" d="M253.3,165.7a4.88,4.88,0,0,0-.7.3l.1,1,.6-.2Z"/><path class="cls-6" d="M255.8,165.3h-.4l.2,1.2h.6l.2-1.2Z"/><path class="cls-14" d="M255.8,165.3h-.4l.2,1.2h.6l.2-1.2Z"/><path class="cls-6" d="M258.6,165.7l-.1,1.1.7.3.1-1a5.74,5.74,0,0,0-.7-.4Z"/><path class="cls-14" d="M258.6,165.7l-.1,1.1.7.3.1-1A5.74,5.74,0,0,0,258.6,165.7Z"/><polygon class="cls-6" points="251.9 168.6 252.1 167.2 251.1 166.7 251.2 168.2 251.9 168.6"/><polygon class="cls-14" points="251.9 168.6 252.1 167.2 251.1 166.7 251.2 168.2 251.9 168.6"/><polygon class="cls-6" points="260.5 168.3 260.5 166.9 259.6 167.2 260.5 168.3"/><polygon class="cls-14" points="260.5 168.3 260.5 166.9 259.6 167.2 260.5 168.3"/><path class="cls-4" d="M244.3,159.8a2.39,2.39,0,0,0-2-.9,2.13,2.13,0,0,0-2,.9c-.1-.1-.1-.2-.1-.4,0-.7.9-1.2,2.1-1.2s2.1.6,2.1,1.2c0,.2-.1.3-.1.4Z"/><path class="cls-3" d="M244.2,159.9c-.5-1-3.4-.9-3.9,0,0-.2-.1-.3-.1-.5.4-.5,3.2-.8,4,.2v-.1c0-1.1-3.6-1.3-4-.2.3-1.7,4.2-1.1,4.2.2l-.2.2v.1l-.1.1h.1v0Z"/><path class="cls-4" d="M244.1,161.3a2.17,2.17,0,0,1-1.9,2.4,2.25,2.25,0,0,1-1.9-2.4V160H244v1.3Z"/><path class="cls-3" d="M242.2,163.9c-1.1,0-2-1.1-2-2.6V160l3.9-.2.2,1.5c-.1,1.4-1,2.6-2.1,2.6Zm1.7-3.9-3.6.2.2,1.2c0,1.2.8,2.3,1.7,2.3s1.7-1,1.7-2.3V160Z"/><path class="cls-8" d="M244.1,159.6c0,.5-.8.9-1.9.9s-1.9-.4-1.9-.9.8-.9,1.9-.9,1.9.4,1.9.9Z"/><polygon class="cls-4" points="241.8 160.6 241.5 157.3 242.9 157.3 242.7 160.6 241.8 160.6"/><polygon class="cls-15" points="242.7 160.7 241.8 160.7 241.4 157.3 242.9 157.2 242.7 160.7"/><path class="cls-4" d="M244.3,159.7a2.39,2.39,0,0,1-2,.9,2.13,2.13,0,0,1-2-.9c-.1.1-.1.2-.1.4,0,.7.9,1.2,2.1,1.2s2.1-.6,2.1-1.2c0-.2-.1-.3-.1-.4Z"/><path class="cls-3" d="M242.2,161.4c-1.3,0-2.3-.6-2.3-1.4h.2c.5,1.4,3.7,1.2,4,.2,0,.8-.9,1.2-1.9,1.2Zm0-.7a3.2,3.2,0,0,1-1.8-.5c1.2.3,3.3.3,3.8-.5,0,.2.1.3.1.5a5.73,5.73,0,0,1-2.1.5Z"/><polygon class="cls-6" points="240.8 166.6 244.5 167 245.1 163.7 240.7 163.3 240.8 166.6"/><polygon class="cls-7" points="244.6 167 240.8 166.7 240.8 166.6 244.5 166.9 245 163.7 240.7 163.3 245.1 163.6 244.6 167"/><polygon class="cls-6" points="241.7 163.1 241.2 167 242.3 167 242.8 163.1 241.7 163.1"/><polygon class="cls-7" points="241.1 167.1 241.7 163.1 242.8 163 242.4 167 241.1 167.1"/><path class="cls-6" d="M270,159.6c.9-.1,2.1,1,2.2,2.5.1,1.1-1.7,1.1-1.7,1.1-.1.5-1.1.9-1.9.9s.2-1.5.2-1.5a4.08,4.08,0,0,1,.2-2.8Z"/><path class="cls-7" d="M268.6,164.2c-.1-.1-.1-.2-.2-.3,1.2.1,1.9-.4,2-.8.1-.1,1.1-.1,1.5-.5a2.56,2.56,0,0,0-.8-2.6,1.86,1.86,0,0,0-1.1-.4l-1.1.2a4.58,4.58,0,0,0-.1,2.6h2.6l-1.3.2-.6-.1-.7.1a3.85,3.85,0,0,0-.5,1.2,2.27,2.27,0,0,1,.3-1.3,3.72,3.72,0,0,1,.2-2.8l1.1-.3a1.47,1.47,0,0,1,1.2.4,3.33,3.33,0,0,1,1.1,2.1.91.91,0,0,1-.3.7,2.54,2.54,0,0,1-1.6.5c.2.6-.9,1-1.7,1.1Z"/><path class="cls-10" d="M270.5,160.4c.7-.5.1-1.5-.4-1.5H269c-.5,0-1.4.6-1.3,1.1a.8.8,0,0,0,.9.6c.2,0,.6-.6.9-.6.1,0,.7.6,1,.4Z"/><path class="cls-15" d="M268.3,160.7c-.4,0-.6-.2-.8-.6.4-.9,1-1.2,1.4-1.2H270c.3,0,.6.3.8.7a1,1,0,0,1-.3,1,1.45,1.45,0,0,1-.7-.2l-1.5.3Zm1.8-1.7H269a1.74,1.74,0,0,0-1.1.6c0,.7.2.9.5.9v.1l1-.7,1,.5a.76.76,0,0,0,.3-.8c-.1-.3-.4-.6-.6-.6Z"/><path class="cls-9" d="M255.9,117.6c-.7-.3-2.3-1.3-1.8-2l.7-1.2c1-2.3,0-1.4-.1-2.2s4-.2,4,1.4a7.17,7.17,0,0,0-.3,2.7l-.8,1.5a3.33,3.33,0,0,1-1.7-.2Z"/><path class="cls-11" d="M257.3,118a3.19,3.19,0,0,1-1.4-.3c-.5-.2-1.8-1-1.9-1.7l.8-1.7c.6-1.5.4-1.6.2-1.7l-.3-.6c.7-.9,4.1.1,4.1,1.6a9.53,9.53,0,0,0-.3,2.7l-.8,1.5-.4.2Zm-1.9-6a1.45,1.45,0,0,0-.6.1c.6.5.8.7.1,2.3l-.7,1.3c.1.8,1.2,1.6,1.8,1.8a2.5,2.5,0,0,0,1.3.3v.1l.4-.1.7-1.4a7.34,7.34,0,0,1,.2-2.4c0-1.4-2.1-2-3.2-2Z"/><polygon class="cls-6" points="256.4 123.6 255.4 122.8 255.7 115.5 256.7 115.8 256.4 123.6"/><path class="cls-7" d="M256.5,123.8l-1.2-1,.2-7.4,1.1.2-.1,8.2Zm-.9-8.2-.2,7.2.8.7.2-7.7-.8-.2Z"/><path class="cls-10" d="M257.7,117.8a2,2,0,0,0,.7-2.1c-1-1.3-1.7-.8-3.5-1.4-.3.4-1.1,1.1-.9,1.6,2.3,1.1,1.4.2,2.2.3.4.1.6.6,1.5,1.6Z"/><path class="cls-12" d="M257.7,117.9l-.6-.8c-.4-.5-.6-.8-.9-.8l-.6.2a6.14,6.14,0,0,1-1.5-.5c-.2-.6.4-1.2.8-1.6.8.1,1.3.1,1.7.2a2.44,2.44,0,0,1,2,1.1,1.38,1.38,0,0,1,.1,1.1,3.57,3.57,0,0,1-1,1.1Zm-1.5-1.8a1.94,1.94,0,0,1,1,.9l.5.6a1.7,1.7,0,0,0,.6-1,1.15,1.15,0,0,0-.1-1,2.28,2.28,0,0,0-1.9-1,13.12,13.12,0,0,1-1.5-.3c-.4.5-.9,1.1-.8,1.5a5.93,5.93,0,0,0,1.4.5l.8-.2Z"/><path class="cls-6" d="M219.4,174.8c-.6.1-.8.8-.5,1.5-2.8.8-5.2,1.8-7.6,2.5-.1-.5,1.2-1.9,1.2-1.9a2.69,2.69,0,0,1,.6.9,4.11,4.11,0,0,1,1.7-2.7,10.42,10.42,0,0,0-4.2,1.4,5.58,5.58,0,0,1,1.3,0s-2.2,2.4-2.3,3.1c.3.8,4.1,1.3,4.1,1.3,0,.2-1.1,1-1.1,1a6,6,0,0,0,4.4-1.4,6.52,6.52,0,0,1-3.1-1.3s.3.7.1,1c0,0-2.2-.6-2.4-1,0,0,5.1-1.3,7.5-2,.1.4.6,1.3,1.2,1.1.4-.1.3-.9.1-1.4a.76.76,0,0,0,.5.2.8.8,0,1,0,0-1.6.75.75,0,0,0-.7.5c-.1-.4-.3-1.3-.8-1.2Zm1.9,1.5a.4.4,0,1,1-.4-.4c.3.1.4.2.4.4Z"/><path class="cls-7" d="M213.2,182a1.27,1.27,0,0,1-.6-.1,6.58,6.58,0,0,0,1-1.1c-.4,0-3.8-.5-4.1-1.3a6.86,6.86,0,0,1,1.6-2.3c-.5.9-1.3,1.9-1.4,2.3.3.5,3,1.1,4,1.2,0,.3-.7.9-1.1,1.1l.6-.1a6.28,6.28,0,0,0,3.7-1.4,4.94,4.94,0,0,1-3-1,1.34,1.34,0,0,1,.1.9,6,6,0,0,1-2.5-1c0-.1,0-.1,2.3-.7,1.7-.4,3.9-1,5.3-1.4.2.4.6,1.1,1,1.1s.4-.6.2-1.3c1,.1,1.3-.2,1.3-.6,0-.7-1.1-.8-1.4-.2-.3-.8-.6-1.3-.9-1.3a1.23,1.23,0,0,0-.5,1.4c-1.5.5-2.8,1-4.1,1.4l-3.6,1.2c-.2-.6,1-1.9,1.1-2,.5.2.7.9.8,1a3.62,3.62,0,0,1,1.4-2.7,4.43,4.43,0,0,0-1.4,2.7c-.2-.2-.5-.8-.7-.9a6.19,6.19,0,0,0-1.1,1.8c1.1-.4,2.2-.8,3.4-1.2s2.6-.9,4.1-1.3a1.08,1.08,0,0,1,0-1.1l.6-.4h0c.5,0,.8.8.9,1.4-.1-.8,1.5-.6,1.5.3a.82.82,0,0,1-.9.8l-.6-.2c.3.5.4,1.3,0,1.4h0a1.28,1.28,0,0,1-1.2-1.1,47.1,47.1,0,0,1-5.2,1.5c-1.2.3-2.1.6-2.2.6a16.17,16.17,0,0,0,2.4.8c0-.2-.2-.7-.2-.9h.2a8.9,8.9,0,0,0,3.1,1.1,6.06,6.06,0,0,1-3.9,1.6Zm-2.6-5.4c.3-.6,2.9-1.6,4-1.6h0a16.78,16.78,0,0,0-3.8,1.4c.2,0,.4-.1.6-.1v.1a2.4,2.4,0,0,1-.8.2Z"/><path class="cls-6" d="M300.1,177.9a7.52,7.52,0,0,0-.2-2.3c-.4,0-.9.7-.9.7.5-1.6-.9-4.1-.9-4.1.9.2,4,3.2,4.2,3.7a6.22,6.22,0,0,0-1.6-.4c.2,1.5,1.3,2.3,1.7,3.1,0,0-1.8.4-1.6,1.9h-1.2c-.4-.5.2-1.3.2-1.3l-7.9-3.3c-.5-.2-1.7-.7-1.5-1.4s2.1.3,2.5.4Z"/><path class="cls-7" d="M299.7,180.5h0c-.5-.6.1-1.4.1-1.4l-7.9-3.2c-.4-.2-1.8-.7-1.5-1.5.2,0,.3-.1.5-.1-.4.5,0,.9,1.1,1.4l7.9,3.3c0,.1-.4.9-.1,1.3h1.1c-.3-1.4,1.6-1.9,1.6-1.9a2.17,2.17,0,0,1-.6-.7,5.51,5.51,0,0,1-1.2-2.3,5.79,5.79,0,0,1,1.7.3c-.3-.4-3.3-3.4-4.2-3.6a6,6,0,0,1,1,3.8,2,2,0,0,1,.7-.6,6.34,6.34,0,0,1,.3,2.4l-7.2-3a8.22,8.22,0,0,0-2-.6,4.18,4.18,0,0,1,1.8.3l7.4,3.1c0-.2-.2-1.4-.3-2.2a4.62,4.62,0,0,0-.7.7h0v-.2c.2-1.6-1.1-3.9-1.1-4,1.1.1,4.2,3.1,4.4,3.7a15.69,15.69,0,0,1-1.6-.3,4.32,4.32,0,0,0,1.2,2.1c.2.3.4.5.6.8-.1.1-1.7.5-1.6,1.9l-1.4.5Z"/><path class="cls-6" d="M292.5,176.5l.9-1.7c.3-.5-.3-.9-.8-.4l-1,1.6c-.5.8.4,1.1.9.5Z"/><path class="cls-7" d="M291.9,176.9l-.5-.2c-.1-.1-.1-.4.1-.7l1.1-1.6.5-.3.4.8-.9,1.7a1.08,1.08,0,0,1-.7.3Z"/><polygon class="cls-8" points="236.9 180.4 236.9 178.5 234.6 178.7 234.5 180.7 236.9 180.4"/><path class="cls-7" d="M234.4,180.8l.1-2.1,2.3-.2.2,2-2.6.3Zm2.4-2.3-2.2.2v1.8l2.3-.3-.1-1.7Z"/><path class="cls-8" d="M220.4,183l-3-1.7c12.5,1.1,15-3.2,18-3.4,1.9-.2,2.1,2-1.5,1l.9,2.3s-8.8,5-17.5,2.9Z"/><path class="cls-7" d="M221.8,184.7a21.38,21.38,0,0,1-4.5-.5l3.1-1.3-3-1.5c1.5-.1,2.8,0,4,0a21.76,21.76,0,0,0,11.2-2.6,7.32,7.32,0,0,1,2.8-1h0c1,0,1.4.4,1.4.8s-1,.9-2.9.4l1,2.2a28.7,28.7,0,0,1-13.1,3.5Zm-4.4-3.3,3.1,1.5-3.1,1.3a31.45,31.45,0,0,0,4.4.3c6.9,0,13-3.4,13.1-3.4l-1-2.2c2,.2,2.8,0,2.8-.3s-.4-.6-1.1-.6a8.36,8.36,0,0,0-2.9,1c-2.7,1.3-6.5,3.2-15.3,2.4Z"/><polygon class="cls-8" points="274.7 180.4 274.7 178.5 277.5 178.6 277.6 180.6 274.7 180.4"/><path class="cls-7" d="M277.7,180.7l-3.1-.2v-2h2.9l.2,2.2Zm-.3-2.1h-2.7v1.8l2.8.1-.1-1.9Z"/><path class="cls-8" d="M291.8,182.6l2.8-1.6c-14.3.4-11-2.3-18.2-3.1-1.8-.2-3.2,2.2,1.4,1l-.9,2.3h2.2c4.9,3.2,11.4,3.5,15.8,2.5Z"/><path class="cls-7" d="M290.2,184.3h0a20.28,20.28,0,0,1-11-3H277l.8-2.4a5.84,5.84,0,0,1-2,.4c-.4,0-1.1-.1-1.1-.6s.7-1,1.6-1a13.61,13.61,0,0,1,5.4,1.5c2,.9,4.1,2,13,1.7l-2.8,1.7,3.2.9a13.62,13.62,0,0,1-4.9.8Zm-11-3.2a21.93,21.93,0,0,0,15.7,2.5l-3.2-.9,2.8-1.7a13.22,13.22,0,0,1-2.7.2c-6.6,0-8.5-.9-10.3-1.7a13.8,13.8,0,0,0-5.1-1.4c-.9.1-1.6.5-1.6.8s.6.4,1,.4a10.4,10.4,0,0,0,2.1-.3l-.8,2.4,2.1-.3Z"/><path class="cls-8" d="M233.9,178.9v3.2s7.9,2.9,22,2.9,22-2.9,22-2.9v-3.2s-6,2.8-22,2.8-22-2.8-22-2.8Z"/><path class="cls-7" d="M255.9,185.2c-14,0-22-2.9-22.1-2.9l-.1-3.3s6.2,2.7,22.1,2.7,21.9-2.7,22-2.8l.1,3.3s-7.9,3-22,3ZM234,182.1c.2,0,8.1,2.8,21.9,2.8,14,0,21.9-2.9,22-2.9l-.1-3.1c-.1.2-6.2,2.8-21.9,2.8s-22-2.7-22.1-2.8l.2,3.2Z"/><path class="cls-7" d="M235.1,182.2l.7-2.4.3.1-.6,2.1,1.2.3-.1.3Zm2.3-1.1v-.5l.1-.4.3.1-.1.4-.2.4Zm3.4-.1.3.1-.3,1.4a1.42,1.42,0,0,1-.2.6,1.38,1.38,0,0,1-.4.3.64.64,0,0,1-.6,0,.76.76,0,0,1-.5-.2,1.38,1.38,0,0,1-.3-.4v-.6l.3-1.4.3.1-.3,1.4v.5c0,.1.1.2.2.3s.2.1.3.2a1.27,1.27,0,0,0,.6-.1,1.63,1.63,0,0,0,.3-.6Zm.3,2.5.4-2.4.3.1,1,2.1.3-1.9.3.1-.4,2.4-.3-.1-1-2.1-.3,1.9Zm2.7.4.3-2.4h.3l-.3,2.4Zm.9-1.1a1.05,1.05,0,0,1,.5-.9,1.61,1.61,0,0,1,.9-.3,1.42,1.42,0,0,1,.6.2,1,1,0,0,1,.4.5,1.48,1.48,0,0,1,.1.7,1.07,1.07,0,0,1-.2.6,1,1,0,0,1-.5.4,1.27,1.27,0,0,1-.6.1,1.42,1.42,0,0,1-.6-.2,1,1,0,0,1-.4-.5c-.2-.1-.2-.3-.2-.6Zm.4.1a.84.84,0,0,0,.2.7.6.6,0,0,0,.6.3c.3,0,.5,0,.6-.2a.91.91,0,0,0,.3-.7v-.5c0-.2-.1-.3-.3-.4a.76.76,0,0,0-.4-.2.73.73,0,0,0-.6.2.81.81,0,0,0-.4.8Zm2.3,1.4.2-2.4h.3l1.2,2,.2-1.9h.3l-.2,2.5h-.3l-1.2-2-.2,1.9Zm3.6.3.1-2.5,1.7.1v.3l-1.4-.1v.8l1.2.1v.3l-1.2-.1v1.1Zm1.9.1,1-2.4h.4l1,2.5h-.4l-.3-.8h-1.1l-.3.7Zm.7-1h.9l-.3-.7c-.1-.2-.1-.4-.2-.5,0,.2-.1.3-.2.5Zm2,1v-2.5h.3v2.5Zm1.6,0v-2.2h-.8v-.3h2v.3h-.8v2.2Zm2.5-.1-.1-2.5h.3l.1,2.2,1.3-.1v.3Zm1.7,0,.8-2.5h.4l1.2,2.4h-.4l-.3-.7-1.1.1-.2.8Zm.6-1.1.9-.1-.3-.7a1.69,1.69,0,0,1-.2-.5.9.9,0,0,1-.1.5Zm3,.8-.3-2.4,1.7-.2v.3l-1.4.2.1.8,1.2-.1v.3l-1.2.1.1,1.1Zm1.9-1.4a1.16,1.16,0,0,1,.2-1,1.37,1.37,0,0,1,.8-.5,1.27,1.27,0,0,1,.6.1,1,1,0,0,1,.5.4l.3.6a1.7,1.7,0,0,1-.1.7,1,1,0,0,1-.4.5,1.42,1.42,0,0,1-.6.2,1.7,1.7,0,0,1-.7-.1,1,1,0,0,1-.5-.4,4.33,4.33,0,0,1-.1-.5Zm.3-.1a1.49,1.49,0,0,0,.3.7.73.73,0,0,0,.6.2c.3,0,.4-.2.6-.3a1,1,0,0,0,.1-.8.76.76,0,0,0-.2-.5,1.38,1.38,0,0,0-.4-.3.75.75,0,0,0-.5-.1.86.86,0,0,0-.6.3,2,2,0,0,1,.1.8Zm2.7.9-.5-2.4,1.1-.2h.5c.1,0,.2.1.3.2s.2.2.2.3a.9.9,0,0,1-.1.5,2.19,2.19,0,0,1-.5.3.35.35,0,0,1,.2.1l.3.3.6.6-.4.1-.4-.4-.3-.3c-.1-.1-.1-.1-.2-.1h-.4l-.4.1.2,1.1Zm.1-1.4.7-.1a.44.44,0,0,0,.3-.1c.1,0,.1-.1.2-.2v-.2c0-.1-.1-.2-.2-.3s-.2-.1-.4,0l-.8.1Zm4-.3h.3a1.45,1.45,0,0,1-.2.7.6.6,0,0,1-.6.3.85.85,0,0,1-.7,0,1.76,1.76,0,0,1-.5-.4l-.3-.6a1.2,1.2,0,0,1,.3-1.2,3.33,3.33,0,0,1,.6-.3,1.63,1.63,0,0,1,.7,0,1.76,1.76,0,0,1,.5.4l-.3.1q-.15-.3-.3-.3a.3.3,0,0,0-.4,0c-.2,0-.3.1-.5.2a.76.76,0,0,0-.2.4v.5a.76.76,0,0,0,.2.5,1.38,1.38,0,0,0,.4.3c.1,0,.3.1.4,0s.3-.1.4-.3c.2.1.2-.1.2-.3Zm1,.7-.7-2.4,1.8-.5.1.3-1.5.4.2.7,1.4-.4.1.3-1.4.4.2.8,1.5-.4.1.3Z"/></g></g></svg>