<svg xmlns="http://www.w3.org/2000/svg" viewBox="0 0 512 298.7"><defs><style>.cls-1{fill:#010101;}.cls-2{fill:#fff;}.cls-3{fill:#317368;}.cls-4{fill:#f5e128;}.cls-5{fill:#c01f3f;}</style></defs><g id="Layer_2" data-name="Layer 2"><g id="Layer_1-2" data-name="Layer 1"><rect class="cls-1" width="512" height="298.7"/><rect class="cls-2" width="512" height="102.7"/><rect class="cls-3" width="512" height="93.3"/><rect class="cls-2" y="195.9" width="512" height="102.8"/><rect class="cls-4" y="205.3" width="512" height="93.3"/><polygon class="cls-5" points="0 0 0 298.7 196 149.3 0 0"/><polygon class="cls-4" points="101.7 205.3 65.3 178.6 28.9 205.3 43 162.4 6.4 136.1 51.6 136.3 65.3 93.3 79.1 136.3 124.2 136.1 87.6 162.5 101.7 205.3"/><path class="cls-2" d="M33.7,175.4H59.9c2.1,2.4,6.8,3.3,11.3,0,8.2-4.5,24.1,0,24.1,0l3.1-3.3L90.8,147l-2.7-2.9s-5.9-3.5-17-2.4-15.1-.4-15.1-.4-9.8,1.2-12.5,2.5l-3.1,3.1Z"/><path class="cls-1" d="M65.2,177.9h0a7.16,7.16,0,0,1-5.5-2.3l-26,.1,6.4-28.8,3.2-3.3c2.8-1.4,12.3-2.6,12.7-2.6.2,0,4.2,1.5,15.1.4,11.2-1.2,17,2.3,17.2,2.4l2.8,3L98.8,172l-3.2,3.6c-.3.2-7.4-1.9-14.5-1.9-4.1,0-7.4.7-9.7,2a10.66,10.66,0,0,1-6.2,2.2Zm-5.3-2.8a7.32,7.32,0,0,0,5.3,2.2h0a9.9,9.9,0,0,0,5.9-2.1c2.5-1.4,5.9-2.1,10.1-2.1a61.48,61.48,0,0,1,14.3,2l2.8-3.2-7.7-24.8-2.7-2.8h0S82,140.9,71.1,142c-11.2,1.2-15.1-.3-15.2-.4.1,0-9.6,1.2-12.3,2.5l-3,3.1L34,175.5l25.9-.4Z"/><path class="cls-1" d="M65,177.9a9.31,9.31,0,0,1-5.5-2c.5-1,2.3-2.9,5.8-4.6-10-3.9-26.1-2-26.3-2s-.3-.1-.3-.3a.27.27,0,0,1,.3-.3c.8-.1,16.9-2,26.9,2.3,4.9-2.3,12.9-4.1,24.3-2.5a.32.32,0,0,1,.3.3c0,.2-.2.3-.4.3-11.3-1.5-18.8.2-23.5,2.3a14.06,14.06,0,0,1,5,3.9c-2.4,1.7-4.5,2.6-6.6,2.6Zm1.1-6.4a18.32,18.32,0,0,0-6,4.2c3.5,2.2,7,2.2,11.1-.6a14.69,14.69,0,0,0-5.1-3.6Z"/><polygon class="cls-1" points="65.9 171.5 65.6 143.9 66.1 143.9 65.9 171.5"/><polygon class="cls-1" points="93.1 166.2 87.9 144.3 88.4 144.2 93.1 166.2"/><path class="cls-1" d="M41.2,155.6c-.1,0-.1-.1,0,0-.2,0-.3-.2-.3-.4l2.6-11.3c0-.2.2-.3.4-.2s.3.2.2.4l-2.6,11.2q-.15.3-.3.3Z"/><path class="cls-1" d="M16.7,178.4l6.2,7.2a1.81,1.81,0,0,0,2,0l9.1-11,3.8-4.7a2.78,2.78,0,0,0,.7-2.2l7.3-6.5c.6,0,1,.1,1.6.1-.7-.2-1.2-.5-.7-1.3l1.6-1.3,1.3,1.6a21.18,21.18,0,0,1-2,2.4h-2l-3.8,3.5,1.7,1.5,2.5,6.9,3.1-2.2-2-7.1,4.4-4.7L49.9,158l1.1-1.5s15.2,9.6,21,7c.2.1.4-6.8.4-6.8s-15.7-1.6-16.1-4.8,3.5-3.5,3.5-3.5L58.2,146l.4-1.3,2.7,3.5,6.2-5.3,36.6,41.7c2-.8,2.4-1.3,2.6-3.3-.1,0-35.8-41.1-35.8-41.1l2.7-2.9a2.27,2.27,0,0,0,.7-1.8l4.2-3.7a4.62,4.62,0,0,1,2.7,2.2l11.6-9.8a2,2,0,0,0,1.9.3l19.1-18.3L93,120.9l-.7-.5c0-.6.8-.8,0-1.8s-2,.9-2.2.9-3-1-3.6-2.3l-.2,3.4L81,125.5l-4-.2L71.2,131l-.7,2.2.9,1.8a34,34,0,0,1-3.1,2.5c0-.2-.6-.8-.7-.9l2.4-2.3.4-1.6-.9-1.4c-.3.2-3.7,3.8-3.9,3.4s-9.9-11.2-9.9-11.2l.5-2L50,114.7c-2.3-.8-5.9-.9-6.6,4-.6,1.2-5.3.2-5.3.2l-2.6.6L21.1,140l8,9.7,16.5-20.8.5-5.9,3.5,3.9a4.72,4.72,0,0,0,3.3-.4l9.7,10.9L61,139c.5.6.9,1,1.5,1.6.6-.4,1.1-.8,1.6-1.2a7.05,7.05,0,0,0,.7.9c-.8.4-1.4,1-2.2,1.5-1.3-.9-2.6-1.9-2.5-3.6l-5.5,4.6-.2.9L38.1,157.2l-1.5.2-.4,4.2,10.6-8.8v-1.3l1.1.9,8.2-6.6s.5.7.4.7-7.3,6.6-7.3,6.6l-.2.7-1.3,1.1-.7-.5-9.9,8.8H35.6l-5.5,5.5a7.3,7.3,0,0,0-3.8,1.1Z"/><path class="cls-1" d="M23.9,186.3a1.92,1.92,0,0,1-1.2-.4l-6.2-7.3,9.9-9.1a8.12,8.12,0,0,1,4-1.2l5.3-5.4,1.7-.1,9.7-8.7,1.1.5,1-1.7c5.5-5.2,7-6.4,7.4-6.7h0c-.2,0-.3-.2-.4-.3l-7.8,6.6-1.5-.9.5,1-10.7,9-.1-4.5,1.7-.5,16-13.3.1-.7,5.6-4.7a5.79,5.79,0,0,0,2.8,3.6,2.31,2.31,0,0,1,.7-.7l1.1-.8-.5-.1-1.5.8L60.7,139l1.6-2-9.8-10.4c-.4.6-1.8.6-3.1.5l-3.6-4,.1,5.7-16.5,21-8.5-9.7,14.5-20.8,2.8-.7a23.78,23.78,0,0,0,3.5.4c1.3,0,1.6-.3,1.6-.4.8-5.8,5.3-4.7,7-4.2l6.3,6.9-.5,2.3h0c.2,0,9.5,10.5,9.8,10.9.1-.2,1.9-1.9,2.6-2.7l.8-.8.9,1,.4-1.1,5.9-5.8,4.3.1,5.1-4.9.1-3.2a14.47,14.47,0,0,0,4,2c.4-.6,1-1.2,1.6-1.2a3,3,0,0,1,.8.4,1.4,1.4,0,0,1,.2,1.7l.5.6,20.5-14.7a.25.25,0,0,1,.4.1.3.3,0,0,1,0,.4L94.9,124.7a1.9,1.9,0,0,1-2.3-.3l-11.2,9.9a8.24,8.24,0,0,0-3-2.1l-3.9,3.6c.1.8-.1,1.1-.7,1.8l-2.7,2.9h0c.4,0,35.5,40.4,35.8,40.7-.1,2.4-.6,3-2.7,3.8L67.3,143.2l-5.8,5.3L58.3,145l.2,1.2,1.5,2.1c-.2.5-2.1.7-2.9,1.8a2.27,2.27,0,0,0-.5,1.8c.2,2.1,9.8,3.9,15.8,4.5.1,7.4,0,7.4-.4,7.4a5.46,5.46,0,0,1-2.4.4c-6.8,0-18.3-7.2-18.8-7.5l-.7,1.4,1.7,2.2-4.4,5.1,2.1,6.8-3.2,2.5-3-7.1-1.6-1.4,3.8-3.9,2.2-.1c.1-.1,1-1.2,1.8-2.2l-1.3-1.3L47,160.3c-.1.5,0,.6.6.8.2,0,.3.2.2.3s-.2.2-.3.3l-1.6-.1L38.8,168a2.52,2.52,0,0,1-.7,2.2l-13,15.7a2.38,2.38,0,0,1-1.2.4ZM47,154.6l-9.5,8.8-1.7.1-5.3,5.4a8.56,8.56,0,0,0-3.9,1.1l-9.8,8.7,6.2,6.8a1.56,1.56,0,0,0,1.6-.1l12.9-15.7a3,3,0,0,0,.7-2l7.4-6.8h.6v-.1a1.23,1.23,0,0,1,.2-1l1.7-1.3,1.7,1.7c-1.9,2.9-2.1,2.9-2.3,2.9h-2l-3.6,3.4,1.7,1,2.6,7.1,2.6-2.3-2.1-6.8,4.5-5-1.7-2.2,1.1-1.8h0c.5,0,12.2,7.3,18.9,7.3a5.27,5.27,0,0,0,2.3-.4c0-.2.1-4.1.2-6.5-1.3.2-15.7-1.4-16.1-4.7a3,3,0,0,1,.6-2.3,5.23,5.23,0,0,1,3.1-1.5l-1.9-1.9L58,145l3.3,3.4,5.8-5.3,37,41.7c1.6-.9,1.9-1.3,2-3.1-.2-.1-2.9-3.2-35.8-40.9l2.8-3.3a1.91,1.91,0,0,0,.6-1.6L78,132a5.34,5.34,0,0,1,3.2,2.2l11.1-9.9a4.41,4.41,0,0,0,1.4.3L110,109.2,92.8,121.4l-1.1-.5a1.41,1.41,0,0,1,.1-.9c.1-.3.2-.4-.1-1a1.33,1.33,0,0,0-1.4.7c-.1.1-.4.4-.5.4-.3,0-3.2-1.1-3.9-2.4l.4,3.2-5.4,5.2-4.2-.1-5.6,5.6-.6,2.1.8,1.5c-3.1,3-3.2,3-3.4,3a3.78,3.78,0,0,1-.7-.8c0-.1-.3-.6-.2-.7l2.7-2.4.1-.9-.6-1.5c-.1.1-.2.3-.4.5-2.2,2.2-2.9,2.8-3.3,2.8-.6-.5-10.2-11.3-10.2-11.3l.5-2.3-6.1-6.5a8.48,8.48,0,0,0-2-.3c-2.2,0-3.6,1.4-4,4.2-.3.6-1,.8-2.2.8a23.78,23.78,0,0,1-3.5-.4l-2.4.6L21.3,140.3l8,9.3,16-20.8.4-5.7,4,3.7h1a3.81,3.81,0,0,0,1.9-.4l10.1,10.9-1.6,2,.7.4.7.8.4-.6.8-.6c.1-.1.6.4.7.5l.4.5a4.46,4.46,0,0,1-1.2,1.2l-1.1.8c-1.7-.9-3-2-2.9-3.9l-5,4.8-.1.7L38.1,157.6l-1.6.2-.1,3.9,10.1-9-.1-1,1.6.7,7.8-6.6c1,.8.9,1,.9,1.1-.5.4-4.7,4.2-7.4,6.7l-.1.6-1.4,1.3-.8-.9ZM70.4,134l-.1.3-2.8,2.6c.5.2.7.4.7.6,0-.5,1.4-1.6,2.6-2.7l-.4-.8Z"/></g></g></svg>