<svg xmlns="http://www.w3.org/2000/svg" viewBox="0 0 512 298.7"><defs><style>.cls-1{fill:#fff;}.cls-2{fill:#e63833;}.cls-3{fill:#42a047;}</style></defs><g id="Layer_2" data-name="Layer 2"><g id="Layer_1-2" data-name="Layer 1"><rect class="cls-1" width="512" height="298.7"/><rect class="cls-2" y="224" width="512" height="74.7"/><rect class="cls-2" width="512" height="74.7"/><path class="cls-3" d="M254,74.6l-2.4,4.1a31.59,31.59,0,0,1-7.2,7.5,46.78,46.78,0,0,0-7.1,6.2L235,95.2l2.4-.6a22.17,22.17,0,0,0,3.9-1.3c.8-.3,1.5-.2,1.5.4v.2c-.3,1.4-4.6,4.7-7.9,6.1s-7.9,4.8-8.5,6.2v.3h0v.1h0a3.68,3.68,0,0,0,2.6,0c2.1-.5,2.9-.2,3.6,1.2,1,2.2.4,3.1-2,3.1-2.9,0-7.1,2.9-7.7,5.4-.4,1.7-2,3-5.4,4.6-5.6,2.6-12.8,7.5-13.3,9v.1c0,2.1,4.7,2,11.6-.4,1.5-.5,2.2,0,3.4,2.6,1.4,3.3,1.4,3.3-1.9,7.6-2.3,3-4.4,4.5-6.6,5-4.4.9-5.8,1.8-11.5,7.6-2.7,2.7-5.5,5-6.1,5a.75.75,0,0,0-.5.1h0v.1h0a9.1,9.1,0,0,0,5.2,2.5c1.3,0,4.3-1.4,6.8-3.2,4.3-3.1,4.5-3.1,6.3-1.4a6.93,6.93,0,0,1,1.8,4.3c0,2-1.1,3-6.8,5.9a54.29,54.29,0,0,0-13,9.7c-5.2,5.2-6.6,6.1-8.8,5.8a8.35,8.35,0,0,0-2.4-.2h0v.1c0,.3.5.8,1.3,1.7a6.1,6.1,0,0,0,4.1,1.6c4,0,16.5-4.7,20.4-7.6,3.6-2.7,7.1-3.2,10-1.5,4.5,2.6-3,7.9-17.1,12.1-5.2,1.5-9.7,3-10.2,3.4h0c-.2.3.1,1.2.7,2,1.5,1.9,8.9,2,15.2.2,2.5-.8,8.8-3.3,14-5.6,9.4-4.3,9.4-4.2,12.7-2.5,7.6,4,6.9,10.9-2.2,22.4-4,5-7.5,7.2-13.9,8.8-2.4.6-7.3,5.2-7.3,6.8,0,.2,0,.3.1.4h1.6a5.7,5.7,0,0,0,1.1-1.1c2-2.7,6.1-4.5,10.2-4.5,4.5,0,10-2.5,14.1-6.3,3.6-3.4,7.3-4.4,10-2.8a4.87,4.87,0,0,0,4.7.3c3.3-1.2,4.9-.6,4.9,1.8,0,1.1,1.2,2.6,2.7,3.5a43.39,43.39,0,0,1,6,4.7c1.3,1.3,2.3,1.9,2.8,1.9h.3v-.2a8.3,8.3,0,0,0-1.4-3.4,4.14,4.14,0,0,1-.8-2.4v-.1h0v-.1h0a30.2,30.2,0,0,1,6.9.3c5.8.7,6.5,1,10,5a13.94,13.94,0,0,0,4.2,3.7h2.3c.5-.2.9-.5.9-.9h0v-.1h0c-.2-.7-3.7-4-7.8-7.4-9.4-7.9-10.9-10.7-10.9-21.6,0-6.5.3-8.2,1.8-9.9,2.4-2.6,3.7-2.6,9.5.5,4.4,2.3,5.8,2.5,15.8,2.3,10.7-.2,11.1-.2,16.5,3,3,1.8,6.7,4.2,8.2,5.3,3.3,2.5,6.7,2.7,7.5.4.9-2.7-5.4-8-17.3-14.4s-13.1-8.1-7.7-11c3.1-1.6,3.3-1.6,8.3,1.1,4,2.2,5.8,2.7,8.3,2.2l3.2-.7-7.1-5.8c-3.9-3.2-7.7-6.6-8.4-7.6a13,13,0,0,0-10.1-4.7,8.46,8.46,0,0,1-4.1-.8v-.1h0c-1.1-2,2.2-2.9,11.6-3.3,12.6-.5,14.4-2,5.6-4.8-3.5-1.1-8.7-2.5-11.6-3.2-3.5-.8-5.5-1.6-6-2.5a.37.37,0,0,1-.1-.3V139a1.37,1.37,0,0,1,.6-1c.6-.7,3.4-.6,8.2.2,5.4.9,8.4,1.1,8.9.5s-1.9-2.5-7.4-5.6A82.94,82.94,0,0,1,291.3,123a43.68,43.68,0,0,0-9.4-7.1c-3.1-1.4-4-2.4-3.7-3.6.7-2,5.5-2,8.6,0,1.3.8,4.6,1.4,7.3,1.4h5l-3.3-1.4c-3.3-1.4-12.4-7.8-13.1-9.3v-.1h0c.4-.3,2.5-.4,5-.3l5,.3-7.3-5.6c-5.3-4.1-8.6-5.9-12.4-6.7-2.8-.6-6-1.3-7.2-1.6-3-.7-8.1-6-10.1-10.6ZM237.4,103h.4a2.4,2.4,0,0,1,1.9.6h0c0,.1.1.1.1.2v.5a7.84,7.84,0,0,1-2.4,2.6c-.8.6-1.3,1-1.6.9h-.1v-.1c-.2-.2-.2-.9-.2-2-.1-2.1.2-2.7,1.9-2.7m24.5,2.5h0c1.5,0,2.5.7,2.6,1.8.2,1.4-.3,1.8-2.6,1.8-1.3,0-2-.1-2.4-.5s-.3-.7-.2-1.3a2.46,2.46,0,0,1,2.6-1.8m-7.2.6c1.2-.1,1.7.6,1.7,2.2,0,1.9-.7,2.5-4.1,3.4a11.59,11.59,0,0,1-4.6.6h0c-1.2-1.3-.1-3,2.8-4.5a11.94,11.94,0,0,1,4.2-1.7m16.6,0c1.8-.1,2.1.8,1.2,3.4a3,3,0,0,1-2.8,1.6c-1.8,0-2.2-.4-2-2.3.2-1.6,1-2.4,2.8-2.6a2.2,2.2,0,0,1,.8-.1m-27.9,5h.2c2.2,0,.8,4.2-2,6.1-2.5,1.7-5.2,2.4-6,1.8h0a.35.35,0,0,1-.1-.2h0v-.1h0v-.2h0c-.1-2.4,5.3-7.2,7.9-7.4m20.8,9.6c1-.1,1.7,1,1.3,3.1a2.94,2.94,0,0,1-2.8,2.2c-1.2.2-2,.1-2.2-.2h0v-.1h0v-.1c-.1-.6.4-1.6,1.7-3.3a3,3,0,0,1,2-1.6m-8.3.5h.1c2.1,0,2.5,1.9.5,3a7.18,7.18,0,0,1-2,.9h0c-.2-.1-1.3-.4-2.6-.9l-2.3-.8,2.6-1.2a13.77,13.77,0,0,1,3.7-1m17.8,2.3a5.75,5.75,0,0,1,3.1.6c1.9.8,2.3,1.5,1.9,3.6-.5,2.8-2.1,3.2-7.4,1.5-2.6-.8-2.9-1.2-2-3a5.14,5.14,0,0,1,4.4-2.7m-39.4.7h.2c3.9,0,4.4.7,2.5,3.1a17.71,17.71,0,0,1-2.7,2.8c-1.3,1.1-1.7,1-2.5-.7-1-2-1.3-3.4-.8-4.2s1.5-1,3.3-1m-10.2,1.7c1.6,0,2.7.7,4,3l1.9,3.2-2.8,1.1c-2.5,1-3,.8-5-2.2-1.3-1.9-1.8-3.1-1.5-3.9a.35.35,0,0,1,.1-.2l.1-.1v-.1c.5-.5,1.4-.7,2.9-.9a.37.37,0,0,0,.3.1m60.9,9.6a2.92,2.92,0,0,1,3.4,3.2c-.3,2.6-3.2,3.4-5.6,1.5-1.4-1.1-1.5-1.6-.4-3.2a3.14,3.14,0,0,1,2.6-1.5m-34.6,4.9h.2c.2,0,.3,0,.4.1a.35.35,0,0,1,.2.1l.1.1h0a2.46,2.46,0,0,1,.3,1.8c-.4,2.7-2.2,3.5-2.9,1.3-.6-1.9.1-3.3,1.7-3.4m-11.5,2.1a4.76,4.76,0,0,1,3.3,1.5,2.59,2.59,0,0,1,1.2,1.9v.4a.1.1,0,0,1-.1.1h0l-.1.1h0c-.5.4-1.7.3-2.9-.7a5.52,5.52,0,0,1-2-2.4h0c-.2-.5.1-.8.6-.9m18.3.4c.4,0,.7.3,1.4,1a10.23,10.23,0,0,1,2,3.7c.8,2.8-.5,4-3,2.7-2.7-1.4-3.3-3.5-1.8-6,.7-.9,1.1-1.4,1.4-1.4m6.5,3.8c.7-.1,1.6.9,1.8,2.6.1,1,0,1.9-.3,2.1h0c-1.3,0-2.1-1.2-2.1-3.3-.2-.8.1-1.3.6-1.4m-40.3,4a27.69,27.69,0,0,1,3.3.2,4.48,4.48,0,0,1,2.5,1.1c.1.1.2.2.2.3v.5c-.2.8-1.3,1.8-3.4,2.9a25.87,25.87,0,0,1-6.6,2.3c-3.1.6-3.5.4-4.8-2.4a16.65,16.65,0,0,1-1.4-3.5h0c.8-.7,6.2-1.3,10.2-1.4m62.4,9.1c3.6-.2,5.6,2.3,1.6,5.3a7.06,7.06,0,0,1-8.5.2c-1.7-1.3-1.6-1.5,1.4-3.6a12.48,12.48,0,0,1,5.5-1.9m13.2,2.9h.2a5.78,5.78,0,0,1,2.7,1.4c1.8,1.4,1.7,1.5-.4,4.1-1.1,1.3-2.3,2.4-2.7,2.4h0c-.3-.1-1.9-.3-3.5-.6-1.8-.3-3-1-3-1.9V168c.3-1.5,4.8-5.1,6.7-5.3m-66.2,4h.6c2.5,0,3.9,2,3.9,5.8,0,5-3.1,4.6-4.5-.6-1.3-4.5-1.4-5.1,0-5.2m18.9,1.5c1.5,0,5.1.8,5.6,1.4h0a12.25,12.25,0,0,1-2.2,3.5l-2.2,2.9-1.1-3.7a12.52,12.52,0,0,1-.8-4h0a2,2,0,0,1,.7-.1m-9.2,1.6a7.17,7.17,0,0,1,1.3.1,3.16,3.16,0,0,1,2.5,2.2,3.87,3.87,0,0,1-.2,2.6l-.1.1-.1.1h0c-.1,0-.1.1-.2.1h-.3c-.6-.1-1.4-.8-2.1-2.3-.8-1.7-1.2-2.5-1-2.8a.1.1,0,0,1,.1-.1c-.1.1,0,0,.1,0"/></g></g></svg>