<svg xmlns="http://www.w3.org/2000/svg" viewBox="0 0 512 298.7"><defs><style>.cls-1{fill:#fff;}.cls-2{fill:#2e6934;}</style></defs><g id="Layer_2" data-name="Layer 2"><g id="Layer_1-2" data-name="Layer 1"><rect class="cls-1" width="512" height="298.7"/><rect class="cls-2" x="128" width="384" height="298.7"/><path class="cls-1" d="M311.9,59.7a89.6,89.6,0,1,1-89.4,89.6,89.47,89.47,0,0,1,89.4-89.6"/><path class="cls-2" d="M280.3,67.5a82.07,82.07,0,1,1-6.8,116,81.86,81.86,0,0,1,6.8-116"/><polygon class="cls-1" points="378.8 89.8 351.5 101.7 357.4 115.4 378.8 89.8"/><polygon class="cls-1" points="378.8 89.8 363.7 115.5 350.9 108 378.8 89.8"/><polygon class="cls-1" points="382.2 124.7 362.4 102.4 351.3 112.3 382.2 124.7"/><polygon class="cls-1" points="382.2 124.7 353.1 118.3 356.3 103.7 382.2 124.7"/><polygon class="cls-1" points="344.6 82.2 347.5 112 362.3 110.5 344.6 82.2"/><polygon class="cls-1" points="344.6 82.2 364.4 104.6 353.2 114.5 344.6 82.2"/><polygon class="cls-1" points="350.1 138.8 365.2 113 352.3 105.5 350.1 138.8"/><polygon class="cls-1" points="350.1 138.8 347.2 109.1 362 107.6 350.1 138.8"/><polygon class="cls-1" points="326.8 112.5 355.9 118.9 359.1 104.4 326.8 112.5"/><polygon class="cls-1" points="326.8 112.5 354.1 100.6 360.1 114.3 326.8 112.5"/></g></g></svg>