<svg xmlns="http://www.w3.org/2000/svg" viewBox="0 0 512 298.7"><defs><style>.cls-1{fill:#fff;}.cls-2{fill:#303e99;}.cls-3{fill:#bd1f34;}.cls-4{fill:#010101;}.cls-5{fill:#2e6a34;}.cls-6{fill:#4662ad;}.cls-7{fill:#f6cd2a;}.cls-8{fill:#f8e625;}</style></defs><g id="Layer_2" data-name="Layer 2"><g id="Layer_1-2" data-name="Layer 1"><rect class="cls-1" y="99.5" width="512" height="99.6"/><rect class="cls-2" y="199.1" width="512" height="99.6"/><rect class="cls-3" width="512" height="99.6"/><path class="cls-1" d="M293.9,149.3A37.9,37.9,0,1,1,256,111.4a37.88,37.88,0,0,1,37.9,37.9Z"/><path class="cls-4" d="M256,187.9a38.6,38.6,0,1,1,38.6-38.6A38.62,38.62,0,0,1,256,187.9Zm0-75.9a37.3,37.3,0,1,0,37.3,37.3A37.3,37.3,0,0,0,256,112Z"/><path class="cls-3" d="M256,116.8a32.5,32.5,0,1,0,32.5,32.5A32.56,32.56,0,0,0,256,116.8Zm0,56.9a24.4,24.4,0,1,1,24.4-24.4A24.37,24.37,0,0,1,256,173.7Z"/><path class="cls-4" d="M256,181.9a32.6,32.6,0,1,1,32.6-32.6A32.61,32.61,0,0,1,256,181.9Zm0-65.1a32.5,32.5,0,1,0,32.5,32.5A32.56,32.56,0,0,0,256,116.8Zm0,56.9a24.4,24.4,0,1,1,24.4-24.4A24.43,24.43,0,0,1,256,173.7Zm0-48.8a24.4,24.4,0,1,0,24.4,24.4A24.43,24.43,0,0,0,256,124.9Z"/><path class="cls-5" d="M261.1,131.6s14.6,6.3,12.1,19.3-10.7,12.9-13.9,14.4-5.4,3.5-6.7,3.2a11.86,11.86,0,0,1-2.9-1.3,2.52,2.52,0,0,0,2.4,2.5c2.6.4,5.9-3.4,7.6-3.8s11.6-1.5,14-14.7c2.8-14.1-12.5-19.2-12.6-19.6Z"/><path class="cls-4" d="M252.5,169.8h-.4a2.57,2.57,0,0,1-2.5-2.6h0a19.17,19.17,0,0,0,3,1.2,7,7,0,0,0,3.2-1.3,34.49,34.49,0,0,1,3.4-1.9c.5-.2,1.2-.4,2-.7,3.9-1.1,9.8-2.9,11.9-13.7,2-10.1-6.4-16.1-10.1-18.3l-1.2-.6c-.6-.3-.8-.4-.8-.5a7.22,7.22,0,0,1,2,1v.1c8.5,4.4,12.2,10.8,10.7,18.6q-2.25,12.3-13.5,14.7a9.44,9.44,0,0,0-2.8,1.5c-1.6,1.2-3.3,2.5-4.9,2.5Zm-2.8-2.6a2.61,2.61,0,0,0,2.5,2.5h.4c1.5,0,3.3-1.3,4.8-2.4a6.92,6.92,0,0,1,2.4-1.4c7.9-1.7,12.5-6.6,13.9-14.7,1.5-7.8-2.1-14.2-10.6-18.6,3.7,2.1,12.2,8.2,10.2,18.3-2.1,10.8-8,12.6-11.9,13.7a9.33,9.33,0,0,0-2,.7,34.49,34.49,0,0,0-3.4,1.9,7.54,7.54,0,0,1-3,1.4,11,11,0,0,1-3.3-1.4Z"/><path class="cls-5" d="M268.5,134.3c.3,1.1.3,2,0,2s-.7-.8-1-1.9-.3-2,0-2,.7.9,1,1.9Z"/><path class="cls-4" d="M268.5,136.4c-.3,0-.8-1-1-1.9a3.5,3.5,0,0,1-.1-2h.1a3,3,0,0,0,0,1.9,4.71,4.71,0,0,0,1,2h0l.1-.1c.2-.2.1-1-.1-1.9a3.78,3.78,0,0,0-.8-1.8,3.36,3.36,0,0,1,.8,1.8,3.5,3.5,0,0,1,.1,2Z"/><path class="cls-5" d="M268,134.5c.5,1,.7,1.9.5,2s-.8-.7-1.3-1.7-.7-1.9-.5-2,.8.7,1.3,1.7Z"/><path class="cls-4" d="M268.4,136.5c-.3,0-.9-.9-1.3-1.7a4.49,4.49,0,0,1-.6-2h.1a2.87,2.87,0,0,0,.5,1.9c.6,1.1,1.1,1.8,1.3,1.8h0c.2-.4-.1-1.2-.5-2a11.91,11.91,0,0,0-1-1.6,3.66,3.66,0,0,1,1.1,1.5,4.49,4.49,0,0,1,.6,2l-.2.1Z"/><path class="cls-5" d="M266.5,135.4c1,.3,1.9.8,1.8,1s-.9.2-1.9-.1-1.9-.8-1.8-1,.9-.2,1.9.1Z"/><path class="cls-4" d="M267.9,136.7a7.84,7.84,0,0,1-1.4-.2c-.9-.3-1.9-.7-1.9-1.1.2,0,.3-.1.5-.1-.4.4.4.8,1.4,1.1a8.87,8.87,0,0,0,1.4.3h0l.5-.2c0-.2-.7-.7-1.8-1a5.16,5.16,0,0,0-1.1-.2,3.59,3.59,0,0,1,1.1.2c.9.3,1.9.8,1.9,1.1l-.6.1Z"/><path class="cls-5" d="M266.8,134.9c.9.6,1.6,1.3,1.5,1.6s-1-.1-1.9-.7-1.6-1.3-1.5-1.6.9.1,1.9.7Z"/><path class="cls-4" d="M268.1,136.6a4.83,4.83,0,0,1-1.8-.8c-.9-.6-1.7-1.3-1.5-1.6h.2c-.2.2.4.9,1.4,1.6a11.21,11.21,0,0,0,1.7.8h0l.1-.1c.1-.2-.5-.9-1.5-1.5a8,8,0,0,0-1.7-.8,3.43,3.43,0,0,1,1.7.7c.8.6,1.7,1.3,1.5,1.6l-.1.1Z"/><path class="cls-5" d="M267.4,134.7c.8.8,1.3,1.7,1.1,1.8s-1-.3-1.8-1.2-1.3-1.7-1.1-1.8,1,.3,1.8,1.2Z"/><path class="cls-4" d="M268.4,136.6a4,4,0,0,1-1.7-1.2c-.7-.8-1.4-1.7-1.1-1.9s1.1.5,1.8,1.2,1.4,1.7,1.1,1.9Zm-2.7-3.1c-.2.2.2.9,1.1,1.8a4.21,4.21,0,0,0,1.6,1.2h0l.1-.1c.1-.1-.3-.9-1.1-1.8a4.72,4.72,0,0,0-1.7-1.1Z"/><path class="cls-5" d="M268.4,136.5a5.74,5.74,0,0,0-.7.4.78.78,0,0,0-.7,0,1.54,1.54,0,0,0-.7.7c-.1.2.1.3.6.1s.6-.6.8-.7a3,3,0,0,0,.7-.5,8.11,8.11,0,0,0,.6-.8,5.67,5.67,0,0,0,1-1.1c.2-.4.1-.7-.1-.6a1.39,1.39,0,0,0-.7.8c-.1.3,0,.6-.2.9a2.62,2.62,0,0,0-.6.8Z"/><path class="cls-4" d="M266.5,137.9l-.2-.1a1.32,1.32,0,0,1,.7-.9h.6c.2,0,.7-.3.7-.4l.5-.7h0l.2-.9a2.85,2.85,0,0,1,.7-.8l.2.6a1.78,1.78,0,0,1-.7.8l-.5.6c-.1.2-.3.4-.3.5l-.8.4a1.68,1.68,0,0,1-.8.7l-.3.2Z"/><path class="cls-5" d="M272.9,138c0,1.7-.3,2.9-.6,2.8s-.7-1.5-.7-3.2.3-2.9.6-2.8.7,1.5.7,3.2Z"/><path class="cls-4" d="M272.3,140.9h0c-.5-.1-.8-1.7-.8-3.2a5.22,5.22,0,0,1,.5-2.8h.2a4.1,4.1,0,0,0-.5,2.8c-.1,1.8.3,3,.6,3.2h0l.1-.1a4.4,4.4,0,0,0,.4-2.7,8.05,8.05,0,0,0-.4-2.7,6.84,6.84,0,0,1,.5,2.7,5.22,5.22,0,0,1-.5,2.8Z"/><path class="cls-5" d="M272.2,138c.4,1.7.4,3.1,0,3.1s-.9-1.3-1.3-3-.4-3.1,0-3.1.9,1.3,1.3,3Z"/><path class="cls-4" d="M272.2,141.1c-.4,0-1-1.6-1.3-3.1s-.4-2.7-.1-3.1h.1a4.81,4.81,0,0,0,0,3c.4,1.9,1,3.1,1.3,3.2h0l.1-.1a6.08,6.08,0,0,0-.1-3,10.61,10.61,0,0,0-1-2.8,8.51,8.51,0,0,1,1.1,2.8c.3,1.5.4,2.7.1,3.1Z"/><path class="cls-5" d="M269.8,138.7c1.3.9,2.3,1.9,2.2,2.3s-1.3,0-2.6-.9-2.3-1.9-2.2-2.3,1.3,0,2.6.9Z"/><path class="cls-4" d="M271.7,141.2a5.27,5.27,0,0,1-2.4-1.1c-1.4-.9-2.3-1.9-2.2-2.4h.3c-.2.5.6,1.4,2,2.3a8.39,8.39,0,0,0,2.3,1.2h0l.2-.2c.1-.3-.7-1.3-2.2-2.3a18,18,0,0,0-1.8-1,5.07,5.07,0,0,1,1.8.9c1.4.9,2.3,2,2.2,2.4l-.2.2Z"/><path class="cls-5" d="M270.3,138c1.1,1.3,1.8,2.6,1.6,2.9s-1.3-.6-2.4-1.9-1.8-2.6-1.6-2.9,1.3.6,2.4,1.9Z"/><path class="cls-4" d="M271.7,141c-.4,0-1.4-.8-2.3-2s-1.8-2.6-1.6-3c.5-.1,1.5.7,2.5,1.9s1.8,2.6,1.6,3l-.2.1Zm-3.7-4.9c-.3.3.3,1.5,1.5,2.9a5.3,5.3,0,0,0,2.3,1.9h0l.1-.1c.2-.2-.4-1.4-1.6-2.9-1-1-1.9-1.8-2.3-1.8Z"/><path class="cls-5" d="M271.2,137.9c.8,1.6,1.3,3,1,3.1s-1.2-.9-2.1-2.5-1.3-3-1-3.1,1.3,1,2.1,2.5Z"/><path class="cls-4" d="M272.1,141.1c-.4,0-1.2-1.1-2-2.5s-1.3-3-.9-3.2,1.3,1,2.1,2.5,1.3,3,.8,3.2Zm-2.8-5.6c-.3.2,0,1.4.9,3.1s1.7,2.5,2,2.5h0l.1-.1c.2-.1-.1-1.4-1-3.1-.9-1.4-1.7-2.4-2-2.4Z"/><path class="cls-5" d="M272.1,141s-.9.2-1.1.2-.4-.4-.9-.3a1.84,1.84,0,0,0-1.2.8c-.2.3,0,.5.7.3s1-.6,1.3-.7a5,5,0,0,1,1.2-.2l1-1c.3-.3,1.2-.6,1.7-1.1s.4-1,0-.9a3.53,3.53,0,0,0-1.3.8c-.3.3-.2.9-.6,1.2a9.23,9.23,0,0,1-.8.9Z"/><path class="cls-4" d="M269.2,142.1l-.5-.2a.35.35,0,0,1,.1-.2l.4.4.3-.1a3.92,3.92,0,0,0,.9-.4,6.42,6.42,0,0,1,1.6-.5,2.31,2.31,0,0,1,.7-.7,2,2,0,0,1,.9-.6,3.13,3.13,0,0,0,1.1-.8c.2-.2.2-.4.3-.5a1.42,1.42,0,0,1-.2.6,3.17,3.17,0,0,1-1.2.8,2.19,2.19,0,0,0-.5.3,4.32,4.32,0,0,0-1,1,5,5,0,0,0-1.2.2,4.21,4.21,0,0,1-1.3.7Zm-.3-.4a1.64,1.64,0,0,1,1.1-.7l.8.2a4.51,4.51,0,0,0,1.3-.1l.9-.9c.2-.1.2-.4.3-.6s.1-.4.3-.6a3.53,3.53,0,0,1,1.3-.8l.2.2a2.1,2.1,0,0,0-1.4.7l-.3.6c-.1.2-.1.5-.3.6l-.9.9s-1,.2-1.1.2l-.8-.3a1.55,1.55,0,0,0-1.4.6Z"/><path class="cls-5" d="M275.3,144.1c-.3,1.6-.8,2.8-1.1,2.7s-.4-1.6-.1-3.3.8-2.8,1.1-2.7.4,1.6.1,3.3Z"/><path class="cls-4" d="M274.2,146.8h0c-.5-.2-.5-1.8-.2-3.3s.7-2.7,1.1-2.7c.5.2.5,1.8.2,3.3s-.7,2.7-1.1,2.7Zm1-6c-.3,0-.8,1-1.1,2.7s-.2,3.1.1,3.2h0c.3,0,.8-1,1-2.7s.3-3,0-3.2Z"/><path class="cls-5" d="M274.6,143.9c0,1.7-.2,3.1-.6,3.1s-.7-1.5-.7-3.2.2-3.1.6-3.1.6,1.4.7,3.2Z"/><path class="cls-4" d="M274,147h0c-.5-.1-.7-1.7-.8-3.3a6.25,6.25,0,0,1,.4-3h.1c-.4.4-.5,1.6-.5,3,.2,1.9.5,3.2.8,3.3l.1-.1a9.88,9.88,0,0,0-.1-5.9,7.56,7.56,0,0,1,.5,2.9,6.25,6.25,0,0,1-.4,3l-.1.1Z"/><path class="cls-5" d="M272.2,144.2c1.1,1.1,1.9,2.4,1.7,2.7s-1.3-.3-2.4-1.4-1.9-2.4-1.7-2.7,1.2.2,2.4,1.4Z"/><path class="cls-4" d="M273.7,147a4.87,4.87,0,0,1-2.2-1.5c-1.2-1.2-1.9-2.4-1.7-2.8h.2c-.3.4.4,1.5,1.6,2.7a5.67,5.67,0,0,0,2.1,1.6h0l.2-.2c.2-.3-.5-1.4-1.7-2.7a8,8,0,0,0-1.8-1.4,5.4,5.4,0,0,1,1.9,1.4c1.2,1.2,1.9,2.4,1.7,2.8l-.3.1Z"/><path class="cls-5" d="M272.7,143.6c.8,1.5,1.3,2.9,1,3.2s-1.2-.8-2-2.3-1.3-2.9-1-3.2,1.2.8,2,2.3Z"/><path class="cls-4" d="M273.6,146.8c-.4,0-1.2-1-2-2.4s-1.3-2.9-1-3.2c.6,0,1.3,1,2.1,2.4s1.3,2.9,1,3.2Zm-2.8-5.6c-.3.2,0,1.5.9,3.1.7,1.3,1.6,2.4,1.9,2.4h0l.1-.1c.2-.2-.1-1.5-1-3.1-.7-1.2-1.5-2.3-1.9-2.3Z"/><path class="cls-5" d="M273.7,143.7c.5,1.7.7,3.2.4,3.3s-1-1.2-1.6-2.8-.7-3.2-.4-3.3,1,1.1,1.6,2.8Z"/><path class="cls-4" d="M274,147c-.4,0-1.1-1.5-1.6-2.9s-.8-3.2-.3-3.3h0c.4,0,1.1,1.2,1.6,2.9.5,1.5.8,3.1.3,3.3Zm-1.8-6.1c-.3.1-.2,1.4.4,3.2s1.2,2.8,1.5,2.8h0c.3-.1.2-1.4-.4-3.2s-1.3-2.8-1.5-2.8Z"/><path class="cls-5" d="M273.9,146.9h-1.1c-.2,0-.3-.5-.9-.5a2,2,0,0,0-1.3.5c-.2.2,0,.5.7.5s1-.4,1.4-.4h1.2a12.49,12.49,0,0,1,1.2-.8,8.7,8.7,0,0,0,1.9-.8c.5-.4.6-.9.2-.9a2.85,2.85,0,0,0-1.4.6c-.4.3-.4.8-.8,1.1a9,9,0,0,1-1.1.7Z"/><path class="cls-4" d="M272.7,147.1l.6-.1h-.5c-.3-.3-.5-.5-.9-.5h0a2.14,2.14,0,0,0-1.2.4,1.51,1.51,0,0,1,1.9-.1l.7.1a1.42,1.42,0,0,0,1.1-.4c.7-.4.8-.6.9-.8a2.09,2.09,0,0,1,.4-.6,2.85,2.85,0,0,1,1.4-.6c.1.1.1.1.1.2a1.84,1.84,0,0,0-1.5.5,1,1,0,0,0-.4.5,2.09,2.09,0,0,1-.4.6l-.5.3a.31.31,0,0,1-.2.1c.1-.1.3-.1.4-.2a3.1,3.1,0,0,1,1.1-.5,3.79,3.79,0,0,0,1.3-.6c.2-.2.3-.4.4-.5a.86.86,0,0,1-.3.6,3.1,3.1,0,0,1-1.3.6c-.3.1-.5.1-.6.2a11.14,11.14,0,0,1-1.2.8Z"/><path class="cls-5" d="M275.5,150.8c-.9,1.4-1.8,2.3-2.1,2s.3-1.7,1.2-3.1,1.8-2.3,2.1-2-.3,1.7-1.2,3.1Z"/><path class="cls-4" d="M273.5,152.9l-.2-.1c-.3-.3.4-1.9,1.2-3.1s1.6-2.1,2-2.1l.1.1a4.51,4.51,0,0,0-2,2c-.9,1.5-1.4,2.8-1.2,3l.1.2a5.61,5.61,0,0,0,1.9-2.1,7.81,7.81,0,0,0,1.2-2.7,7.87,7.87,0,0,1-1.1,2.8c-.8,1.2-1.6,2-2,2Z"/><path class="cls-5" d="M274.9,150.4c-.6,1.6-1.4,2.8-1.7,2.6s0-1.7.6-3.3,1.4-2.8,1.7-2.6,0,1.6-.6,3.3Z"/><path class="cls-4" d="M273.3,153h0c-.5-.3-.1-1.9.5-3.4s1.3-2.7,1.7-2.7c.5.3.1,1.9-.5,3.4s-1.4,2.7-1.7,2.7Zm2.2-5.9c-.3,0-1,1-1.6,2.6-.7,1.8-.9,3.1-.6,3.3h.1c.3,0,1-1,1.6-2.6.5-1.8.7-3.2.5-3.3Z"/><path class="cls-5" d="M272.6,149.6c.6,1.5.8,3,.5,3.2s-1-.8-1.6-2.3-.8-3-.5-3.2,1,.8,1.6,2.3Z"/><path class="cls-4" d="M273,152.9c-.4,0-1-1-1.6-2.4-.6-1.6-.8-3-.5-3.3h0c.5,0,1.1,1,1.7,2.4.6,1.6.8,3,.5,3.3Zm-1.9-5.6c-.3.2-.2,1.6.4,3.2s1.2,2.3,1.5,2.3h0l.1-.1c.3-.2.1-1.5-.5-3.2-.6-1.3-1.2-2.2-1.5-2.2Z"/><path class="cls-5" d="M273.3,149.3c.2,1.8,0,3.3-.3,3.4s-.8-1.3-.9-3,0-3.3.3-3.4.8,1.3.9,3Z"/><path class="cls-4" d="M273,152.7c-.4,0-.8-1.5-.9-3s-.1-3.3.3-3.4h0c.5,0,.8,1.6,1,3,.1,1.6,0,3.3-.4,3.4Zm-.5-6.3c-.3.1-.5,1.4-.3,3.3s.6,3,.8,3h0c.3-.1.5-1.4.3-3.3s-.6-3-.8-3Z"/><path class="cls-5" d="M274.2,149.8c-.2,1.8-.6,3.2-.9,3.2s-.5-1.5-.3-3.3.6-3.2.9-3.2.4,1.5.3,3.3Z"/><path class="cls-4" d="M273.2,153l-.1-.1c-.3-.3-.4-1.7-.2-3.3s.5-3.2,1-3.2c.4.4.5,1.7.4,3.3-.3,1.7-.7,3.3-1.1,3.3Zm.7-6.4c-.4,0-.8,1.2-1,3.1-.1,1.5-.1,2.9.2,3.2l.1.1h0c.3,0,.7-1.2.9-3.2.2-1.6.1-2.9-.2-3.2Z"/><path class="cls-5" d="M273.1,152.9a4.53,4.53,0,0,1-1-.5c-.2-.1-.1-.5-.6-.8a2.33,2.33,0,0,0-1.4-.1c-.3.1-.2.4.4.7s1.1.1,1.4.2a3.7,3.7,0,0,1,1.1.5,5.9,5.9,0,0,1,1.4-.2c.4-.1,1.3.2,2,0s.9-.6.5-.7a2.52,2.52,0,0,0-1.5-.1c-.4.1-.7.6-1.1.7s-1.2.3-1.2.3Z"/><path class="cls-4" d="M273.1,153.1h0a5.36,5.36,0,0,0-1.1-.5,1.63,1.63,0,0,1,1.1.5,6.21,6.21,0,0,1,1-.3h1.1c.2,0,.5.1.8.1a2,2,0,0,0,1.1-.4,1,1,0,0,1-.5.4,5.88,5.88,0,0,1-1.4,0h-.6a3.57,3.57,0,0,0-1.5.2Zm.1-.2a4.67,4.67,0,0,1-1-.5,1.7,1.7,0,0,0-.6-.8,3.09,3.09,0,0,0-.8-.2l-.7.2c0,.1.2.3.6.5a1.34,1.34,0,0,0,.8.2,4.33,4.33,0,0,1,.5.1,3.71,3.71,0,0,1-1.4-.2q-.6-.3-.6-.6l.8-.3a1.83,1.83,0,0,1,.9.2c.4.2.5.4.5.6.1.4.9.7,1,.8.1-.1.3-.1.6-.2a2,2,0,0,0,1.1-.4c.2-.1.3-.3.5-.3a2.45,2.45,0,0,1,1.5.1v.2a1.66,1.66,0,0,0-1.5-.2,7.13,7.13,0,0,1-1.1.7,10.5,10.5,0,0,1-1.1.1Z"/><path class="cls-5" d="M273.7,157.7c-1.4,1.2-2.8,1.9-2.9,1.5s.8-1.8,2.3-3,2.8-1.9,2.9-1.5-.9,1.7-2.3,3Z"/><path class="cls-4" d="M271,159.3l-.3-.1c-.2-.4.8-1.8,2.3-3a5.68,5.68,0,0,1,2.7-1.6c0,.1.1.1.1.2a7,7,0,0,0-2.8,1.5c-1.5,1.3-2.4,2.6-2.3,2.9l.3.1a7.36,7.36,0,0,0,2.7-1.7,12.37,12.37,0,0,0,2-2.2,9,9,0,0,1-1.9,2.2,5.88,5.88,0,0,1-2.8,1.7Z"/><path class="cls-5" d="M273.2,157c-1.2,1.6-2.4,2.6-2.7,2.3s.5-1.9,1.7-3.4,2.5-2.6,2.7-2.3-.5,1.8-1.7,3.4Z"/><path class="cls-4" d="M270.6,159.3l-.2-.1c-.3-.4.6-2.1,1.7-3.5s2.2-2.3,2.6-2.3l.1.1h0c-.6,0-1.6,1-2.6,2.3-1.3,1.7-2,3.1-1.7,3.4l.1.1a7.14,7.14,0,0,0,2.5-2.4,7.69,7.69,0,0,0,1.7-2.9,9.49,9.49,0,0,1-1.7,3c-1,1.4-2,2.3-2.5,2.3Z"/><path class="cls-5" d="M270.9,155.3c.1,1.9-.1,3.6-.5,3.7s-.9-1.3-1-3.2.1-3.6.5-3.7.8,1.3,1,3.2Z"/><path class="cls-4" d="M270.3,159.1c-.4,0-.9-1.3-1-3.2s.1-3.6.5-3.8h0c.6,0,.9,1.6,1.1,3.2.2,2-.1,3.6-.6,3.8Zm-.4-6.9c-.4.1-.7,1.7-.5,3.7s.6,3.1.9,3.1h.1c.4-.1.6-1.7.5-3.7s-.6-3.1-1-3.1Z"/><path class="cls-5" d="M271.8,155.3c-.4,2-1.1,3.6-1.5,3.6s-.4-1.7,0-3.7,1.1-3.6,1.5-3.6.4,1.7,0,3.7Z"/><path class="cls-4" d="M270.3,158.9l-.2-.1c-.3-.4-.3-1.9.1-3.6s1-3.6,1.5-3.6l.1.1c-.3.1-1.1,1.4-1.5,3.5-.3,1.7-.4,3.2-.1,3.5l.1.2h0c.3-.1,1-1.5,1.4-3.6a7.89,7.89,0,0,0,.2-3.3,7.85,7.85,0,0,1-.2,3.3c-.2,1.7-.9,3.6-1.4,3.6Z"/><path class="cls-5" d="M272.5,156.1c-.8,1.9-1.7,3.3-2.1,3.2s0-1.8.7-3.7,1.7-3.3,2.1-3.2.1,1.8-.7,3.7Z"/><path class="cls-4" d="M270.5,159.3h0c-.4-.6,0-2.1.6-3.8s1.6-3.2,2.1-3.2c.5.2.1,2.1-.6,3.8s-1.7,3.2-2.1,3.2Zm2.8-6.9c-.4,0-1.2,1.2-2,3.2-.7,1.7-1,3.2-.8,3.6l.1.1c.3,0,1.2-1.2,2-3.2s1-3.6.7-3.7Z"/><path class="cls-5" d="M270.4,159.1a7.53,7.53,0,0,1-.9-.9c-.1-.2.1-.6-.4-1.1a2.24,2.24,0,0,0-1.5-.6c-.3,0-.4.4.2,1s1.2.5,1.5.8.8.7,1.1,1c.3,0,1.1.2,1.6.2a8.14,8.14,0,0,0,2.2.7c.7,0,1.1-.3.8-.6a2.83,2.83,0,0,0-1.6-.6c-.5,0-.9.4-1.4.3s-1.6-.2-1.6-.2Z"/><path class="cls-4" d="M274.1,160.2h0a4.28,4.28,0,0,1-1.6-.5,4.88,4.88,0,0,1-.7-.3c-.9-.1-1.3-.2-1.6-.2a5.47,5.47,0,0,0-1.1-1,6.49,6.49,0,0,1,1.1.9c.3,0,.7.1,1.1.1a6.81,6.81,0,0,1,1.2.3,2.83,2.83,0,0,0,1.6.7h0c.3-.1.5-.1.6-.2-.1.2-.3.2-.6.2Zm.8-.4a3,3,0,0,0-1.6-.8c-.3-.2-.5.1-.7.2a1.42,1.42,0,0,1-.6.2l-.8-.1c-.7-.1-.7-.1-.8-.2s-.8-.7-.9-.8c-.1-.5-.1-.8-.4-1.1a2.73,2.73,0,0,0-1.2-.6,1.85,1.85,0,0,1,1.2.5,1.2,1.2,0,0,1,.4.8,3.69,3.69,0,0,0,1,1.1,5.64,5.64,0,0,0,.7.1c.3,0,.5.1.7.1a1.45,1.45,0,0,0,.7-.2,1.42,1.42,0,0,1,.6-.2,2.89,2.89,0,0,1,1.7.6v.4Z"/><path class="cls-5" d="M269,163.7c-2.1.3-3.7.2-3.7-.3s1.8-1.2,3.8-1.5,3.7-.2,3.6.3-1.7,1.1-3.7,1.5Z"/><path class="cls-4" d="M266.9,163.9c-.8,0-1.4-.1-1.5-.3v-.2c.4.5,1.8.5,3.6.2a9,9,0,0,0,3.4-1.1,7.48,7.48,0,0,1-3.4,1.1,5.59,5.59,0,0,1-2.1.3Zm-1.1-1a7.45,7.45,0,0,1,3.3-1.1c1.8-.3,3.3-.2,3.6.1v.2c-.4-.6-1.8-.5-3.6-.2a9.22,9.22,0,0,0-3.3,1Z"/><path class="cls-5" d="M268.9,162.7c-2.1.8-3.8,1-3.9.6s1.5-1.5,3.6-2.3,3.8-1,3.9-.6-1.6,1.5-3.6,2.3Z"/><path class="cls-4" d="M265.6,163.6q-.6,0-.6-.3c-.1-.5,1.5-1.5,3.6-2.3s3.8-1.1,3.9-.6-1.5,1.5-3.6,2.3a11.79,11.79,0,0,1-3.3.9Zm6-3.2a8.19,8.19,0,0,0-3,.7c-2.2.8-3.6,1.8-3.5,2.2l.5.2a11,11,0,0,0,3.3-.8c2.2-.8,3.6-1.8,3.5-2.2a2.2,2.2,0,0,0-.8-.1Z"/><path class="cls-5" d="M267.6,159.8c-.9,1.9-2,3.4-2.5,3.3s-.2-1.7.7-3.6,2-3.4,2.5-3.3.2,1.7-.7,3.6Z"/><path class="cls-4" d="M265.1,163.1h0c-.1-.1-.1-.1-.1-.2l.1.2c.5-.1,1.6-1.5,2.4-3.3a11.94,11.94,0,0,0,.9-2.7,8.07,8.07,0,0,1-.9,2.8c-.8,1.8-1.9,3.2-2.4,3.2Zm-.2-.7a6.72,6.72,0,0,1,.9-2.9c.9-1.8,2-3.3,2.5-3.3,0,.1.1.1.1.2h0c-.7,0-1.7,1.4-2.5,3.1a8.22,8.22,0,0,0-1,2.9Z"/><path class="cls-5" d="M268.5,160.3c-1.5,1.7-3,2.8-3.4,2.6s.5-1.8,2-3.5,3-2.8,3.4-2.6-.5,1.8-2,3.5Z"/><path class="cls-4" d="M265.3,162.9h-.2v-.2l.2.2a9.89,9.89,0,0,0,3.2-2.7,21.15,21.15,0,0,0,1.8-2.4,10.06,10.06,0,0,1-1.7,2.5c-1.4,1.5-2.8,2.6-3.3,2.6Zm-.2-.6a7.86,7.86,0,0,1,1.9-2.9c1.3-1.5,2.7-2.6,3.3-2.6,0,.1.1.1.1.2h0c-.7,0-2,1.1-3.3,2.4a11.63,11.63,0,0,0-2,2.9Z"/><path class="cls-5" d="M268.8,161.5c-1.8,1.4-3.5,2.2-3.8,1.8s1-1.8,2.8-3.1,3.5-2.2,3.8-1.8-1,1.7-2.8,3.1Z"/><path class="cls-4" d="M265.2,163.5l-.3-.1v-.2h0l.3.3a12.21,12.21,0,0,0,3.5-2,14.07,14.07,0,0,0,2.1-1.9,3.47,3.47,0,0,0,.6-.9c0,.3-.3.6-.5.9a15,15,0,0,1-2.2,2,8.67,8.67,0,0,1-3.5,1.9Zm-.1-.6a8.45,8.45,0,0,1,2.7-2.8,10.15,10.15,0,0,1,3.5-1.9.1.1,0,0,1,.1.1,11.64,11.64,0,0,0-3.6,1.8,12.8,12.8,0,0,0-2.7,2.8Z"/><path class="cls-5" d="M265,163.1a8.4,8.4,0,0,1-.4-1.4c0-.3.4-.5.2-1.3a2.37,2.37,0,0,0-1.1-1.4c-.3-.2-.6.2-.3,1s.9,1.2,1,1.6a8.8,8.8,0,0,1,.5,1.5c.3.2,1,.8,1.4,1.1s.9,1.5,1.7,2c.6.4,1.3.3,1.1-.2a4.43,4.43,0,0,0-1.2-1.5c-.5-.3-1.1-.1-1.6-.5a4.85,4.85,0,0,1-1.3-.9Z"/><path class="cls-4" d="M268.7,166.6a1.6,1.6,0,0,1-.8-.3,4.89,4.89,0,0,1-1.2-1.3,3.81,3.81,0,0,0-.5-.6,9.16,9.16,0,0,0-1.4-1.1,8.8,8.8,0,0,0-.5-1.5,4.29,4.29,0,0,1,.5,1.5c.2.1.6.5,1,.8a3.53,3.53,0,0,1,.9,1,3.74,3.74,0,0,0,1.2,1.3,1.55,1.55,0,0,1,.8.2Zm.3-.3a2.86,2.86,0,0,0-1.2-1.6,1.08,1.08,0,0,0-.8-.2,1.14,1.14,0,0,1-.8-.3l-.6-.5c-.6-.5-.7-.6-.7-.6h0a6.47,6.47,0,0,1-.4-1.3,2,2,0,0,0,.2-1.3,3.48,3.48,0,0,0-.7-1.1,1.78,1.78,0,0,1,.8,1.1,1.05,1.05,0,0,1-.1,1,9.11,9.11,0,0,0,.3,1.6c0,.1.4.3.7.6l.6.5c.2.2.5.2.8.3a1.88,1.88,0,0,1,.8.2,3.74,3.74,0,0,1,1.3,1.5l-.2.1Zm-4.7-4.6c-.6-.7-.9-1-1-1.6s-.2-.9,0-1a.37.37,0,0,1,.3.1c-.3.2-.3.5-.2.9a2.33,2.33,0,0,0,.7,1.1c.1.1.1.3.2.5Z"/><path class="cls-5" d="M262.8,167c-2.1,0-3.8-.4-3.8-1s1.7-1.1,3.8-1.2,3.8.4,3.8,1-1.7,1.2-3.8,1.2Z"/><path class="cls-4" d="M262.6,167.1a5.78,5.78,0,0,1-3.5-.8v-.2a5.83,5.83,0,0,0,3.5,1h0l.2-.1c2.1,0,3.8-.5,3.8-1.1s-1.6-1-3.6-1a9.13,9.13,0,0,0-3.3.5,6.73,6.73,0,0,1,3.2-.6h0c2.2,0,3.9.5,3.9,1.1s-1.7,1.2-3.9,1.2Z"/><path class="cls-5" d="M262.3,163.6c-1.3,1.7-2.8,2.8-3.3,2.5s.3-2.1,1.6-3.8,2.8-2.8,3.3-2.5-.3,2.1-1.6,3.8Z"/><path class="cls-4" d="M259.3,166.2l-.3-.1c-.5-.4.2-2.1,1.6-3.9,1.2-1.5,2.4-2.5,3.1-2.5.1,0,.1.1.2.1-.8-.2-2,1-3.1,2.5-1.3,1.7-2,3.4-1.6,3.8l.1.1a6.92,6.92,0,0,0,3-2.6,9.49,9.49,0,0,0,1.7-3,7.61,7.61,0,0,1-1.6,3.1c-1.2,1.4-2.5,2.5-3.1,2.5Z"/><path class="cls-5" d="M262.8,165.4c-2,.8-3.8,1.1-4,.5s1.2-1.7,3.2-2.6,3.8-1.1,4-.5-1.2,1.7-3.2,2.6Z"/><path class="cls-4" d="M259.7,166.2c-.5,0-.8-.1-.8-.3-.2-.6,1.2-1.7,3.2-2.6s3.8-1.1,4-.5-1.2,1.7-3.2,2.6a10.47,10.47,0,0,1-3.2.8Zm5.5-3.7a8.84,8.84,0,0,0-3.1.8c-1.9.8-3.4,2-3.2,2.5s2,.3,3.9-.5,3.4-2,3.2-2.5c-.1-.2-.4-.3-.8-.3Z"/><path class="cls-5" d="M263.9,131.9c1,.9,1.6,1.7,1.3,1.8s-1.2-.5-2.2-1.3-1.6-1.7-1.3-1.8,1.2.4,2.2,1.3Z"/><path class="cls-4" d="M265.1,133.8a4.62,4.62,0,0,1-2.1-1.4c-.9-.8-1.4-1.5-1.4-1.8h.2c-.1.3.4,1,1.3,1.7a7.58,7.58,0,0,0,2,1.5h0c.1-.4-.3-1-1.2-1.9a6.73,6.73,0,0,0-1.7-1.2,5.61,5.61,0,0,1,1.8,1.2c.8.8,1.4,1.5,1.4,1.8l-.3.1Z"/><path class="cls-5" d="M262.7,132.9c1.3.2,2.4.5,2.5.8s-1,.4-2.3.2-2.4-.5-2.5-.8,1-.4,2.3-.2Z"/><path class="cls-4" d="M264.1,134a6.15,6.15,0,0,1-1.3-.1c-1.2-.2-2.4-.5-2.5-.8.4-.6,1.5-.4,2.4-.2,1.2.2,2.4.5,2.5.8-.2.3-.7.3-1.1.3Zm-2.7-1.2a1.85,1.85,0,0,0-1,.2c0,.3,1,.7,2.4.8,1.2.1,2.1.1,2.2-.1s-1-.7-2.4-.8c-.4,0-.8-.1-1.2-.1Z"/><path class="cls-5" d="M263.2,132.3c1.3.6,2.2,1.3,2,1.5s-1.3-.1-2.5-.8-2.1-1.3-2-1.5,1.2.1,2.5.8Z"/><path class="cls-4" d="M265,133.9a6.88,6.88,0,0,1-2.3-.8,5.37,5.37,0,0,1-2-1.5h.2c0,.4.8.9,1.8,1.5a22,22,0,0,0,2.3.8h0l.1-.1-.1.1Zm.1-.1a4.55,4.55,0,0,0-2-1.5,8.27,8.27,0,0,0-1.8-.7,5.12,5.12,0,0,1,1.8.7c1.2.5,2,1.1,2,1.5Z"/><path class="cls-5" d="M245.8,163.3a56.94,56.94,0,0,1,6,1.7c2.8,1,7.1,4.5,8.2,4.7a3.47,3.47,0,0,0,3.7-2.2c-2,.5-3.2,1.3-5,.3-.7-.2-2.8-2.2-5.2-3.3a56,56,0,0,0-7.2-2.3Z"/><path class="cls-4" d="M260.3,169.8h-.2a14.1,14.1,0,0,1-3-1.8,27.79,27.79,0,0,0-5.2-3,56.94,56.94,0,0,0-6-1.7l.4-1.2h0a51.28,51.28,0,0,1,7.3,2.3,26.59,26.59,0,0,1,3.9,2.4,10.57,10.57,0,0,0,1.3.9,4.81,4.81,0,0,0,3.9.1l1.1-.3a3.62,3.62,0,0,1-3.5,2.3Zm-14.4-6.5a41.47,41.47,0,0,1,6,1.7,31.37,31.37,0,0,1,5.2,3,9.65,9.65,0,0,0,3,1.7h.2a3.51,3.51,0,0,0,3.5-2.2l-1.1.4a4.35,4.35,0,0,1-4-.1,7.68,7.68,0,0,1-1.3-.9,20.12,20.12,0,0,0-3.9-2.4c-2.4-1-7.2-2.3-7.2-2.3l-.4,1.1Z"/><path class="cls-5" d="M249.3,134.2l3.7-2-4.1,1-.5.7Z"/><path class="cls-4" d="M249.3,134.2l-.9-.2.4-.8,4.1-1.1c.1.2-3.5,2-3.6,2.1Zm3.7-2-4.1,1.1-.5.7.8.1c.2-.1.9-.4,3.8-1.9Z"/><path class="cls-5" d="M252.8,135.1c-1.4-.3-3.6-.7-5-.9,1-1.1,2.3-2.9,3.1-4a37,37,0,0,0-1.7,3.5,30,30,0,0,0,3.6,1.4Z"/><path class="cls-4" d="M252.8,135.1l-1.1-.2a20.43,20.43,0,0,0-4-.6c.9-1.1,2.3-3,3.1-4.1l-.5,1a11.29,11.29,0,0,0-1.2,2.5,20.67,20.67,0,0,0,2.4.9l1.3.5Zm-2-4.9a40.1,40.1,0,0,1-3.1,4.1,19.51,19.51,0,0,1,3.9.6l.6.1-.8-.3a20.67,20.67,0,0,1-2.4-.9,9.52,9.52,0,0,1,1.2-2.5l.6-1.1Z"/><path class="cls-5" d="M248.6,134.4l3.3-2.6-3.8,1.7-.3.8Z"/><path class="cls-4" d="M248.6,134.5h-.9l.3-.8,3.8-1.7c.1-.1-3.1,2.3-3.2,2.5Zm3.3-2.7-3.8,1.8-.3.8h.8c.1-.1.7-.6,3.3-2.6Z"/><path class="cls-5" d="M252.1,135.1a45.43,45.43,0,0,0-5.1-.9c1-1.1,2.3-3,3.1-4.1a29.24,29.24,0,0,0-1.7,3.6c1,.5,2.6.9,3.7,1.4Z"/><path class="cls-4" d="M252.1,135.1l-1.1-.2a36.26,36.26,0,0,0-3.9-.7c.9-1.1,2.2-2.9,3-4.1h0a42.67,42.67,0,0,1-2.9,4.1,19.51,19.51,0,0,1,3.9.6l.7.1-.8-.3a10.84,10.84,0,0,1-2.4-1,12.47,12.47,0,0,1,1.2-2.7l.4-.7-.3.8a19.55,19.55,0,0,0-1.2,2.6c.6.3,1.6.6,2.4.9l1,.6Z"/><path class="cls-5" d="M248.1,134.6,252,133l-4.2.7-.5.7Z"/><path class="cls-4" d="M248.1,134.7l-.9-.3.5-.7,4.2-.7c-1,.5-3.7,1.6-3.8,1.7Zm3.8-1.7-4.2.8-.5.7.8.2c.2-.2.9-.5,3.9-1.7Z"/><path class="cls-5" d="M251.7,135.1c-1.5-.1-3.7-.4-5.1-.4a50.55,50.55,0,0,0,2.5-4.5,33,33,0,0,0-1.2,3.8,21.09,21.09,0,0,0,3.8,1.1Z"/><path class="cls-4" d="M251.7,135.1l-1.3-.1c-1.2-.1-2.6-.2-3.6-.2h0c1.2,0,2.5.1,3.6.2l.8.1-.8-.2a15,15,0,0,1-2.5-.7,17.15,17.15,0,0,1,.8-2.8l.2-.6-.2.7c-.3,1-.7,2-.9,2.8a15,15,0,0,0,2.5.7l1.4.1Zm-4.3-1.8c.5-1,1.1-2.1,1.5-3h0a16.81,16.81,0,0,1-1.5,3Z"/><path class="cls-5" d="M247.7,134.6l2.6-3.2-3.3,2.5-.2.8Z"/><path class="cls-4" d="M246.8,134.8l.2-.9,3.3-2.5c-.7.9-2.5,3.1-2.6,3.2l-.9.2Zm3.5-3.4-3.3,2.5-.1.8.8-.1s.2-.3,2.6-3.2Z"/><path class="cls-5" d="M251.7,135.3a50.44,50.44,0,0,0-5.5,0c.7-1.4,1.7-3.7,2.2-5.1a36.72,36.72,0,0,0-.9,4.3c1.2.3,2.9.5,4.2.8Z"/><path class="cls-4" d="M251.7,135.3h-1.3c-1.4,0-3.1-.1-4.2,0,.7-1.4,1.5-3.5,2.1-5h0a45.08,45.08,0,0,1-2.1,4.9,26.64,26.64,0,0,1,4.1-.1h.9c-.3-.1-.6-.1-1-.2a19.55,19.55,0,0,1-2.8-.6,11.4,11.4,0,0,1,.6-3l.2-.8-.1.8a18.78,18.78,0,0,0-.6,2.9c.8.2,1.8.4,2.7.6a5.27,5.27,0,0,0,1.5.5Z"/><path class="cls-5" d="M247.1,135.4l3.2-3.1-3.9,2.1-.3.9Z"/><path class="cls-4" d="M247.1,135.4h-.9l.2-1,3.9-2.2c-1.2,1.3-3.1,3.1-3.2,3.2Zm3.2-3.1-3.8,2.2-.2.9h.9c0-.2.6-.7,3.1-3.1Z"/><path class="cls-5" d="M251,135.4a57.58,57.58,0,0,0-5.9.1c1.1-1.6,2.6-4.1,3.5-5.7-.6,1.4-1.5,3.4-1.9,4.7a27.2,27.2,0,0,0,4.3.9Z"/><path class="cls-4" d="M245,135.5h0c1.1-1.6,2.6-4.2,3.5-5.7h0c-.9,1.6-2.3,4.1-3.3,5.6a27.19,27.19,0,0,1,3-.1h2.7a8.32,8.32,0,0,1-1.3-.2,21.1,21.1,0,0,1-2.9-.6,21.12,21.12,0,0,1,1.3-3.4l.5-1.2-.5,1.3c-.5,1.2-1,2.4-1.3,3.3.8.2,1.8.4,2.8.6.5.1,1,.2,1.4.3l-1.4.1H248a15,15,0,0,0-3,0Z"/><path class="cls-5" d="M246.1,135.6l4.1-3.5-4.6,2.5-.5,1Z"/><path class="cls-4" d="M245,135.7l.5-1.1,4.6-2.5c-1.3,1.2-3.9,3.4-4,3.5l-1.1.1Zm5.1-3.6-4.6,2.5-.4.9h.9c0,.1.4-.3,4.1-3.4Z"/><path class="cls-5" d="M250.4,135.5c-1.7.2-4.2.5-5.9.9.9-1.7,2-4.4,2.7-6.1a49.77,49.77,0,0,0-1.2,4.9,30.43,30.43,0,0,0,4.4.3Z"/><path class="cls-4" d="M244.4,136.5h0c.9-1.7,1.9-4.3,2.6-6h0a63.13,63.13,0,0,1-2.5,5.8c1.2-.3,2.9-.5,4.4-.7l1.3-.2h-1.5a13.22,13.22,0,0,1-2.9-.2,34.69,34.69,0,0,1,.8-3.6l.3-1-.2,1a28.52,28.52,0,0,0-.8,3.5c.8.1,1.9.1,2.9.2h1.5l-1.3.3c-1.5.3-3.3.5-4.6.9Z"/><path class="cls-5" d="M245.5,136.3l3.2-4.4-3.9,3.5-.2,1.1Z"/><path class="cls-4" d="M244.5,136.6l.2-1.1,3.9-3.6c-.8,1.2-3,4.3-3.1,4.4l-1,.3Zm4.1-4.7-3.9,3.6-.2,1,.9-.3c.1,0,.4-.4,3.2-4.3Z"/><path class="cls-5" d="M249.4,136c-1.7.2-4.3.3-5.9.6.9-1.6,2.2-4.3,3-5.9-.5,1.5-1.2,3.5-1.5,4.8a22,22,0,0,0,4.4.5Z"/><path class="cls-4" d="M243.5,136.7h0c1-1.7,2.2-4.4,3-6l-.4,1.5c-.4,1.2-.8,2.4-1,3.3a21.86,21.86,0,0,0,2.8.3c.5,0,1.1.1,1.5.1l-1.4.2c-1.5.2-3.2.3-4.5.6Zm3-6a64,64,0,0,1-2.9,5.9c1.2-.2,2.9-.4,4.4-.5l1.4-.1a7.57,7.57,0,0,1-1.5-.1,23.57,23.57,0,0,1-2.9-.3,18.08,18.08,0,0,1,1-3.4l.5-1.5Z"/><path class="cls-5" d="M244.9,136.8l4-3.5-4.5,2.4-.5,1Z"/><path class="cls-4" d="M243.9,136.8l.5-1.1,4.6-2.5c-1.3,1.2-3.9,3.4-4,3.5l-1.1.1Zm5-3.5-4.5,2.5-.4.9h.9s.4-.4,4-3.4Z"/><path class="cls-5" d="M248.9,136.2a56.15,56.15,0,0,0-5.9,1.3c.8-1.7,1.8-4.5,2.4-6.1a47.39,47.39,0,0,0-1,4.9c1.3.1,3.2-.1,4.5-.1Z"/><path class="cls-4" d="M243,137.6h0c.8-1.7,1.7-4.2,2.3-5.9v.1c-.6,2-1.5,4.2-2.1,5.7a43.48,43.48,0,0,1,4.5-1l1.3-.3a7.57,7.57,0,0,1-1.5.1,14,14,0,0,1-2.9,0,18,18,0,0,1,.6-3.6l.1-.6-.1.6a27,27,0,0,0-.7,3.5h2.9c.5,0,1.1-.1,1.5-.1l-1.3.3c-1.5.4-3.3.7-4.6,1.2Z"/><path class="cls-5" d="M244.3,136.9l2.6-4.7-3.5,4.1v1.1Z"/><path class="cls-4" d="M243.3,137.4l.1-1.1,3.5-4.1c-.8,1.6-2.5,4.7-2.5,4.8l-1.1.4Zm3.5-5.2-3.4,4.1v1l.9-.4c-.1,0,.2-.5,2.5-4.7Z"/><path class="cls-5" d="M248.9,136.5c-1.8.5-4.6,1.1-6.3,1.7.6-1.9,1.4-5.1,1.9-7-.2,1.7-.5,4-.5,5.5a39.34,39.34,0,0,0,4.9-.2Z"/><path class="cls-4" d="M242.6,138.2h0c.7-2,1.4-5.1,1.9-7l-.1,1.6a28.84,28.84,0,0,0-.3,3.9h.7a22.86,22.86,0,0,0,2.5-.2,10.28,10.28,0,0,1,1.7-.1l-1.5.5a42.91,42.91,0,0,0-4.9,1.3Zm1.9-7a58.44,58.44,0,0,1-1.8,6.9,44.91,44.91,0,0,1,4.7-1.3l1.5-.4a8.81,8.81,0,0,1-1.7.2,17.64,17.64,0,0,1-3.2.1,19.36,19.36,0,0,1,.3-4l.2-1.5Z"/><path class="cls-5" d="M243.8,138l3.2-4.8-4.1,3.8-.2,1.2Z"/><path class="cls-4" d="M242.7,138.4l.2-1.3,4.1-3.9c-.8,1.3-3.1,4.7-3.1,4.8l-1.2.4Zm4.3-5.1-4.1,3.9-.2,1.1,1-.3c.1,0,.4-.5,3.3-4.7Z"/><path class="cls-5" d="M248.2,137c-1.8.6-4.5,1.3-6.2,2a62.75,62.75,0,0,0,1.5-7,52.42,52.42,0,0,0-.2,5.5,38.7,38.7,0,0,0,4.9-.5Z"/><path class="cls-4" d="M242,139.1h0a59.86,59.86,0,0,0,1.5-7.1v1.6a20.9,20.9,0,0,0-.1,2.5,10.68,10.68,0,0,1,.1-2.5l.1-1.6c-.3,1.9-.9,5-1.4,6.9a35.56,35.56,0,0,1,4.6-1.5l1.5-.5c-.5.1-1,.2-1.6.3-1,.1-2,.3-2.9.3v-.1a25.82,25.82,0,0,0,2.9-.3,10,10,0,0,1,1.6-.2l-1.5.5c-1.7.6-3.5,1.1-4.8,1.7Z"/><path class="cls-5" d="M243.1,138.7l2.4-5.2L242,138v1.2Z"/><path class="cls-4" d="M242.1,139.3V138l3.5-4.5c-.6,1.4-2.3,5.1-2.4,5.3l-1.1.5Zm3.4-5.8-3.4,4.6v1.1l1-.5s.2-.5,2.4-5.2Z"/><path class="cls-5" d="M247.6,137.7a64.25,64.25,0,0,0-6.3,1.5c.7-1.9,1.6-5,2.1-6.8-.2,1.7-.7,3.9-.7,5.4a40.48,40.48,0,0,0,4.9-.1Z"/><path class="cls-4" d="M241.2,139.3h0c.7-2,1.6-5,2.2-6.8h0c-.5,1.9-1.3,4.8-2,6.7,1.3-.4,3.1-.8,4.7-1.2l1.6-.3c-.5.1-1.1.1-1.7.2a11.41,11.41,0,0,1-3.2,0,28.68,28.68,0,0,1,.4-3.9l.2-1.3-.1,1.3a32.07,32.07,0,0,0-.5,3.9c.8,0,2,0,3.2-.1.6,0,1.2-.1,1.7-.1l-1.6.4a29.29,29.29,0,0,0-4.9,1.2Z"/><path class="cls-5" d="M242.6,139.2l4-4.1-4.7,3-.4,1.2Z"/><path class="cls-4" d="M241.4,139.4l.4-1.2,4.7-3.1c-1,1.2-3.9,4-3.9,4.2l-1.2.1Zm5.1-4.3-4.7,3.1-.3,1.1,1-.1s.4-.5,4-4.1Z"/><path class="cls-5" d="M246.7,138.4c-1.8.2-4.6.5-6.3.9.8-1.9,1.9-4.9,2.5-6.8-.3,1.7-.9,3.9-1,5.5a25.92,25.92,0,0,0,4.8.4Z"/><path class="cls-4" d="M240.4,139.4h0c.8-1.8,1.8-4.6,2.4-6.5v.1c-.7,2.1-1.6,4.6-2.3,6.3,1.3-.3,3.1-.5,4.7-.7l1.5-.2h-1.6a15.82,15.82,0,0,1-3.2-.3,22,22,0,0,1,.7-4.1l.1-.7-.1.7a37.72,37.72,0,0,0-.7,4,15.15,15.15,0,0,0,3.1.2,8.08,8.08,0,0,1,1.6.1l-1.5.3c-1.5.2-3.3.5-4.7.8Z"/><path class="cls-5" d="M241.8,138.8l2.7-5.1-3.7,4.3-.1,1.2Z"/><path class="cls-4" d="M240.7,139.3l.1-1.3,3.7-4.3c-.7,1.4-2.6,5-2.7,5.2l-1.1.4Zm3.7-5.6-3.6,4.4v1.1l1-.4c-.1,0,.2-.6,2.6-5.1Z"/><path class="cls-5" d="M247,137.8c-1.9.8-5,1.9-6.8,2.9.6-2.3,1.2-6,1.6-8.2-.1,1.9-.3,4.6-.2,6.3a36.36,36.36,0,0,0,5.4-1Z"/><path class="cls-4" d="M240.1,140.8h0c.6-2.4,1.3-6.1,1.6-8.3v1.8a35.22,35.22,0,0,0-.1,4.5c1-.1,2.3-.4,3.5-.6a14.91,14.91,0,0,1,1.8-.4l-1.7.7c-1.6.7-3.7,1.5-5.1,2.3Zm1.6-8.3c-.3,2.2-.9,5.8-1.5,8.2,1.4-.7,3.3-1.5,5.1-2.2l1.7-.7c-.5.2-1.2.3-1.8.5a16.06,16.06,0,0,1-3.5.6,23.51,23.51,0,0,1,0-4.6v-1.8Z"/><path class="cls-5" d="M241.4,140.4l3.3-5.9-4.3,5-.1,1.4Z"/><path class="cls-4" d="M240.2,140.9l.1-1.5,4.3-5c-1,2-3.1,5.8-3.2,5.9l-1.2.6Zm4.4-6.4-4.2,5-.1,1.3,1.1-.5s.2-.5,3.2-5.8Z"/><path class="cls-5" d="M246.2,138.5c-1.9.9-4.9,2.2-6.7,3.2.5-2.3,1-6,1.3-8.2,0,1.9-.1,4.6.1,6.3a34.12,34.12,0,0,0,5.3-1.3Z"/><path class="cls-4" d="M239.5,141.9h0c.5-2.4,1-6,1.3-8.2h0a70.08,70.08,0,0,1-1.2,8c1.3-.8,3.3-1.7,5-2.5l1.6-.7a18.88,18.88,0,0,1-1.8.6,17.33,17.33,0,0,1-3.5.8,31.7,31.7,0,0,1-.2-4.5v-1.6l.1,1.6c0,1.6,0,3.3.1,4.5a33.39,33.39,0,0,0,3.5-.8,16.69,16.69,0,0,1,1.8-.5l-1.6.8a34.55,34.55,0,0,0-5.1,2.5Z"/><path class="cls-5" d="M240.7,141.3l2.4-6.3-3.6,5.7.1,1.4Z"/><path class="cls-4" d="M239.6,142l-.1-1.4,3.6-5.7c-.7,2.2-2.3,6.2-2.3,6.4l-1.2.7Zm3.5-7.1-3.5,5.7.1,1.3,1-.7s.2-.5,2.4-6.3Z"/><path class="cls-5" d="M245.4,139.1a67.69,67.69,0,0,0-6.6,3.3c.5-2.3.9-6,1.2-8.2a43.29,43.29,0,0,0,.2,6.3c1.4-.2,3.6-1,5.2-1.4Z"/><path class="cls-4" d="M238.7,142.4h0c.5-2.4.9-6,1.2-8.3l.1,1.9a30.27,30.27,0,0,0,.2,4.4,20.09,20.09,0,0,0,3.5-.9,16.69,16.69,0,0,1,1.8-.5l-1.5.8a52.62,52.62,0,0,0-5.3,2.6Zm1.2-8.2a78.52,78.52,0,0,1-1.1,8.1c1.3-.8,3.3-1.7,5-2.5l1.5-.7a18.88,18.88,0,0,1-1.8.6,17.33,17.33,0,0,1-3.5.8,30.27,30.27,0,0,1-.2-4.4v-1.9Z"/><path class="cls-5" d="M240.2,142l3.7-5.6-4.6,4.6-.2,1.4Z"/><path class="cls-4" d="M238.9,142.5l.2-1.4,4.7-4.6c-1.2,1.9-3.6,5.5-3.6,5.6l-1.3.4Zm4.9-6.1-4.6,4.6-.2,1.3,1.1-.4c.1.1.4-.5,3.7-5.5Z"/><path class="cls-5" d="M245.2,138.8c-1.7,1.4-4.4,3.3-5.9,4.8,0-2.3-.3-5.9-.5-8.2a52.7,52.7,0,0,0,1.4,6,39.81,39.81,0,0,0,5-2.6Z"/><path class="cls-4" d="M239.3,143.7h0c0-2.2-.3-5.4-.4-7.6v.1a70.61,70.61,0,0,1,.5,7.4c1.2-1.1,2.9-2.5,4.4-3.7l1.4-1.1c-.5.3-1.1.7-1.6,1a20.79,20.79,0,0,1-3.3,1.7,22.4,22.4,0,0,1-1.1-4.3l-.1-.6.2.5a22.4,22.4,0,0,0,1.1,4.3c.9-.4,2.1-1.1,3.2-1.7.6-.3,1.2-.7,1.7-.9l-1.4,1.2a35.38,35.38,0,0,0-4.6,3.7Z"/><path class="cls-5" d="M240.4,142.3l.4-6.7-1.8,6.5.5,1.2Z"/><path class="cls-4" d="M239.5,143.4l-.5-1.3,1.8-6.5c-.1,1.8-.4,6.5-.3,6.7l-1,1.1Zm1.3-7.8-1.7,6.5.5,1.1.8-1c-.1.1-.1-.4.4-6.6Z"/><path class="cls-5" d="M244.7,139.4a68.59,68.59,0,0,0-5.9,4.8c0-2.3-.3-5.9-.5-8.2a52.7,52.7,0,0,0,1.4,6,39.81,39.81,0,0,0,5-2.6Z"/><path class="cls-4" d="M238.8,144.3h0c0-2.3-.3-5.8-.5-8h0a71.08,71.08,0,0,1,.5,7.8c1.1-1.1,2.9-2.4,4.4-3.6l1.5-1.2c-.5.3-1,.7-1.6,1a20.79,20.79,0,0,1-3.3,1.7,21.3,21.3,0,0,1-1.1-4.2l-.2-1.1.3,1.1a32.62,32.62,0,0,0,1,4.2c.9-.4,2.1-1.1,3.3-1.7.6-.3,1.2-.7,1.7-.9l-1.5,1.2a44.51,44.51,0,0,0-4.5,3.7Z"/><path class="cls-5" d="M239.9,143.4l1.7-6.6-3,6,.2,1.3Z"/><path class="cls-4" d="M238.9,144.3l-.3-1.4,3-6.1c-.5,2.2-1.6,6.4-1.6,6.6l-1.1.9Zm2.7-7.4-2.9,6.1.2,1.3,1-.8c0-.1.1-.7,1.7-6.6Z"/><path class="cls-5" d="M244.5,139.6c-1.6,1.6-4.2,3.9-5.6,5.6a71.81,71.81,0,0,0-1.4-8.3,45.26,45.26,0,0,0,2.1,5.9,41.29,41.29,0,0,0,4.9-3.2Z"/><path class="cls-4" d="M238.9,145.3h0a73.86,73.86,0,0,0-1.4-8.2h0a79,79,0,0,1,1.4,8,41.58,41.58,0,0,1,4.2-4.2l1.4-1.3c-.5.4-1,.8-1.6,1.2a24.9,24.9,0,0,1-3.2,2.1,28.5,28.5,0,0,1-1.6-4.2l-.4-1.2.5,1.2a28.5,28.5,0,0,0,1.6,4.2,34.18,34.18,0,0,0,3.1-2.1c.6-.4,1.1-.8,1.7-1.2l-1.3,1.4a36.1,36.1,0,0,0-4.4,4.3Z"/><path class="cls-5" d="M239.9,144.3l.3-7-1.7,6.8.5,1.3Z"/><path class="cls-4" d="M239.1,145.4l-.6-1.3,1.7-6.8c-.1,2.4-.3,6.8-.3,7l-.8,1.1Zm1.1-8.1-1.6,6.8.5,1.2.8-1c0-.1,0-.7.3-7Z"/><path class="cls-5" d="M244,140.7c-1.7,1.4-4.4,3.5-6,5.1-.1-2.4-.5-6.2-.7-8.5.5,1.9,1,4.6,1.6,6.2a36.33,36.33,0,0,0,5.1-2.8Z"/><path class="cls-4" d="M238,145.9h0c-.1-2.5-.5-6.2-.7-8.6l.5,1.8a34.29,34.29,0,0,0,1.2,4.4,21.85,21.85,0,0,0,3.3-1.8c.6-.4,1.2-.7,1.7-1l-1.4,1.3a46.85,46.85,0,0,0-4.6,3.9Zm-.7-8.6c.3,2.3.7,5.9.8,8.4a44.79,44.79,0,0,1,4.5-3.8l1.5-1.2c-.5.3-1,.7-1.6,1a28.68,28.68,0,0,1-3.4,1.8,23.24,23.24,0,0,1-1.2-4.4l-.6-1.8Z"/><path class="cls-6" d="M268.3,147.8A12.25,12.25,0,1,1,256,135.5a12.36,12.36,0,0,1,12.3,12.3Z"/><path class="cls-5" d="M239.4,145.1l2.4-6.6-3.6,5.8.1,1.4Z"/><path class="cls-4" d="M238.3,145.8l-.1-1.5,3.6-5.8c-.8,2.2-2.3,6.4-2.4,6.6l-1.1.7Zm3.5-7.3-3.6,5.8.1,1.3,1.1-.7c0,.1.2-.5,2.4-6.4Z"/><path class="cls-5" d="M244,140.7c-1.5,1.6-4,4-5.3,5.7-.2-2.4-.9-6.1-1.3-8.4a60.17,60.17,0,0,0,2,6,43.85,43.85,0,0,0,4.6-3.3Z"/><path class="cls-4" d="M238.7,146.6h0c-.2-2.4-.9-5.9-1.3-8.2v.1c.5,2.5,1.1,5.7,1.3,7.9,1-1.3,2.6-2.9,4-4.4l1.3-1.3c-.4.4-1,.8-1.5,1.3a16.52,16.52,0,0,1-3,2.1,21.57,21.57,0,0,1-1.5-4.3l-.3-.9.3.9c.5,1.5,1,3.2,1.5,4.3a34,34,0,0,0,3-2.1c.6-.4,1.1-.9,1.6-1.2l-1.2,1.4a34.46,34.46,0,0,0-4.2,4.4Z"/><path class="cls-5" d="M239.5,145.4l-.3-6.9-1.1,6.9.6,1.2Z"/><path class="cls-4" d="M238.7,146.7l-.7-1.3,1.1-6.9c.2,2.3.3,6.8.4,6.9l-.8,1.3Zm.5-8.2-1,6.9.6,1.1.7-1.1s-.1-.7-.3-6.9Z"/><path class="cls-5" d="M243.3,141.3a70.5,70.5,0,0,0-5.1,5.8c-.3-2.4-1.1-6.1-1.6-8.4a58.73,58.73,0,0,0,2.2,6c1.3-.8,3.1-2.4,4.5-3.4Z"/><path class="cls-4" d="M238.1,147.1h0c-.3-2.5-1.1-6.2-1.6-8.5h0a79.07,79.07,0,0,1,1.6,8.2c1-1.3,2.5-3,3.8-4.4l1.2-1.3a17.41,17.41,0,0,1-1.4,1.2,25.21,25.21,0,0,1-3,2.2,25.67,25.67,0,0,1-1.7-4.3l-.5-1.6.6,1.6a28.5,28.5,0,0,0,1.6,4.2,24.7,24.7,0,0,0,2.9-2.2l1.5-1.2-1.2,1.4c-1.2,1.7-2.8,3.4-3.8,4.7Z"/><path class="cls-5" d="M239.1,146.1l.8-7-2.1,6.7.4,1.4Z"/><path class="cls-4" d="M238.2,147.2l-.4-1.4,2.1-6.7c-.2,2.4-.7,6.9-.7,7l-1,1.1Zm1.7-8.1-2,6.7.4,1.3.8-.9c0-.1,0-.7.8-7.1Z"/><path class="cls-5" d="M242.9,141.5c-1.3,1.8-3.5,4.4-4.7,6.3-.5-2.4-1.6-6-2.2-8.2.8,1.8,1.8,4.3,2.6,5.8a31.57,31.57,0,0,0,4.3-3.9Z"/><path class="cls-4" d="M238.3,147.9h0c-.5-2.4-1.5-5.9-2.2-8.1h0a77.62,77.62,0,0,1,2.2,7.9c.9-1.4,2.3-3.2,3.5-4.7l1.1-1.5c-.4.4-.8.9-1.3,1.4a29.82,29.82,0,0,1-2.8,2.5,26.13,26.13,0,0,1-2-4.1l-.5-1.2.6,1.1a32.23,32.23,0,0,0,1.9,4.1c.8-.6,1.8-1.6,2.8-2.5.5-.5,1-.9,1.4-1.3l-1.1,1.5a46.81,46.81,0,0,0-3.6,4.9Z"/><path class="cls-5" d="M239.1,146.8l-.4-7-.9,7,.6,1.2Z"/><path class="cls-4" d="M238.4,148l-.7-1.3.9-7c.2,2.4.5,6.9.5,7l-.7,1.3Zm.2-8.3-.8,7,.6,1.1.7-1.1c-.1,0-.1-.6-.5-7Z"/><path class="cls-5" d="M242.8,141.9c-1.3,1.8-3.3,4.6-4.4,6.5-.6-2.4-1.9-6-2.6-8.2.9,1.8,2,4.3,2.9,5.7a30.75,30.75,0,0,0,4.1-4Z"/><path class="cls-4" d="M238.4,148.6h0c-.6-2.3-1.7-5.4-2.4-7.6l-.2-.6.9,1.6a29.16,29.16,0,0,0,2.1,4c.8-.6,1.7-1.7,2.7-2.6a18.48,18.48,0,0,1,1.4-1.4l-1,1.6a32.31,32.31,0,0,0-3.5,5Zm-2.6-8.3.3.6c.8,2.2,1.8,5.3,2.4,7.4a52.78,52.78,0,0,1,3.3-4.9l1.1-1.5a17.38,17.38,0,0,1-1.3,1.5,21.34,21.34,0,0,1-2.7,2.6,24.77,24.77,0,0,1-2.2-4l-.9-1.7Z"/><path class="cls-5" d="M239.5,147.4l.7-7.1-2,6.7.4,1.4Z"/><path class="cls-4" d="M238.7,148.5l-.4-1.5,2-6.7c-.2,2.4-.7,6.9-.6,7.1l-1,1.1Zm1.5-8.2-1.9,6.7.4,1.3.8-.9s0-.6.7-7.1Z"/><path class="cls-5" d="M242.5,142.6c-1.1,2-2.9,5-3.8,7.1a77.69,77.69,0,0,0-3.4-7.7,42.53,42.53,0,0,0,3.4,5.2c1.4-1.1,2.7-3.2,3.8-4.6Z"/><path class="cls-4" d="M238.8,149.8h0c-.9-2.3-2.4-5.7-3.4-7.8h0c1,2.1,2.5,5.3,3.3,7.6.7-1.5,1.8-3.5,2.7-5.3l1-1.8a15.26,15.26,0,0,1-1.1,1.6,19.83,19.83,0,0,1-2.5,3,23.68,23.68,0,0,1-2.5-3.7l-.8-1.4.9,1.3a22.4,22.4,0,0,0,2.5,3.6c.7-.8,1.6-1.9,2.4-3,.4-.6.8-1.1,1.2-1.6l-.9,1.8c-1,2.1-2.1,4.1-2.8,5.7Z"/><path class="cls-5" d="M239.3,148l-2-6.7.7,7.1.9,1Z"/><path class="cls-4" d="M238.9,149.4l-.9-1-.7-7.1c.7,2.3,2,6.6,2,6.7l-.4,1.4Zm-1.6-8.1.7,7.1.8.9.4-1.3s-.1-.5-1.9-6.7Z"/><path class="cls-5" d="M242.5,143.4c-1.1,2-3,5-3.9,7.1-.8-2.3-2.4-5.6-3.4-7.7,1.1,1.6,2.4,3.9,3.5,5.2,1.2-1.2,2.6-3.2,3.8-4.6Z"/><path class="cls-4" d="M238.6,150.6h0c-.9-2.4-2.4-5.7-3.4-7.8l1,1.5a29.63,29.63,0,0,0,2.5,3.7c.7-.7,1.6-1.9,2.4-2.9a11.22,11.22,0,0,1,1.3-1.6l-.9,1.8a46.26,46.26,0,0,0-2.9,5.3Zm-3.4-7.8a75.78,75.78,0,0,1,3.4,7.6c.7-1.5,1.9-3.5,2.9-5.3l1-1.7c-.3.5-.8,1.1-1.2,1.7a18.69,18.69,0,0,1-2.5,2.9,21.88,21.88,0,0,1-2.6-3.7l-1-1.5Z"/><path class="cls-5" d="M239.4,149.3l-.7-7.1-.7,7.1.7,1.2Z"/><path class="cls-4" d="M238.7,150.5l-.7-1.2.6-7.1c.3,2.4.8,6.9.8,7.1l-.7,1.2Zm-.1-8.3-.6,7.1.7,1.1.6-1.1c0-.1-.1-.7-.7-7.1Z"/><path class="cls-5" d="M242.6,144c-1.2,2-3.1,5-4,7-.8-2.3-2.3-5.7-3.3-7.8a53.71,53.71,0,0,0,3.4,5.3,57.26,57.26,0,0,0,3.9-4.5Z"/><path class="cls-4" d="M238.6,151.1h0a81.43,81.43,0,0,0-3.3-7.9h0c1,2.1,2.5,5.4,3.3,7.7.8-1.6,2-3.7,3.1-5.5l.9-1.5a18.26,18.26,0,0,1-1.3,1.6,18.93,18.93,0,0,1-2.6,2.9,29.63,29.63,0,0,1-2.5-3.7l-.9-1.5,1,1.5a29.63,29.63,0,0,0,2.5,3.7,26.25,26.25,0,0,0,2.5-2.9c.5-.6.9-1.1,1.3-1.6l-.8,1.5c-1.1,1.9-2.4,4-3.2,5.7Z"/><path class="cls-5" d="M239.3,149.8l-1.3-6.9-.1,7.1.8,1.1Z"/><path class="cls-4" d="M238.8,151.2,238,150l.1-7.1c.5,2.3,1.3,6.8,1.4,6.9l-.7,1.4Zm-.8-8.3V150l.8,1,.5-1.2s-.2-.6-1.3-6.9Z"/><path class="cls-5" d="M242.1,145c-1.3,1.9-3.3,4.7-4.4,6.7-.7-2.3-2-5.9-2.9-8a46.86,46.86,0,0,0,3.1,5.5,33.33,33.33,0,0,0,4.2-4.2Z"/><path class="cls-4" d="M237.7,151.8h0c-.7-2.3-1.9-5.6-2.8-7.8h0c1,2.4,2.1,5.4,2.8,7.5a59.08,59.08,0,0,1,3.2-5l1.1-1.6a17.38,17.38,0,0,1-1.3,1.5,22.84,22.84,0,0,1-2.7,2.7,33.28,33.28,0,0,1-2.4-3.9l-.4-.8.5.7A33.56,33.56,0,0,0,238,149a34.29,34.29,0,0,0,2.7-2.7c.5-.5.9-1,1.4-1.5l-1,1.6c-1.2,1.9-2.5,3.8-3.4,5.4Z"/><path class="cls-5" d="M238.7,150.6l.6-7.1-1.9,6.7.5,1.4Z"/><path class="cls-4" d="M237.8,151.7l-.5-1.4,1.9-6.7c-.1,2.4-.5,6.9-.5,7.1l-.9,1Zm1.5-8.2-1.9,6.7.4,1.3.8-.9c.1,0,.1-.7.7-7.1Z"/><path class="cls-5" d="M242.2,145.2c-1.1,2-2.8,5.1-3.7,7.2-.9-2.2-2.6-5.5-3.6-7.6,1.1,1.6,2.5,3.8,3.6,5.1a59,59,0,0,0,3.7-4.7Z"/><path class="cls-4" d="M238.5,152.5h0c-.9-2.2-2.4-5.1-3.4-7.2h0c1.2,2.3,2.6,5,3.4,6.9a44.36,44.36,0,0,1,2.7-5.3l1-1.8c-.3.5-.7,1.1-1.1,1.7a28.05,28.05,0,0,1-2.5,3.1,26.63,26.63,0,0,1-2.7-3.5l-.4-.6.5.5a28.94,28.94,0,0,0,2.6,3.5c.7-.8,1.6-2,2.4-3.1.4-.6.8-1.1,1.2-1.6l-.9,1.9c-1,1.8-2.1,3.9-2.8,5.5Z"/><path class="cls-5" d="M238.5,151.2l-2.2-6.6.8,7,.9,1Z"/><path class="cls-4" d="M238.1,152.6l-1-1-.8-7c.8,2.2,2.2,6.4,2.2,6.6l-.4,1.4Zm-1.8-8,.9,7,.9.9.4-1.3c-.1,0-.3-.5-2.2-6.6Z"/><path class="cls-5" d="M241.9,145.7c-.8,2.2-2,5.7-2.6,7.9-1.2-2-3.4-4.9-4.7-6.7a56.12,56.12,0,0,0,4.3,4.2,39.73,39.73,0,0,0,3-5.4Z"/><path class="cls-4" d="M239.4,153.7h0c-1.2-1.9-3-4.4-4.3-6.2l-.4-.5,1.3,1.2a26.14,26.14,0,0,0,3.1,2.9c.6-.9,1.2-2.2,1.9-3.5a16.45,16.45,0,0,1,1-1.9l-.5,1.8a34.91,34.91,0,0,0-2.1,6.2Zm-4.8-6.7.5.5c1.3,1.8,3.1,4.2,4.2,6,.4-1.7,1.2-4.1,1.9-6.1l.6-1.8c-.2.6-.6,1.3-.9,2a27.62,27.62,0,0,1-1.9,3.5,27.07,27.07,0,0,1-3.2-2.9l-1.2-1.2Z"/><path class="cls-5" d="M240.4,151.7l-2.4-6.5,1,7,1,.9Z"/><path class="cls-4" d="M240.1,153.2l-1-1-1-7c.8,2.2,2.3,6.4,2.4,6.5l-.4,1.5Zm-2.1-8,1.1,7,.9.9.3-1.3c.1-.1-.2-.6-2.3-6.6Z"/><path class="cls-5" d="M241.9,146.4c-.7,2.3-2,5.7-2.5,8-1.2-2-3.4-4.8-4.7-6.6a41.21,41.21,0,0,0,4.4,4.1c.9-1.5,1.9-3.9,2.8-5.5Z"/><path class="cls-4" d="M239.4,154.4h0c-1.3-2.1-3.5-4.9-4.8-6.7l1.3,1.2a26.78,26.78,0,0,0,3.1,2.9,29.49,29.49,0,0,0,1.9-3.6c.3-.7.6-1.3.9-1.9l-.6,2c-.6,2-1.4,4.4-1.8,6.1Zm-4.8-6.6a63.53,63.53,0,0,1,4.7,6.5c.4-1.7,1.2-4,1.8-6l.6-1.9a10.67,10.67,0,0,1-.9,1.9,29.49,29.49,0,0,1-1.9,3.6,20.45,20.45,0,0,1-3.2-2.9l-1.1-1.2Z"/><path class="cls-5" d="M240.4,152.8l-3-6.1,1.8,6.8,1.1.8Z"/><path class="cls-4" d="M240.3,154.3l-1.1-.8-1.8-6.8c1.1,2,3,5.9,3.1,6.1l-.2,1.5Zm-2.9-7.5,1.8,6.7,1,.7.2-1.4s-.3-.4-3-6Z"/><path class="cls-5" d="M241.7,147c-.5,2.3-1.3,5.9-1.6,8.3-1.5-1.8-3.9-4.3-5.5-5.9,1.5,1.1,3.4,2.7,4.8,3.5.9-1.7,1.6-4.2,2.3-5.9Z"/><path class="cls-4" d="M240.1,155.3h0c-1.4-1.7-3.5-3.9-5-5.4l-.5-.5,1.4,1a22,22,0,0,0,3.5,2.4,23.5,23.5,0,0,0,1.4-3.8c.2-.7.5-1.4.7-2l-.3,2a53.29,53.29,0,0,0-1.2,6.3Zm-5.5-5.9.5.4c1.5,1.5,3.6,3.7,4.9,5.3.2-1.7.7-4.1,1.1-6.2l.4-2q-.3.9-.6,2.1a23.15,23.15,0,0,1-1.5,3.8,22,22,0,0,1-3.5-2.4l-1.3-1Z"/><path class="cls-5" d="M240.6,153.8,239,147l.3,7.1.9,1.1Z"/><path class="cls-4" d="M240.1,155.2l-.9-1.1-.3-7.1c.6,2.3,1.6,6.7,1.7,6.8l-.5,1.4ZM239,147l.3,7.1.8,1,.5-1.3s-.2-.6-1.6-6.8Z"/><path class="cls-5" d="M241.7,147.7c-.3,2.4-.7,6.1-.8,8.4a70.51,70.51,0,0,0-6-5.1,37.31,37.31,0,0,0,5.1,2.8c.7-1.7,1.1-4.3,1.7-6.1Z"/><path class="cls-4" d="M240.9,156.2h0c-1.6-1.6-4.1-3.6-5.8-5h0a45.21,45.21,0,0,1,5.6,4.8,50.86,50.86,0,0,1,.6-6.4l.2-1.9a22.5,22.5,0,0,1-.5,2.2,32.56,32.56,0,0,1-1.1,4,33.57,33.57,0,0,1-3.8-1.9l-.7-.4.7.3a27.25,27.25,0,0,0,3.7,2c.4-1.1.7-2.5,1.1-3.9.2-.8.4-1.5.5-2.1l-.1,1.9c-.1,2-.4,4.5-.4,6.4Z"/><path class="cls-5" d="M240.7,154.3l-4.3-4.9,3.3,6,1.2.4Z"/><path class="cls-4" d="M240.9,155.8l-1.2-.4-3.3-6c1.5,1.6,4.3,4.8,4.4,4.9l.1,1.5Zm-4.5-6.4,3.3,5.9,1.1.4-.1-1.4h0c-.1,0-.4-.3-4.3-4.9Z"/><path class="cls-5" d="M241.7,148.5a82.12,82.12,0,0,0-.8,8.4c-1.6-1.6-4.3-3.8-5.9-5.1a37.31,37.31,0,0,0,5.1,2.8,49.19,49.19,0,0,0,1.6-6.1Z"/><path class="cls-4" d="M241,157h0c-1.6-1.6-4.1-3.6-5.7-5h0a72.59,72.59,0,0,1,5.6,4.8,49.65,49.65,0,0,1,.6-6.2l.2-2.1a20.93,20.93,0,0,1-.5,2.1,32.56,32.56,0,0,1-1.1,4,19.39,19.39,0,0,1-3.7-2l-.7-.4.7.3a22.91,22.91,0,0,0,3.7,2,32.56,32.56,0,0,0,1.1-4c.2-.7.3-1.5.5-2.1l-.2,2.1c-.2,2.3-.5,4.7-.5,6.5Z"/><path class="cls-5" d="M241.2,155.4l-3.3-5.9,2.1,6.7,1.1.7Z"/><path class="cls-4" d="M241.1,156.9l-1.1-.8-2.1-6.7c.9,1.6,3.3,5.8,3.4,5.9l-.2,1.6Zm-3.3-7.4,2.1,6.6,1,.7.1-1.4c.1,0-.1-.4-3.2-5.9Z"/><path class="cls-5" d="M242,149.5c-.2,2.4-.5,6.1-.5,8.5-1.7-1.5-4.4-3.5-6.1-4.8a35,35,0,0,0,5.2,2.5c.5-1.7.9-4.3,1.4-6.2Z"/><path class="cls-4" d="M241.5,158.1h0a62.64,62.64,0,0,0-5.9-4.6h0c1.9,1.4,4.3,3.1,5.8,4.4,0-1.7.2-4.2.3-6.3l.2-2.1a20.69,20.69,0,0,1-.4,2.2,33.33,33.33,0,0,1-1,4,20.35,20.35,0,0,1-3.8-1.7l-.7-.4.7.3a23.09,23.09,0,0,0,3.7,1.7,34.24,34.24,0,0,0,.9-4c.1-.8.3-1.5.4-2.2l-.1,2.1c.1,2.2-.1,4.7-.1,6.6Z"/><path class="cls-5" d="M241.6,156.5l-4.1-5.2,3,6.2,1.2.5Z"/><path class="cls-4" d="M241.7,158l-1.2-.5-3-6.2c1.4,1.7,4,5.1,4.2,5.1V158Zm-4.2-6.6,3,6.1,1.1.4v-1.4h0a59.76,59.76,0,0,1-4.1-5.1Z"/><path class="cls-5" d="M242,150.6c-.1,2.4-.5,6.1-.4,8.5-1.7-1.5-4.5-3.5-6.2-4.7a48.88,48.88,0,0,0,5.2,2.5,64,64,0,0,0,1.4-6.3Z"/><path class="cls-4" d="M241.6,159.2h0c-1.7-1.5-4.5-3.5-6.2-4.8l1.5.7a23.09,23.09,0,0,0,3.7,1.7,36.2,36.2,0,0,0,.9-4.1c.1-.7.3-1.4.4-2.1l-.1,1.9c-.1,2.2-.2,4.8-.2,6.7Zm-6.2-4.8c1.7,1.2,4.5,3.1,6.2,4.6,0-1.8.1-4.3.3-6.5l.1-1.9q-.15.9-.3,2.1a37.21,37.21,0,0,1-1,4.2,20.35,20.35,0,0,1-3.8-1.7l-1.5-.8Z"/><path class="cls-5" d="M242,157.4l-2.9-6.3,1.6,6.9,1,.8Z"/><path class="cls-4" d="M241.8,158.9l-1.1-.9-1.6-6.9c1,2.1,2.8,6.1,2.9,6.2l-.2,1.6Zm-2.7-7.7,1.7,6.8,1,.8.2-1.3c-.1-.1-.3-.6-2.9-6.3Z"/><path class="cls-5" d="M242.1,151.3c.1,2.4.1,6.2.4,8.5a63.42,63.42,0,0,0-6.6-3.9,42.71,42.71,0,0,0,5.4,1.8c.4-1.8.5-4.4.8-6.4Z"/><path class="cls-4" d="M242.5,159.9h0c-1.8-1.2-4.5-2.8-6.4-3.8h0c2,1.1,4.6,2.5,6.2,3.6a60.51,60.51,0,0,1-.3-6.3l-.1-2.1a18,18,0,0,1-.2,2.2,25,25,0,0,1-.6,4.2,18.82,18.82,0,0,1-3.9-1.2l-.8-.3.8.2a27.86,27.86,0,0,0,3.9,1.2c.2-1.1.4-2.7.5-4.1.1-.8.1-1.5.2-2.2l.1,2.1c.3,2.2.4,4.7.6,6.5Z"/><path class="cls-5" d="M242.5,157.2l-5.2-3.6,4.4,4.9,1.2.1Z"/><path class="cls-4" d="M243,158.6l-1.3-.1-4.5-4.9c1.5.9,5.1,3.5,5.3,3.5l.5,1.5Zm-5.8-5,4.5,4.9h1.2l-.4-1.3h0c-.1,0-3.4-2.3-5.3-3.6Z"/><path class="cls-5" d="M242.3,151.6c.2,2.4.4,6.1.8,8.4a74.46,74.46,0,0,0-6.8-3.6,47.08,47.08,0,0,0,5.5,1.6c.4-1.8.3-4.5.5-6.4Z"/><path class="cls-4" d="M243.1,160.1h0c-1.8-1.2-4.6-2.5-6.5-3.5h0a60.42,60.42,0,0,1,6.3,3.3,60.13,60.13,0,0,1-.6-6.5l-.2-1.9v2.1a27.37,27.37,0,0,1-.4,4.3,25.89,25.89,0,0,1-4-1l-.6-.2.7.1c1.4.4,2.8.9,3.9,1.1a26.73,26.73,0,0,0,.3-4.2c0-.7.1-1.5.1-2.1l.2,1.9c.3,2.2.5,4.8.8,6.6Z"/><path class="cls-5" d="M243,158.5l-4.4-5,3.3,6,1.2.4Z"/><path class="cls-4" d="M243.2,160l-1.3-.5-3.3-6.1c1.5,1.7,4.3,4.9,4.4,5l.2,1.6Zm-4.6-6.5,3.4,6,1.1.4-.1-1.4h0s-.4-.3-4.4-5Z"/><path class="cls-5" d="M242.6,152.5c.3,2.4.7,6.1,1.2,8.4a70.89,70.89,0,0,0-6.9-3.2,42.17,42.17,0,0,0,5.5,1.2,44.68,44.68,0,0,0,.2-6.4Z"/><path class="cls-4" d="M243.9,161h0a66.76,66.76,0,0,0-6.7-3.1h0a66.08,66.08,0,0,1,6.5,3,60,60,0,0,1-.9-6.5l-.2-1.8c0,.7.1,1.4.1,2.2a27.5,27.5,0,0,1-.2,4.2,15,15,0,0,1-3.9-.8l-.8-.2.9.1a22.56,22.56,0,0,0,3.9.8c.1-1.2.1-2.7.1-4.2v-2.2l.3,1.8a64,64,0,0,0,.9,6.7Z"/><path class="cls-5" d="M243.9,159.4l-5.2-3.7,4.4,5,1.2.1Z"/><path class="cls-4" d="M244.4,160.8l-1.3-.1-4.4-5c1.8,1.2,5.1,3.6,5.2,3.6l.5,1.5Zm-5.7-5.1,4.4,4.9,1.2.1-.4-1.3h0c-.1,0-2.9-2-5.2-3.7Z"/><path class="cls-5" d="M242.8,153.5c.5,2.4,1.1,6.1,1.7,8.3a66.79,66.79,0,0,0-7.1-2.5,38.92,38.92,0,0,0,5.6.7,47.55,47.55,0,0,0-.2-6.5Z"/><path class="cls-4" d="M244.6,161.9h0c-2-.9-4.9-1.8-6.9-2.5h0c2.2.7,4.9,1.6,6.7,2.4-.5-1.7-.9-4.1-1.3-6.2l-.4-2a15,15,0,0,1,.2,2.2,30.46,30.46,0,0,1,.1,4.2,25.81,25.81,0,0,1-4-.4l-.8-.1.8.1a26,26,0,0,0,3.7.4,14.49,14.49,0,0,0,.1-4.2,17.73,17.73,0,0,1-.1-2.2l.5,2c.4,2.1.9,4.5,1.4,6.3Z"/><path class="cls-5" d="M244.5,160.1l-4.3-5.1,3.2,6.1,1.2.5Z"/><path class="cls-4" d="M244.7,161.6l-1.2-.5-3.3-6.1c1.5,1.7,4.3,5,4.4,5.1l.1,1.5Zm-4.5-6.6,3.3,6.1,1.1.4-.1-1.4h0c-.1,0-.4-.4-4.3-5.1Z"/><path class="cls-5" d="M243.1,154.2c.7,2.3,1.6,5.9,2.5,8.1-2-.6-5.2-1.2-7.2-1.6a34.48,34.48,0,0,0,5.6-.1c-.1-1.9-.7-4.5-.9-6.4Z"/><path class="cls-4" d="M245.6,162.3h0c-2.1-.6-5.2-1.2-7.2-1.6h0a51,51,0,0,1,7,1.5c-.6-1.6-1.3-3.9-1.9-6l-.6-2a14.35,14.35,0,0,1,.4,2.2,36.47,36.47,0,0,1,.5,4.2,13.14,13.14,0,0,1-4,.1h0a25.69,25.69,0,0,0,4-.1,32.6,32.6,0,0,0-.5-4.1,19.19,19.19,0,0,1-.3-2.2l.7,2c.6,2,1.3,4.3,1.9,6Z"/><path class="cls-5" d="M244.7,160.1l-6-1.3,5.7,2.8,1.2-.4Z"/><path class="cls-4" d="M244.4,161.7l-5.7-2.9c2,.4,5.9,1.2,6,1.2l.9,1.1-1.2.6Zm-5.7-2.9,5.7,2.8,1.2-.4-.9-1.1c-.1,0-5.8-1.2-6-1.3Z"/><path class="cls-5" d="M243.5,154.9c.7,2.3,1.6,5.9,2.5,8.1a66.9,66.9,0,0,0-7.2-1.6,52.27,52.27,0,0,0,5.6,0c-.1-2-.7-4.5-.9-6.5Z"/><path class="cls-4" d="M246,163h0c-2-.6-4.9-1.2-6.9-1.6h0a51.56,51.56,0,0,1,6.7,1.5c-.6-1.6-1.3-4.1-1.9-6.1l-.5-1.9a13,13,0,0,1,.4,2.1,35.56,35.56,0,0,1,.5,4.3,13.14,13.14,0,0,1-4,.1h-.6l.6-.1c.7,0,1.4.1,2,.1h0a10.89,10.89,0,0,0,1.9-.1,36.47,36.47,0,0,0-.5-4.2q-.15-1.2-.3-2.1l.6,1.9c.7,2,1.3,4.4,2,6.1Z"/><path class="cls-5" d="M245.7,160.7l-5.8-2.8,5.2,4.2,1.2-.1Z"/><path class="cls-4" d="M245.1,162.2l-5.2-4.2c1.6.7,5.6,2.7,5.8,2.7l.7,1.3-1.3.2Zm-5.2-4.2,5.2,4.1,1.2-.1-.7-1.2h0c0-.1-4.3-2.2-5.7-2.8Z"/><path class="cls-5" d="M243.2,155.3c1.1,2.1,2.8,5.4,4.1,7.3-2.1-.2-5.4,0-7.4,0a38.86,38.86,0,0,0,5.4-1.3c-.4-1.7-1.5-4.1-2.1-6Z"/><path class="cls-4" d="M239.9,162.7h0l1.6-.4a27.45,27.45,0,0,0,3.9-1c-.3-1.1-.9-2.6-1.4-4a18,18,0,0,1-.8-2.1l1,1.7a55.8,55.8,0,0,0,3.2,5.6c-2.1,0-5.1,0-7.1.1h-.1l-.3.1Zm3.3-7.4a11.92,11.92,0,0,1,.8,2c.5,1.4,1.1,2.8,1.4,4a18.42,18.42,0,0,1-3.9,1l-1.1.2a53,53,0,0,1,6.9,0,53.58,53.58,0,0,1-3.2-5.5l-.9-1.7Z"/><path class="cls-5" d="M246.6,161.4l-6-1.7,5.6,3.2,1.2-.4Z"/><path class="cls-4" d="M246.3,162.9h0l-5.6-3.2c1.6.4,5.8,1.6,6,1.6l.9,1.2-1.3.4Zm-5.7-3.2,5.6,3.1,1.2-.4-.8-1.1c-.1.1-5.4-1.4-6-1.6Z"/><path class="cls-5" d="M243.8,156.2c1.2,2.1,2.8,5.4,4.1,7.3-2.1-.1-5.4,0-7.4.1a38.86,38.86,0,0,0,5.4-1.3,36.74,36.74,0,0,0-2.1-6.1Z"/><path class="cls-4" d="M240.6,163.6h0l1.6-.4a25.84,25.84,0,0,0,3.8-1c-.3-1.2-.9-2.6-1.4-4-.3-.7-.5-1.4-.8-2l1.1,1.9c1,1.9,2.2,4,3.1,5.4h-2.2c-1.7,0-3.6.1-5,.1h-.2Zm3.2-7.4a15.39,15.39,0,0,1,.8,1.9,28.5,28.5,0,0,1,1.4,4.1,13.88,13.88,0,0,1-3.9,1l-1.2.2c2-.1,5-.2,6.9-.1a49.69,49.69,0,0,1-3.1-5.3l-.9-1.8Z"/><path class="cls-5" d="M247.4,161.9l-5.6-3.3,4.9,4.7H248Z"/><path class="cls-4" d="M248,163.2h-1.3l-4.9-4.7c1.9,1.1,5.5,3.2,5.6,3.3l.6,1.4Zm-6.2-4.7,4.9,4.6h1.2l-.5-1.3h0a54.08,54.08,0,0,1-5.6-3.3Z"/><path class="cls-5" d="M244.3,156.7a68.7,68.7,0,0,0,4.8,6.8c-2.1.1-5.3.7-7.2,1a51.45,51.45,0,0,0,5.2-2c-.7-1.7-2-4-2.8-5.8Z"/><path class="cls-4" d="M241.8,164.6h0l1.5-.6a28.11,28.11,0,0,0,3.7-1.5,31.71,31.71,0,0,0-1.8-3.8c-.3-.7-.7-1.4-1-2l1.1,1.6c1.2,1.8,2.6,3.9,3.7,5.2-2,.2-5.1.7-7.1,1.1Zm2.4-7.8c.3.6.7,1.2,1,1.9a31.71,31.71,0,0,1,1.8,3.8,25.68,25.68,0,0,1-3.7,1.6l-1.1.4c2-.3,4.9-.9,6.8-1-1.1-1.3-2.5-3.4-3.7-5.1l-1.1-1.6Z"/><path class="cls-5" d="M247.8,162.3l-6-.1,6,1.8,1.1-.7Z"/><path class="cls-4" d="M247.7,164l-6-1.8c0-.1,4.8.1,5.8.1l.1.1c-1.3,0-5.9-.1-5.9-.1l6,1.7,1-.7-.3-.2.3.2-1,.7Z"/><path class="cls-5" d="M251.3,133.2l4.3-.7-4.3.1-.7.4Z"/><path class="cls-4" d="M251.3,133.2l-.7-.2.7-.5,4.3-.1c0,.1-4.2.8-4.3.8Zm4.3-.8-4.3.2-.7.4.7.2a38.34,38.34,0,0,1,4.3-.8Z"/><path class="cls-5" d="M253.6,134.1c-1.3-.4-3.1-1-4.4-1.3a49,49,0,0,0,4.6-2.1,27.85,27.85,0,0,0-3.1,2c.8.5,2.1,1,2.9,1.4Z"/><path class="cls-4" d="M253.6,134.1l-1.2-.4c-1.1-.3-2.3-.7-3.3-.9,1.4-.6,3.4-1.6,4.6-2.2h0a49.11,49.11,0,0,1-4.6,2.2,16.46,16.46,0,0,1,3.3.9l.6.2-.5-.2a8.48,8.48,0,0,1-1.9-1,14,14,0,0,1,2.2-1.5l.9-.5-.7.6c-.8.5-1.7,1-2.2,1.4a17.15,17.15,0,0,0,1.9.9l.9.5Z"/><path class="cls-5" d="M251.1,133.3l4.2-1.1-4.3.6-.6.5Z"/><path class="cls-4" d="M251.1,133.4l-.8-.1.6-.5,4.4-.6s-4.1,1.1-4.2,1.2Zm4.2-1.3-4.3.6-.6.4.8.1s.7-.2,4.1-1.1Z"/><path class="cls-5" d="M253.9,134.4c-1.5-.1-3.7-.4-5.2-.4,1.1-1,2.6-2.6,3.6-3.6-.6.9-1.6,2.2-2.1,3.1,1,.3,2.5.6,3.7.9Z"/><path class="cls-4" d="M253.8,134.4l-1.3-.1c-1.3-.1-2.8-.3-3.9-.3,1.1-1,2.6-2.6,3.5-3.6h0a39.47,39.47,0,0,1-3.5,3.6c1.1,0,2.6.1,3.9.2l.7.1-.7-.2q-1.35-.3-2.4-.6a11.35,11.35,0,0,1,1.4-2.2l.6-.8-.5.9a19.1,19.1,0,0,0-1.4,2.1c.6.2,1.5.4,2.4.6l1.2.3Z"/><path class="cls-5" d="M249.5,133.6l4.4-.5-4.2-.1-.8.3Z"/><path class="cls-4" d="M249.5,133.7l-.7-.3.8-.4,4.3.1c0,.1-4.2.5-4.4.6Z"/><path class="cls-5" d="M252.8,134.6c-1.3-.3-3.4-.7-4.7-.9a43.76,43.76,0,0,0,4.3-2.4,34,34,0,0,0-2.8,2.1,23.76,23.76,0,0,0,3.2,1.2Z"/><path class="cls-4" d="M252.8,134.6l-1.2-.2c-1.2-.2-2.5-.5-3.5-.6,1.3-.7,3.1-1.7,4.2-2.4h0a44.94,44.94,0,0,1-4.2,2.4,24.53,24.53,0,0,1,3.5.5l.6.1-.5-.2a8.39,8.39,0,0,1-2.1-.8,17.5,17.5,0,0,1,1.9-1.6l.7-.5-.7.6a18.05,18.05,0,0,0-1.9,1.5,17.07,17.07,0,0,0,2.1.7l1.1.5Z"/><path class="cls-5" d="M249.2,133.6,253,132l-4.2,1.1-.5.5Z"/><path class="cls-4" d="M249.2,133.6h-.9l.5-.6,4.2-1.1c0,.1-3.7,1.6-3.8,1.7Zm3.8-1.7-4.2,1.2-.5.5h.8c.2-.1.8-.4,3.9-1.7Z"/><path class="cls-5" d="M252.6,135.1c-1.1-.5-2.8-1.2-3.9-1.6.8-.8,2-2.2,2.8-3a20,20,0,0,0-1.6,2.8c.7.6,1.9,1.2,2.7,1.8Z"/><path class="cls-4" d="M252.6,135.1l-.8-.4a24.48,24.48,0,0,0-3.1-1.2c.8-.8,2-2.2,2.7-3h0c-.8,1-1.9,2.2-2.7,3a17.71,17.71,0,0,1,3.1,1.2l.4.2-.5-.3a14,14,0,0,1-1.8-1.2,10.6,10.6,0,0,1,1.1-2.1l.4-.6-.4.6a13.64,13.64,0,0,0-1.1,2c.5.4,1.2.8,1.8,1.2l.9.6Z"/><path class="cls-5" d="M249.4,133.9l3-1.3-3.2.4-.4.6Z"/><path class="cls-4" d="M249.4,133.9l-.7-.3.4-.6,3.3-.5c-1.2.6-2.9,1.3-3,1.4Zm2.9-1.4-3.2.5-.4.6.6.2a30.91,30.91,0,0,0,3-1.3Z"/><path class="cls-5" d="M246.9,161.8h-6.2l6.3,1.5,1-.7Z"/><path class="cls-4" d="M247,163.4l-6.3-1.5c1.7-.1,6-.1,6.2-.1l1.1.9-1,.7Zm-.1-1.6s-.6.1-6.2.1l6.3,1.5,1-.7-1.1-.9Z"/><path class="cls-5" d="M248,162.2l-6.3-1.5,6,3,1.2-.4Z"/><path class="cls-4" d="M247.7,163.7h0l-6-3c2.1.4,6.1,1.4,6.3,1.4l1,1.1-1.3.5Zm-6-2.9,6,2.9,1.2-.4-.9-1.1h0c-.3,0-6-1.4-6.3-1.4Z"/><path class="cls-5" d="M249,162.6l-6.2-.3,6.2,1.9,1.1-.6Z"/><path class="cls-4" d="M249,164.2l-6.3-1.9c0-.1,5.5.2,6.2.2l1.2,1-1.1.7Zm-6.2-1.9,6.2,1.8,1-.6-1.1-.9c-.9-.1-6.1-.3-6.1-.3Z"/><path class="cls-5" d="M245.1,158.2c1.6,1.8,4,4.6,5.7,6.2-2.1.3-5.2,1.2-7.2,1.7a29.14,29.14,0,0,0,5-2.5c-.8-1.6-2.5-3.7-3.5-5.4Z"/><path class="cls-4" d="M243.6,166.1h0l1.4-.7a22.46,22.46,0,0,0,3.5-1.8c-.6-1.1-1.5-2.3-2.3-3.6a18.76,18.76,0,0,1-1.2-1.8l1.3,1.4c1.5,1.6,3.2,3.6,4.5,4.8-2,.4-5,1.2-7,1.7h-.2Zm1.4-7.9a14,14,0,0,1,1.3,1.8,21.47,21.47,0,0,1,2.3,3.6,20.06,20.06,0,0,1-3.6,1.9l-1,.5c2-.5,4.8-1.3,6.8-1.6a51.52,51.52,0,0,1-4.5-4.7l-1.3-1.5Z"/><path class="cls-5" d="M249.9,162.9l-6.2-2,5.9,3.5,1.2-.3Z"/><path class="cls-4" d="M249.5,164.4h0l-5.9-3.5c2.1.6,6.1,2,6.2,2l.9,1.2-1.2.3Zm-5.9-3.5,5.9,3.4,1.2-.3-.9-1.1h0c-.1,0-5.5-1.8-6.2-2Z"/><path class="cls-5" d="M245.6,158.6c1.8,1.6,4.4,4.2,6.3,5.6a68.45,68.45,0,0,0-6.8,2.6,41,41,0,0,0,4.6-3.1,61.06,61.06,0,0,0-4.1-5.1Z"/><path class="cls-4" d="M245.1,166.8h0l1.3-.9a23.54,23.54,0,0,0,3.3-2.3,33.82,33.82,0,0,0-2.6-3.3c-.5-.6-1-1.2-1.4-1.7l1.6,1.3c1.6,1.5,3.4,3.2,4.7,4.2a66.56,66.56,0,0,0-6.7,2.6l-.2.1Zm.5-8.2c.5.5,1,1.1,1.5,1.7a23.29,23.29,0,0,1,2.6,3.3,17.37,17.37,0,0,1-3.3,2.3l-.9.6a55.49,55.49,0,0,1,6.4-2.4c-1.4-1-3.2-2.7-4.8-4.1l-1.5-1.4Z"/><path class="cls-5" d="M250.4,163.3l-5.9,1.2,6.2.4.9-.9Z"/><path class="cls-4" d="M250.7,164.9h0l-6.2-.4c1.6-.4,5.7-1.2,5.9-1.2l1.2.7-.9.9Zm-.3-1.6-5.9,1.2,6.2.3.9-.9-1.2-.6Z"/><path class="cls-5" d="M249.2,162.9l-6.2.5,6.4,1.1,1-.7Z"/><path class="cls-4" d="M249.4,164.5l-6.4-1.1c1.7-.2,6-.5,6.2-.5l1.2.8-1,.8Zm-.3-1.5s-.6.1-6.2.5l6.3,1,1-.7-1.1-.8Z"/><path class="cls-5" d="M250.3,163.3l-6.4-1,6.2,2.5,1.2-.5Z"/><path class="cls-4" d="M250.2,164.8h0l-6.3-2.5c.1-.1,6.1,1,6.4.9l1.1,1.1-1.2.5Zm-6.3-2.5,6.2,2.5,1.1-.5-1-1h0c-.3,0-6-1-6.3-1Z"/><path class="cls-5" d="M251.4,163.6l-6.3.1,6.4,1.4,1-.7Z"/><path class="cls-4" d="M251.5,165.2l-6.4-1.4c1.7-.1,6.1-.2,6.2-.2l1.2.9-1,.7Zm-.2-1.6s-.6.1-6.2.1l6.4,1.4,1-.7-1.2-.8Z"/><path class="cls-5" d="M247.1,159.5c1.8,1.7,4.4,4.3,6.2,5.8a71.6,71.6,0,0,0-7,2.2,31.82,31.82,0,0,0,4.8-2.8,65.4,65.4,0,0,0-4-5.2Z"/><path class="cls-4" d="M246.3,167.5h0l1.4-.8a25.5,25.5,0,0,0,3.4-2,31,31,0,0,0-2.6-3.4c-.5-.6-1-1.2-1.4-1.7l1.5,1.4c1.6,1.5,3.4,3.3,4.7,4.4-2,.5-5,1.5-6.9,2.2l-.1-.1Zm.7-8c.5.5.9,1.1,1.4,1.7.9,1.2,1.9,2.4,2.6,3.4a20.18,20.18,0,0,1-3.4,2.1l-1,.6a55.27,55.27,0,0,1,6.6-2,44.83,44.83,0,0,1-4.7-4.3l-1.5-1.5Z"/><path class="cls-5" d="M252.2,163.9l-6.4-1.6,6.1,3.1,1.2-.3Z"/><path class="cls-4" d="M252,165.4l-6.1-3.1c2.1.5,6.2,1.5,6.4,1.5l1,1.1-1.3.5Zm-6.2-3.1,6.1,3,1.2-.3-1-1.1h0c-.1,0-6-1.5-6.3-1.6Z"/><path class="cls-5" d="M247.7,159.9a79,79,0,0,0,6.7,5.1c-2,.7-4.8,2.2-6.6,3a51.2,51.2,0,0,0,4.4-3.4c-1.2-1.5-3.2-3.3-4.5-4.7Z"/><path class="cls-4" d="M247.7,168.1h0l1.3-1a19.83,19.83,0,0,0,3-2.5,27.07,27.07,0,0,0-2.9-3.2c-.5-.5-1.1-1.1-1.5-1.6l1.7,1.3c1.7,1.3,3.6,2.9,5,3.8-1.9.7-4.5,2.1-6.3,3l-.3.2Zm0-8.2c.5.4,1,1,1.6,1.5a27.07,27.07,0,0,1,2.9,3.2,16.81,16.81,0,0,1-3.1,2.5l-1,.7a56.46,56.46,0,0,1,6.2-2.8,47.36,47.36,0,0,1-5-3.8l-1.6-1.3Z"/><path class="cls-5" d="M252.8,164.2l-5.8,1.6h6.3l.8-.9Z"/><path class="cls-4" d="M247,165.8h0c1.6-.5,5.7-1.6,5.8-1.6l1.3.6-.8,1Zm5.8-1.6s-.6.2-5.5,1.5h6l.8-.9-1.3-.6Z"/><polygon class="cls-7" points="262.7 156.2 256 151.6 249.4 156.2 251.9 148.9 246 144.3 253.5 144.3 256 137 258.5 144.3 266 144.3 260.2 148.9 262.7 156.2"/><path class="cls-4" d="M262.7,156.3l-6.7-4.7-6.6,4.6,2.4-7.4-5.8-4.5,7.5-.1,2.5-7.3,2.6,7.3H266l-5.8,4.7,2.5,7.4ZM256,137l-2.4,7.3h-7.5l5.8,4.5-2.5,7.4,6.6-4.6,6.6,4.5-2.5-7.2,5.8-4.6-7.4.1L256,137Z"/><path class="cls-8" d="M280.8,155.1l2.1.8,3.6-.6-.3.7-1.9.3a3.4,3.4,0,0,1-1,.1,5.72,5.72,0,0,1,.7.8l1.2,1.4-.3.7-2.2-2.9-2.1-.8Z"/><path class="cls-8" d="M286.8,146.9l.1.6-3.1.3a2.82,2.82,0,0,1-1.3,0,1.37,1.37,0,0,1-.8-.5,1.82,1.82,0,0,1-.4-1.1,3.75,3.75,0,0,1,.1-1.1,1.58,1.58,0,0,1,.7-.7,2.5,2.5,0,0,1,1.3-.3l3.1-.3.1.6-3.1.3a2.15,2.15,0,0,0-1,.2,1,1,0,0,0-.5.4,1.48,1.48,0,0,0-.1.7c0,.5.2.8.5.9a2,2,0,0,0,1.4.1Z"/><path class="cls-8" d="M282.5,140.6l.6-.1.4,2-2,.4a6,6,0,0,1-.8-.8,3,3,0,0,1-.4-1,1.9,1.9,0,0,1,.1-1.3,1.59,1.59,0,0,1,.8-1,3,3,0,0,1,1.4-.6,3.79,3.79,0,0,1,1.5,0,2.12,2.12,0,0,1,1.8,1.8,1.7,1.7,0,0,1,0,1,1.61,1.61,0,0,1-.4.7,1.58,1.58,0,0,1-.8.5l-.3-.5c.3-.1.4-.3.6-.4a2.19,2.19,0,0,0,.3-.5,1.63,1.63,0,0,0,0-.7,4.88,4.88,0,0,0-.3-.7,1,1,0,0,0-.5-.4,1.42,1.42,0,0,0-.6-.2h-1.1a2.26,2.26,0,0,0-1.1.5,1.56,1.56,0,0,0-.6.8,1.39,1.39,0,0,0,0,.9c0,.3.2.5.3.8s.3.4.5.5l1-.2Z"/><polygon class="cls-8" points="259.9 123.6 260.8 118.3 261.4 118.4 260.6 123.1 262.9 123.5 262.8 124.1 259.9 123.6"/><polygon class="cls-8" points="254.6 123.2 254.6 117.8 258.1 117.8 258.1 118.5 255.3 118.5 255.3 120.1 257.9 120.1 257.9 120.8 255.3 120.8 255.3 122.6 258.2 122.6 258.2 123.2 254.6 123.2"/><path class="cls-8" d="M239.7,126.6l.6-.3a2.06,2.06,0,0,1,.3,1.5,2.13,2.13,0,0,1-.7,1.2,3.38,3.38,0,0,1-1.2.6,2.66,2.66,0,0,1-1.2-.3,3.13,3.13,0,0,1-1.1-.9,2.79,2.79,0,0,1-.7-1.3,2.85,2.85,0,0,1,0-1.3,1.69,1.69,0,0,1,.7-1,2.08,2.08,0,0,1,1.2-.5,2.2,2.2,0,0,1,1.3.4l-.4.5a1.61,1.61,0,0,0-.9-.3,1.33,1.33,0,0,0-.8.3,1.37,1.37,0,0,0-.5.8,1.41,1.41,0,0,0,.1.9,2.36,2.36,0,0,0,.6.9,6.47,6.47,0,0,0,.9.8,1,1,0,0,0,.9.2,1.14,1.14,0,0,0,.8-.3,1.37,1.37,0,0,0,.5-.8,7.6,7.6,0,0,0-.4-1.1Z"/><polygon class="cls-8" points="237.4 131.4 233.4 127.8 233.9 127.3 237.9 130.9 237.4 131.4"/><polygon class="cls-8" points="234.8 134.4 230.6 131.1 231 130.6 234.7 133.5 236.2 131.7 236.7 132.1 234.8 134.4"/><path class="cls-8" d="M226.8,137.6l.2-.6,2.9,1.1a3.58,3.58,0,0,1,1.1.6,1.37,1.37,0,0,1,.5.8,2.16,2.16,0,0,1-.1,1.1,3.49,3.49,0,0,1-.6.9,1.61,1.61,0,0,1-.9.3,3.45,3.45,0,0,1-1.3-.3l-2.9-1.1.2-.6,2.9,1.1a2.65,2.65,0,0,0,1,.3.73.73,0,0,0,.6-.2.92.92,0,0,0,.4-.6,1.08,1.08,0,0,0,0-1.1c-.1-.3-.5-.5-1.2-.8Z"/><polygon class="cls-8" points="230 150.7 224.6 150.7 224.6 147.2 225.2 147.2 225.2 150.1 226.9 150.1 226.9 147.4 227.5 147.4 227.5 150 229.3 150 229.3 147.1 230 147.1 230 150.7"/><path class="cls-8" d="M250.1,124l-1.1-5.3,1.6-.3a3.08,3.08,0,0,1,.9-.1,2.35,2.35,0,0,1,.8.2,2.7,2.7,0,0,1,.7.8,3.37,3.37,0,0,1,.4,1.2,4.48,4.48,0,0,1,.1,1.1,1.88,1.88,0,0,1-.2.8l-.3.6a1,1,0,0,1-.5.4,1.85,1.85,0,0,1-.7.2Zm.5-.7,1-.2a6.37,6.37,0,0,0,.7-.2.78.78,0,0,0,.4-.4,1.45,1.45,0,0,0,.2-.7,3.75,3.75,0,0,0-.1-1,2.25,2.25,0,0,0-.5-1.2,1.16,1.16,0,0,0-.7-.5h-.8l-1,.2Z"/><path class="cls-8" d="M267.5,126.2l2.5-4.8,1.6.8a5.92,5.92,0,0,1,.6.4,1,1,0,0,1,.4.5,1.27,1.27,0,0,1,.1.6,1.85,1.85,0,0,1-.2.7,2,2,0,0,1-.9.9,1.69,1.69,0,0,1-1.5-.2l-1.1-.6-1,1.9Zm1.9-2.3,1.1.6c.4.2.7.3.9.2a1.33,1.33,0,0,0,.6-.5,1.27,1.27,0,0,0,.1-.6c0-.2-.1-.3-.2-.5a2.19,2.19,0,0,0-.5-.3l-1.1-.6Z"/><path class="cls-8" d="M270.3,127.6l5-2.8.5.5-2.2,5.3-.5-.5.7-1.6-1.5-1.3-1.5.9Zm2.5-.8,1.2,1.1.6-1.4a9.74,9.74,0,0,0,.5-1.1l-.9.6Z"/><path class="cls-8" d="M274.1,131.2l4.3-3.3,1.3,1.7a2,2,0,0,1,.5.9,1.7,1.7,0,0,1-.1.7,1,1,0,0,1-.5.6,1.69,1.69,0,0,1-1,.3,1.59,1.59,0,0,1-1-.5v.5a1.61,1.61,0,0,1-.3.9l-.7,1.6-.5-.6.5-1.2a4.12,4.12,0,0,0,.3-.8,1.09,1.09,0,0,0,.1-.5.37.37,0,0,0-.1-.3c0-.1-.1-.2-.2-.3l-.4-.6-1.9,1.5Zm2.8-1.3.8,1.1c.2.2.3.4.5.5a.9.9,0,0,0,.5.1c.2,0,.3-.1.5-.2a.71.71,0,0,0,.3-.6,1.6,1.6,0,0,0-.3-.8l-.9-1.2Z"/><path class="cls-8" d="M277,134.9l5.6-1,.3.6-3.8,4.3-.3-.6,1.2-1.3-1-1.7-1.7.3Zm2.6.1.8,1.4,1.1-1.2a5.93,5.93,0,0,1,.8-.8l-1,.3Z"/><path class="cls-8" d="M281.8,148.8l5.2,2.4-.1.7-5.6,1.4.1-.7,1.7-.4.2-2-1.6-.7Zm2,1.6-.2,1.6,1.5-.3a7.38,7.38,0,0,1,1.2-.2,4.18,4.18,0,0,1-1-.4Z"/><path class="cls-8" d="M230.8,155.6l-5.3,1.2-.5-2.1a3.75,3.75,0,0,1-.1-1c0-.2.2-.4.4-.6a2.51,2.51,0,0,1,.7-.4,1.64,1.64,0,0,1,1,.1,2.18,2.18,0,0,1,.7.9c.1-.2.1-.3.2-.4s.3-.4.6-.7l1.3-1.1.2.8-1,.9-.6.6a1.38,1.38,0,0,1-.3.4c0,.1-.1.2-.1.3v.3l.2.7,2.3-.5Zm-3,0-.3-1.3c-.1-.3-.1-.5-.3-.6a1.38,1.38,0,0,0-.4-.3c-.2,0-.3-.1-.5,0a1.27,1.27,0,0,0-.6.4,2,2,0,0,0-.1.8l.3,1.5Z"/><path class="cls-8" d="M230.2,145.9l-5.4-.5.2-1.8a5.64,5.64,0,0,1,.1-.7l.3-.6a.6.6,0,0,1,.6-.3,1.7,1.7,0,0,1,.7-.1,1.43,1.43,0,0,1,1.1.5,1.57,1.57,0,0,1,.3,1.4L228,145l2.2.2Zm-2.8-.9.1-1.2c0-.4,0-.7-.2-.9a.91.91,0,0,0-.7-.3,1.27,1.27,0,0,0-.6.1c-.2.1-.3.2-.3.4a3.54,3.54,0,0,0-.1.6l-.1,1.2Z"/><path class="cls-8" d="M232.4,137.9l-4.5-3,1-1.5a1.7,1.7,0,0,1,.6-.6,1.85,1.85,0,0,1,.7-.2,1.45,1.45,0,0,1,.7.2,1,1,0,0,1,.4.5.82.82,0,0,1,.1.7,1.14,1.14,0,0,1,.8-.3,1.33,1.33,0,0,1,.8.3,1.21,1.21,0,0,1,.5.5,1.42,1.42,0,0,1,.2.6,1.27,1.27,0,0,1-.1.6,4.88,4.88,0,0,0-.3.7Zm-2.2-2.2.6-.9a.91.91,0,0,0,.3-.5v-.5c-.1-.1-.2-.3-.3-.4a.76.76,0,0,0-.5-.2c-.2,0-.3,0-.4.1a3.81,3.81,0,0,0-.5.6l-.5.8Zm2.1,1.3.7-1c.1-.2.2-.3.2-.4s.1-.3.1-.4a.76.76,0,0,0-.1-.4l-.3-.3c-.2-.1-.3-.2-.5-.2a.9.9,0,0,0-.5.1l-.5.5-.6.9Z"/><path class="cls-8" d="M241.3,127.6l-1.3-5.5.6-.4,4.5,3.5-.6.4-1.3-1.1-1.7,1.1.4,1.7Zm0-2.6,1.4-.9-1.2-1a8.18,8.18,0,0,1-.9-.8c.1.3.2.7.3,1Z"/></g></g></svg>