<svg xmlns="http://www.w3.org/2000/svg" viewBox="0 0 512 298.7"><defs><style>.cls-1{fill:#691941;}.cls-2{fill:#fff;}</style></defs><g id="Layer_2" data-name="Layer 2"><g id="Layer_1-2" data-name="Layer 1"><polygon class="cls-1" points="152.7 0 207.1 16.6 152.7 33.1 207.1 49.7 152.7 66.3 207.1 82.9 152.7 99.5 207.1 116.1 152.7 132.7 207.1 149.3 152.7 165.9 207.1 182.5 152.7 199.1 207.1 215.7 152.7 232.3 207.1 248.9 152.7 265.5 207.1 282.1 152.7 298.7 512 298.7 512 0 152.7 0"/><polygon class="cls-2" points="0 0 0 298.7 152.7 298.7 207.1 282.1 152.7 265.5 207.1 248.9 152.7 232.3 207.1 215.7 152.7 199.1 207.1 182.5 152.7 165.9 207.1 149.3 152.7 132.7 207.1 116.1 152.7 99.5 207.1 82.9 152.7 66.3 207.1 49.7 152.7 33.1 207.1 16.6 152.7 0 0 0"/></g></g></svg>