<svg xmlns="http://www.w3.org/2000/svg" viewBox="0 0 512 298.7"><defs><style>.cls-1{fill:#fff;}.cls-2{fill:#3e73b7;}.cls-3{fill:#eac126;}.cls-3,.cls-5{fill-rule:evenodd;}.cls-4,.cls-5{fill:#292c2f;}</style></defs><g id="Layer_2" data-name="Layer 2"><g id="Layer_1-2" data-name="Layer 1"><rect class="cls-1" width="512" height="298.7"/><path class="cls-2" d="M0,265.5H512V232.3H0Zm0-66.4H512V165.9H0Zm166-66.4H512V99.5H166Zm0-66.4H512V33.1H166Z"/><path class="cls-3" d="M83.2,83.2l1.4,24.5c-22.6,16.4-8.7,26-25,31.3,11.1-11.1-3.4-11.1,9.1-36.1"/><path class="cls-4" d="M83.7,83.2l1.4,24.5h-1L82.2,83.2Zm1.5,24.5h0v.5l-.5-.5Zm0,.5c-12,8.7-13.5,15.4-14.9,20.2H68.9c1.4-5.3,3.4-12.5,15.4-21.2Zm-15,20.2c-1.4,5.3-2.4,8.7-10.1,11.1l-.5-1c7.2-2.4,8.2-5.8,9.1-10.1Zm-10.1,11-2.4,1,1.4-1.4h.5Zm-.9-.4c4.8-5.3,4.8-8.2,3.9-12h1.4c.5,3.8,1,7.2-4.3,12.5ZM63,126.9c-.5-4.8-1.4-11.1,5.3-24.1l1,.5c-6.3,13-5.8,18.8-4.8,23.6Z"/><path class="cls-4" d="M75.5,101.9c-5.8,10.1-7.2,17.8-7.7,24.1l-1.4-.5a67.75,67.75,0,0,1,8.2-24.1ZM67.8,126c-1,6.3-1.9,11.1-7.7,13.5l-.5-1c5.3-2.4,5.8-6.7,6.7-13Z"/><path class="cls-3" d="M83.2,83.2l-1.9-25c22.6-16.4,8.7-26,25-31.3C95.7,38.5,109.7,38.5,97.2,63"/><path class="cls-4" d="M82.3,83.2,80.9,58.7l1-.5,1.9,25ZM80.8,58.6v-.5h.5Zm0-.4c12-8.7,14-15.4,14.9-20.7l1.4.5c-1.4,5.3-3.4,12-15.4,20.7ZM95.7,37.5c1.4-4.8,2.4-8.7,10.1-11.1l.5,1c-7.2,2.4-8.2,5.8-9.1,10.6Zm10.1-11.1,2.4-.5-1.4,1.4-.5-.5Zm1,1C102,32.7,102,35.1,103,39l-1.4.5c-.5-4.3-1-7.2,4.3-13ZM103,38.9c.5,4.8,1.4,11.1-5.3,24.5l-1-.5c6.3-13,5.8-19.2,4.8-23.6Z"/><path class="cls-4" d="M90.4,63.9a65.34,65.34,0,0,0,8.2-23.6h1a63.86,63.86,0,0,1-8.2,24Zm8.2-23.5c1-6.7,1.4-11.1,7.2-14l.5,1c-5.3,2.4-5.8,6.7-6.7,13Z"/><path class="cls-3" d="M83.2,83.2l-25,1.4c-16.4-22.6-26-8.7-31.3-25C38.4,70.7,38,56.7,63,68.7"/><path class="cls-4" d="M83.2,83.6l-25,1.9V84.1l24.5-1.4Zm-25,2h0l-.5-.5.5-.5Zm-.5-.5c-8.2-12-14.9-13.5-20.2-14.9v-1c5.8,1.4,12.5,2.9,21.2,15.4ZM37.5,70.2c-4.8-1.4-8.7-2.4-11.1-10.1l1-.5c2.4,7.2,5.8,8.2,10.1,9.6Zm-11-10.1-1-1.9,1.9,1.4h-.5Zm.9-.5c5.3,4.8,7.7,4.3,11.5,3.8l.5,1c-4.3.5-7.2,1-13-4.3ZM39,63.4c4.8-1,11.1-1.9,24.5,4.8l-1,1c-13-6.3-18.8-5.3-23.1-4.8Z"/><path class="cls-4" d="M64,75.9c-10.1-6.3-17.8-7.2-23.6-8.2V66.3A58.49,58.49,0,0,1,64.5,75ZM40.4,67.8c-6.7-1-11.1-1.9-14-7.7l1-.5c2.4,5.3,6.7,6.3,13,6.7Z"/><path class="cls-3" d="M83.2,83.2l24.5-1.9c16.4,22.6,26,9.1,31.3,25-11.5-10.6-11.1,3.4-36.1-9.1"/><path class="cls-4" d="M82.7,82.7l25-1.9v1L83.2,83.7Zm25.1-1.9h.5l-.5.5Zm.4,0c8.2,12,14.9,13.9,20.2,15.4v1c-5.8-1.4-12.5-3.4-21.2-15.4Zm20.3,15.3c4.8,1,8.7,1.9,11.1,10.1h-1c-2.4-7.2-5.8-8.2-10.1-9.1Zm11,10.2,1,1.9-1.9-1.4.5-.5Zm-.9.4c-4.8-4.8-7.7-4.3-11.5-3.9l-.5-1c4.3-1,7.2-1.4,13,3.8ZM127,102.9c-4.8.5-11.1,1.4-24.1-5.3l.5-1c13,6.7,18.8,5.8,23.1,5.3Z"/><path class="cls-4" d="M102,90.4a64.22,64.22,0,0,0,24.1,8.2l-.5,1c-5.8-1-14-1.9-24.1-8.2Zm24,8.2c6.3,1,10.6,1.4,13.5,7.7l-1,.5c-2.4-5.8-6.7-6.3-13-7.2Z"/><path class="cls-3" d="M83.2,83.2,66.8,102c-27.9-4.8-25,12-39.9,4.3,15.9-.5,5.8-10.1,31.7-19.2"/><path class="cls-4" d="M83.2,83.2,67.3,102l-1-.5L82.6,82.7ZM67.4,101.9l-.5.5v-.5Zm-.5.5c-14.4-2.4-20.7,1-25,3.9l-1-1c4.8-2.9,11.1-6.7,26-4.3Zm-25,3.9c-4.3,2.4-7.7,4.3-15.4.5l.5-1c7.2,3.4,10.1,1.9,14-.5Zm-15.4.4-1.9-1H27v.5Zm.4-.9c7.2-.5,8.7-2.4,11.1-5.8l1,1c-2.4,3.4-4.3,5.8-12,5.8v-1ZM38,100c2.9-3.8,6.7-8.7,20.7-13.5l.5,1C45.2,92.3,41.4,97.1,39,101Z"/><path class="cls-4" d="M64.5,91.3C53,94.2,46.7,99,41.9,102.4l-.5-1C46.2,98,52.5,93.2,64,90.3ZM41.9,102.4c-5.3,3.9-8.7,6.7-14.9,4.3v-1c5.8,1.9,9.1-.5,14.4-4.3Z"/><path class="cls-3" d="M83.2,83.2,99.1,64.4c27.9,4.3,25-12.5,39.9-4.8-15.9.5-5.8,10.6-31.8,19.2"/><path class="cls-4" d="M82.7,82.7,98.6,63.9l1,1L83.2,83.2ZM98.6,63.9h.5v.5Zm.5,0c14.4,2.4,20.7-1.4,25-3.8l1,1c-4.8,2.9-11.1,6.3-26,3.8Zm25-3.8c4.8-2.9,7.7-4.3,15.4-1l-.5,1c-7.2-3.4-10.1-1.4-14,1Zm15.4-1,1.9,1-2.4.5v-1Zm-.5,1.5c-7.2,0-8.7,2.4-11.1,5.3l-1-.5c2.9-3.4,4.3-5.8,12-6.3v1.5Zm-11,5.2c-2.9,3.8-6.7,8.7-20.7,13.5l-.5-1c14-4.3,17.8-9.6,20.2-13Z"/><path class="cls-4" d="M101.5,74.5a48.74,48.74,0,0,0,22.6-11.1l.5,1c-4.8,3.8-11.1,8.7-22.6,11.5Zm22.6-11.1c5.3-3.8,9.1-6.3,14.9-4.3v1c-5.8-1.9-9.1,1-14.4,4.3Z"/><path class="cls-3" d="M83.2,83.2,64.4,66.8c4.3-27.9-12.5-25-4.8-39.9.5,15.9,10.6,5.8,19.2,31.8"/><path class="cls-4" d="M82.7,83.6,64,67.3l1-1L83.3,82.7ZM64,67.3h0v-.5h.5Zm0-.5c1.9-14.4-1.4-20.7-3.8-25l1-.5c2.4,4.8,6.3,10.6,3.8,25.5Zm-3.9-25c-2.9-4.3-4.8-7.7-1-14.9l1,.5c-3.4,6.7-1.4,9.6,1,14Zm-.9-14.9,1-1.9v1.9h-1Zm.9,0c.5,7.2,2.4,8.7,5.8,11.1l-.5,1c-3.4-2.4-5.8-4.3-6.3-12h1ZM65.9,38c3.8,2.9,8.7,6.7,13.5,20.7l-1,.5c-4.8-13.9-9.6-17.3-13-20.2Z"/><path class="cls-4" d="M74.6,64.4A48.74,48.74,0,0,0,63.5,41.8l1-.5c3.8,4.8,8.7,11.1,11.5,23.1ZM63.5,41.8c-3.9-5.3-6.3-8.7-4.3-14.9h1c-1.9,5.8.5,9.1,4.3,14.4Z"/><path class="cls-3" d="M83.2,83.2l18.3,15.9c-4.3,27.9,12.5,25,4.8,39.9-.5-15.4-10.6-5.3-19.2-31.8"/><path class="cls-4" d="M83.2,82.7,102,98.6l-.5,1L82.7,83.7ZM102,98.6l.5.5-.5.5-.5-.5Zm0,.9c-1.9,14.4,1.4,20.2,3.8,25l-1,.5c-2.4-4.8-6.3-11.1-3.8-26Zm3.8,25c2.9,4.3,4.8,7.7,1,14.9l-1-.5c3.4-6.7,1.4-10.1-1-13.9Zm1,14.9-1,1.9v-2.4h.5Zm-1-.4c-.5-6.7-2.4-8.7-5.8-11.1l.5-.5c3.4,2.4,5.8,3.8,6.3,11.5h-1Zm-5.7-11.1c-3.8-2.4-8.7-6.3-13.5-20.7h1c4.8,13.5,9.6,17.3,13,20.2Z"/><path class="cls-4" d="M91.4,101.4c2.9,11.6,7.2,17.8,11.1,22.6l-1,1c-3.8-5.3-8.7-11.5-11.1-23.1Zm11.1,22.7c3.8,5.3,6.3,9.1,4.3,15.4l-1-.5c1.9-5.8-.5-9.1-4.3-13.9Z"/><polyline class="cls-3" points="83.2 83.2 93.8 83.2 83.2 143.8 72.2 83.2 83.2 83.2 83.2 143.8"/><path class="cls-4" d="M83.2,82.7H93.8v1H83.2Zm10.6,0h1v.5h-1Zm1,.5L83.7,143.8H82.3L93.4,83.2ZM83.7,143.8l-.5,2.9-1-2.9h1.5Zm-1.4,0L71.2,83.2h1.4l11.1,60.6ZM71.2,82.7h1v.5h-1Zm1,0H83.3v1H72.2Zm11,0h.5v.5h-.5Zm.5,61.1H82.3V83.2h1.4Z"/><polyline class="cls-3" points="83.2 83.2 72.2 83.2 83.2 22.1 93.8 83.2 83.2 83.2 83.2 22.1"/><path class="cls-4" d="M83.2,83.6h-11v-1H83.3v1Zm-11,0h-1v-.5h1Zm-1-.4L82.3,22.1l1.4.5L72.6,83.2ZM82.3,22.1l1-2.9.5,2.9H82.3Zm1.4,0L94.8,83.2H93.4L82.3,22.6ZM94.8,83.6h-1v-.5h1Zm-1,0H83.2v-1H93.8Zm-10.6,0h-1v-.5h1Zm-.9-61.5h1.4V83.2H82.3Z"/><polyline class="cls-3" points="83.2 83.2 83.2 94.2 22.1 83.2 83.2 72.1 83.2 83.2 22.1 83.2"/><path class="cls-4" d="M83.7,94.2H82.3V83.1h1.4Zm0,0v.5h-1l.5-.5Zm-1,.5L22.1,83.6l.5-1L83.2,93.7ZM22.1,83.6l-2.9-.5,2.9-.5v1Zm0-.9L82.7,71.6l.5,1L22.6,83.7ZM82.7,71.6l1-.5v1h-.5Zm1,11.6H82.3V72.1h1.4Zm0,.4h-.5v-.5h.5Zm-.5,0H22.1v-1H83.2Z"/><polyline class="cls-3" points="83.2 83.2 83.2 72.1 143.8 83.2 83.2 94.2 83.2 83.2 143.8 83.2"/><path class="cls-4" d="M82.3,72.1h1.4V83.2H82.3Zm0,0v-1l1,.5v.5Zm.9-.5,60.6,11.1-.5,1L82.7,72.6Zm60.6,11.1,2.9.5-2.9.5v-1Zm0,.9L83.2,94.7l-.5-1,60.6-11.1ZM83.2,94.7h-1v-.5h1Zm-.9-11.5h1.4V94.3H82.3Zm0-.5h1v.5h-1Zm.9,0h60.6v1H83.2Z"/><polyline class="cls-3" points="83.2 83.2 90.9 90.9 39.9 126 75.1 75 83.2 83.2 39.9 126"/><path class="cls-4" d="M83.2,82.7l8.2,7.7-1,1-7.7-7.7Zm8.2,7.7.5.5-1,.5v-.5Zm-.5.9L40.4,126.4l-.5-1L90.4,90.3ZM40.4,126.5,38,128.4l1.4-2.9.5.5Zm-1-1L74.5,75l1,.5-35.1,51ZM74.6,75l.5-.5.5.5h-1Zm.9,0,7.7,7.7-.5,1-8.2-8.2Zm7.7,7.7.5.5-.5.5v-1Zm0,.9L40.4,126.4l-.5-1L82.7,82.6Z"/><polyline class="cls-3" points="83.2 83.2 75.1 75 126 39.9 90.9 90.9 83.2 83.2 126 39.9"/><path class="cls-4" d="M82.7,83.6l-8.2-8.2,1-.5,7.7,7.7Zm-8.1-8.1V75h.5Zm.5-.5,50.5-35.6.5,1L75.6,75.5Zm50.5-35.6L128,38l-1.4,2.4-.5-.5Zm.9,1-35.1,51-1-1,35.1-50.5ZM91.4,91.3l-.5.5-.5-.5.5-.5Zm-1,0-7.7-7.7.5-1,8.2,7.7Zm-7.7-7.7-.5-.5.5-.5.5.5Zm0-.9,42.8-42.8,1,.5L83.2,83.7Z"/><polyline class="cls-3" points="83.2 83.2 75.1 90.9 39.9 39.9 90.9 75 83.2 83.2 39.9 39.9"/><path class="cls-4" d="M83.2,83.6l-7.7,7.7-1-1,8.2-7.7Zm-7.7,7.7-.5.5-.5-.5.5-.5Zm-.9,0-35.1-51,1-.5L75.6,90.3ZM39.4,40.4,38,38l2.4,1.4-.5.5Zm1-1L90.9,75l-.5.5L39.9,40.4ZM90.9,75h1l-.5.5Zm.5.5-8.2,8.2-.5-1L90.4,75Zm-8.2,8.1h-.5l.5-.5Zm-.5,0L39.9,40.3l.5-.5L83.2,82.6Z"/><polyline class="cls-3" points="83.2 83.2 90.9 75 126 126 75.1 90.9 83.2 83.2 126 126"/><path class="cls-4" d="M82.7,82.7,90.4,75l1,.5-8.2,8.2ZM90.4,75l.5-.5.5.5h-1Zm1,0,35.1,50.5-1,1-35.1-51Zm35.1,50.5,1.4,2.9-2.4-1.9.5-.5Zm-.9,1L75.1,91.3l.5-1,50.5,35.1ZM75.1,91.3l-.5-.5v-.5l.5.5Zm-.5-.9,8.2-7.7.5,1-7.7,7.7Zm8.1-7.7.5-.5v1Zm.5,0,43.3,42.8-1,1L82.7,83.7Z"/><path class="cls-3" d="M103.4,83.2A20,20,0,0,0,83.2,63c-11.5,0-20.7,8.7-20.7,20.2a20.45,20.45,0,0,0,40.9,0"/><path class="cls-4" d="M102.5,83.2c0-5.8-1.9-10.6-5.8-13.9l1-1A21.18,21.18,0,0,1,104,83.2Zm-5.8-14a17.76,17.76,0,0,0-13.5-5.8V62a20.51,20.51,0,0,1,14.4,6.3ZM83.2,63.4c-5.8,0-10.6,1.9-14,5.8l-1-1a21.37,21.37,0,0,1,14.9-6.3v1.5ZM69.3,69.2c-3.8,3.4-5.8,8.2-5.8,13.9H62.1a20.77,20.77,0,0,1,6.3-14.9Zm-5.8,14a18.89,18.89,0,0,0,5.8,13.9l-1,.5A20.2,20.2,0,0,1,62,83.2Zm5.8,13.9a19.58,19.58,0,0,0,14,5.8v1a20.77,20.77,0,0,1-14.9-6.3Zm13.9,5.8a19.3,19.3,0,0,0,13.5-5.8l1,.5a21.13,21.13,0,0,1-14.4,6.3v-1Zm13.5-5.8a19.45,19.45,0,0,0,5.8-13.9h1.4a19.64,19.64,0,0,1-6.3,14.4Z"/><path class="cls-5" d="M97.7,75c-1,1.4-1.9-1-6.3-1-4.8,0-5.3,2.4-6.3,1.9-.5-.5,3.9-3.8,5.3-3.8,1.5-.5,5.8,1,7.3,2.9"/><path class="cls-5" d="M92.4,76.4c1.4,1.4.5,3.8-1,3.8s-3.8-2.4-2.4-3.8"/><path class="cls-5" d="M86.6,78.4c0-2.4,1.9-2.9,4.8-2.9s4.3,2.4,5.3,2.9c-1,0-2.4-1.9-5.3-1.9s-2.9-.1-4.8,1.9"/><path class="cls-5" d="M87.1,78.8c.5-1,1.4,1,3.8,1a6.93,6.93,0,0,0,4.3-1.4c1-1-1.9,2.4-3.8,2.4s-4.8-1.5-4.3-2"/><path class="cls-5" d="M93.3,79.8c2.4-1,1-2.9,0-3.4.5.5,2,2.4,0,3.4"/><path class="cls-5" d="M83.2,90.9c1,0,1.4-.5,2.9-.5s4.8,2.4,6.7,1.4c-4.3,1.9-2.4.5-9.6.5h-1"/><path class="cls-5" d="M93.8,93.7a34.33,34.33,0,0,0-2.4-3.4,5.39,5.39,0,0,1,2.4,3.4"/><path class="cls-5" d="M83.2,95.2c4.3,0,3.9-1,9.6-3.4-4.3.5-5.3,1.9-9.6,1.9h-1"/><path class="cls-5" d="M83.2,88.5c1,0,1.4-1,2.9-1a6.93,6.93,0,0,1,4.3,1.4c.5,0-.5-1.4-1.9-1.4-1.4-.5-1-2.9-2.4-3.4,0,1,.5,1,.5,1.9s-1.4,1-1.9,0c.5,1.4-1,1.4-1.4,1.4"/><path class="cls-5" d="M68.3,75c1,1.4,1.9-1,6.3-1,4.8,0,5.3,2.4,6.3,1.9.5-.5-3.8-3.8-5.3-3.8-1.5-.5-5.8,1-7.3,2.9"/><path class="cls-5" d="M73.6,76.4c-1.4,1.4-.5,3.8,1,3.8s3.8-2.4,2.4-3.8"/><path class="cls-5" d="M79.4,78.4c0-2.4-1.9-2.9-4.8-2.9s-4.3,2.4-5.3,2.9c1.4,0,2.4-1.9,5.3-1.9s2.9-.1,4.8,1.9"/><path class="cls-5" d="M78.9,78.8c-.5-1-1.4,1-3.8,1a6.93,6.93,0,0,1-4.3-1.4c-1-1,1.9,2.4,3.9,2.4,2.3,0,4.7-1.5,4.2-2"/><path class="cls-5" d="M72.6,79.8c-2.4-1-1-2.9,0-3.4-.4.5-1.9,2.4,0,3.4"/><path class="cls-5" d="M83.2,90.9c-1.4,0-1.9-.5-3.4-.5s-4.8,2.4-6.7,1.4c4.3,1.9,2.4.5,10.1.5h.5"/><path class="cls-5" d="M72.2,93.7a22.33,22.33,0,0,0,2.4-3.4c-1.5,1.5-2,2-2.4,3.4"/><path class="cls-5" d="M83.2,95.2c-4.8,0-3.8-1-10.1-3.4,4.3.5,5.3,1.9,10.1,1.9h.5"/><path class="cls-5" d="M83.2,88.5c-1.4,0-1.9-1-3.4-1a6.93,6.93,0,0,0-4.3,1.4c-.5,0,.5-1.4,1.9-1.4,1.4-.5,1-2.9,2.4-3.4,0,1-.5,1-.5,1.9s1.4,1,1.9,0c-.5,1.4,1,1.4,1.9,1.4"/><path class="cls-5" d="M83.2,97.1c-1,0-3.4.5,0,.5,2.9,0,.5-.5,0-.5"/></g></g></svg>