<svg xmlns="http://www.w3.org/2000/svg" viewBox="0 0 512 298.7"><defs><style>.cls-1{fill:#d30025;}.cls-2{fill:#fff;}</style></defs><g id="Layer_2" data-name="Layer 2"><g id="Layer_1-2" data-name="Layer 1"><rect class="cls-1" width="512" height="298.7"/><path class="cls-2" d="M256,74.6a74.7,74.7,0,1,1-74.7,74.7A74.71,74.71,0,0,1,256,74.6"/><path class="cls-1" d="M256,93.3a56,56,0,1,1-56,56,56,56,0,0,1,56-56"/><path class="cls-2" d="M270.9,104.5a44.8,44.8,0,1,1-44.8,44.8,44.85,44.85,0,0,1,44.8-44.8"/><polyline class="cls-1" points="237.3 149.3 269.3 159.7 274.5 143.7"/><polyline class="cls-1" points="237.3 149.3 269.3 138.9 274.5 154.9"/><polyline class="cls-1" points="260.6 117.3 260.6 150.9 277.3 150.9"/><polyline class="cls-1" points="260.6 117.3 280.3 144.5 266.7 154.4"/><polyline class="cls-1" points="260.6 181.3 280.3 154.1 266.7 144.2"/><polyline class="cls-1" points="260.6 181.3 260.6 147.7 277.3 147.7"/><polyline class="cls-1" points="298.1 129.5 266.2 139.9 271.3 155.9"/><polyline class="cls-1" points="298.1 129.5 278.4 156.7 264.8 146.9"/><polyline class="cls-1" points="298.1 169.1 278.4 141.9 264.8 151.7"/><polyline class="cls-1" points="298.1 169.1 266.2 158.7 271.3 142.7"/></g></g></svg>