<svg xmlns="http://www.w3.org/2000/svg" viewBox="0 0 512 298.7"><defs><style>.cls-1{fill:#eed12f;}.cls-2{fill:#242ea7;}.cls-3{fill:#bd0034;}.cls-4{fill:#fff;}</style></defs><g id="Layer_2" data-name="Layer 2"><g id="Layer_1-2" data-name="Layer 1"><rect class="cls-1" width="512" height="99.6"/><rect class="cls-2" y="99.5" width="512" height="99.6"/><rect class="cls-3" y="199.1" width="512" height="99.6"/><polygon class="cls-4" points="233.7 135 237.7 106.6 251.1 131.9 225.4 119.4 253.6 114.4 233.7 135"/><polygon class="cls-4" points="260.9 131.9 274.3 106.6 278.3 135 258.4 114.4 286.6 119.4 260.9 131.9"/><polygon class="cls-4" points="209.3 147.1 203.3 119.1 224.6 138.3 196.1 135.3 220.9 121 209.3 147.1"/><polygon class="cls-4" points="287.4 138.3 308.7 119.1 302.7 147.1 291.1 121 315.9 135.3 287.4 138.3"/><polygon class="cls-4" points="190.5 166.9 175.3 142.7 201.8 153.4 174.1 160.3 192.5 138.4 190.5 166.9"/><polygon class="cls-4" points="310.2 153.4 336.7 142.7 321.5 166.9 319.5 138.4 337.9 160.3 310.2 153.4"/><polygon class="cls-4" points="179.5 192 157 174.4 185.6 175.4 161.9 191.4 171.7 164.5 179.5 192"/><polygon class="cls-4" points="326.4 175.4 355 174.4 332.5 192 340.3 164.5 350.1 191.4 326.4 175.4"/></g></g></svg>