<svg xmlns="http://www.w3.org/2000/svg" width="128.52" height="112.899" viewBox="0 0 128.52 112.899">
  <g id="hands-and-gestures" transform="translate(0 -30.175)">
    <g id="XMLID_218_" transform="translate(24.228 30.175)">
      <g id="Group_20" data-name="Group 20" transform="translate(0 0)">
        <path id="Path_243" data-name="Path 243" d="M197.892,81.376a10.18,10.18,0,0,1-5.638,9.111,9.5,9.5,0,0,1,2.878,3.3A9.456,9.456,0,0,1,190.158,107a8.789,8.789,0,0,1-4.028,15.078.6.6,0,0,0-.468.59v.016a.614.614,0,0,0,.324.536,8.787,8.787,0,0,1,4.553,7.54,8.915,8.915,0,0,1-8.979,8.951H129.022a13.587,13.587,0,0,1-6.9-1.884l-5.436-3.21L93.6,127.782V94.28L116.686,71.2l3.554-7.483a16.533,16.533,0,0,1,8.467-8.122l2.707-1.149,16.5-9.611L152.3,34.547a7.189,7.189,0,0,1,6.613-4.372h.023a10.445,10.445,0,0,1,9.66,6.474,12.566,12.566,0,0,1,.942,4.768V52.764a24.251,24.251,0,0,1-2.195,10.084l-2.49,5.456a2.042,2.042,0,0,0,1.856,2.891h21a10.181,10.181,0,0,1,10.183,10.18Z" transform="translate(-93.6 -30.175)" fill="#fafafa"/>
      </g>
    </g>
    <g id="Group_21" data-name="Group 21" transform="translate(24.228 93.207)">
      <path id="Path_244" data-name="Path 244" d="M186.74,304.173a9.064,9.064,0,0,1-4.107.987H130.1a13.587,13.587,0,0,1-6.9-1.884l-5.436-3.21-23.086-6.839V273.69L93.6,274.763v33.5l23.086,6.839,5.436,3.21a13.587,13.587,0,0,0,6.9,1.884H181.56a8.915,8.915,0,0,0,8.979-8.951A8.776,8.776,0,0,0,186.74,304.173Z" transform="translate(-93.6 -273.69)" fill="#f0edea"/>
    </g>
    <g id="Group_24" data-name="Group 24" transform="translate(0 61.616)">
      <g id="XMLID_215_">
        <g id="Group_23" data-name="Group 23">
          <path id="Path_245" data-name="Path 245" d="M112.346,151.645h-5.236l-9.363,5.5v71.423l9.363,4.532h5.236a7.285,7.285,0,0,0,7.286-7.284v-66.89a7.285,7.285,0,0,0-7.286-7.284Z" transform="translate(-72.445 -151.645)" fill="#f6c358"/>
          <g id="Group_22" data-name="Group 22" transform="translate(0 0)">
            <path id="Path_246" data-name="Path 246" d="M112.346,378.264h-14.6v12.869l9.363,4.532h5.236a7.285,7.285,0,0,0,7.286-7.284v-17.4A7.285,7.285,0,0,1,112.346,378.264Z" transform="translate(-72.445 -314.207)" fill="#f6c358"/>
            <path id="Path_247" data-name="Path 247" d="M34.664,151.645V233.1H3.11A3.11,3.11,0,0,1,0,229.992V154.755a3.11,3.11,0,0,1,3.11-3.11Z" transform="translate(0 -151.645)" fill="#f6c358"/>
          </g>
        </g>
      </g>
    </g>
    <path id="Path_248" data-name="Path 248" d="M3.11,390.214A3.11,3.11,0,0,1,0,387.1v17.4a3.11,3.11,0,0,0,3.11,3.11H34.664v-17.4Z" transform="translate(0 -264.541)" fill="#f6c358"/>
  </g>
</svg>
